<?xml version="1.0" encoding="utf-8"?>
<!-- Generator: Adobe Illustrator 27.2.0, SVG Export Plug-In . SVG Version: 6.00 Build 0)  -->
<svg version="1.0" id="exportSvg" xmlns="http://www.w3.org/2000/svg" xmlns:xlink="http://www.w3.org/1999/xlink" x="0px" y="0px"
	 viewBox="0 0 360 180" style="enable-background:new 0 0 360 180;" xml:space="preserve">
<style type="text/css">
	.st0{fill-opacity:0.1;stroke:#A5A5A5;stroke-width:0.3;stroke-linecap:round;stroke-linejoin:bevel;stroke-miterlimit:10;}
	.st1{enable-background:new    ;}
	.st2{opacity:0.6;}
	.st3{fill:none;stroke:#000000;stroke-miterlimit:10;}
	.st4{fill:none;stroke:#000000;stroke-miterlimit:10;stroke-dasharray:2.9661,0.9887;}
</style>
<path id="m4" class="st0" d="M94.3,76.4l0.8,1.1l0.5-0.1l0.5,0.4l0.7-0.2l0.4,0.2v0l-0.4,1.5l0.1,0.3l-1,0.3l-0.8,1.4l-0.1,1
	l-0.6,0.4l0.1,1.3h0l0,0.2L94,84.9l0.2,0.8l-0.3,1l-0.2,0.1v0l-0.5,0.2l-1.7,1.8l-0.5,3.4L91,93l0.2,0.1l-0.4,0.2l0,0.3l-0.7,0.2
	L90,93.4l-0.4,0.2l-0.4-0.3l-0.4,0.3l-1,0.2l0.1,0.2l-0.5-0.2v0.2l-0.2-0.2v0.3l-0.3,0l-0.1-0.3l-0.3,0.1l-0.2,0.7l-1.5-0.4
	l-0.2-0.6L84,93.3l-0.8-2.6l-1,0l-0.3-0.9L80.7,89l-0.3,0.6l-1.5-0.1l0.1,0.2l-0.2,0l-0.1,0.6l-1-0.4l-0.8,0.5l-0.3-0.1L76,91.1
	L75.7,91l-0.1-0.5l-0.4-0.2l-0.8-0.2l-0.8,0.3l-0.5-0.9l-0.8,0.2l-0.3-0.3l0-0.4l-2.9,0.4l-1,0.6l-0.6-0.2l-0.2,0.4l-0.5-0.1l0.1,1
	l-1.3,1.5l-0.2,0.9l0.2,0.3l-1.1,1.5l-0.2,0.6l-0.6,0.2l-0.6-0.4l-0.2,0.4l-0.4,0l0,0.2l-1-0.1V97l-1,0.8l0.1,0.2l-0.3,0.2L59.8,98
	l-0.7,0.2L58.6,99L58,99.2l0.2-0.5L58,98.3l-0.6-0.1l0-0.2l-0.2,0.3l-0.3-0.2l-0.4,0.4l-0.2-0.3l0.3-0.4l-0.1-0.3l-0.2,0.1l-0.6-0.6
	l-0.4,0.4L55,97.4l-0.3-0.8l-0.6-0.2l-0.8,0.8l-0.8,0.2l0,0.4l-0.4,0.3l0.1,0.6l-0.2,0.2l0,0.7l-0.4,0.6l-0.4-0.4l-0.6,0.4l-0.2-0.2
	l-1.3,0.1l-0.6,0.4l-0.2,0.4l-1.6-0.4l-0.4,0.2l-0.4-0.2l-0.4,0.3l-0.6-0.4l-0.4,0.5l-2.2,0.1l-0.2,1.2l-0.9,0.4l0.3,0.4l-0.3,1.4
	l0.1,0.5l0.8,0.4l0.2,0.5l0.4,0.2L41,106l-0.3,0.6l-1,0.5l-1.6-0.1l-0.7,0.3l-0.6-0.3l-2.2,0.7l-3.7-0.6l-0.7,0.2l-0.4-0.2l-1,0.4
	h-1.8l-1-0.4l-1.5-1.5l-0.6,0.2l-0.6-1.2l-1.1-0.4l-0.3-0.8l-1.4-1.6l-1.1-0.1l-0.3-0.6l-1.2,0.4l-0.7-0.5l-0.4,0.2l-0.3-0.2
	l0.3-0.3l-0.3-0.3l0.3-0.2l-0.2-0.4l0.3-0.3l-0.5-1l-0.4,0.1l-0.7-0.7l-0.4-1.4l0.2-0.7l-0.6-0.2l-0.4-0.8l0.2-0.4l-0.6-0.2l0.1-0.2
	l-0.5,0L13,93.5l0.2,0l0.2-0.8L13.2,92l0.6-0.6l0.1-0.5l0.3,0.1l0-0.6h0.3l0.2-0.5l-0.3-1.3l0.4-0.6l0.1-0.9l0.4-0.4l0-0.4l0.7-1.3
	l0.7-0.4l0.2-0.5h0l0.2-0.6l0.6-0.2l0.8-0.8l1.7,0.7l0.5,0.7h0.6l0.8-0.7l0.8,0.6l0.2-0.2l0.2,0.4l0.4-0.2l0-0.2l0.5,0.2l0.6-0.7
	l1-0.1l1.1-1.5l1.5,0l0.6-2.1h1.5l0.4-0.4h0l0.6-0.4l0.4-1.3l-0.2-0.4l0.4-0.6L32,75.5l0.4-0.6l-0.1-0.8l0.6-0.4v-0.4l1.7-0.4
	l1.2-0.6l0.6-0.8l-0.2-0.7l0.6,0.1l0.4-0.4l0.2-0.5l0.8-0.7L38,68.7l0.6-0.4l0.4,0l0.3,0.4l1-0.3l1,0.4l0.8-0.6l2,0l0.4,0.3
	l-0.2,1.1l0.4,0.5l-0.3,0.4l0.2,0.4l0.7,0l0.6-0.6l0.5,0.3h0.7l0.6-0.2L47.5,70l0.6-0.4l0.2-1.4l0.6-0.5h1.2l0.1-0.7l0.5-0.2
	l0.1-0.4l0.5-0.1l0.1-0.4h0.3l0.2,0.6l0.8,0.4l0,0.7l0.8,1.9l0.2-0.1l0.2,0.3l0.4-0.2l-0.2,1l1,0.2l0.3,0.3l0.4-0.5l0.7-0.1l0.2,2.1
	L56.4,73l0.4,0.5l-0.4,0.2L56,75l0.5,0.3l0.2-0.2l0.4,0.3l0.4-0.1l0.5-0.4l0-0.4l0.4-0.1l0.8,0.2l1.3,1.2l0.2,0l0.2-1.6l0.7-1.5
	l0.2,0.3l0.2-0.5l0.7-0.6l1.4,0.2l0.2-1.4l0.6,0.1l0.2-0.2l0.1,0.4h0.3l0.2-0.3l0.3,0.2l0-0.5l0.6,0l1.5,0.9l0.4-0.3l0.2-0.6
	l0.5,0.4l0.6-0.4h0.5l0.5,0.4v0.6l0.4,0L71,71.6l0.2,0V72l0.2-0.1l0.4,0.3l0.4-0.3l0.2,0.3l-0.1,0.3l0.5-0.1l0.4,0.6l0.8-0.2l0-0.5
	l0.8-0.8h0.8l0.1-0.2L75,70.6v-0.4l0.9,0l0.2-0.3l0.8,0.8h0.4l0.3-0.8l0.5-0.2l0.1-0.3l0.4,0.3l0.6,0l0.4,0.4l0.4,0l0.4,0.5h0.6
	l0.2-0.4l0.5,0.2l0.1-0.4l0.9,0l0.6-0.3l0.4,0.7l0.9,0l0,0.3l0.6,0.3l0.2,0.6l0.4-0.6l0.6-0.2l0.3,0.5l0.4,0l0.2,0.4l0.9,0l0.3,0.9
	l0.8,0.7l-0.1,1.2l0.3,0.2l1.3,0.3l0.7,0.6l0.5-0.2l0.2,0.2l-0.2,0.5l1.4,0.4l0.1,0v0L94.3,76.4z"/>
<path id="m3" class="st0" d="M92,92.5l0.7,0.3l-0.3,0.6l0.4,0.6l0.7,0.1l-0.1,0.7l1,1.9l1.5-0.4l1.2,1.3l0.2,1.9l1.4,0.3l1.9-0.6
	l1.1,1.5l-0.5,0.9v0.1l-0.2,0.4l0.9,0.8l-0.6,0.9v0l-0.1,0.1l-1.3,0.3l0.3,1.1l-1,0.2l-0.4,1l-1,0.3l-2.3-0.6l-0.3,1.4l-1.6-0.6
	l-1.3,1.5l-0.8,2.3l-0.4-0.1v0l-0.3-0.1l-1.5,1.8l0.1,2.7l-1.5,0.9l-1.1,2.7l0.2,1l-0.6,0.4l-0.3,1.3l-1,0.2l-1.1,1.3l0.5,1.7
	l-1.2,0.7v1.5l-1.2,0.5l-0.5,1.7l0.6,0.9l-0.5,0.6l-1-0.2l0.4,0.7l-0.6,0.8l-0.7-0.3l-0.7,0.4l0.1,0.9l-0.9,1.6l0.9,1.1l-0.3,0.9
	l-1.3,0.1l-0.4,2.1l-1,0.1l-0.7,1.2l-2.8-0.9l-1.5,0.2l-0.4,0.5l0.2,1l-0.6-0.1l-0.2,0.9l-1.1,0.8l-2-1.4l-0.6,1l-1.5-0.6l-1.5,1.1
	l-1-1l-0.7,0.3l-0.4-0.6l-0.6,0.7l-0.6-0.7h-1.2l-1.7,1l-1.7-1.3l-2,0.2L51,144l-0.8-0.1l-1.2,0.7l0.2,0.6l-2.2-0.2l-0.2-0.9h-0.4
	l-0.6,0.8l0.2,0.8l-1,0.1v0.7l-1.5-0.2l-1.3,0.5l-0.2,0.7l-2.2-0.8l-0.6,1.6l-1.5,1.2l-0.5-0.2l-0.6,1.2h0l-1.1-0.7l-0.5,0.5
	l-2.8-0.9l-1,0.6l-1-0.6h-1.5l-0.7,0.6l-0.4-0.9l-2.4-0.6l-1.4-2.1l-3.4-0.2l0.1-0.4h0.2l0.2-0.6l-0.3,0.3l-1.4-0.8l0.6-0.3
	l-0.6-0.1l0.2-0.6h-0.6v-0.5l-0.5,0.1l0.5-0.5l-0.8-0.2l-0.3-1.4l-2.6-1l-1.4-1.2l-0.1-1.2l-0.6-0.8l-1.8-0.4l-0.7-1.5l-2.1-1
	L8.2,133l-1.7-1.5l0.6-1.3l-0.9-0.2l-0.7-1l0.4-1.9l-0.8-0.6l-2,0.4l-0.6-0.3v-0.1l1.3-1.6l1.1-0.4l0.2-1.1l0.8,0.4l2.5-0.1L7.6,123
	l0.8-0.5l-0.9-1l1-0.6l-0.2-0.5l-1,0.2l0.1-1l-0.6-0.2l0.2-1.3l0.9-0.6l-0.8-1.5l0.2-1.3l0.7,0.5l0.2-0.5l1,0.1l1.2-1l-0.2-1l1-0.9
	l-0.7-0.5l-0.2-1.4l-1,0.2l-2.3-1l0.3-0.7l0.4,0.3l1.1-0.9l-0.1-0.6l0.9-0.2l1.7,0.6l0.4,1.2l1.2-0.1l0.5-0.8l0.2,0.7l3.2-0.5
	l-0.6-1.9l0.3-0.3l-0.9-1.2l1.2-0.4v-1.9l1.5-1l2.1,0.6l1.9,2.5l1.2,0.6l0.3,0.9l0.6-0.2l2.5,1.9l4.6-0.4l3.2,0.6l2.1-0.7l2.9,0.2
	l1.5-1.3l1.6-0.2l-1.5-1.4l-0.1-1.9l1-0.3l0.3-1.3h2.1l0.5-0.6l0.6,0.5l1.3-0.4l1.5,0.5l0.8-0.8l1.5,0.2l0.5-0.4l0.4,0.4l0.9-2.7
	l1.5-1l1,1l0.8-0.3l0.7,0.5l-0.1,0.9l1-0.5l0.6,0.2L58,99.1l0.6-0.1l0.5-0.8l1.5-0.2l0.9-1v-0.7l1.1,0.1l0.3-0.6l1.4,0.2l1.3-2.1
	l0.1-1.2l1.3-1.5l0.2-1.1l4.9-1l0.2,0.6l0.9-0.2l0.5,0.9l1.6-0.2l0.9,0.8l1.4-1l1.2,0.4l0.3-1l1.4,0.1l0.2-0.6h0l1.2,0.8l0.3,0.9
	h1.1l0.7,2.7l0.8,0.9l1.7,0.3v-0.6l1.4,0.1l1.4-0.7l1,0.5L92,92.5z"/>
<path id="m2" class="st0" d="M101.2,102.1l0.2-0.5v0l0.5-0.9l-0.9-1.5h-1.4l-0.7,0.6l-1.4-0.3l-0.2-1.9l-0.8-1l-1.2-0.3l-0.7,0.4
	l-1-1.9l0.1-0.7l-1.1-0.6l0.3-0.6l-1.9-0.2l0.5-3.8l2.5-2.1l0.1-1.9l0.6-0.7l-0.2-1.4l0.6-0.5l0.8-2.5l1-0.2l0.2-1.7l0.6-0.3
	l1.2,1.3l1.4-0.3l1,1.1l0.7-0.3l-0.5-1.1l0.4-0.7l-0.9-0.2l-0.6-1l-0.6,0.1l0.1-0.7l-0.6,0.3l0.6-1l-0.5-0.5l0.4-0.2l0.1-2.7
	l-0.7-2.9l-0.8-0.8l9.4-12.9l6-5.3l0.4-1.2l4.2-0.6l1-2.1l0.4-2.1l-0.1-1.6l-0.5-0.3l0.2-0.9l-0.9-0.2l0.1-1h-0.6l-0.3-0.6l0.6-1
	l1.7,0.1l0.6-0.7l-1.4-0.5l-1.3-1.5l-0.1-0.9l-0.6-0.4l-0.1-1.6h-0.6l-0.2-0.6l0.1-1.4l-1.8-1.2l-0.6-1.9l-0.7,0.2l-0.2-1l1-2.1
	l-0.8-0.6l0.3-0.9l-0.8-0.4l0.9-0.2l-0.6-0.9l0.4-0.7l-0.9-1l1-0.7l1.6-0.4l0.1,0.6l1.8,0.2l-0.4,1l1.6,0.2l1.9-2.1l2.9-1.9
	l-0.3-1.5l1.4-1.7l3.5-0.5l1.9,0.6l0.7-0.7l0.6,0.3l1-0.5l0.2,0.6l3.7-1.9h1.1l2.2,1.1h1.5l0.2-0.5l2.8,0.6l1-0.2l0.1-0.6l0.6,0.6
	l1.4,0.2l1.7-0.3l1.9,1.5l3.5-0.2v1l1.1,0.9h1l0.7-0.7l1.9,0.3l1,1.4l0.8-0.2l1.4,0.7l0.7-0.7l3.1-0.2l0.1,2.6l0.9,0.2l-0.5,1.3
	l2.7-0.1l0.5-0.4l0.7,0.8l0.1-1.1l1.5,0.6l1-0.2l0.6,0.2v0.9l-0.9,1.1l1.2,1l1.5-1.7l-0.5-1.7l0.3-0.3l1.1,0.4l0.1,0.9l0.8-0.4
	l-0.6,0.9l1.6-0.2l1-0.4l0.8-1.5l1.3-0.9v1.5l0.3-0.2l1,1.3v0.7l1.7-1.3l2.7,0.6l-0.3,0.2l0.3-0.1l0.4,2.8l0.8-0.6l0.2,1.1l0.9-3.3
	l1.3-0.7l1.4,0.4l1.7-1.9h0.9l0.5,1.9l0.7,0.1l-0.1,1.8l0.3,0.9l0.6,0.1l0.2,1.8l1.4-0.9l1.1,0.5l0.6-2l0.6,0.5l0.4-0.8l1.5-0.8
	l0.5,0.2v1.5l0.7,0.4l0.2-0.5l1.1,0.3l0.2-0.9l0.5-0.2L206,23l0.8-0.9l2,0.5L209,22l2.5,2.1l0.2,1l-0.6,0.4l1.4,1.3h0.7l-0.2,0.7
	l1.7,0.4l0.7-0.6l-0.4-0.6l0.9-0.5l0.1-1l-0.5-1.3L215,24l-0.1-0.6l0.6-0.5l-0.8-0.9l0.2-0.9l-0.6,0.1l-0.2-0.6l0.4-0.2l-0.7-0.4
	l1.1-1.1l-0.3-1.4l1-0.2l0.4-1.1l-0.6-0.2l0.8-0.4l-0.2-0.6l1.4-2.1l0.8,0.1v-1.1l1.2-0.5l0.1-0.8l0.7-0.3l0.1-1.8l0.6,0.3l2.2-0.6
	l1.6,1.5l0.7-0.2l1.1-1.9l0.9-0.2l0.6,0.6h2.7l0.8,0.5l2.3-0.3l1.2,0.8l-0.6,0.8l2.7,0.2l0.7-0.9l0.8,0.1l2.4-1.9l-0.6-0.2l0.4-0.8
	l-0.3-1l1.1-0.5l-0.8-1.7l0.4-0.6l1.7,0.6l0.9-0.2l2.2,1.9l0.8-0.5l0.9,0.2l0.2-0.5l0.7,0.1l0.4,0.7l0.7-0.7l0.6,0.1l0.9-1.4
	l0.2,0.6l1-1l0.5,0.1l0.3-0.9l1.7,0.7l1.1-0.6l1,0.7l0.1-0.6l0.8,0.2L257.5,3l1.2,0.2l-0.3-0.6L259,3l1.5-1.1l2.3-0.1v1l1.2,0.3
	l0.2,1.4l1.7,1.1l0.1,0.8l0.9,0.6l-0.8,1.6l0.6,0.7l-0.1,0.9h0.6v0.8l0.8,0.1l0.4,1.1l0.6,0.2l-0.2,0.7l0.8-0.2l1.5,1.3l0.5,2.1
	l-0.5,0.6l-1.5-0.1l-3.3,1.3l1.3,0.5l0.2,1.1l1,0.5l0.2,1l0.7,0.3l-1.3,2.4l1.7,1.5l-0.8,0.4l-0.7,1.7l1,0.6l1.1-0.8l2.9,0.9
	l0.3-0.5l0.9,0.2l0.1,1.2l0.6,0.6l1-0.3l0.7,0.4l0.4-0.7l0.6,0.2l1-1l1,0.7l0.4-0.6l1.2,0.2l-0.4,1.5l0.7,1V32l-0.4,0.1l0.7,0.8
	l1.6-0.7l1.5,0.6l-0.5,1l-0.7-0.2l0.5,1l-0.4,0.6l1.1,0.8l-0.3,1l0.6,0.6l-0.2,1l1.2,0.6l-0.5,2.1l0.6,0.2L287,42l-1.4,0.1l0.5,1.1
	l-0.5,0.6l1.2,2.1l1.6,0.9v1.4l0.6,0.9l1.7-0.1l1.3-1.8l3.5-0.4l1.4,0.4l1.8,2.3l0.2,1l1,0.2l1-1l1.5,1.1l0.7-0.1l-0.2,1l1.2,0.6
	l0.6-1.1l2.6-1.6l4.4-0.5l1.8-1l0.5-0.8l1,0.2l1.4-0.6l-0.3,2l1.6,1.5h0.9l-0.4,2l0.4,1l1.7,2.3l0.6-0.2l1.8,1l1.9,2.4l-0.4,0.2
	l0.2,0.6l1.3-1l0.2,0.5l1.3-1.3l-0.6-2.3l2-0.2l0.5,1.9l1,0.6l0.7-0.3l0.4,0.8l1.9-0.3l0.5,0.5l0.6-1.2l0.4,0.5l-0.3,1.2l1.5,1.3
	l1.6,0.2l0.4,1.7l2-0.5l1.7-1.6l1.5,3l1.4,0.4l1-0.5l2.3,0.6l-0.3,0.4l1,2.3l1.3,0.4l0.9,1h1.3l0.9-0.9l2.7-0.5l0.6,1.1l-1.9,1
	l-0.2,1.5l2.4,2.3l-0.2,1.2l0.6,0.8l-2.9,1.9l-1.3,2.7l-4,0.3l0.1,1.2h1.1l0.3,1.5l0.7,0.7l0.2-0.4l1.3,0.2l1,0.6l0.7-1l0.5,1
	l-1.5,1.8l-2.6-1.1l-0.4,1.7h-0.5l-0.5,1l0.1,1.5l-0.7,1l0.4,0.6l1.6-0.2l0.8,0.6l-0.1,2.2l0.7,0.5l0.7,2.1l-1.5,0.4l-0.1,0.6
	l0.9,0.2l0.2,0.7l1-1l0.5,1.4l-0.2,0.6l-1-0.1l-0.1,1h-0.4l-0.6,2.3l-0.5,0.2l0.7,0.6H350l0.7,1.9l-0.5,1.9l-0.4-0.1l-0.4,1
	l-3.1,0.1l-0.9-0.8l-0.7,0.7l-0.4-1l-3.5,0.6l-1-0.2v-0.4h-3.6l-0.2,1.1h-0.6l-0.2,2.9l-1.5-0.3v0.6h-0.6l-0.2,0.6h-2.3v0.6H329
	l0.1,0.9h-0.6l-0.1,4l-0.9,0.6l-0.3,1.3h1.7l-0.1,1l-1.5,0.6l-0.1,2.3l0.1,0.3l-0.2,0l-1.7,1.8l0.3-1l-0.8-0.6l-0.7,0.4l-2.4-0.4
	l-2.2,0.6l-1.9-0.3l-1.4,1.1l-2.2,3.3l-1.6-1.1l-5.5,2.9l-1,2.7l0.2-1l-1.6-1.2l-4.4,1.2l-1.4,1.4l-0.4,1.1l-1.3-1.3l-4.2,0.3
	l-6.1,4.4l-1.6,1.7l-2.9,4.8l-2.7,1.5l0.6-1.5l2.3-0.9l2.1-3.2l0.1-0.6l-0.6,0.5l-0.6-0.2l0.2-1.9l-1-0.6l-0.4-1l-0.3,0.4l0.6,2.1
	l-1.5,2.1l-1.1,1h-2l-1.2,1.9l1,5.1l1.2,2.8l5.5,8.8l2.7,1.6l2.9-1l1.7-2.7l0.4,0.1l-0.1,1.1l1.9,1l1.9-1.9l2.4-0.4l0.2,0.6h2.8
	l0.6,0.7l0.7-0.4l0.8,1.6l-0.8,0.4l-1.2-0.3l-0.2,1.2l-0.8,0.4l-0.4,2.5l0.5,1.8l-2.6,0.5l-0.6,0.7l-2.6-0.9l-0.8,1l-2.1,0.2
	l-2.1-2.1l-2.9-0.4l-1.5,1l-0.2,0.8l0.6,0.4l-0.9,0.1l-0.2,1.2l-0.6-0.6l-1,0.2l-0.6,0.9l-0.9,0.2l-1.1,2.3l-1.9-1l-0.9,0.5l-2-0.1
	l-3.7,1.6l-1.3,1.5l-1.2,2.6h-0.9l-2.5,2.5l-2.4,0.9l-4.3-0.9l-1-1.5l-0.9,0.2l-2.2-1.8l3-1l-0.9-0.2l0.5-1.4l-0.5-1.8l1.4-1.8
	l0.2-1.2l-1.2-3.9l-2-1.5l-2,0.7l-5.3-4.2l-2.5-0.1l-1,0.8h-1l-1.1-0.4l-0.5-1.5l2.4-2.3l1.6-0.9h1l0.6-1.4l4.6-2.4l-0.2-0.8
	l1.5,0.6l3.1-2.2l0.7,0.3l1.3-0.9l1,0.5l0.1-1.1l1.2-0.3l-1.4-0.6l-1,0.2l0.5-2.9l-0.6-1.2l-1.2,0.5l0.4,0.7l-0.7,0.2l0.1,0.7
	l-1.3-0.2l-1-1l-1,0.2l0.4-0.7l-1.5,0.1l0.2-2.1l-1.6,1.9l-1.5-0.7l-0.1,0.9l-3.7-0.2l-3.9,1.2l-3.6-1l-0.3-1l0.4-0.6l-2-0.1
	l-1.1-1.2l-0.5,0.2l-1.9-1.4l-0.1,0.9l-1.5-0.3l-0.2-0.5l0.5-0.6l2.5-0.2l1.2-1.2l-0.6-0.9l-3.8-1l-0.9,0.4l-0.1,1l-2.6-3.4l1,1
	l2.6-0.2l1.5,0.7l3.7,0.2l3,1l1.2-0.3l0.6-1.4l3.1-2.3l-4.5,1.9l-1.3-1l-1.5,1l-0.4-1l-1.4-0.5l-1.2-2.7l1-3.4l-0.6-0.4l-0.5-0.4
	l0.6-1.2l-1.6-0.3l0.5-1.5l-1.4-2.1l0.2,1.5l0.9,0.6l-0.6,1.8l1.6,0.2l-0.7,1.2l0.4,0.4l0.6-0.2l-0.4,1.6l-1.1,1.1l0.6,1.5l-0.2,2.1
	l-1.1,0.4l-2.1-0.6l-1.1,0.2l-0.2,0.6l-1.3-0.3l1.9-4l-1.6,1.5l-1-1.2l0.9,1.7l-1.3,1.9l-1.1,0.6l-2.7-0.6l-5.4,1.7l-0.5,0.7
	l0.6,1.5l-0.4,1l-0.9,1l-0.9,0.1l0.5,0.9l-2.8,4.7l-4.2,4.8l-1,0.7l-0.2-1.5l-0.5,1.6l-1.9-0.6l-0.2,1.5l-0.2-1l-0.2,0.4l0.2,1.5
	l-0.6-0.8l-1.3,0.6l0.1,0.7l0.9,0.6l-1.9,1.2l-0.7-1.8l0.2-1.8l-0.9-0.8l-0.6,5.5l0.8,0.3l0.9-0.6l-1.5,1.9l0.5,0.8l0.2-0.7l0.8,0.8
	l0.5-0.6l0.2,3l-0.4,1.8l-0.7,0.2l-0.4-2.4l-1.2-1.3l-2-0.8l-2.8,0.2l-4,2.1l-0.3,1.1l-2.2-1.2l0.1,0.8l-0.7,0.4l0.6,0.7l-1,0.4
	l-2.3-0.5l-3.4-1.7l-0.7-2.3l-1-0.6l1.4-1.6l1.7,0.7v0.6l1.4-0.2l-0.3-1.5l0.7-0.2l-0.9-2.2l0.6-1.1l1,0.2l-0.2-0.9l1.9-0.2
	l-0.2-0.8l1.3-0.3l-0.4-2.7l3.2-1l0.4-1L191,143l1.8-2.2l-1.7-1.3l0.7-1.3l-1-3l1.4-0.1l-0.6-0.6l2.7-0.5v-0.6l1-0.3l0.3,1.5
	l-0.6,0.5l0.4,1l-0.6,0.6l0.5,0.2l0.3-0.6l0.9-0.2l-0.2-1l0.6-0.9l0.6,1.7l0.8-1.5l0.8,0.8l-0.2,0.7l1,0.2l0.6,1.3l1.1-0.2l-0.3-1.5
	h1.1l0.1-0.8l1.2,1.6l-0.2,0.2l1.3,0.7l0.6-1h1.8l0.6,0.6l1-0.8l-0.1-0.4l-0.4,0.4l-0.5-0.6l-0.3,0.4l-0.8-0.4l-0.5-1.5l-0.7,0.3
	l-0.9-1l1-0.3l0.4-4.2l-0.6-1.1l0.5-0.5l-0.4-0.2l-0.6,0.5l-0.3-1.5l-1.9,0.6l-0.5-1.5l-1,0.2l-0.1-0.7l-1,0.3l0.5-2.2l0.4-0.1
	l-0.2-1.2l-1.2,0.6l-0.6-1.3l1.3-0.1l-0.4-2.1l0.6-0.5l-0.3-2.5l-1.3,0.3v1.1l-0.9,0.3l-0.6-0.8l0.1-1h-0.9l-0.2-1.6l-1,0.7l-0.1-1
	l-0.7,0.8v-1l-0.5,0.3l0.5-1.4l-0.6,0.2l-0.5-1l0.9-0.3l0.6-1l-0.2-2.3l1.1-1.8l-0.9,0.1l-0.3-0.5l1.3-1.5l-1.2,0.1l-0.4-2.4
	l-1.2,0.2l-0.2,0.9l-1.7-0.8l-0.5,0.4l-0.7-0.8l0.3-0.3l-0.9-0.5l-0.1-2.1l-2.2,0.1l-0.1-0.5l-1.5-0.7l-1,0.6l-0.3,1.9l-0.9-1.1
	l0.1-1.2l-0.6-0.1l-0.6,1l-0.5-0.2l0.8-1l-0.1-1.3l-2,0.9l-0.5-0.2l-0.1-0.9l-1.2,0.6l-0.4-1.9l-1.7-0.2l-1.4-1.9l-1.5-1l-1.9,0.3
	l-0.6-0.5l0.2-0.6l-2,0.9l-0.3,1l-1.9-0.8l-0.5,1.6l-1.4-0.6l-1,0.4l-0.6-1.3l-1.1,0.3l0.6,1l-0.6-0.2l-0.2,0.5l-1.5-0.5l-0.3-0.9
	l-1.5,0.1l-1,0.3l0.8,1.1l0.9,0.2l-0.1,1.1l-0.9-0.6l-0.3,0.2l-0.8-1l0.2,0.7l-1.2,1.1l0.1,0.8l-4.3,1.3l0.1,0.6l-1.8,2.3l-0.4,1.3
	l-4.8,0.5l-1.3,0.7l-2.2-0.2l-4.6,0.8l-1.2,0.4l-1.7,3.1l-0.9,0.2l-0.2,0.5h-2.3l-0.8-2.1l-1.9-0.4l-1.1-2.5l-0.6-0.3l-1.2,0.3
	l-1-0.4l-0.8,1l-2.3,0.6l-1.6-0.4l-1.5-1.1l-2.2,0.8l-0.8-1.2l-2.1,0.1l-2-0.9l-0.5,1.2l-2.3-1.1l-0.9-0.9l-0.1-0.9l-1.2,0.1
	l-0.3-0.5l-0.7,0.6l-0.3,1.9l-1.2,0.3l-1.2-0.6l0.3,1.1l-0.8,0.3l-0.6-0.6v0L101.2,102.1z M205.1,152l-2.7,1.6l5.7-4.5L205.1,152z
	 M238.2,141.8l-8.6-2.4l-0.3-0.6l0.9,0.7l4.8,1.1L238.2,141.8z M251.3,144.5l-6.5-0.8l5.5,0.4L251.3,144.5z"/>
<g id="svg-marker-svg" transform="translate(333, 154)">
	<g id="svg-id-m0-svg" transform="translate(-12.6, -12.6)">
		<path d="M-102.9-94.2c0,2.4-1.9,4.3-4.3,4.3s-4.3-1.9-4.3-4.3s1.9-4.3,4.3-4.3S-102.9-96.6-102.9-94.2z"/>
	</g>
</g>
<g class="st1">
	<path d="M203.7,56.9v7.4c0,0.4,0.1,0.7,0.2,0.8c0.1,0.1,0.5,0.2,1,0.3v0.6h-4.9v-0.6c0.5-0.1,0.8-0.1,1-0.3
		c0.1-0.1,0.2-0.4,0.2-0.8v-7.4c0-0.4-0.1-0.7-0.2-0.8c-0.1-0.1-0.4-0.2-1-0.3v-0.6h4.9v0.6c-0.5,0.1-0.9,0.1-1,0.3
		C203.7,56.2,203.7,56.5,203.7,56.9z M206,59.6l3.2,4.7c0.3,0.4,0.5,0.7,0.7,0.8c0.2,0.1,0.5,0.2,0.8,0.3v0.6h-3.2
		c-0.4-0.4-0.9-0.9-1.3-1.6l-2.4-3.6l3.6-3.8c0.3-0.3,0.4-0.5,0.4-0.7c0-0.1-0.1-0.2-0.2-0.3c-0.2-0.1-0.4-0.1-0.9-0.1v-0.6h3.5v0.6
		c-0.3,0-0.6,0.1-0.7,0.2c-0.2,0.1-0.4,0.2-0.6,0.5L206,59.6z"/>
	<path d="M215,63.5l1.6-4.2c0.1-0.2,0.1-0.4,0.1-0.4c0-0.2-0.1-0.3-0.2-0.3c-0.1-0.1-0.4-0.1-0.8-0.2v-0.5h2.7v0.5
		c-0.3,0.1-0.4,0.1-0.5,0.2s-0.2,0.2-0.2,0.4l-3.4,8.3c-0.3,0.7-0.6,1.2-0.9,1.5c-0.3,0.3-0.7,0.5-1.2,0.5c-0.6,0-1-0.2-1.2-0.7
		v-0.9c0.4,0.1,0.8,0.1,1.1,0.1c0.4,0,0.8-0.1,1-0.2c0.2-0.1,0.4-0.4,0.6-0.8l0.2-0.6l-3.3-7.3c-0.1-0.2-0.2-0.3-0.3-0.4
		s-0.3-0.1-0.5-0.2v-0.5h4.5v0.5c-0.4,0.1-0.7,0.1-0.8,0.2c-0.1,0.1-0.2,0.2-0.2,0.3c0,0.1,0,0.2,0.1,0.4L215,63.5z"/>
	<path d="M222.1,57.7v7.1c0,0.2,0.1,0.4,0.2,0.5c0.1,0.1,0.4,0.1,0.7,0.1v0.5h-4.2v-0.5c0.3,0,0.6-0.1,0.7-0.1
		c0.1-0.1,0.2-0.2,0.2-0.5v-5.3l-0.9-0.5v-0.3l2.9-0.8H222.1z M220.9,56.9c-0.4,0-0.7-0.1-1-0.4c-0.3-0.2-0.4-0.6-0.4-0.9
		s0.1-0.7,0.4-0.9c0.3-0.3,0.6-0.4,1-0.4c0.4,0,0.7,0.1,1,0.4c0.3,0.3,0.4,0.6,0.4,0.9c0,0.4-0.1,0.7-0.4,0.9S221.3,56.9,220.9,56.9
		z"/>
	<path d="M231.8,57.8v0.5c-0.3,0.1-0.4,0.1-0.5,0.2s-0.2,0.2-0.2,0.4l-3.1,7h-0.7l-3.4-7c-0.1-0.2-0.2-0.3-0.3-0.4s-0.3-0.1-0.5-0.2
		v-0.5h4.5v0.5c-0.4,0.1-0.7,0.1-0.8,0.2c-0.1,0.1-0.2,0.2-0.2,0.3c0,0.1,0,0.2,0.1,0.4l1.7,3.9l1.6-3.9c0.1-0.2,0.1-0.3,0.1-0.4
		c0-0.2-0.1-0.3-0.2-0.3c-0.1-0.1-0.4-0.1-0.8-0.2v-0.5H231.8z"/>
</g>
<g>
	<g>
		<path d="M76.9,101.6c1.3,0,2.5,0.3,3.4,0.9l0,2.5h-0.7c-0.4-1.8-1.3-2.7-2.7-2.7c-0.9,0-1.7,0.4-2.2,1.3c-0.5,0.9-0.7,2-0.7,3.3
			c0,1.4,0.3,2.6,0.8,3.5c0.5,0.9,1.3,1.4,2.2,1.4c0.7,0,1.3-0.2,1.8-0.8c0.5-0.5,0.8-1.3,1.1-2.4h0.7l-0.2,2.9
			c-0.9,0.6-2.1,1-3.6,1c-1.7,0-3-0.5-4-1.4c-1-0.9-1.5-2.2-1.5-3.8c0-1.7,0.5-3.1,1.6-4.2C74,102.1,75.4,101.6,76.9,101.6z"/>
		<path d="M82.3,111.2v-9.2l-0.9-0.5v-0.4l2.9-0.7h0.4v5.1c0.8-1,1.8-1.5,2.8-1.5c1.5,0,2.2,0.8,2.2,2.5v4.6c0,0.2,0.1,0.4,0.2,0.5
			c0.1,0.1,0.4,0.1,0.7,0.1v0.5h-4.2v-0.5c0.3,0,0.6-0.1,0.7-0.1c0.1-0.1,0.2-0.2,0.2-0.5v-4.4c0-0.4-0.1-0.7-0.2-0.9
			c-0.2-0.2-0.4-0.3-0.8-0.3c-0.5,0-1,0.2-1.5,0.5v5.1c0,0.2,0.1,0.4,0.2,0.5s0.3,0.1,0.7,0.1v0.5h-4.2v-0.5c0.3,0,0.6-0.1,0.7-0.1
			S82.3,111.5,82.3,111.2z"/>
		<path d="M95.2,112.5c-1.2,0-2.2-0.4-2.9-1.1c-0.7-0.7-1.1-1.7-1.1-2.9c0-1.3,0.4-2.3,1.2-3.1c0.8-0.8,1.7-1.2,2.9-1.2
			c1.2,0,2.2,0.4,2.9,1.1s1.1,1.7,1.1,2.9c0,1.3-0.4,2.3-1.2,3.1C97.3,112.1,96.4,112.5,95.2,112.5z M95.3,112
			c0.9,0,1.4-1.1,1.4-3.2c0-2.7-0.5-4-1.5-4c-0.9,0-1.4,1.1-1.4,3.2C93.7,110.6,94.2,112,95.3,112z"/>
		<path d="M100.7,114.4v-8.6l-0.9-0.5V105l2.9-0.8h0.4l-0.1,1.4c0.6-1,1.5-1.4,2.5-1.4c0.9,0,1.7,0.3,2.2,1c0.6,0.6,0.8,1.6,0.8,2.7
			c0,1.5-0.4,2.6-1.2,3.4c-0.8,0.8-1.8,1.2-3,1.2c-0.6,0-1.1-0.1-1.4-0.4v2.2c0,0.3,0.1,0.4,0.2,0.5s0.5,0.1,1,0.2v0.5h-4.5v-0.5
			c0.4,0,0.6-0.1,0.7-0.1S100.7,114.7,100.7,114.4z M104.4,111.9c0.6,0,1-0.3,1.4-0.9c0.3-0.6,0.5-1.4,0.5-2.3c0-1-0.2-1.7-0.5-2.2
			c-0.3-0.5-0.8-0.8-1.5-0.8c-0.4,0-0.8,0.1-1.1,0.4v4.2C103.1,111.3,103.5,111.9,104.4,111.9z"/>
	</g>
</g>
<g class="st2">
	<g>
		<path d="M238.1,77.1v5.2c0,0.4-0.1,0.8-0.2,1.1c-0.2,0.3-0.4,0.6-0.6,0.8s-0.6,0.4-0.9,0.5c-0.3,0.1-0.7,0.2-1.1,0.2
			c-0.4,0-0.8-0.1-1.1-0.2c-0.3-0.1-0.6-0.3-0.9-0.5c-0.2-0.2-0.4-0.5-0.6-0.8c-0.1-0.3-0.2-0.7-0.2-1.1v-5.2h1v5.2
			c0,0.3,0,0.6,0.1,0.8s0.2,0.4,0.4,0.5c0.2,0.1,0.3,0.3,0.6,0.3c0.2,0.1,0.5,0.1,0.7,0.1c0.3,0,0.5,0,0.7-0.1
			c0.2-0.1,0.4-0.2,0.6-0.3c0.2-0.1,0.3-0.3,0.4-0.5s0.1-0.5,0.1-0.8v-5.2H238.1z"/>
		<path d="M245.4,82.4c0,0.4-0.1,0.7-0.3,1c-0.1,0.3-0.3,0.6-0.6,0.8c-0.2,0.2-0.5,0.4-0.9,0.5c-0.3,0.1-0.7,0.2-1.2,0.2
			c-0.5,0-0.9-0.1-1.2-0.3c-0.4-0.2-0.7-0.4-0.9-0.7c-0.3-0.3-0.5-0.7-0.6-1.1c-0.1-0.4-0.2-0.9-0.2-1.5v-0.8c0-0.5,0.1-1,0.2-1.5
			c0.1-0.4,0.4-0.8,0.6-1.1c0.3-0.3,0.6-0.6,1-0.7s0.8-0.3,1.3-0.3c0.4,0,0.8,0.1,1.2,0.2c0.3,0.1,0.6,0.3,0.9,0.5
			c0.2,0.2,0.4,0.5,0.6,0.8c0.1,0.3,0.2,0.7,0.3,1h-1c0-0.3-0.1-0.5-0.2-0.7s-0.2-0.4-0.3-0.5s-0.3-0.3-0.5-0.3
			c-0.2-0.1-0.5-0.1-0.8-0.1c-0.3,0-0.6,0.1-0.9,0.2c-0.3,0.1-0.5,0.3-0.6,0.6s-0.3,0.5-0.4,0.9c-0.1,0.3-0.1,0.7-0.1,1.1v0.8
			c0,0.4,0,0.7,0.1,1.1s0.2,0.6,0.4,0.9s0.4,0.4,0.6,0.6s0.5,0.2,0.9,0.2c0.3,0,0.6,0,0.8-0.1c0.2-0.1,0.4-0.2,0.6-0.3
			c0.1-0.1,0.3-0.3,0.3-0.5c0.1-0.2,0.1-0.5,0.2-0.7H245.4z"/>
		<path d="M249.6,81.7h-1.8v3.1h-1v-7.7h2.5c0.9,0,1.5,0.2,2,0.6s0.7,1,0.7,1.7c0,0.5-0.1,0.9-0.4,1.3c-0.3,0.4-0.6,0.6-1.1,0.8
			l1.8,3.3v0.1h-1.1L249.6,81.7z M247.8,80.9h1.6c0.3,0,0.5,0,0.7-0.1c0.2-0.1,0.4-0.2,0.5-0.3c0.1-0.1,0.2-0.3,0.3-0.5
			c0.1-0.2,0.1-0.4,0.1-0.6c0-0.2,0-0.4-0.1-0.6c-0.1-0.2-0.2-0.3-0.3-0.5s-0.3-0.2-0.5-0.3c-0.2-0.1-0.5-0.1-0.8-0.1h-1.5V80.9z"/>
		<path d="M257.7,82.8h-3.2l-0.7,2h-1l2.9-7.7h0.9l2.9,7.7h-1L257.7,82.8z M254.8,82h2.6l-1.3-3.6L254.8,82z"/>
		<path d="M266.4,84.8h-1l-3.9-5.9v5.9h-1v-7.7h1l3.9,6v-6h1V84.8z"/>
		<path d="M269.3,84.8h-1v-7.7h1V84.8z"/>
		<path d="M275.5,82.8h-3.2l-0.7,2h-1l2.9-7.7h0.9l2.9,7.7h-1L275.5,82.8z M272.6,82h2.6l-1.3-3.6L272.6,82z"/>
	</g>
</g>
<g class="st2">
	<g>
		<path d="M35.1,125.9h-0.8v-2.8h-3.1v2.8h-0.8v-6.2h0.8v2.6h3.1v-2.6h0.8V125.9z"/>
		<path d="M40.9,119.8v4.2c0,0.3-0.1,0.6-0.2,0.9c-0.1,0.3-0.3,0.5-0.5,0.6c-0.2,0.2-0.4,0.3-0.7,0.4s-0.6,0.1-0.9,0.1
			c-0.3,0-0.6,0-0.9-0.1s-0.5-0.2-0.7-0.4c-0.2-0.2-0.4-0.4-0.5-0.6c-0.1-0.3-0.2-0.6-0.2-0.9v-4.2h0.8v4.2c0,0.2,0,0.4,0.1,0.6
			s0.2,0.3,0.3,0.4c0.1,0.1,0.3,0.2,0.4,0.3c0.2,0.1,0.4,0.1,0.6,0.1c0.2,0,0.4,0,0.6-0.1c0.2-0.1,0.3-0.1,0.4-0.3
			c0.1-0.1,0.2-0.3,0.3-0.4c0.1-0.2,0.1-0.4,0.1-0.6v-4.2H40.9z"/>
		<path d="M46.9,125.9h-0.8l-3.1-4.7v4.7h-0.8v-6.2H43l3.1,4.8v-4.8h0.8V125.9z"/>
		<path d="M52.9,125.1c-0.1,0.1-0.1,0.2-0.2,0.3c-0.1,0.1-0.2,0.2-0.4,0.3c-0.2,0.1-0.4,0.2-0.6,0.2S51,126,50.7,126
			c-0.4,0-0.7-0.1-1-0.2c-0.3-0.1-0.6-0.3-0.8-0.6c-0.2-0.2-0.4-0.6-0.5-0.9c-0.1-0.4-0.2-0.8-0.2-1.2v-0.5c0-0.5,0.1-0.9,0.2-1.2
			c0.1-0.4,0.3-0.7,0.5-0.9s0.5-0.4,0.8-0.6c0.3-0.1,0.7-0.2,1.1-0.2c0.4,0,0.7,0,0.9,0.1c0.3,0.1,0.5,0.2,0.7,0.4s0.3,0.4,0.4,0.6
			s0.2,0.5,0.2,0.8h-0.8c0-0.2-0.1-0.3-0.1-0.5c-0.1-0.1-0.2-0.3-0.3-0.4c-0.1-0.1-0.3-0.2-0.4-0.3s-0.4-0.1-0.6-0.1
			c-0.3,0-0.5,0.1-0.7,0.2c-0.2,0.1-0.4,0.3-0.5,0.4c-0.1,0.2-0.2,0.4-0.3,0.7c-0.1,0.3-0.1,0.6-0.1,0.9v0.5c0,0.4,0,0.7,0.1,1
			c0.1,0.3,0.2,0.5,0.4,0.7c0.2,0.2,0.3,0.3,0.6,0.4c0.2,0.1,0.5,0.2,0.7,0.2c0.2,0,0.4,0,0.6,0c0.2,0,0.3-0.1,0.4-0.1
			c0.1,0,0.2-0.1,0.3-0.1c0.1-0.1,0.1-0.1,0.2-0.1v-1.4h-1.4v-0.7h2.2V125.1z"/>
		<path d="M56.5,123.4H55v2.5h-0.8v-6.2h2c0.7,0,1.2,0.2,1.6,0.5c0.4,0.3,0.6,0.8,0.6,1.4c0,0.4-0.1,0.7-0.3,1s-0.5,0.5-0.9,0.6
			l1.4,2.6v0.1h-0.9L56.5,123.4z M55,122.8h1.2c0.2,0,0.4,0,0.6-0.1c0.2-0.1,0.3-0.1,0.4-0.2c0.1-0.1,0.2-0.2,0.2-0.4
			c0.1-0.1,0.1-0.3,0.1-0.5c0-0.2,0-0.3-0.1-0.5c-0.1-0.1-0.1-0.3-0.2-0.4c-0.1-0.1-0.2-0.2-0.4-0.2c-0.2-0.1-0.4-0.1-0.6-0.1H55
			V122.8z"/>
		<path d="M60.4,118.1h0.9l-1.1,1.2h-0.6L60.4,118.1z M60.4,125.9h-0.8v-6.2h0.8V125.9z"/>
		<path d="M65.4,124.3h-2.6l-0.6,1.6h-0.8l2.4-6.2h0.7l2.4,6.2H66L65.4,124.3z M63.1,123.7h2.1l-1-2.9L63.1,123.7z"/>
	</g>
</g>
<g class="st2">
	<g>
		<path d="M37.1,82.9h-2.7v2.2h3.1v0.7h-3.9v-6.2h3.9v0.7h-3.1v2h2.7V82.9z"/>
		<path d="M41.8,84.2c0-0.1,0-0.3-0.1-0.4c0-0.1-0.1-0.2-0.2-0.3s-0.3-0.2-0.5-0.3c-0.2-0.1-0.4-0.2-0.7-0.2
			c-0.3-0.1-0.6-0.2-0.8-0.3c-0.2-0.1-0.5-0.2-0.6-0.4c-0.2-0.1-0.3-0.3-0.4-0.5c-0.1-0.2-0.1-0.4-0.1-0.6c0-0.2,0-0.5,0.1-0.7
			c0.1-0.2,0.2-0.4,0.4-0.5c0.2-0.2,0.4-0.3,0.7-0.4c0.3-0.1,0.5-0.1,0.9-0.1c0.3,0,0.7,0.1,0.9,0.2c0.3,0.1,0.5,0.2,0.7,0.4
			s0.3,0.4,0.4,0.6c0.1,0.2,0.1,0.5,0.1,0.7h-0.8c0-0.2,0-0.3-0.1-0.5c-0.1-0.1-0.1-0.3-0.3-0.4c-0.1-0.1-0.3-0.2-0.4-0.2
			c-0.2-0.1-0.4-0.1-0.6-0.1c-0.2,0-0.4,0-0.6,0.1c-0.2,0.1-0.3,0.1-0.4,0.2c-0.1,0.1-0.2,0.2-0.2,0.3s-0.1,0.3-0.1,0.4
			c0,0.1,0,0.2,0.1,0.4c0.1,0.1,0.1,0.2,0.3,0.3s0.3,0.2,0.4,0.2c0.2,0.1,0.4,0.1,0.7,0.2c0.3,0.1,0.7,0.2,0.9,0.3
			c0.3,0.1,0.5,0.3,0.6,0.4c0.2,0.2,0.3,0.3,0.4,0.5c0.1,0.2,0.1,0.4,0.1,0.6c0,0.3-0.1,0.5-0.2,0.7c-0.1,0.2-0.2,0.4-0.4,0.5
			c-0.2,0.1-0.4,0.3-0.7,0.3c-0.3,0.1-0.6,0.1-0.9,0.1c-0.2,0-0.4,0-0.6-0.1c-0.2,0-0.4-0.1-0.5-0.2c-0.2-0.1-0.3-0.2-0.5-0.3
			c-0.1-0.1-0.3-0.2-0.4-0.4s-0.2-0.3-0.3-0.5s-0.1-0.4-0.1-0.6h0.8c0,0.2,0,0.4,0.1,0.5s0.2,0.3,0.3,0.4c0.1,0.1,0.3,0.2,0.5,0.2
			c0.2,0,0.4,0.1,0.6,0.1c0.4,0,0.8-0.1,1-0.3C41.7,84.7,41.8,84.5,41.8,84.2z"/>
		<path d="M44.5,85.1h2.9v0.7h-3.7v-6.2h0.8V85.1z"/>
		<path d="M52.8,82.9c0,0.5-0.1,0.9-0.2,1.2c-0.1,0.4-0.3,0.7-0.5,0.9c-0.2,0.3-0.5,0.5-0.8,0.6c-0.3,0.1-0.6,0.2-1,0.2
			c-0.4,0-0.7-0.1-1-0.2c-0.3-0.1-0.6-0.3-0.8-0.6c-0.2-0.3-0.4-0.6-0.5-0.9c-0.1-0.4-0.2-0.8-0.2-1.2v-0.4c0-0.5,0.1-0.9,0.2-1.2
			s0.3-0.7,0.5-0.9c0.2-0.3,0.5-0.5,0.8-0.6c0.3-0.1,0.6-0.2,1-0.2c0.4,0,0.7,0.1,1,0.2s0.6,0.3,0.8,0.6c0.2,0.3,0.4,0.6,0.5,0.9
			c0.1,0.4,0.2,0.8,0.2,1.2V82.9z M52,82.5c0-0.4,0-0.7-0.1-1c-0.1-0.3-0.2-0.5-0.3-0.7c-0.1-0.2-0.3-0.3-0.5-0.4
			c-0.2-0.1-0.4-0.1-0.7-0.1c-0.3,0-0.5,0-0.7,0.1c-0.2,0.1-0.4,0.2-0.5,0.4c-0.1,0.2-0.3,0.4-0.3,0.7c-0.1,0.3-0.1,0.6-0.1,1v0.4
			c0,0.4,0,0.7,0.1,1c0.1,0.3,0.2,0.5,0.3,0.7s0.3,0.3,0.5,0.4s0.4,0.1,0.7,0.1c0.3,0,0.5,0,0.7-0.1s0.4-0.2,0.5-0.4
			c0.1-0.2,0.2-0.4,0.3-0.7c0.1-0.3,0.1-0.6,0.1-1V82.5z"/>
		<path d="M55.9,84.7l1.8-5.1h0.9l-2.3,6.2h-0.7l-2.3-6.2h0.9L55.9,84.7z"/>
		<path d="M62.5,84.1h-2.6l-0.6,1.6h-0.8l2.4-6.2h0.7l2.4,6.2h-0.8L62.5,84.1z M60.1,83.5h2.1l-1-2.9L60.1,83.5z"/>
		<path d="M69.4,82.9c0,0.6-0.1,1.1-0.3,1.5c-0.2,0.4-0.5,0.8-0.8,1l1.1,0.9l-0.6,0.5l-1.3-1c-0.2,0.1-0.4,0.1-0.6,0.1
			c-0.4,0-0.7-0.1-1-0.2c-0.3-0.1-0.6-0.3-0.8-0.6c-0.2-0.3-0.4-0.6-0.5-0.9c-0.1-0.4-0.2-0.8-0.2-1.2v-0.4c0-0.5,0.1-0.9,0.2-1.2
			s0.3-0.7,0.5-0.9c0.2-0.3,0.5-0.5,0.8-0.6c0.3-0.1,0.6-0.2,1-0.2c0.4,0,0.7,0.1,1,0.2s0.6,0.3,0.8,0.6c0.2,0.3,0.4,0.6,0.5,0.9
			c0.1,0.4,0.2,0.8,0.2,1.2V82.9z M68.6,82.5c0-0.4,0-0.7-0.1-1c-0.1-0.3-0.2-0.5-0.3-0.7c-0.1-0.2-0.3-0.3-0.5-0.4
			s-0.4-0.1-0.7-0.1c-0.3,0-0.5,0-0.7,0.1c-0.2,0.1-0.4,0.2-0.5,0.4c-0.1,0.2-0.3,0.4-0.3,0.7c-0.1,0.3-0.1,0.6-0.1,1v0.4
			c0,0.4,0,0.7,0.1,1c0.1,0.3,0.2,0.5,0.3,0.7s0.3,0.3,0.5,0.4s0.4,0.1,0.7,0.1c0.3,0,0.5,0,0.7-0.1s0.4-0.2,0.5-0.4
			c0.1-0.2,0.3-0.4,0.3-0.7s0.1-0.6,0.1-1V82.5z"/>
		<path d="M75,79.6v4.2c0,0.3-0.1,0.6-0.2,0.9c-0.1,0.3-0.3,0.5-0.5,0.6c-0.2,0.2-0.4,0.3-0.7,0.4s-0.6,0.1-0.9,0.1
			c-0.3,0-0.6,0-0.9-0.1s-0.5-0.2-0.7-0.4c-0.2-0.2-0.4-0.4-0.5-0.6c-0.1-0.3-0.2-0.6-0.2-0.9v-4.2h0.8v4.2c0,0.2,0,0.4,0.1,0.6
			s0.2,0.3,0.3,0.4c0.1,0.1,0.3,0.2,0.4,0.3c0.2,0.1,0.4,0.1,0.6,0.1c0.2,0,0.4,0,0.6-0.1c0.2-0.1,0.3-0.1,0.4-0.3
			c0.1-0.1,0.2-0.3,0.3-0.4c0.1-0.2,0.1-0.4,0.1-0.6v-4.2H75z"/>
		<path d="M77.1,85.7h-0.8v-6.2h0.8V85.7z"/>
		<path d="M82.1,84.1h-2.6l-0.6,1.6h-0.8l2.4-6.2h0.7l2.4,6.2h-0.8L82.1,84.1z M79.7,83.5h2.1l-1-2.9L79.7,83.5z"/>
	</g>
</g>
<g id="svg-marker-svg_00000152239500143598975710000012188945915388819120_" transform="translate(220, 196)">
	<g id="svg-id-m1-svg" transform="translate(-12.6, -12.6)">
		<path d="M-112.2-90.8c0,2.4-1.9,4.3-4.3,4.3s-4.3-1.9-4.3-4.3s1.9-4.3,4.3-4.3S-112.2-93.2-112.2-90.8z"/>
	</g>
</g>
<g>
	<g>
		<path class="st3" d="M93.1,91.5c0,0,0.6-0.1,1.5-0.4"/>
		<path class="st4" d="M95.6,90.9c2.5-0.6,6.2-1.6,6.7-2c0.8-0.6,6.9-3.2,6.9-3.2s6.7-2.3,7.3-2.3c0.6,0,8.9-1.9,9.6-1.9
			c0.6,0,5.9-3,5.9-3s8.3-2.1,8.9-2.1c0.6,0,4.5-4,5.1-4.3c0.6-0.3,5.7-2.2,6.7-2.2c1,0,5.4,0,6.2,0c0.8,0,6.5-3,7.3-3.3
			c0.8-0.3,5.4-3.7,5.4-3.7L177,60c0,0,3.5,0.3,4.1,0c0.6-0.3,4.9-4.5,4.9-4.5s3.3-1.3,4.6-2.3c1.3-1,5.4-3.4,7-3.4
			c1.6,0,5.7,0,5.7,0l7.8-1.6"/>
		<line class="st3" x1="211.7" y1="48.2" x2="213.2" y2="47.9"/>
	</g>
</g>
</svg>
