<?xml version="1.0" encoding="utf-8"?>
<!-- Generator: Adobe Illustrator 27.2.0, SVG Export Plug-In . SVG Version: 6.00 Build 0)  -->
<svg version="1.0" id="exportSvg" xmlns="http://www.w3.org/2000/svg" xmlns:xlink="http://www.w3.org/1999/xlink" x="0px" y="0px"
	 viewBox="0 0 360 180" style="enable-background:new 0 0 360 180;" xml:space="preserve">
<style type="text/css">
	.st0{fill-opacity:0.1;stroke:#A5A5A5;stroke-width:0.3;stroke-linecap:round;stroke-linejoin:bevel;stroke-miterlimit:10;}
	.st1{font-family:'TiemposHeadline-Semibold';}
	.st2{font-size:15.1503px;}
	.st3{opacity:0.6;}
	.st4{font-family:'Roboto-Regular';}
	.st5{font-size:10.8216px;}
	.st6{font-size:8.6573px;}
	.st7{fill:none;stroke:#000000;stroke-miterlimit:10;}
	.st8{fill:none;stroke:#000000;stroke-miterlimit:10;stroke-dasharray:2.9661,0.9887;}
</style>
<path id="m4" class="st0" d="M94.3,76.4l0.8,1.1l0.5-0.1l0.5,0.4l0.7-0.2l0.4,0.2v0l-0.4,1.5l0.1,0.3l-1,0.3l-0.8,1.4l-0.1,1
	l-0.6,0.4l0.1,1.3h0l0,0.2L94,84.9l0.2,0.8l-0.3,1l-0.2,0.1v0l-0.5,0.2l-1.7,1.8l-0.5,3.4L91,93l0.2,0.1l-0.4,0.2l0,0.3l-0.7,0.2
	L90,93.4l-0.4,0.2l-0.4-0.3l-0.4,0.3l-1,0.2l0.1,0.2l-0.5-0.2v0.2l-0.2-0.2v0.3l-0.3,0l-0.1-0.3l-0.3,0.1l-0.2,0.7l-1.5-0.4
	l-0.2-0.6L84,93.3l-0.8-2.6l-1,0l-0.3-0.9L80.7,89l-0.3,0.6l-1.5-0.1l0.1,0.2l-0.2,0l-0.1,0.6l-1-0.4l-0.8,0.5l-0.3-0.1L76,91.1
	L75.7,91l-0.1-0.5l-0.4-0.2l-0.8-0.2l-0.8,0.3l-0.5-0.9l-0.8,0.2l-0.3-0.3l0-0.4l-2.9,0.4l-1,0.6l-0.6-0.2l-0.2,0.4l-0.5-0.1l0.1,1
	l-1.3,1.5l-0.2,0.9l0.2,0.3l-1.1,1.5l-0.2,0.6l-0.6,0.2l-0.6-0.4l-0.2,0.4l-0.4,0l0,0.2l-1-0.1V97l-1,0.8l0.1,0.2l-0.3,0.2L59.8,98
	l-0.7,0.2L58.6,99L58,99.2l0.2-0.5L58,98.3l-0.6-0.1l0-0.2l-0.2,0.3l-0.3-0.2l-0.4,0.4l-0.2-0.3l0.3-0.4l-0.1-0.3l-0.2,0.1l-0.6-0.6
	l-0.4,0.4L55,97.4l-0.3-0.8l-0.6-0.2l-0.8,0.8l-0.8,0.2l0,0.4l-0.4,0.3l0.1,0.6l-0.2,0.2l0,0.7l-0.4,0.6l-0.4-0.4l-0.6,0.4l-0.2-0.2
	l-1.3,0.1l-0.6,0.4l-0.2,0.4l-1.6-0.4l-0.4,0.2l-0.4-0.2l-0.4,0.3l-0.6-0.4l-0.4,0.5l-2.2,0.1l-0.2,1.2l-0.9,0.4l0.3,0.4l-0.3,1.4
	l0.1,0.5l0.8,0.4l0.2,0.5l0.4,0.2L41,106l-0.3,0.6l-1,0.5l-1.6-0.1l-0.7,0.3l-0.6-0.3l-2.2,0.7l-3.7-0.6l-0.7,0.2l-0.4-0.2l-1,0.4
	h-1.8l-1-0.4l-1.5-1.5l-0.6,0.2l-0.6-1.2l-1.1-0.4l-0.3-0.8l-1.4-1.6l-1.1-0.1l-0.3-0.6l-1.2,0.4l-0.7-0.5l-0.4,0.2l-0.3-0.2
	l0.3-0.3l-0.3-0.3l0.3-0.2l-0.2-0.4l0.3-0.3l-0.5-1l-0.4,0.1l-0.7-0.7l-0.4-1.4l0.2-0.7l-0.6-0.2l-0.4-0.8l0.2-0.4l-0.6-0.2l0.1-0.2
	l-0.5,0L13,93.5l0.2,0l0.2-0.8L13.2,92l0.6-0.6l0.1-0.5l0.3,0.1l0-0.6h0.3l0.2-0.5l-0.3-1.3l0.4-0.6l0.1-0.9l0.4-0.4l0-0.4l0.7-1.3
	l0.7-0.4l0.2-0.5h0l0.2-0.6l0.6-0.2l0.8-0.8l1.7,0.7l0.5,0.7h0.6l0.8-0.7l0.8,0.6l0.2-0.2l0.2,0.4l0.4-0.2l0-0.2l0.5,0.2l0.6-0.7
	l1-0.1l1.1-1.5l1.5,0l0.6-2.1h1.5l0.4-0.4h0l0.6-0.4l0.4-1.3l-0.2-0.4l0.4-0.6L32,75.5l0.4-0.6l-0.1-0.8l0.6-0.4v-0.4l1.7-0.4
	l1.2-0.6l0.6-0.8l-0.2-0.7l0.6,0.1l0.4-0.4l0.2-0.5l0.8-0.7L38,68.7l0.6-0.4l0.4,0l0.3,0.4l1-0.3l1,0.4l0.8-0.6l2,0l0.4,0.3
	l-0.2,1.1l0.4,0.5l-0.3,0.4l0.2,0.4l0.7,0l0.6-0.6l0.5,0.3h0.7l0.6-0.2L47.5,70l0.6-0.4l0.2-1.4l0.6-0.5h1.2l0.1-0.7l0.5-0.2
	l0.1-0.4l0.5-0.1l0.1-0.4h0.3l0.2,0.6l0.8,0.4l0,0.7l0.8,1.9l0.2-0.1l0.2,0.3l0.4-0.2l-0.2,1l1,0.2l0.3,0.3l0.4-0.5l0.7-0.1l0.2,2.1
	L56.4,73l0.4,0.5l-0.4,0.2L56,75l0.5,0.3l0.2-0.2l0.4,0.3l0.4-0.1l0.5-0.4l0-0.4l0.4-0.1l0.8,0.2l1.3,1.2l0.2,0l0.2-1.6l0.7-1.5
	l0.2,0.3l0.2-0.5l0.7-0.6l1.4,0.2l0.2-1.4l0.6,0.1l0.2-0.2l0.1,0.4h0.3l0.2-0.3l0.3,0.2l0-0.5l0.6,0l1.5,0.9l0.4-0.3l0.2-0.6
	l0.5,0.4l0.6-0.4h0.5l0.5,0.4v0.6l0.4,0L71,71.6l0.2,0V72l0.2-0.1l0.4,0.3l0.4-0.3l0.2,0.3l-0.1,0.3l0.5-0.1l0.4,0.6l0.8-0.2l0-0.5
	l0.8-0.8h0.8l0.1-0.2L75,70.6v-0.4l0.9,0l0.2-0.3l0.8,0.8h0.4l0.3-0.8l0.5-0.2l0.1-0.3l0.4,0.3l0.6,0l0.4,0.4l0.4,0l0.4,0.5h0.6
	l0.2-0.4l0.5,0.2l0.1-0.4l0.9,0l0.6-0.3l0.4,0.7l0.9,0l0,0.3l0.6,0.3l0.2,0.6l0.4-0.6l0.6-0.2l0.3,0.5l0.4,0l0.2,0.4l0.9,0l0.3,0.9
	l0.8,0.7l-0.1,1.2l0.3,0.2l1.3,0.3l0.7,0.6l0.5-0.2l0.2,0.2l-0.2,0.5l1.4,0.4l0.1,0v0L94.3,76.4z"/>
<path id="m3" class="st0" d="M92,92.5l0.7,0.3l-0.3,0.6l0.4,0.6l0.7,0.1l-0.1,0.7l1,1.9l1.5-0.4l1.2,1.3l0.2,1.9l1.4,0.3l1.9-0.6
	l1.1,1.5l-0.5,0.9v0.1l-0.2,0.4l0.9,0.8l-0.6,0.9v0l-0.1,0.1l-1.3,0.3l0.3,1.1l-1,0.2l-0.4,1l-1,0.3l-2.3-0.6l-0.3,1.4l-1.6-0.6
	l-1.3,1.5l-0.8,2.3l-0.4-0.1v0l-0.3-0.1l-1.5,1.8l0.1,2.7l-1.5,0.9l-1.1,2.7l0.2,1l-0.6,0.4l-0.3,1.3l-1,0.2l-1.1,1.3l0.5,1.7
	l-1.2,0.7v1.5l-1.2,0.5l-0.5,1.7l0.6,0.9l-0.5,0.6l-1-0.2l0.4,0.7l-0.6,0.8l-0.7-0.3l-0.7,0.4l0.1,0.9l-0.9,1.6l0.9,1.1l-0.3,0.9
	l-1.3,0.1l-0.4,2.1l-1,0.1l-0.7,1.2l-2.8-0.9l-1.5,0.2l-0.4,0.5l0.2,1l-0.6-0.1l-0.2,0.9l-1.1,0.8l-2-1.4l-0.6,1l-1.5-0.6l-1.5,1.1
	l-1-1l-0.7,0.3l-0.4-0.6l-0.6,0.7l-0.6-0.7h-1.2l-1.7,1l-1.7-1.3l-2,0.2L51,144l-0.8-0.1l-1.2,0.7l0.2,0.6l-2.2-0.2l-0.2-0.9h-0.4
	l-0.6,0.8l0.2,0.8l-1,0.1v0.7l-1.5-0.2l-1.3,0.5l-0.2,0.7l-2.2-0.8l-0.6,1.6l-1.5,1.2l-0.5-0.2l-0.6,1.2h0l-1.1-0.7l-0.5,0.5
	l-2.8-0.9l-1,0.6l-1-0.6h-1.5l-0.7,0.6l-0.4-0.9l-2.4-0.6l-1.4-2.1l-3.4-0.2l0.1-0.4h0.2l0.2-0.6l-0.3,0.3l-1.4-0.8l0.6-0.3
	l-0.6-0.1l0.2-0.6h-0.6v-0.5l-0.5,0.1l0.5-0.5l-0.8-0.2l-0.3-1.4l-2.6-1l-1.4-1.2l-0.1-1.2l-0.6-0.8l-1.8-0.4l-0.7-1.5l-2.1-1
	L8.2,133l-1.7-1.5l0.6-1.3l-0.9-0.2l-0.7-1l0.4-1.9l-0.8-0.6l-2,0.4l-0.6-0.3v-0.1l1.3-1.6l1.1-0.4l0.2-1.1l0.8,0.4l2.5-0.1L7.6,123
	l0.8-0.5l-0.9-1l1-0.6l-0.2-0.5l-1,0.2l0.1-1l-0.6-0.2l0.2-1.3l0.9-0.6l-0.8-1.5l0.2-1.3l0.7,0.5l0.2-0.5l1,0.1l1.2-1l-0.2-1l1-0.9
	l-0.7-0.5l-0.2-1.4l-1,0.2l-2.3-1l0.3-0.7l0.4,0.3l1.1-0.9l-0.1-0.6l0.9-0.2l1.7,0.6l0.4,1.2l1.2-0.1l0.5-0.8l0.2,0.7l3.2-0.5
	l-0.6-1.9l0.3-0.3l-0.9-1.2l1.2-0.4v-1.9l1.5-1l2.1,0.6l1.9,2.5l1.2,0.6l0.3,0.9l0.6-0.2l2.5,1.9l4.6-0.4l3.2,0.6l2.1-0.7l2.9,0.2
	l1.5-1.3l1.6-0.2l-1.5-1.4l-0.1-1.9l1-0.3l0.3-1.3h2.1l0.5-0.6l0.6,0.5l1.3-0.4l1.5,0.5l0.8-0.8l1.5,0.2l0.5-0.4l0.4,0.4l0.9-2.7
	l1.5-1l1,1l0.8-0.3l0.7,0.5l-0.1,0.9l1-0.5l0.6,0.2L58,99.1l0.6-0.1l0.5-0.8l1.5-0.2l0.9-1v-0.7l1.1,0.1l0.3-0.6l1.4,0.2l1.3-2.1
	l0.1-1.2l1.3-1.5l0.2-1.1l4.9-1l0.2,0.6l0.9-0.2l0.5,0.9l1.6-0.2l0.9,0.8l1.4-1l1.2,0.4l0.3-1l1.4,0.1l0.2-0.6h0l1.2,0.8l0.3,0.9
	h1.1l0.7,2.7l0.8,0.9l1.7,0.3v-0.6l1.4,0.1l1.4-0.7l1,0.5L92,92.5z"/>
<path id="m2" class="st0" d="M101.2,102.1l0.2-0.5v0l0.5-0.9l-0.9-1.5h-1.4l-0.7,0.6l-1.4-0.3l-0.2-1.9l-0.8-1l-1.2-0.3l-0.7,0.4
	l-1-1.9l0.1-0.7l-1.1-0.6l0.3-0.6l-1.9-0.2l0.5-3.8l2.5-2.1l0.1-1.9l0.6-0.7l-0.2-1.4l0.6-0.5l0.8-2.5l1-0.2l0.2-1.7l0.6-0.3
	l1.2,1.3l1.4-0.3l1,1.1l0.7-0.3l-0.5-1.1l0.4-0.7l-0.9-0.2l-0.6-1l-0.6,0.1l0.1-0.7l-0.6,0.3l0.6-1l-0.5-0.5l0.4-0.2l0.1-2.7
	l-0.7-2.9l-0.8-0.8l9.4-12.9l6-5.3l0.4-1.2l4.2-0.6l1-2.1l0.4-2.1l-0.1-1.6l-0.5-0.3l0.2-0.9l-0.9-0.2l0.1-1h-0.6l-0.3-0.6l0.6-1
	l1.7,0.1l0.6-0.7l-1.4-0.5l-1.3-1.5l-0.1-0.9l-0.6-0.4l-0.1-1.6h-0.6l-0.2-0.6l0.1-1.4l-1.8-1.2l-0.6-1.9l-0.7,0.2l-0.2-1l1-2.1
	l-0.8-0.6l0.3-0.9l-0.8-0.4l0.9-0.2l-0.6-0.9l0.4-0.7l-0.9-1l1-0.7l1.6-0.4l0.1,0.6l1.8,0.2l-0.4,1l1.6,0.2l1.9-2.1l2.9-1.9
	l-0.3-1.5l1.4-1.7l3.5-0.5l1.9,0.6l0.7-0.7l0.6,0.3l1-0.5l0.2,0.6l3.7-1.9h1.1l2.2,1.1h1.5l0.2-0.5l2.8,0.6l1-0.2l0.1-0.6l0.6,0.6
	l1.4,0.2l1.7-0.3l1.9,1.5l3.5-0.2v1l1.1,0.9h1l0.7-0.7l1.9,0.3l1,1.4l0.8-0.2l1.4,0.7l0.7-0.7l3.1-0.2l0.1,2.6l0.9,0.2l-0.5,1.3
	l2.7-0.1l0.5-0.4l0.7,0.8l0.1-1.1l1.5,0.6l1-0.2l0.6,0.2v0.9l-0.9,1.1l1.2,1l1.5-1.7l-0.5-1.7l0.3-0.3l1.1,0.4l0.1,0.9l0.8-0.4
	l-0.6,0.9l1.6-0.2l1-0.4l0.8-1.5l1.3-0.9v1.5l0.3-0.2l1,1.3v0.7l1.7-1.3l2.7,0.6l-0.3,0.2l0.3-0.1l0.4,2.8l0.8-0.6l0.2,1.1l0.9-3.3
	l1.3-0.7l1.4,0.4l1.7-1.9h0.9l0.5,1.9l0.7,0.1l-0.1,1.8l0.3,0.9l0.6,0.1l0.2,1.8l1.4-0.9l1.1,0.5l0.6-2l0.6,0.5l0.4-0.8l1.5-0.8
	l0.5,0.2v1.5l0.7,0.4l0.2-0.5l1.1,0.3l0.2-0.9l0.5-0.2L206,23l0.8-0.9l2,0.5L209,22l2.5,2.1l0.2,1l-0.6,0.4l1.4,1.3h0.7l-0.2,0.7
	l1.7,0.4l0.7-0.6l-0.4-0.6l0.9-0.5l0.1-1l-0.5-1.3L215,24l-0.1-0.6l0.6-0.5l-0.8-0.9l0.2-0.9l-0.6,0.1l-0.2-0.6l0.4-0.2l-0.7-0.4
	l1.1-1.1l-0.3-1.4l1-0.2l0.4-1.1l-0.6-0.2l0.8-0.4l-0.2-0.6l1.4-2.1l0.8,0.1v-1.1l1.2-0.5l0.1-0.8l0.7-0.3l0.1-1.8l0.6,0.3l2.2-0.6
	l1.6,1.5l0.7-0.2l1.1-1.9l0.9-0.2l0.6,0.6h2.7l0.8,0.5l2.3-0.3l1.2,0.8l-0.6,0.8l2.7,0.2l0.7-0.9l0.8,0.1l2.4-1.9l-0.6-0.2l0.4-0.8
	l-0.3-1l1.1-0.5l-0.8-1.7l0.4-0.6l1.7,0.6l0.9-0.2l2.2,1.9l0.8-0.5l0.9,0.2l0.2-0.5l0.7,0.1l0.4,0.7l0.7-0.7l0.6,0.1l0.9-1.4
	l0.2,0.6l1-1l0.5,0.1l0.3-0.9l1.7,0.7l1.1-0.6l1,0.7l0.1-0.6l0.8,0.2L257.5,3l1.2,0.2l-0.3-0.6L259,3l1.5-1.1l2.3-0.1v1l1.2,0.3
	l0.2,1.4l1.7,1.1l0.1,0.8l0.9,0.6l-0.8,1.6l0.6,0.7l-0.1,0.9h0.6v0.8l0.8,0.1l0.4,1.1l0.6,0.2l-0.2,0.7l0.8-0.2l1.5,1.3l0.5,2.1
	l-0.5,0.6l-1.5-0.1l-3.3,1.3l1.3,0.5l0.2,1.1l1,0.5l0.2,1l0.7,0.3l-1.3,2.4l1.7,1.5l-0.8,0.4l-0.7,1.7l1,0.6l1.1-0.8l2.9,0.9
	l0.3-0.5l0.9,0.2l0.1,1.2l0.6,0.6l1-0.3l0.7,0.4l0.4-0.7l0.6,0.2l1-1l1,0.7l0.4-0.6l1.2,0.2l-0.4,1.5l0.7,1V32l-0.4,0.1l0.7,0.8
	l1.6-0.7l1.5,0.6l-0.5,1l-0.7-0.2l0.5,1l-0.4,0.6l1.1,0.8l-0.3,1l0.6,0.6l-0.2,1l1.2,0.6l-0.5,2.1l0.6,0.2L287,42l-1.4,0.1l0.5,1.1
	l-0.5,0.6l1.2,2.1l1.6,0.9v1.4l0.6,0.9l1.7-0.1l1.3-1.8l3.5-0.4l1.4,0.4l1.8,2.3l0.2,1l1,0.2l1-1l1.5,1.1l0.7-0.1l-0.2,1l1.2,0.6
	l0.6-1.1l2.6-1.6l4.4-0.5l1.8-1l0.5-0.8l1,0.2l1.4-0.6l-0.3,2l1.6,1.5h0.9l-0.4,2l0.4,1l1.7,2.3l0.6-0.2l1.8,1l1.9,2.4l-0.4,0.2
	l0.2,0.6l1.3-1l0.2,0.5l1.3-1.3l-0.6-2.3l2-0.2l0.5,1.9l1,0.6l0.7-0.3l0.4,0.8l1.9-0.3l0.5,0.5l0.6-1.2l0.4,0.5l-0.3,1.2l1.5,1.3
	l1.6,0.2l0.4,1.7l2-0.5l1.7-1.6l1.5,3l1.4,0.4l1-0.5l2.3,0.6l-0.3,0.4l1,2.3l1.3,0.4l0.9,1h1.3l0.9-0.9l2.7-0.5l0.6,1.1l-1.9,1
	l-0.2,1.5l2.4,2.3l-0.2,1.2l0.6,0.8l-2.9,1.9l-1.3,2.7l-4,0.3l0.1,1.2h1.1l0.3,1.5l0.7,0.7l0.2-0.4l1.3,0.2l1,0.6l0.7-1l0.5,1
	l-1.5,1.8l-2.6-1.1l-0.4,1.7h-0.5l-0.5,1l0.1,1.5l-0.7,1l0.4,0.6l1.6-0.2l0.8,0.6l-0.1,2.2l0.7,0.5l0.7,2.1l-1.5,0.4l-0.1,0.6
	l0.9,0.2l0.2,0.7l1-1l0.5,1.4l-0.2,0.6l-1-0.1l-0.1,1h-0.4l-0.6,2.3l-0.5,0.2l0.7,0.6H350l0.7,1.9l-0.5,1.9l-0.4-0.1l-0.4,1
	l-3.1,0.1l-0.9-0.8l-0.7,0.7l-0.4-1l-3.5,0.6l-1-0.2v-0.4h-3.6l-0.2,1.1h-0.6l-0.2,2.9l-1.5-0.3v0.6h-0.6l-0.2,0.6h-2.3v0.6H329
	l0.1,0.9h-0.6l-0.1,4l-0.9,0.6l-0.3,1.3h1.7l-0.1,1l-1.5,0.6l-0.1,2.3l0.1,0.3l-0.2,0l-1.7,1.8l0.3-1l-0.8-0.6l-0.7,0.4l-2.4-0.4
	l-2.2,0.6l-1.9-0.3l-1.4,1.1l-2.2,3.3l-1.6-1.1l-5.5,2.9l-1,2.7l0.2-1l-1.6-1.2l-4.4,1.2l-1.4,1.4l-0.4,1.1l-1.3-1.3l-4.2,0.3
	l-6.1,4.4l-1.6,1.7l-2.9,4.8l-2.7,1.5l0.6-1.5l2.3-0.9l2.1-3.2l0.1-0.6l-0.6,0.5l-0.6-0.2l0.2-1.9l-1-0.6l-0.4-1l-0.3,0.4l0.6,2.1
	l-1.5,2.1l-1.1,1h-2l-1.2,1.9l1,5.1l1.2,2.8l5.5,8.8l2.7,1.6l2.9-1l1.7-2.7l0.4,0.1l-0.1,1.1l1.9,1l1.9-1.9l2.4-0.4l0.2,0.6h2.8
	l0.6,0.7l0.7-0.4l0.8,1.6l-0.8,0.4l-1.2-0.3l-0.2,1.2l-0.8,0.4l-0.4,2.5l0.5,1.8l-2.6,0.5l-0.6,0.7l-2.6-0.9l-0.8,1l-2.1,0.2
	l-2.1-2.1l-2.9-0.4l-1.5,1l-0.2,0.8l0.6,0.4l-0.9,0.1l-0.2,1.2l-0.6-0.6l-1,0.2l-0.6,0.9l-0.9,0.2l-1.1,2.3l-1.9-1l-0.9,0.5l-2-0.1
	l-3.7,1.6l-1.3,1.5l-1.2,2.6h-0.9l-2.5,2.5l-2.4,0.9l-4.3-0.9l-1-1.5l-0.9,0.2l-2.2-1.8l3-1l-0.9-0.2l0.5-1.4l-0.5-1.8l1.4-1.8
	l0.2-1.2l-1.2-3.9l-2-1.5l-2,0.7l-5.3-4.2l-2.5-0.1l-1,0.8h-1l-1.1-0.4l-0.5-1.5l2.4-2.3l1.6-0.9h1l0.6-1.4l4.6-2.4l-0.2-0.8
	l1.5,0.6l3.1-2.2l0.7,0.3l1.3-0.9l1,0.5l0.1-1.1l1.2-0.3l-1.4-0.6l-1,0.2l0.5-2.9l-0.6-1.2l-1.2,0.5l0.4,0.7l-0.7,0.2l0.1,0.7
	l-1.3-0.2l-1-1l-1,0.2l0.4-0.7l-1.5,0.1l0.2-2.1l-1.6,1.9l-1.5-0.7l-0.1,0.9l-3.7-0.2l-3.9,1.2l-3.6-1l-0.3-1l0.4-0.6l-2-0.1
	l-1.1-1.2l-0.5,0.2l-1.9-1.4l-0.1,0.9l-1.5-0.3l-0.2-0.5l0.5-0.6l2.5-0.2l1.2-1.2l-0.6-0.9l-3.8-1l-0.9,0.4l-0.1,1l-2.6-3.4l1,1
	l2.6-0.2l1.5,0.7l3.7,0.2l3,1l1.2-0.3l0.6-1.4l3.1-2.3l-4.5,1.9l-1.3-1l-1.5,1l-0.4-1l-1.4-0.5l-1.2-2.7l1-3.4l-0.6-0.4l-0.5-0.4
	l0.6-1.2l-1.6-0.3l0.5-1.5l-1.4-2.1l0.2,1.5l0.9,0.6l-0.6,1.8l1.6,0.2l-0.7,1.2l0.4,0.4l0.6-0.2l-0.4,1.6l-1.1,1.1l0.6,1.5l-0.2,2.1
	l-1.1,0.4l-2.1-0.6l-1.1,0.2l-0.2,0.6l-1.3-0.3l1.9-4l-1.6,1.5l-1-1.2l0.9,1.7l-1.3,1.9l-1.1,0.6l-2.7-0.6l-5.4,1.7l-0.5,0.7
	l0.6,1.5l-0.4,1l-0.9,1l-0.9,0.1l0.5,0.9l-2.8,4.7l-4.2,4.8l-1,0.7l-0.2-1.5l-0.5,1.6l-1.9-0.6l-0.2,1.5l-0.2-1l-0.2,0.4l0.2,1.5
	l-0.6-0.8l-1.3,0.6l0.1,0.7l0.9,0.6l-1.9,1.2l-0.7-1.8l0.2-1.8l-0.9-0.8l-0.6,5.5l0.8,0.3l0.9-0.6l-1.5,1.9l0.5,0.8l0.2-0.7l0.8,0.8
	l0.5-0.6l0.2,3l-0.4,1.8l-0.7,0.2l-0.4-2.4l-1.2-1.3l-2-0.8l-2.8,0.2l-4,2.1l-0.3,1.1l-2.2-1.2l0.1,0.8l-0.7,0.4l0.6,0.7l-1,0.4
	l-2.3-0.5l-3.4-1.7l-0.7-2.3l-1-0.6l1.4-1.6l1.7,0.7v0.6l1.4-0.2l-0.3-1.5l0.7-0.2l-0.9-2.2l0.6-1.1l1,0.2l-0.2-0.9l1.9-0.2
	l-0.2-0.8l1.3-0.3l-0.4-2.7l3.2-1l0.4-1L191,143l1.8-2.2l-1.7-1.3l0.7-1.3l-1-3l1.4-0.1l-0.6-0.6l2.7-0.5v-0.6l1-0.3l0.3,1.5
	l-0.6,0.5l0.4,1l-0.6,0.6l0.5,0.2l0.3-0.6l0.9-0.2l-0.2-1l0.6-0.9l0.6,1.7l0.8-1.5l0.8,0.8l-0.2,0.7l1,0.2l0.6,1.3l1.1-0.2l-0.3-1.5
	h1.1l0.1-0.8l1.2,1.6l-0.2,0.2l1.3,0.7l0.6-1h1.8l0.6,0.6l1-0.8l-0.1-0.4l-0.4,0.4l-0.5-0.6l-0.3,0.4l-0.8-0.4l-0.5-1.5l-0.7,0.3
	l-0.9-1l1-0.3l0.4-4.2l-0.6-1.1l0.5-0.5l-0.4-0.2l-0.6,0.5l-0.3-1.5l-1.9,0.6l-0.5-1.5l-1,0.2l-0.1-0.7l-1,0.3l0.5-2.2l0.4-0.1
	l-0.2-1.2l-1.2,0.6l-0.6-1.3l1.3-0.1l-0.4-2.1l0.6-0.5l-0.3-2.5l-1.3,0.3v1.1l-0.9,0.3l-0.6-0.8l0.1-1h-0.9l-0.2-1.6l-1,0.7l-0.1-1
	l-0.7,0.8v-1l-0.5,0.3l0.5-1.4l-0.6,0.2l-0.5-1l0.9-0.3l0.6-1l-0.2-2.3l1.1-1.8l-0.9,0.1l-0.3-0.5l1.3-1.5l-1.2,0.1l-0.4-2.4
	l-1.2,0.2l-0.2,0.9l-1.7-0.8l-0.5,0.4l-0.7-0.8l0.3-0.3l-0.9-0.5l-0.1-2.1l-2.2,0.1l-0.1-0.5l-1.5-0.7l-1,0.6l-0.3,1.9l-0.9-1.1
	l0.1-1.2l-0.6-0.1l-0.6,1l-0.5-0.2l0.8-1l-0.1-1.3l-2,0.9l-0.5-0.2l-0.1-0.9l-1.2,0.6l-0.4-1.9l-1.7-0.2l-1.4-1.9l-1.5-1l-1.9,0.3
	l-0.6-0.5l0.2-0.6l-2,0.9l-0.3,1l-1.9-0.8l-0.5,1.6l-1.4-0.6l-1,0.4l-0.6-1.3l-1.1,0.3l0.6,1l-0.6-0.2l-0.2,0.5l-1.5-0.5l-0.3-0.9
	l-1.5,0.1l-1,0.3l0.8,1.1l0.9,0.2l-0.1,1.1l-0.9-0.6l-0.3,0.2l-0.8-1l0.2,0.7l-1.2,1.1l0.1,0.8l-4.3,1.3l0.1,0.6l-1.8,2.3l-0.4,1.3
	l-4.8,0.5l-1.3,0.7l-2.2-0.2l-4.6,0.8l-1.2,0.4l-1.7,3.1l-0.9,0.2l-0.2,0.5h-2.3l-0.8-2.1l-1.9-0.4l-1.1-2.5l-0.6-0.3l-1.2,0.3
	l-1-0.4l-0.8,1l-2.3,0.6l-1.6-0.4l-1.5-1.1l-2.2,0.8l-0.8-1.2l-2.1,0.1l-2-0.9l-0.5,1.2l-2.3-1.1l-0.9-0.9l-0.1-0.9l-1.2,0.1
	l-0.3-0.5l-0.7,0.6l-0.3,1.9l-1.2,0.3l-1.2-0.6l0.3,1.1l-0.8,0.3l-0.6-0.6v0L101.2,102.1z M205.1,152l-2.7,1.6l5.7-4.5L205.1,152z
	 M238.2,141.8l-8.6-2.4l-0.3-0.6l0.9,0.7l4.8,1.1L238.2,141.8z M251.3,144.5l-6.5-0.8l5.5,0.4L251.3,144.5z"/>
<g id="svg-marker-svg" transform="translate(333, 154)">
	<g id="svg-id-m0-svg" transform="translate(-12.6, -12.6)">
		<path d="M-102.9-94.2c0,2.4-1.9,4.3-4.3,4.3s-4.3-1.9-4.3-4.3s1.9-4.3,4.3-4.3S-102.9-96.6-102.9-94.2z"/>
	</g>
</g>
<text transform="matrix(1 0 0 1 199.5365 65.9155)" class="st1 st2">Kiev</text>
<g>
	<text transform="matrix(1 0 0 1 70.9857 112.3925)" class="st1 st2">Chop</text>
</g>
<g class="st3">
	<text transform="matrix(1 0 0 1 231.807 84.8032)" class="st4 st5">UCRANIA</text>
</g>
<g class="st3">
	<text transform="matrix(1 0 0 1 29.6615 125.9374)" class="st4 st6">HUNGRÍA</text>
</g>
<g class="st3">
	<text transform="matrix(1 0 0 1 32.869 85.746)" class="st4 st6">ESLOVAQUIA</text>
</g>
<g id="svg-marker-svg_00000152239500143598975710000012188945915388819120_" transform="translate(220, 196)">
	<g id="svg-id-m1-svg" transform="translate(-12.6, -12.6)">
		<path d="M-112.2-90.8c0,2.4-1.9,4.3-4.3,4.3s-4.3-1.9-4.3-4.3s1.9-4.3,4.3-4.3S-112.2-93.2-112.2-90.8z"/>
	</g>
</g>
<g>
	<g>
		<path class="st7" d="M93.1,91.5c0,0,0.6-0.1,1.5-0.4"/>
		<path class="st8" d="M95.6,90.9c2.5-0.6,6.2-1.6,6.7-2c0.8-0.6,6.9-3.2,6.9-3.2s6.7-2.3,7.3-2.3c0.6,0,8.9-1.9,9.6-1.9
			c0.6,0,5.9-3,5.9-3s8.3-2.1,8.9-2.1c0.6,0,4.5-4,5.1-4.3c0.6-0.3,5.7-2.2,6.7-2.2c1,0,5.4,0,6.2,0c0.8,0,6.5-3,7.3-3.3
			c0.8-0.3,5.4-3.7,5.4-3.7L177,60c0,0,3.5,0.3,4.1,0c0.6-0.3,4.9-4.5,4.9-4.5s3.3-1.3,4.6-2.3c1.3-1,5.4-3.4,7-3.4
			c1.6,0,5.7,0,5.7,0l7.8-1.6"/>
		<line class="st7" x1="211.7" y1="48.2" x2="213.2" y2="47.9"/>
	</g>
</g>
</svg>
