<?xml version="1.0" encoding="utf-8"?>
<!-- Generator: Adobe Illustrator 27.2.0, SVG Export Plug-In . SVG Version: 6.00 Build 0)  -->
<svg version="1.1" id="exportSvg" xmlns="http://www.w3.org/2000/svg" xmlns:xlink="http://www.w3.org/1999/xlink" x="0px" y="0px"
	 viewBox="0 0 360 180" style="enable-background:new 0 0 360 180;" xml:space="preserve">
<style type="text/css">
	.st0{fill-opacity:0.1;stroke:#A5A5A5;stroke-width:0.3;stroke-linecap:round;stroke-linejoin:bevel;stroke-miterlimit:10;}
	.st1{enable-background:new    ;}
	.st2{fill:#666666;}
	.st3{fill:none;}
	.st4{fill:none;stroke:#000000;stroke-miterlimit:10;stroke-dasharray:2.9661,0.9887;}
</style>
<path id="m4" class="st0" d="M94.3,76.4l0.8,1.1l0.5-0.1l0.5,0.4l0.7-0.2l0.4,0.2l0,0l-0.4,1.5l0.1,0.3l-1,0.3l-0.8,1.4l-0.1,1
	l-0.6,0.4l0.1,1.3l0,0v0.2L94,84.9l0.2,0.8l-0.3,1l-0.2,0.1l0,0L93.2,87l-1.7,1.8L91,92.2V93l0.2,0.1l-0.4,0.2v0.3l-0.7,0.2L90,93.4
	l-0.4,0.2l-0.4-0.3l-0.4,0.3l-1,0.2l0.1,0.2l-0.5-0.2V94l-0.2-0.2v0.3h-0.3l-0.1-0.3l-0.3,0.1l-0.2,0.7l-1.5-0.4l-0.2-0.6L84,93.3
	l-0.8-2.6h-1l-0.3-0.9L80.7,89l-0.3,0.6l-1.5-0.1l0.1,0.2h-0.2l-0.1,0.6l-1-0.4l-0.8,0.5l-0.3-0.1L76,91.1L75.7,91l-0.1-0.5
	l-0.4-0.2l-0.8-0.2l-0.8,0.3l-0.5-0.9l-0.8,0.2L72,89.4V89l-2.9,0.4l-1,0.6l-0.6-0.2l-0.2,0.4l-0.5-0.1l0.1,1l-1.3,1.5l-0.2,0.9
	l0.2,0.3l-1.1,1.5l-0.2,0.6l-0.6,0.2l-0.6-0.4l-0.2,0.4h-0.4v0.2l-1-0.1V97l-1,0.8l0.1,0.2l-0.3,0.2L59.8,98l-0.7,0.2L58.6,99
	L58,99.2l0.2-0.5L58,98.3l-0.6-0.1V98l-0.2,0.3l-0.3-0.2l-0.4,0.4l-0.2-0.3l0.3-0.4l-0.1-0.3l-0.2,0.1L55.7,97l-0.4,0.4H55l-0.3-0.8
	l-0.6-0.2l-0.8,0.8l-0.8,0.2v0.4l-0.4,0.3l0.1,0.6L52,98.9v0.7l-0.4,0.6l-0.4-0.4l-0.6,0.4l-0.2-0.2l-1.3,0.1l-0.6,0.4l-0.2,0.4
	l-1.6-0.4l-0.4,0.2l-0.4-0.2l-0.4,0.3l-0.6-0.4l-0.4,0.5l-2.2,0.1l-0.2,1.2l-0.9,0.4l0.3,0.4l-0.3,1.4l0.1,0.5l0.8,0.4l0.2,0.5
	l0.4,0.2H41l-0.3,0.6l-1,0.5l-1.6-0.1l-0.7,0.3l-0.6-0.3l-2.2,0.7l-3.7-0.6l-0.7,0.2l-0.4-0.2l-1,0.4H27l-1-0.4l-1.5-1.5l-0.6,0.2
	l-0.6-1.2l-1.1-0.4l-0.3-0.8l-1.4-1.6l-1.1-0.1l-0.3-0.6l-1.2,0.4l-0.7-0.5l-0.4,0.2l-0.3-0.2l0.3-0.3l-0.3-0.3l0.3-0.2l-0.2-0.4
	l0.3-0.3l-0.5-1L16,98.6l-0.7-0.7l-0.4-1.4l0.2-0.7l-0.6-0.2l-0.4-0.8l0.2-0.4l-0.6-0.2l0.1-0.2h-0.5L13,93.5h0.2l0.2-0.8L13.2,92
	l0.6-0.6l0.1-0.5l0.3,0.1v-0.6h0.3l0.2-0.5l-0.3-1.3l0.4-0.6l0.1-0.9l0.4-0.4v-0.4L16,85l0.7-0.4l0.2-0.5l0,0l0.2-0.6l0.6-0.2
	l0.8-0.8l1.7,0.7l0.5,0.7h0.6l0.8-0.7l0.8,0.6l0.2-0.2l0.2,0.4l0.4-0.2v-0.2l0.5,0.2l0.6-0.7l1-0.1l1.1-1.5h1.5l0.6-2.1h1.5l0.4-0.4
	l0,0l0.6-0.4l0.4-1.3l-0.2-0.4l0.4-0.6L32,75.5l0.4-0.6l-0.1-0.8l0.6-0.4v-0.4l1.7-0.4l1.2-0.6l0.6-0.8l-0.2-0.7l0.6,0.1l0.4-0.4
	l0.2-0.5l0.8-0.7L38,68.7l0.6-0.4H39l0.3,0.4l1-0.3l1,0.4l0.8-0.6h2l0.4,0.3l-0.2,1.1l0.4,0.5l-0.3,0.4l0.2,0.4h0.7l0.6-0.6l0.5,0.3
	h0.7l0.6-0.2L47.5,70l0.6-0.4l0.2-1.4l0.6-0.5h1.2l0.1-0.7l0.5-0.2l0.1-0.4l0.5-0.1l0.1-0.4h0.3l0.2,0.6l0.8,0.4v0.7l0.8,1.9
	l0.2-0.1l0.2,0.3l0.4-0.2l-0.2,1l1,0.2l0.3,0.3l0.4-0.5l0.7-0.1l0.2,2.1L56.4,73l0.4,0.5l-0.4,0.2L56,75l0.5,0.3l0.2-0.2l0.4,0.3
	l0.4-0.1l0.5-0.4v-0.4l0.4-0.1l0.8,0.2l1.3,1.2h0.2l0.2-1.6l0.7-1.5l0.2,0.3l0.2-0.5l0.7-0.6l1.4,0.2l0.2-1.4l0.6,0.1l0.2-0.2
	l0.1,0.4h0.3l0.2-0.3l0.3,0.2v-0.5h0.6l1.5,0.9l0.4-0.3l0.2-0.6l0.5,0.4l0.6-0.4h0.5l0.5,0.4v0.6h0.4L71,71.6h0.2V72l0.2-0.1
	l0.4,0.3l0.4-0.3l0.2,0.3l-0.1,0.3l0.5-0.1l0.4,0.6l0.8-0.2v-0.5l0.8-0.8h0.8l0.1-0.2L75,70.6v-0.4h0.9l0.2-0.3l0.8,0.8h0.4l0.3-0.8
	l0.5-0.2l0.1-0.3l0.4,0.3h0.6l0.4,0.4H80l0.4,0.5H81l0.2-0.4l0.5,0.2l0.1-0.4h0.9l0.6-0.3l0.4,0.7h0.9v0.3l0.6,0.3l0.2,0.6l0.4-0.6
	l0.6-0.2l0.3,0.5h0.4l0.2,0.4h0.9l0.3,0.9l0.8,0.7l-0.1,1.2l0.3,0.2l1.3,0.3l0.7,0.6l0.5-0.2l0.2,0.2L92,76.1l1.4,0.4h0.1l0,0
	L94.3,76.4z"/>
<path id="m3" class="st0" d="M92,92.5l0.7,0.3l-0.3,0.6l0.4,0.6l0.7,0.1l-0.1,0.7l1,1.9l1.5-0.4l1.2,1.3l0.2,1.9l1.4,0.3l1.9-0.6
	l1.1,1.5l-0.5,0.9v0.1l-0.2,0.4l0.9,0.8l-0.6,0.9l0,0l-0.1,0.1l-1.3,0.3l0.3,1.1l-1,0.2l-0.4,1l-1,0.3l-2.3-0.6l-0.3,1.4l-1.6-0.6
	l-1.3,1.5l-0.8,2.3l-0.4-0.1l0,0l-0.3-0.1l-1.5,1.8l0.1,2.7l-1.5,0.9l-1.1,2.7l0.2,1l-0.6,0.4l-0.3,1.3l-1,0.2l-1.1,1.3l0.5,1.7
	l-1.2,0.7v1.5l-1.2,0.5l-0.5,1.7l0.6,0.9l-0.5,0.6l-1-0.2l0.4,0.7l-0.6,0.8l-0.7-0.3l-0.7,0.4l0.1,0.9l-0.9,1.6l0.9,1.1l-0.3,0.9
	l-1.3,0.1l-0.4,2.1l-1,0.1l-0.7,1.2l-2.8-0.9l-1.5,0.2l-0.4,0.5l0.2,1l-0.6-0.1l-0.2,0.9l-1.1,0.8l-2-1.4l-0.6,1l-1.5-0.6l-1.5,1.1
	l-1-1l-0.7,0.3l-0.4-0.6l-0.6,0.7l-0.6-0.7H59l-1.7,1l-1.7-1.3l-2,0.2l-2.6,3l-0.8-0.1l-1.2,0.7l0.2,0.6L47,145l-0.2-0.9h-0.4
	l-0.6,0.8l0.2,0.8l-1,0.1v0.7l-1.5-0.2l-1.3,0.5l-0.2,0.7l-2.2-0.8l-0.6,1.6l-1.5,1.2l-0.5-0.2l-0.6,1.2l0,0l-1.1-0.7l-0.5,0.5
	l-2.8-0.9l-1,0.6l-1-0.6h-1.5L28,150l-0.4-0.9l-2.4-0.6l-1.4-2.1l-3.4-0.2l0.1-0.4h0.2l0.2-0.6l-0.3,0.3l-1.4-0.8l0.6-0.3l-0.6-0.1
	l0.2-0.6h-0.6v-0.5l-0.5,0.1l0.5-0.5l-0.8-0.2l-0.3-1.4l-2.6-1l-1.4-1.2l-0.1-1.2L13,137l-1.8-0.4l-0.7-1.5l-2.1-1L8.2,133l-1.7-1.5
	l0.6-1.3L6.2,130l-0.7-1l0.4-1.9l-0.8-0.6l-2,0.4l-0.6-0.3v-0.1l1.3-1.6l1.1-0.4l0.2-1.1l0.8,0.4l2.5-0.1L7.6,123l0.8-0.5l-0.9-1
	l1-0.6l-0.2-0.5l-1,0.2l0.1-1l-0.6-0.2l0.2-1.3l0.9-0.6L7.1,116l0.2-1.3l0.7,0.5l0.2-0.5l1,0.1l1.2-1l-0.2-1l1-0.9l-0.7-0.5
	l-0.2-1.4l-1,0.2l-2.3-1l0.3-0.7l0.4,0.3l1.1-0.9l-0.1-0.6l0.9-0.2l1.7,0.6l0.4,1.2l1.2-0.1l0.5-0.8l0.2,0.7l3.2-0.5l-0.6-1.9
	l0.3-0.3l-0.9-1.2l1.2-0.4v-1.9l1.5-1l2.1,0.6l1.9,2.5l1.2,0.6l0.3,0.9l0.6-0.2l2.5,1.9l4.6-0.4l3.2,0.6l2.1-0.7l2.9,0.2l1.5-1.3
	l1.6-0.2l-1.5-1.4l-0.1-1.9l1-0.3l0.3-1.3h2.1l0.5-0.6l0.6,0.5l1.3-0.4l1.5,0.5l0.8-0.8l1.5,0.2l0.5-0.4l0.4,0.4l0.9-2.7l1.5-1l1,1
	l0.8-0.3l0.7,0.5l-0.1,0.9l1-0.5l0.6,0.2L58,99.1l0.6-0.1l0.5-0.8l1.5-0.2l0.9-1v-0.7l1.1,0.1l0.3-0.6l1.4,0.2l1.3-2.1l0.1-1.2
	l1.3-1.5l0.2-1.1l4.9-1l0.2,0.6l0.9-0.2l0.5,0.9l1.6-0.2l0.9,0.8l1.4-1l1.2,0.4l0.3-1l1.4,0.1l0.2-0.6l0,0l1.2,0.8l0.3,0.9h1.1
	l0.7,2.7l0.8,0.9l1.7,0.3v-0.6l1.4,0.1l1.4-0.7l1,0.5L92,92.5z"/>
<path id="m2" class="st0" d="M101.2,102.1l0.2-0.5l0,0l0.5-0.9l-0.9-1.5h-1.4l-0.7,0.6l-1.4-0.3l-0.2-1.9l-0.8-1l-1.2-0.3l-0.7,0.4
	l-1-1.9l0.1-0.7l-1.1-0.6l0.3-0.6L91,92.7l0.5-3.8l2.5-2.1l0.1-1.9l0.6-0.7l-0.2-1.4l0.6-0.5l0.8-2.5l1-0.2l0.2-1.7l0.6-0.3l1.2,1.3
	l1.4-0.3l1,1.1l0.7-0.3l-0.5-1.1l0.4-0.7l-0.9-0.2l-0.6-1l-0.6,0.1l0.1-0.7l-0.6,0.3l0.6-1l-0.5-0.5l0.4-0.2l0.1-2.7l-0.7-2.9
	L98.4,68l9.4-12.9l6-5.3l0.4-1.2l4.2-0.6l1-2.1l0.4-2.1l-0.1-1.6l-0.5-0.3l0.2-0.9l-0.9-0.2l0.1-1H118l-0.3-0.6l0.6-1l1.7,0.1
	l0.6-0.7l-1.4-0.5l-1.3-1.5l-0.1-0.9l-0.6-0.4l-0.1-1.6h-0.6l-0.2-0.6l0.1-1.4l-1.8-1.2l-0.6-1.9l-0.7,0.2l-0.2-1l1-2.1l-0.8-0.6
	l0.3-0.9l-0.8-0.4l0.9-0.2l-0.6-0.9l0.4-0.7l-0.9-1l1-0.7l1.6-0.4l0.1,0.6l1.8,0.2l-0.4,1l1.6,0.2l1.9-2.1l2.9-1.9l-0.3-1.5l1.4-1.7
	l3.5-0.5l1.9,0.6l0.7-0.7l0.6,0.3l1-0.5l0.2,0.6l3.7-1.9h1.1l2.2,1.1h1.5l0.2-0.5l2.8,0.6l1-0.2l0.1-0.6l0.6,0.6l1.4,0.2l1.7-0.3
	l1.9,1.5l3.5-0.2v1l1.1,0.9h1l0.7-0.7l1.9,0.3l1,1.4l0.8-0.2l1.4,0.7l0.7-0.7l3.1-0.2l0.1,2.6l0.9,0.2l-0.5,1.3l2.7-0.1l0.5-0.4
	l0.7,0.8l0.1-1.1l1.5,0.6l1-0.2l0.6,0.2v0.9l-0.9,1.1l1.2,1l1.5-1.7l-0.5-1.7l0.3-0.3l1.1,0.4l0.1,0.9l0.8-0.4l-0.6,0.9l1.6-0.2
	l1-0.4l0.8-1.5l1.3-0.9v1.5l0.3-0.2l1,1.3v0.7l1.7-1.3l2.7,0.6l-0.3,0.2l0.3-0.1l0.4,2.8l0.8-0.6l0.2,1.1l0.9-3.3l1.3-0.7l1.4,0.4
	l1.7-1.9h0.9l0.5,1.9l0.7,0.1l-0.1,1.8l0.3,0.9l0.6,0.1l0.2,1.8l1.4-0.9l1.1,0.5l0.6-2l0.6,0.5l0.4-0.8l1.5-0.8l0.5,0.2v1.5l0.7,0.4
	l0.2-0.5l1.1,0.3l0.2-0.9l0.5-0.2L206,23l0.8-0.9l2,0.5L209,22l2.5,2.1l0.2,1l-0.6,0.4l1.4,1.3h0.7l-0.2,0.7l1.7,0.4l0.7-0.6
	l-0.4-0.6l0.9-0.5l0.1-1l-0.5-1.3L215,24l-0.1-0.6l0.6-0.5l-0.8-0.9l0.2-0.9l-0.6,0.1l-0.2-0.6l0.4-0.2l-0.7-0.4l1.1-1.1l-0.3-1.4
	l1-0.2l0.4-1.1l-0.6-0.2l0.8-0.4L216,15l1.4-2.1l0.8,0.1v-1.1l1.2-0.5l0.1-0.8l0.7-0.3l0.1-1.8l0.6,0.3l2.2-0.6l1.6,1.5l0.7-0.2
	l1.1-1.9l0.9-0.2L228,8h2.7l0.8,0.5l2.3-0.3L235,9l-0.6,0.8l2.7,0.2l0.7-0.9l0.8,0.1l2.4-1.9l-0.6-0.2l0.4-0.8l-0.3-1l1.1-0.5
	l-0.8-1.7l0.4-0.6l1.7,0.6l0.9-0.2l2.2,1.9l0.8-0.5l0.9,0.2l0.2-0.5l0.7,0.1l0.4,0.7l0.7-0.7l0.6,0.1l0.9-1.4l0.2,0.6l1-1l0.5,0.1
	l0.3-0.9l1.7,0.7l1.1-0.6l1,0.7l0.1-0.6l0.8,0.2l-0.4,1l1.2,0.2l-0.3-0.6L259,3l1.5-1.1l2.3-0.1v1l1.2,0.3l0.2,1.4l1.7,1.1l0.1,0.8
	l0.9,0.6l-0.8,1.6l0.6,0.7l-0.1,0.9h0.6V11l0.8,0.1l0.4,1.1l0.6,0.2l-0.2,0.7l0.8-0.2l1.5,1.3l0.5,2.1l-0.5,0.6l-1.5-0.1l-3.3,1.3
	l1.3,0.5l0.2,1.1l1,0.5l0.2,1l0.7,0.3l-1.3,2.4l1.7,1.5l-0.8,0.4l-0.7,1.7l1,0.6l1.1-0.8l2.9,0.9l0.3-0.5l0.9,0.2l0.1,1.2l0.6,0.6
	l1-0.3l0.7,0.4l0.4-0.7l0.6,0.2l1-1l1,0.7l0.4-0.6l1.2,0.2l-0.4,1.5l0.7,1V32l-0.4,0.1l0.7,0.8l1.6-0.7l1.5,0.6l-0.5,1l-0.7-0.2
	l0.5,1l-0.4,0.6l1.1,0.8l-0.3,1l0.6,0.6l-0.2,1l1.2,0.6l-0.5,2.1l0.6,0.2L287,42l-1.4,0.1l0.5,1.1l-0.5,0.6l1.2,2.1l1.6,0.9v1.4
	l0.6,0.9l1.7-0.1l1.3-1.8l3.5-0.4l1.4,0.4l1.8,2.3l0.2,1l1,0.2l1-1l1.5,1.1l0.7-0.1l-0.2,1l1.2,0.6l0.6-1.1l2.6-1.6l4.4-0.5l1.8-1
	l0.5-0.8l1,0.2l1.4-0.6l-0.3,2l1.6,1.5h0.9l-0.4,2l0.4,1l1.7,2.3l0.6-0.2l1.8,1l1.9,2.4l-0.4,0.2l0.2,0.6l1.3-1l0.2,0.5l1.3-1.3
	l-0.6-2.3l2-0.2l0.5,1.9l1,0.6l0.7-0.3l0.4,0.8l1.9-0.3l0.5,0.5l0.6-1.2l0.4,0.5l-0.3,1.2l1.5,1.3l1.6,0.2l0.4,1.7l2-0.5l1.7-1.6
	l1.5,3l1.4,0.4l1-0.5l2.3,0.6l-0.3,0.4l1,2.3l1.3,0.4l0.9,1h1.3l0.9-0.9l2.7-0.5l0.6,1.1l-1.9,1L354,70l2.4,2.3l-0.2,1.2l0.6,0.8
	l-2.9,1.9l-1.3,2.7l-4,0.3l0.1,1.2h1.1l0.3,1.5l0.7,0.7l0.2-0.4l1.3,0.2l1,0.6l0.7-1l0.5,1l-1.5,1.8l-2.6-1.1l-0.4,1.7h-0.5l-0.5,1
	l0.1,1.5l-0.7,1l0.4,0.6l1.6-0.2l0.8,0.6l-0.1,2.2l0.7,0.5l0.7,2.1l-1.5,0.4l-0.1,0.6l0.9,0.2l0.2,0.7l1-1l0.5,1.4l-0.2,0.6l-1-0.1
	l-0.1,1h-0.4l-0.6,2.3l-0.5,0.2l0.7,0.6H350l0.7,1.9l-0.5,1.9l-0.4-0.1l-0.4,1l-3.1,0.1l-0.9-0.8l-0.7,0.7l-0.4-1l-3.5,0.6l-1-0.2
	v-0.4h-3.6l-0.2,1.1h-0.6l-0.2,2.9l-1.5-0.3v0.6h-0.6l-0.2,0.6h-2.3v0.6H329l0.1,0.9h-0.6l-0.1,4l-0.9,0.6l-0.3,1.3h1.7l-0.1,1
	l-1.5,0.6l-0.1,2.3l0.1,0.3h-0.2l-1.7,1.8l0.3-1l-0.8-0.6l-0.7,0.4l-2.4-0.4l-2.2,0.6l-1.9-0.3l-1.4,1.1l-2.2,3.3l-1.6-1.1l-5.5,2.9
	l-1,2.7l0.2-1l-1.6-1.2l-4.4,1.2l-1.4,1.4l-0.4,1.1l-1.3-1.3l-4.2,0.3l-6.1,4.4l-1.6,1.7l-2.9,4.8l-2.7,1.5l0.6-1.5l2.3-0.9l2.1-3.2
	l0.1-0.6l-0.6,0.5l-0.6-0.2l0.2-1.9l-1-0.6l-0.4-1l-0.3,0.4l0.6,2.1l-1.5,2.1l-1.1,1h-2l-1.2,1.9l1,5.1l1.2,2.8l5.5,8.8l2.7,1.6
	l2.9-1l1.7-2.7l0.4,0.1l-0.1,1.1l1.9,1l1.9-1.9l2.4-0.4l0.2,0.6h2.8l0.6,0.7l0.7-0.4l0.8,1.6l-0.8,0.4l-1.2-0.3l-0.2,1.2l-0.8,0.4
	l-0.4,2.5l0.5,1.8l-2.6,0.5l-0.6,0.7l-2.6-0.9l-0.8,1l-2.1,0.2l-2.1-2.1l-2.9-0.4l-1.5,1l-0.2,0.8l0.6,0.4l-0.9,0.1l-0.2,1.2
	l-0.6-0.6l-1,0.2l-0.6,0.9l-0.9,0.2l-1.1,2.3l-1.9-1l-0.9,0.5l-2-0.1l-3.7,1.6l-1.3,1.5l-1.2,2.6h-0.9l-2.5,2.5l-2.4,0.9l-4.3-0.9
	l-1-1.5l-0.9,0.2l-2.2-1.8l3-1l-0.9-0.2l0.5-1.4l-0.5-1.8l1.4-1.8l0.2-1.2l-1.2-3.9l-2-1.5l-2,0.7l-5.3-4.2l-2.5-0.1l-1,0.8h-1
	l-1.1-0.4l-0.5-1.5l2.4-2.3l1.6-0.9h1l0.6-1.4l4.6-2.4l-0.2-0.8l1.5,0.6l3.1-2.2l0.7,0.3l1.3-0.9l1,0.5l0.1-1.1l1.2-0.3l-1.4-0.6
	l-1,0.2l0.5-2.9l-0.6-1.2l-1.2,0.5l0.4,0.7l-0.7,0.2l0.1,0.7l-1.3-0.2l-1-1l-1,0.2l0.4-0.7l-1.5,0.1l0.2-2.1l-1.6,1.9l-1.5-0.7
	l-0.1,0.9l-3.7-0.2l-3.9,1.2l-3.6-1l-0.3-1l0.4-0.6l-2-0.1l-1.1-1.2l-0.5,0.2l-1.9-1.4l-0.1,0.9l-1.5-0.3l-0.2-0.5l0.5-0.6l2.5-0.2
	l1.2-1.2l-0.6-0.9l-3.8-1l-0.9,0.4l-0.1,1l-2.6-3.4l1,1l2.6-0.2l1.5,0.7l3.7,0.2l3,1l1.2-0.3l0.6-1.4l3.1-2.3l-4.5,1.9l-1.3-1
	l-1.5,1l-0.4-1l-1.4-0.5l-1.2-2.7l1-3.4l-0.6-0.4l-0.5-0.4l0.6-1.2l-1.6-0.3l0.5-1.5l-1.4-2.1l0.2,1.5l0.9,0.6l-0.6,1.8l1.6,0.2
	l-0.7,1.2l0.4,0.4l0.6-0.2l-0.4,1.6l-1.1,1.1l0.6,1.5l-0.2,2.1l-1.1,0.4l-2.1-0.6l-1.1,0.2l-0.2,0.6l-1.3-0.3l1.9-4l-1.6,1.5l-1-1.2
	l0.9,1.7l-1.3,1.9l-1.1,0.6l-2.7-0.6l-5.4,1.7l-0.5,0.7l0.6,1.5l-0.4,1l-0.9,1l-0.9,0.1l0.5,0.9l-2.8,4.7l-4.2,4.8l-1,0.7l-0.2-1.5
	l-0.5,1.6l-1.9-0.6l-0.2,1.5l-0.2-1l-0.2,0.4l0.2,1.5l-0.6-0.8l-1.3,0.6l0.1,0.7l0.9,0.6l-1.9,1.2l-0.7-1.8l0.2-1.8l-0.9-0.8
	l-0.6,5.5l0.8,0.3l0.9-0.6l-1.5,1.9l0.5,0.8l0.2-0.7l0.8,0.8l0.5-0.6l0.2,3l-0.4,1.8l-0.7,0.2l-0.4-2.4l-1.2-1.3l-2-0.8l-2.8,0.2
	l-4,2.1l-0.3,1.1l-2.2-1.2l0.1,0.8l-0.7,0.4l0.6,0.7l-1,0.4l-2.3-0.5l-3.4-1.7l-0.7-2.3l-1-0.6l1.4-1.6l1.7,0.7v0.6l1.4-0.2
	l-0.3-1.5l0.7-0.2l-0.9-2.2l0.6-1.1l1,0.2l-0.2-0.9l1.9-0.2L187,149l1.3-0.3l-0.4-2.7l3.2-1l0.4-1l-0.5-1l1.8-2.2l-1.7-1.3l0.7-1.3
	l-1-3l1.4-0.1l-0.6-0.6l2.7-0.5v-0.6l1-0.3l0.3,1.5l-0.6,0.5l0.4,1l-0.6,0.6l0.5,0.2l0.3-0.6l0.9-0.2l-0.2-1l0.6-0.9l0.6,1.7
	l0.8-1.5l0.8,0.8l-0.2,0.7l1,0.2l0.6,1.3l1.1-0.2l-0.3-1.5h1.1l0.1-0.8l1.2,1.6l-0.2,0.2l1.3,0.7l0.6-1h1.8l0.6,0.6l1-0.8l-0.1-0.4
	l-0.4,0.4l-0.5-0.6l-0.3,0.4l-0.8-0.4l-0.5-1.5l-0.7,0.3l-0.9-1l1-0.3l0.4-4.2l-0.6-1.1l0.5-0.5l-0.4-0.2l-0.6,0.5l-0.3-1.5
	l-1.9,0.6l-0.5-1.5l-1,0.2l-0.1-0.7l-1,0.3l0.5-2.2l0.4-0.1l-0.2-1.2l-1.2,0.6l-0.6-1.3l1.3-0.1l-0.4-2.1l0.6-0.5l-0.3-2.5l-1.3,0.3
	v1.1l-0.9,0.3l-0.6-0.8l0.1-1h-0.9l-0.2-1.6l-1,0.7l-0.1-1l-0.7,0.8v-1l-0.5,0.3l0.5-1.4l-0.6,0.2l-0.5-1l0.9-0.3l0.6-1l-0.2-2.3
	l1.1-1.8l-0.9,0.1l-0.3-0.5l1.3-1.5l-1.2,0.1l-0.4-2.4l-1.2,0.2L193,103l-1.7-0.8l-0.5,0.4l-0.7-0.8l0.3-0.3l-0.9-0.5l-0.1-2.1
	l-2.2,0.1l-0.1-0.5l-1.5-0.7l-1,0.6l-0.3,1.9l-0.9-1.1l0.1-1.2l-0.6-0.1l-0.6,1l-0.5-0.2l0.8-1l-0.1-1.3l-2,0.9l-0.5-0.2l-0.1-0.9
	l-1.2,0.6l-0.4-1.9l-1.7-0.2l-1.4-1.9l-1.5-1l-1.9,0.3l-0.6-0.5l0.2-0.6l-2,0.9l-0.3,1l-1.9-0.8l-0.5,1.6l-1.4-0.6l-1,0.4l-0.6-1.3
	l-1.1,0.3l0.6,1l-0.6-0.2l-0.2,0.5l-1.5-0.5l-0.3-0.9l-1.5,0.1l-1,0.3l0.8,1.1l0.9,0.2l-0.1,1.1l-0.9-0.6l-0.3,0.2l-0.8-1l0.2,0.7
	l-1.2,1.1l0.1,0.8l-4.3,1.3l0.1,0.6l-1.8,2.3l-0.4,1.3l-4.8,0.5l-1.3,0.7l-2.2-0.2l-4.6,0.8l-1.2,0.4l-1.7,3.1l-0.9,0.2l-0.2,0.5
	h-2.3l-0.8-2.1l-1.9-0.4l-1.1-2.5l-0.6-0.3l-1.2,0.3l-1-0.4l-0.8,1l-2.3,0.6l-1.6-0.4l-1.5-1.1l-2.2,0.8l-0.8-1.2l-2.1,0.1l-2-0.9
	l-0.5,1.2l-2.3-1.1l-0.9-0.9l-0.1-0.9l-1.2,0.1l-0.3-0.5l-0.7,0.6l-0.3,1.9l-1.2,0.3l-1.2-0.6l0.3,1.1l-0.8,0.3l-0.6-0.6l0,0
	L101.2,102.1z M205.1,152l-2.7,1.6l5.7-4.5L205.1,152z M238.2,141.8l-8.6-2.4l-0.3-0.6l0.9,0.7l4.8,1.1L238.2,141.8z M251.3,144.5
	l-6.5-0.8l5.5,0.4L251.3,144.5z"/>
<g id="svg-marker-svg" transform="translate(333, 154)">
	<g id="svg-id-m0-svg" transform="translate(-12.6, -12.6)">
		<path d="M-102.9-94.2c0,2.4-1.9,4.3-4.3,4.3s-4.3-1.9-4.3-4.3s1.9-4.3,4.3-4.3S-102.9-96.6-102.9-94.2z"/>
	</g>
</g>
<g class="st1">
	<path d="M224.6,41.6v9.2c0,0.5,0.1,0.9,0.2,1c0.1,0.1,0.6,0.2,1.2,0.4v0.7h-6.1v-0.7c0.6-0.1,1-0.1,1.2-0.4c0.1-0.1,0.2-0.5,0.2-1
		v-9.2c0-0.5-0.1-0.9-0.2-1c-0.1-0.1-0.5-0.2-1.2-0.4v-0.7h6.1v0.7c-0.6,0.1-1.1,0.1-1.2,0.4C224.6,40.7,224.6,41.1,224.6,41.6z
		 M227.4,45l4,5.9c0.4,0.5,0.6,0.9,0.9,1c0.2,0.1,0.6,0.2,1,0.4V53h-4c-0.5-0.5-1.1-1.1-1.6-2l-3-4.5l4.5-4.7
		c0.4-0.4,0.5-0.6,0.5-0.9c0-0.1-0.1-0.2-0.2-0.4c-0.2-0.1-0.5-0.1-1.1-0.1v-0.7h4.4v0.7c-0.4,0-0.7,0.1-0.9,0.2
		c-0.2,0.1-0.5,0.2-0.7,0.6L227.4,45z"/>
	<path d="M238.7,49.8l2-5.2c0.1-0.2,0.1-0.5,0.1-0.5c0-0.2-0.1-0.4-0.2-0.4c-0.1-0.1-0.5-0.1-1-0.2v-0.6h3.4v0.6
		c-0.4,0.1-0.5,0.1-0.6,0.2c-0.1,0.1-0.2,0.2-0.2,0.5L238,54.6c-0.4,0.9-0.7,1.5-1.1,1.9c-0.4,0.4-0.9,0.6-1.5,0.6
		c-0.7,0-1.2-0.2-1.5-0.9v-1.1c0.5,0.1,1,0.1,1.4,0.1c0.5,0,1-0.1,1.2-0.2s0.5-0.5,0.7-1l0.2-0.7l-4.1-9.1c-0.1-0.2-0.2-0.4-0.4-0.5
		c-0.1-0.1-0.4-0.1-0.6-0.2v-0.6h5.6v0.6c-0.5,0.1-0.9,0.1-1,0.2c-0.1,0.1-0.2,0.2-0.2,0.4c0,0.1,0,0.2,0.1,0.5L238.7,49.8z"/>
	<path d="M247.4,42.6v8.9c0,0.2,0.1,0.5,0.2,0.6c0.1,0.1,0.5,0.1,0.9,0.1v0.6h-5.2v-0.6c0.4,0,0.7-0.1,0.9-0.1
		c0.1-0.1,0.2-0.2,0.2-0.6v-6.6l-1.1-0.6v-0.4l3.6-1h0.5L247.4,42.6L247.4,42.6z M245.9,41.6c-0.5,0-0.9-0.1-1.2-0.5
		c-0.4-0.2-0.5-0.7-0.5-1.1c0-0.4,0.1-0.9,0.5-1.1c0.4-0.4,0.7-0.5,1.2-0.5s0.9,0.1,1.2,0.5c0.4,0.4,0.5,0.7,0.5,1.1
		c0,0.5-0.1,0.9-0.5,1.1S246.4,41.6,245.9,41.6z"/>
	<path d="M259.5,42.7v0.6c-0.4,0.1-0.5,0.1-0.6,0.2c-0.1,0.1-0.2,0.2-0.2,0.5l-3.9,8.7H254l-4.2-8.7c-0.1-0.2-0.2-0.4-0.4-0.5
		c-0.1-0.1-0.4-0.1-0.6-0.2v-0.6h5.6v0.6c-0.5,0.1-0.9,0.1-1,0.2c-0.1,0.1-0.2,0.2-0.2,0.4s0,0.2,0.1,0.5l2.1,4.9l2-4.9
		c0.1-0.2,0.1-0.4,0.1-0.5c0-0.2-0.1-0.4-0.2-0.4c-0.1-0.1-0.5-0.1-1-0.2v-0.6C256.3,42.7,259.5,42.7,259.5,42.7z"/>
</g>
<g>
	<g>
		<path d="M74.7,99.4c1.6,0,3.1,0.4,4.2,1.1v3.1H78c-0.5-2.2-1.6-3.4-3.4-3.4c-1.1,0-2.1,0.5-2.7,1.6s-0.9,2.5-0.9,4.1
			c0,1.7,0.4,3.2,1,4.4s1.6,1.7,2.7,1.7c0.9,0,1.6-0.2,2.2-1c0.6-0.6,1-1.6,1.4-3h0.9l-0.2,3.6c-1.1,0.7-2.6,1.2-4.5,1.2
			c-2.1,0-3.7-0.6-5-1.7s-1.9-2.7-1.9-4.7c0-2.1,0.6-3.9,2-5.2C71.1,100.1,72.8,99.4,74.7,99.4z"/>
		<path d="M81.4,111.4V99.9l-1.1-0.6v-0.5l3.6-0.9h0.5v6.4c1-1.2,2.2-1.9,3.5-1.9c1.9,0,2.7,1,2.7,3.1v5.7c0,0.2,0.1,0.5,0.2,0.6
			s0.5,0.1,0.9,0.1v0.6h-5.2V112c0.4,0,0.7-0.1,0.9-0.1c0.1-0.1,0.2-0.2,0.2-0.6v-5.5c0-0.5-0.1-0.9-0.2-1.1c-0.2-0.2-0.5-0.4-1-0.4
			c-0.6,0-1.2,0.2-1.9,0.6v6.4c0,0.2,0.1,0.5,0.2,0.6s0.4,0.1,0.9,0.1v0.6h-5.2V112c0.4,0,0.7-0.1,0.9-0.1
			C81.4,111.9,81.4,111.8,81.4,111.4z"/>
		<path d="M97.5,113c-1.5,0-2.7-0.5-3.6-1.4s-1.4-2.1-1.4-3.6c0-1.6,0.5-2.9,1.5-3.9s2.1-1.5,3.6-1.5s2.7,0.5,3.6,1.4
			s1.4,2.1,1.4,3.6c0,1.6-0.5,2.9-1.5,3.9S99,113,97.5,113z M97.6,112.4c1.1,0,1.7-1.4,1.7-4c0-3.4-0.6-5-1.9-5
			c-1.1,0-1.7,1.4-1.7,4C95.6,110.7,96.3,112.4,97.6,112.4z"/>
		<path d="M104.4,115.4v-10.7l-1.1-0.6v-0.4l3.6-1h0.5l-0.1,1.7c0.7-1.2,1.9-1.7,3.1-1.7c1.1,0,2.1,0.4,2.7,1.2c0.7,0.7,1,2,1,3.4
			c0,1.9-0.5,3.2-1.5,4.2s-2.2,1.5-3.7,1.5c-0.7,0-1.4-0.1-1.7-0.5v2.7c0,0.4,0.1,0.5,0.2,0.6s0.6,0.1,1.2,0.2v0.6H103V116
			c0.5,0,0.7-0.1,0.9-0.1C104,116,104.4,115.8,104.4,115.4z M109,112.3c0.7,0,1.2-0.4,1.7-1.1c0.4-0.7,0.6-1.7,0.6-2.9
			c0-1.2-0.2-2.1-0.6-2.7s-1-1-1.9-1c-0.5,0-1,0.1-1.4,0.5v5.2C107.4,111.5,107.9,112.3,109,112.3z"/>
	</g>
</g>
<g id="svg-marker-svg_00000152239500143598975710000012188945915388819120_" transform="translate(220, 196)">
	<g id="svg-id-m1-svg" transform="translate(-12.6, -12.6)">
		<path d="M-112.2-90.8c0,2.4-1.9,4.3-4.3,4.3s-4.3-1.9-4.3-4.3s1.9-4.3,4.3-4.3S-112.2-93.2-112.2-90.8z"/>
	</g>
</g>
<g>
	<path class="st2" d="M23.5,80.1h-3.7v3h4.3V84h-5.4v-8.5h5.4v0.9h-4.2v2.7h3.7L23.5,80.1L23.5,80.1z"/>
	<path class="st2" d="M30.1,81.9c0-0.2,0-0.4-0.1-0.5s-0.2-0.3-0.3-0.4s-0.4-0.2-0.6-0.4s-0.6-0.2-1-0.3c-0.4-0.1-0.8-0.3-1.1-0.4
		s-0.6-0.3-0.9-0.5s-0.4-0.4-0.6-0.7s-0.2-0.6-0.2-0.9s0.1-0.6,0.2-0.9s0.3-0.5,0.6-0.7s0.6-0.4,0.9-0.5s0.8-0.2,1.2-0.2
		c0.5,0,0.9,0.1,1.3,0.2s0.7,0.3,0.9,0.6s0.5,0.5,0.6,0.8s0.2,0.6,0.2,1h-1.1c0-0.2,0-0.5-0.1-0.7s-0.2-0.4-0.3-0.5
		s-0.4-0.3-0.6-0.3s-0.5-0.1-0.8-0.1s-0.6,0-0.8,0.1s-0.4,0.2-0.6,0.3s-0.3,0.3-0.3,0.4s-0.1,0.4-0.1,0.6s0,0.3,0.1,0.5
		s0.2,0.3,0.4,0.4s0.4,0.2,0.6,0.3s0.6,0.2,0.9,0.3c0.5,0.1,0.9,0.3,1.3,0.5s0.6,0.4,0.9,0.6s0.4,0.4,0.5,0.7s0.2,0.6,0.2,0.9
		s-0.1,0.7-0.2,0.9s-0.3,0.5-0.6,0.7s-0.6,0.4-0.9,0.5s-0.8,0.2-1.2,0.2c-0.3,0-0.5,0-0.8-0.1s-0.5-0.1-0.8-0.2s-0.5-0.2-0.7-0.4
		s-0.4-0.3-0.5-0.5s-0.3-0.4-0.4-0.6s-0.3-0.7-0.3-1h1.1c0,0.3,0.1,0.5,0.2,0.8s0.3,0.4,0.5,0.5s0.4,0.2,0.7,0.3s0.5,0.1,0.8,0.1
		c0.6,0,1-0.1,1.4-0.4S30.1,82.3,30.1,81.9z"/>
	<path class="st2" d="M33.8,83.1h4V84h-5.2v-8.5h1.1v7.6H33.8z"/>
	<path class="st2" d="M45.3,80.1c0,0.6-0.1,1.2-0.2,1.7s-0.4,0.9-0.7,1.3s-0.7,0.6-1.1,0.8s-0.9,0.3-1.4,0.3s-1-0.1-1.4-0.3
		s-0.8-0.5-1.1-0.8s-0.5-0.8-0.7-1.3s-0.3-1.1-0.3-1.7v-0.5c0-0.6,0.1-1.2,0.3-1.7s0.4-0.9,0.7-1.3s0.7-0.6,1.1-0.8s0.9-0.3,1.4-0.3
		s1,0.1,1.4,0.3s0.8,0.5,1.1,0.8s0.5,0.8,0.7,1.3s0.2,1.1,0.2,1.7V80.1z M44.2,79.5c0-0.5-0.1-1-0.2-1.3s-0.3-0.7-0.5-1
		s-0.4-0.5-0.7-0.6s-0.6-0.2-1-0.2c-0.3,0-0.7,0.1-0.9,0.2s-0.5,0.3-0.7,0.6s-0.4,0.6-0.5,1s-0.2,0.8-0.2,1.3v0.6
		c0,0.5,0.1,1,0.2,1.4s0.3,0.7,0.5,1s0.4,0.5,0.7,0.6s0.6,0.2,0.9,0.2c0.4,0,0.7-0.1,1-0.2s0.5-0.3,0.7-0.6s0.3-0.6,0.4-1
		s0.2-0.8,0.2-1.4L44.2,79.5L44.2,79.5z"/>
	<path class="st2" d="M49.7,82.6l2.4-7h1.2l-3.2,8.5h-1L46,75.5h1.2L49.7,82.6z"/>
	<path class="st2" d="M58.8,81.8h-3.6L54.4,84h-1.2l3.3-8.5h1l3.3,8.5h-1.2L58.8,81.8z M55.5,80.9h2.9l-1.5-4L55.5,80.9z"/>
	<path class="st2" d="M68.3,80.1c0,0.8-0.1,1.5-0.4,2.1s-0.6,1.1-1.1,1.4l1.5,1.2l-0.8,0.7l-1.8-1.4c-0.3,0.1-0.6,0.1-0.9,0.1
		c-0.5,0-1-0.1-1.4-0.3s-0.8-0.5-1.1-0.8s-0.5-0.8-0.7-1.3s-0.3-1.1-0.3-1.7v-0.5c0-0.6,0.1-1.2,0.3-1.7s0.4-0.9,0.7-1.3
		s0.7-0.6,1.1-0.8s0.9-0.3,1.4-0.3s1,0.1,1.4,0.3s0.8,0.5,1.1,0.8s0.5,0.8,0.7,1.3s0.2,1.1,0.2,1.7v0.5H68.3z M67.2,79.5
		c0-0.5-0.1-1-0.2-1.3s-0.3-0.7-0.5-1s-0.4-0.5-0.7-0.6s-0.6-0.2-1-0.2c-0.3,0-0.7,0.1-0.9,0.2s-0.5,0.3-0.7,0.6s-0.4,0.6-0.5,1
		s-0.2,0.8-0.2,1.3v0.6c0,0.5,0.1,1,0.2,1.4s0.3,0.7,0.5,1s0.4,0.5,0.7,0.6c0.3,0.1,0.6,0.2,0.9,0.2c0.4,0,0.7-0.1,1-0.2
		s0.5-0.3,0.7-0.6s0.3-0.6,0.4-1s0.2-0.8,0.2-1.4L67.2,79.5L67.2,79.5z"/>
	<path class="st2" d="M76.1,75.5v5.8c0,0.5-0.1,0.9-0.3,1.3s-0.4,0.7-0.7,0.9s-0.6,0.4-1,0.5s-0.8,0.2-1.2,0.2
		c-0.4,0-0.8-0.1-1.2-0.2s-0.7-0.3-1-0.5S70.2,83,70,82.6s-0.2-0.8-0.2-1.3v-5.8H71v5.8c0,0.3,0,0.6,0.1,0.9s0.2,0.4,0.4,0.6
		s0.4,0.3,0.6,0.4s0.5,0.1,0.8,0.1s0.6,0,0.8-0.1s0.4-0.2,0.6-0.4s0.3-0.4,0.4-0.6s0.1-0.5,0.1-0.9v-5.8H76.1z"/>
	<path class="st2" d="M79,84.1h-1.1v-8.5H79V84.1z"/>
	<path class="st2" d="M85.9,81.8h-3.6L81.5,84h-1.2l3.3-8.5h1l3.3,8.5h-1.2L85.9,81.8z M82.7,80.9h2.9l-1.5-4L82.7,80.9z"/>
</g>
<g>
	<path class="st2" d="M26.9,128.7h-1.1v-3.9h-4.3v3.9h-1.1v-8.5h1.1v3.7h4.3v-3.7h1.1V128.7z"/>
	<path class="st2" d="M34.9,120.2v5.8c0,0.5-0.1,0.9-0.3,1.3s-0.4,0.7-0.7,0.9s-0.6,0.4-1,0.5s-0.8,0.2-1.2,0.2
		c-0.4,0-0.8-0.1-1.2-0.2s-0.7-0.3-1-0.5s-0.5-0.5-0.7-0.9s-0.2-0.8-0.2-1.3v-5.8h1.1v5.8c0,0.3,0,0.6,0.1,0.9s0.2,0.4,0.4,0.6
		s0.4,0.3,0.6,0.4s0.5,0.1,0.8,0.1s0.6,0,0.8-0.1s0.4-0.2,0.6-0.4s0.3-0.4,0.4-0.6s0.1-0.5,0.1-0.9v-5.8
		C33.5,120.2,34.9,120.2,34.9,120.2z"/>
	<path class="st2" d="M43.2,128.7h-1.1l-4.3-6.6v6.6h-1.1v-8.5h1.1l4.3,6.6v-6.6h1.1V128.7z"/>
	<path class="st2" d="M51.5,127.6c-0.1,0.1-0.2,0.2-0.3,0.4c-0.1,0.2-0.3,0.3-0.6,0.4s-0.5,0.2-0.9,0.3s-0.8,0.1-1.2,0.1
		c-0.5,0-1-0.1-1.4-0.3s-0.8-0.4-1.1-0.8s-0.6-0.8-0.7-1.3s-0.3-1.1-0.3-1.7V124c0-0.6,0.1-1.2,0.2-1.7s0.4-0.9,0.7-1.3
		s0.6-0.6,1.1-0.8s0.9-0.3,1.5-0.3c0.5,0,0.9,0.1,1.3,0.2s0.7,0.3,0.9,0.5s0.5,0.5,0.6,0.8s0.3,0.7,0.3,1h-1.1
		c0-0.2-0.1-0.4-0.2-0.7s-0.2-0.4-0.4-0.5s-0.4-0.3-0.6-0.4s-0.5-0.1-0.8-0.1c-0.4,0-0.7,0.1-1,0.2s-0.5,0.4-0.7,0.6s-0.3,0.6-0.4,1
		s-0.1,0.8-0.1,1.3v0.7c0,0.5,0.1,0.9,0.2,1.3s0.3,0.7,0.5,1s0.5,0.5,0.8,0.6s0.6,0.2,1,0.2c0.3,0,0.6,0,0.8-0.1s0.4-0.1,0.5-0.2
		s0.3-0.1,0.4-0.2s0.2-0.1,0.2-0.2V125h-2v-0.9h3.1v3.5H51.5z"/>
	<path class="st2" d="M56.5,125.2h-2v3.5h-1.1v-8.5h2.8c1,0,1.7,0.2,2.2,0.7s0.8,1.1,0.8,1.9c0,0.5-0.1,1-0.4,1.4s-0.7,0.7-1.2,0.9
		l2,3.6v0.1h-1.2L56.5,125.2z M54.5,124.3h1.7c0.3,0,0.6,0,0.8-0.1s0.4-0.2,0.6-0.3s0.3-0.3,0.3-0.5s0.1-0.4,0.1-0.6s0-0.5-0.1-0.7
		s-0.2-0.4-0.3-0.5s-0.3-0.3-0.6-0.3s-0.5-0.1-0.8-0.1h-1.7V124.3z"/>
	<path class="st2" d="M62,117.8h1.3l-1.6,1.7h-0.9L62,117.8z M62,128.7h-1.1v-8.5H62V128.7z"/>
	<path class="st2" d="M68.9,126.5h-3.6l-0.8,2.2h-1.2l3.3-8.5h1l3.3,8.5h-1.2L68.9,126.5z M65.6,125.5h2.9l-1.5-4L65.6,125.5z"/>
</g>
<rect x="21.5" y="192.4" class="st3" width="90.6" height="23.4"/>
<text transform="matrix(1 0 0 1 21.5445 201.3953)" class="st2" style="font-family:'Roboto-Regular'; font-size:12px;">ESLOVAQUIA</text>
<g>
	<path class="st2" d="M239.7,83.4v6.7c0,0.6-0.1,1.1-0.3,1.5s-0.5,0.8-0.8,1c-0.3,0.3-0.7,0.5-1.2,0.6c-0.4,0.1-0.9,0.2-1.4,0.2
		s-1-0.1-1.4-0.2s-0.8-0.3-1.1-0.6c-0.3-0.3-0.6-0.6-0.8-1s-0.3-0.9-0.3-1.5v-6.7h1.3v6.7c0,0.4,0.1,0.7,0.2,1
		c0.1,0.3,0.3,0.5,0.5,0.7s0.4,0.3,0.7,0.4s0.6,0.1,0.9,0.1c0.3,0,0.7,0,0.9-0.1c0.3-0.1,0.5-0.2,0.7-0.4c0.2-0.2,0.4-0.4,0.5-0.7
		c0.1-0.3,0.2-0.6,0.2-1v-6.7H239.7z"/>
	<path class="st2" d="M249.1,90.2c-0.1,0.5-0.2,0.9-0.3,1.3c-0.2,0.4-0.4,0.8-0.7,1c-0.3,0.3-0.7,0.5-1.1,0.7
		c-0.4,0.2-1,0.2-1.6,0.2s-1.1-0.1-1.6-0.3s-0.9-0.5-1.2-0.9s-0.6-0.9-0.8-1.5s-0.3-1.2-0.3-1.9v-1c0-0.7,0.1-1.3,0.3-1.9
		s0.5-1.1,0.8-1.5s0.8-0.7,1.3-0.9c0.5-0.2,1-0.3,1.7-0.3c0.6,0,1.1,0.1,1.5,0.2c0.4,0.2,0.8,0.4,1.1,0.7c0.3,0.3,0.5,0.6,0.7,1.1
		s0.3,0.9,0.3,1.4h-1.3c-0.1-0.3-0.1-0.7-0.2-0.9c-0.1-0.3-0.2-0.5-0.4-0.7s-0.4-0.3-0.7-0.5s-0.6-0.2-1-0.2s-0.8,0.1-1.2,0.3
		s-0.6,0.4-0.8,0.7s-0.4,0.7-0.5,1.1s-0.2,0.9-0.2,1.4v1c0,0.5,0.1,0.9,0.2,1.4s0.3,0.8,0.5,1.1c0.2,0.3,0.5,0.6,0.8,0.8
		c0.3,0.2,0.7,0.3,1.1,0.3c0.4,0,0.8-0.1,1.1-0.2s0.5-0.2,0.7-0.4c0.2-0.2,0.3-0.4,0.4-0.7c0.1-0.3,0.2-0.6,0.2-0.9
		C247.9,90.2,249.1,90.2,249.1,90.2z"/>
	<path class="st2" d="M254.6,89.3h-2.3v4H251v-10h3.3c1.1,0,2,0.3,2.6,0.8s0.9,1.3,0.9,2.2c0,0.6-0.2,1.2-0.5,1.6s-0.8,0.8-1.4,1
		l2.3,4.2v0.1h-1.4L254.6,89.3z M252.2,88.3h2c0.4,0,0.7,0,0.9-0.1s0.5-0.2,0.7-0.4s0.3-0.4,0.4-0.6s0.1-0.5,0.1-0.7
		c0-0.3,0-0.5-0.1-0.8c-0.1-0.2-0.2-0.4-0.4-0.6s-0.4-0.3-0.7-0.4s-0.6-0.1-1-0.1h-2v3.7H252.2z"/>
	<path class="st2" d="M265,90.8h-4.2l-0.9,2.6h-1.4l3.8-10h1.1l3.8,10H266L265,90.8z M261.3,89.7h3.4L263,85L261.3,89.7z"/>
	<path class="st2" d="M276.3,93.4H275l-5-7.7v7.7h-1.3v-10h1.3l5,7.7v-7.7h1.3V93.4z"/>
	<path class="st2" d="M280.1,93.4h-1.3v-10h1.3V93.4z"/>
	<path class="st2" d="M288.1,90.8h-4.2l-0.9,2.6h-1.4l3.8-10h1.1l3.8,10H289L288.1,90.8z M284.3,89.7h3.4L286,85L284.3,89.7z"/>
</g>
<rect x="107.5" y="191.1" class="st3" width="90.6" height="23.4"/>
<text transform="matrix(1 0 0 1 107.4808 201.6313)" class="st2" style="font-family:'Roboto-Regular'; font-size:14px;">UCRANIA</text>
<line class="st4" x1="91.2" y1="93.1" x2="213.2" y2="47.2"/>
</svg>
