<?xml version="1.0" encoding="utf-8"?>
<!-- Generator: Adobe Illustrator 27.4.1, SVG Export Plug-In . SVG Version: 6.00 Build 0)  -->
<svg version="1.1" xmlns="http://www.w3.org/2000/svg" xmlns:xlink="http://www.w3.org/1999/xlink" x="0px" y="0px"
	 viewBox="0 0 80 38" style="enable-background:new 0 0 80 38;" xml:space="preserve">
<style type="text/css">
	.st0{fill:#C2B29F;}
	.st1{fill:#CBBBA0;}
	.st2{fill:#A89885;}
</style>
<g id="Capa_2">
	<path class="st0" d="M78.6,11.7L63.4,0.6c-1-0.8-2.4-0.8-3.5,0L44.6,11.7c1.7,1.7,17,16.1,17,16.1S76.9,13.2,78.6,11.7z"/>
	<path class="st1" d="M78.3,37.4H44.9c-0.3,0-0.5-0.2-0.5-0.5V12.7c0-0.3,0.2-0.5,0.5-0.5h33.3c0.3,0,0.5,0.2,0.5,0.5v24.2
		C78.8,37.1,78.6,37.4,78.3,37.4z"/>
	<path d="M9.8,26.4c0.9-0.9,1.7-1.7,2.4-2.4c0.7-0.7,1.2-1.4,1.6-2c0.4-0.6,0.7-1.2,0.9-1.8c0.2-0.6,0.3-1.2,0.3-1.8
		c0-1-0.2-1.8-0.7-2.4c-0.5-0.7-1.1-1.1-1.9-1.5c-0.8-0.3-1.5-0.5-2.4-0.5c-0.7,0-1.3,0.1-2,0.3c-0.7,0.2-1.4,0.6-2,1.1
		c-0.6,0.5-1.2,1.1-1.7,2c0,0.1-0.1,0.1-0.3,0.2c-0.1,0-0.3,0-0.4-0.1L2,16.6c-0.2-0.1-0.2-0.2-0.3-0.4c0-0.1,0-0.3,0.1-0.4
		c1-1.5,2.3-2.6,3.8-3.3c1.5-0.7,3-1,4.6-1c1.4,0,2.7,0.3,3.9,0.8c1.2,0.5,2.1,1.3,2.9,2.3c0.7,1,1.1,2.3,1.1,3.9
		c0,1-0.2,1.9-0.5,2.8c-0.3,0.9-0.9,1.8-1.7,2.7c-0.8,0.9-1.9,2-3.2,3.3l-6.8,6.8c-0.1,0.1-0.2,0.2-0.2,0.3c0,0.1,0.2,0.1,0.4,0.1
		h11.8c0.3,0,0.4,0.1,0.4,0.4v2c0,0.1,0,0.2-0.1,0.3c-0.1,0.1-0.2,0.1-0.4,0.1H2.2c-0.2,0-0.3,0-0.4-0.1c-0.1-0.1-0.1-0.2-0.1-0.4
		v-1.4c0-0.2,0-0.3,0.1-0.4c0-0.1,0.1-0.3,0.3-0.4c0.1-0.2,0.3-0.3,0.6-0.6L9.8,26.4z"/>
	<path d="M35.8,12.4c1.2,0.6,2.2,1.4,2.9,2.4c0.7,1,1,2.2,1,3.6c0,1.1-0.3,2-0.8,2.8c-0.5,0.8-1.4,1.7-2.6,2.5
		c-0.3,0.2-0.3,0.4,0,0.5c1,0.4,1.9,0.9,2.5,1.5c0.7,0.6,1.2,1.3,1.5,2c0.3,0.8,0.5,1.6,0.5,2.5c0,1.4-0.4,2.7-1.2,3.7
		c-0.8,1.1-1.9,1.9-3.3,2.4c-1.4,0.6-3.1,0.8-5,0.8c-1.8,0-3.4-0.3-4.8-0.8c-1.4-0.5-2.4-1.3-3.1-2.2c-0.7-1-1.1-2.2-1.1-3.5
		c0-1.2,0.3-2.3,0.9-3.2c0.6-1,1.6-1.9,2.9-2.7c0.3-0.2,0.4-0.3,0.4-0.4c0-0.1-0.1-0.2-0.4-0.4c-0.6-0.4-1.2-0.8-1.7-1.3
		c-0.5-0.5-0.9-1.1-1.1-1.7c-0.3-0.7-0.4-1.4-0.4-2.2c0-1.4,0.4-2.6,1.1-3.7c0.7-1.1,1.7-2,3-2.6c1.3-0.6,2.8-1,4.4-1
		C33.1,11.5,34.5,11.8,35.8,12.4z M36,33.7c1.1-0.8,1.7-1.9,1.7-3.3c0-1-0.3-1.9-0.8-2.5c-0.6-0.7-1.5-1.1-2.7-1.4l-4.4-1.1
		c-0.3-0.1-0.8,0-1.2,0.2c-0.5,0.2-1,0.6-1.5,1c-0.5,0.5-0.9,1-1.3,1.7c-0.3,0.6-0.5,1.3-0.5,2.1c0,1.4,0.5,2.6,1.6,3.4
		c1.1,0.8,2.7,1.2,4.7,1.2C33.4,34.9,34.9,34.5,36,33.7z M28.7,14.5c-0.8,0.4-1.5,1-2,1.6c-0.5,0.7-0.7,1.5-0.7,2.4
		c0,2.1,1.2,3.3,3.5,3.9l3.5,0.8c0.3,0.1,0.7,0,1.1-0.2c0.4-0.2,0.9-0.6,1.3-1.1c0.4-0.5,0.8-1,1-1.6c0.3-0.6,0.4-1.2,0.4-1.9
		c0-1.3-0.5-2.4-1.4-3.2c-1-0.8-2.3-1.3-3.9-1.3C30.5,13.9,29.6,14.1,28.7,14.5z"/>
	<polygon class="st2" points="61.6,28.7 78.5,11.7 44.6,11.7 	"/>
</g>
<g id="Capa_1">
	<g>
		<path d="M60.9,29.1L47.2,15.5v21.3c0,0.3-0.2,0.5-0.6,0.5H45c-0.4,0-0.6-0.2-0.6-0.5V12c0-0.3,0.2-0.4,0.6-0.4h1.7
			c0.4,0,0.6,0.1,0.7,0.3L61.6,26l14.2-14.1c0.1-0.2,0.4-0.3,0.7-0.3h1.7c0.4,0,0.5,0.1,0.5,0.4v24.9c0,0.3-0.2,0.5-0.5,0.5h-1.6
			c-0.4,0-0.5-0.2-0.5-0.5V15.5L62.4,29.1c-0.2,0.2-0.4,0.3-0.8,0.3C61.3,29.5,61,29.3,60.9,29.1z"/>
	</g>
</g>
</svg>
