<?xml version="1.0" encoding="utf-8"?>
<!-- Generator: Adobe Illustrator 27.0.0, SVG Export Plug-In . SVG Version: 6.00 Build 0)  -->
<svg version="1.1" id="Layer_1" xmlns="http://www.w3.org/2000/svg" xmlns:xlink="http://www.w3.org/1999/xlink" x="0px" y="0px"
	 viewBox="0 0 2320 3072" style="enable-background:new 0 0 2320 3072;" xml:space="preserve">
<style type="text/css">
	.st0{fill:#FFFFFF;}
	.st1{fill:#333333;}
</style>
<g id="XMLID_14_">
	<path id="XMLID_20_" class="st0" d="M1934.2,1294c-22.9-13.1-47.3-16.1-69.6-11.5c-51.9,10.8-93.1,62.5-80.7,122.6l31.8,153.2
		c5.5,26.8-11.6,52.9-38.4,58.5l0,0c-26.8,5.5-52.9-11.6-58.5-38.4l-56.6-273.1c-11.1-53.5-63.5-87.9-117-76.8h0
		c-53.5,11.1-87.9,63.5-76.8,117l56.6,273.1c5.5,26.8-11.6,52.9-38.4,58.5h0c-26.8,5.5-52.9-11.6-58.5-38.4l-76.7-370
		c-11-52.8-62.2-87-115-77.2c-54.6,10.2-89.8,64.3-78.5,118.7l76.4,368.7c5.5,26.8-11.6,52.9-38.4,58.5h0
		c-26.8,5.5-52.9-11.6-58.5-38.4L960.5,844.6c-11.1-53.5-63.5-87.9-117-76.8l0,0c-53.5,11.1-87.9,63.5-76.8,117l240.8,1161.8
		c4.5,21.6-10.3,39.2-28.4,43c-9.7,2-20.3,0.1-29.5-7.2l-242.5-190.1c-31.1-25.7-70.8-34.2-107.5-26.6
		c-26.9,5.6-52.3,19.9-71.5,42.5c-44.3,52.2-38.6,130.1,11.1,177c174.4,164.8,643,430.2,738.8,783.8c4.5,16.8,21.3,27.1,38.3,23.6
		l713.8-148c16.8-3.5,28.1-19.4,25.8-36.4c-70.5-528.3,176.7-112.6-83.2-1366.2C1972.9,1341.9,1968.7,1313.8,1934.2,1294z"/>
	<path id="XMLID_34_" class="st1" d="M843.5,425.9L843.5,425.9c27.3,0,49.5-22.2,49.5-49.5v-198c0-27.3-22.2-49.5-49.5-49.5h0
		c-27.3,0-49.5,22.2-49.5,49.5v198C794,403.8,816.1,425.9,843.5,425.9z"/>
	<path id="XMLID_35_" class="st1" d="M1123.4,541.9c19.3,19.3,50.7,19.3,70,0l140-140c19.3-19.3,19.3-50.7,0-70l0,0
		c-19.3-19.3-50.7-19.3-70,0l-140,140C1104.1,491.2,1104.1,522.5,1123.4,541.9L1123.4,541.9z"/>
	<path id="XMLID_36_" class="st1" d="M1239.4,821.8L1239.4,821.8c0,27.3,22.2,49.5,49.5,49.5h198c27.3,0,49.5-22.2,49.5-49.5v0
		c0-27.3-22.2-49.5-49.5-49.5h-198C1261.5,772.3,1239.4,794.5,1239.4,821.8z"/>
	<path id="XMLID_45_" class="st1" d="M493.5,541.9c19.3,19.3,50.7,19.3,70,0l0,0c19.3-19.3,19.3-50.7,0-70l-140-140
		c-19.3-19.3-50.7-19.3-70,0l0,0c-19.3,19.3-19.3,50.7,0,70L493.5,541.9z"/>
	<path id="XMLID_46_" class="st1" d="M447.6,821.8L447.6,821.8c0-27.3-22.2-49.5-49.5-49.5h-198c-27.3,0-49.5,22.2-49.5,49.5v0
		c0,27.3,22.2,49.5,49.5,49.5h198C425.4,871.3,447.6,849.1,447.6,821.8z"/>
	<path id="XMLID_47_" class="st1" d="M563.5,1171.7c19.3-19.3,19.3-50.7,0-70h0c-19.3-19.3-50.7-19.3-70,0l-140,140
		c-19.3,19.3-19.3,50.7,0,70l0,0c19.3,19.3,50.7,19.3,70,0L563.5,1171.7z"/>
	<path id="XMLID_50_" class="st1" d="M2069.4,1323.6c-6.6-36-32.4-83.8-86.3-114.7c-42.2-24.2-91.4-32.1-138.4-22.4
		c-38,7.9-73.4,27.2-101.2,54.5c-38.1-80.3-127.4-127.4-218.2-108.6c-40,8.3-74.7,28.3-101.2,55.6
		c-41.8-70.2-125.1-109.7-209.5-92.2c-35.6,7.4-66.9,24-92.1,46.8l-65.5-316c-22.1-106.7-126.1-176.8-232.9-155
		c-106.7,21.8-175.7,126.5-153.6,233.2L877,1900.6l-108.5-85.1c-53-43.2-121.7-60-188.8-46.1c-48.8,10.1-91.9,35.4-124.6,73
		c-79.5,91.4-73.1,228.5,14.7,312c47.6,45.3,111.5,94.3,185.6,151c204,156.3,483.4,370.3,533.8,613.4l0,0
		c11,53.1,63,87.2,116.1,76.2l775-160.6c50.9-10.6,84.8-58.9,77.2-110.4l0,0c-29.4-200.9-13.8-257.6,4.3-323.2
		c17.6-63.8,37.5-136,29.4-297.2C2182.7,1933.5,2142.8,1678.2,2069.4,1323.6z M2056,2708.1c2.3,17-9,32.9-25.8,36.4l-713.8,148
		c-17,3.5-33.8-6.9-38.3-23.6c-95.8-353.6-564.4-619-738.8-783.8c-49.7-47-55.4-124.9-11.1-177c19.2-22.6,44.5-36.9,71.5-42.5
		c36.7-7.6,76.4,0.9,107.5,26.6l242.5,190.1c9.2,7.3,19.9,9.2,29.5,7.2c18.2-3.8,32.9-21.4,28.4-43L766.7,884.7
		c-11.1-53.5,23.3-105.9,76.8-117l0,0c53.5-11.1,105.9,23.3,117,76.8l177.1,854.4c5.5,26.8,31.7,43.9,58.5,38.4h0
		c26.8-5.5,43.9-31.7,38.4-58.5l-76.4-368.7c-11.3-54.4,23.9-108.5,78.5-118.7c52.8-9.8,104,24.3,115,77.2l76.7,370
		c5.5,26.8,31.7,43.9,58.5,38.4h0c26.8-5.5,43.9-31.7,38.4-58.5l-56.6-273.1c-11.1-53.5,23.3-105.9,76.8-117h0
		c53.5-11.1,105.9,23.3,117,76.8l56.6,273.1c5.5,26.8,31.7,43.9,58.5,38.4l0,0c26.8-5.5,43.9-31.7,38.4-58.5l-31.8-153.2
		c-12.5-60.1,28.7-111.9,80.7-122.6c22.4-4.6,46.7-1.7,69.6,11.5c34.5,19.8,38.7,47.9,38.7,47.9
		C2232.7,2595.5,1985.6,2179.8,2056,2708.1z"/>
</g>
</svg>
