<?xml version="1.0" encoding="utf-8"?>
<!-- Generator: Adobe Illustrator 27.4.1, SVG Export Plug-In . SVG Version: 6.00 Build 0)  -->
<svg version="1.1" id="Capa_1" xmlns="http://www.w3.org/2000/svg" xmlns:xlink="http://www.w3.org/1999/xlink" x="0px" y="0px"
	 viewBox="0 0 300 133" style="enable-background:new 0 0 300 133;" xml:space="preserve">
<style type="text/css">
	.st0{fill:#E52A24;}
</style>
<g>
	<g>
		<g>
			<path class="st0" d="M155.1,94.9c0.6,0.3,1.2,0.5,1.8,0.8c0,0,0.1,0,0.1,0c0.6,0.2,1.3,0.5,1.9,0.7c0.1,0,0.2,0,0.2,0.1
				c0.1,0,0.2,0,0.3-0.1c0.2-0.1,0.5-0.2,0.7-0.2c0.2-0.1,0.4-0.1,0.6-0.2c0,0,0,0,0,0c0.5-0.2,1-0.4,1.4-0.6c0.1,0,0.1,0,0.2-0.1
				c0.4-0.2,0.7-0.3,1.1-0.5c0.2-0.1,0.4-0.2,0.6-0.3c0.3-0.1,0.5-0.3,0.8-0.4c0.3-0.2,0.6-0.3,0.9-0.5c0.2-0.1,0.4-0.2,0.6-0.3
				c0.3-0.2,0.7-0.4,1-0.6c0.2-0.1,0.3-0.2,0.5-0.3c0.4-0.2,0.7-0.5,1.1-0.8c0.1-0.1,0.3-0.2,0.4-0.3c0.4-0.3,0.7-0.6,1.1-0.9
				c0.1-0.1,0.2-0.2,0.3-0.3c0.5-0.4,0.9-0.8,1.3-1.2c0.4-0.4,0.8-0.8,1.2-1.2c0,0,0.1-0.1,0.1-0.1c2.3-2.6,4.3-5.5,5.6-8.7
				c0.2-0.5,0.4-1.1,0.6-1.6c1.4-3.7,2-7.7,1.9-11.7c0-0.2,0-0.5,0-0.7c0-0.4,0-0.7-0.1-1.1c0-0.2,0-0.4-0.1-0.5
				c-0.1-0.7-0.2-1.4-0.3-2.1c0-0.1,0-0.2-0.1-0.3c-0.1-0.4-0.2-0.8-0.2-1.2c0-0.1,0-0.1,0-0.2c-0.2-0.8-0.4-1.7-0.7-2.5
				c0,0,0,0,0,0c-0.1-0.4-0.3-0.9-0.4-1.3c-0.6-1.7-1.4-3.3-2.3-4.8c0,4-0.8,8-2.1,11.7c-0.1,0.2-0.2,0.5-0.3,0.7
				c-0.1,0.3-0.2,0.6-0.4,0.9c-0.1,0.4-0.3,0.7-0.5,1.1c-0.1,0.2-0.2,0.5-0.3,0.7c-0.3,0.6-0.6,1.2-0.9,1.8
				c-2.4,4.5-5.7,8.5-9.7,11.6c-1.3,1-2.7,2-4.2,2.9c-0.7,0.4-1.3,0.7-2,1.1c-0.2,0.1-0.4,0.2-0.6,0.3c-0.5,0.2-1,0.5-1.5,0.7
				c-0.2,0.1-0.4,0.2-0.7,0.3c-0.6,0.3-1.3,0.5-1.9,0.7c-0.1,0-0.1,0.1-0.2,0.1c-0.7,0.2-1.5,0.4-2.2,0.6c-0.2,0.1-0.4,0.1-0.6,0.2
				c-0.5,0.1-1.1,0.2-1.6,0.3c-0.2,0-0.5,0.1-0.7,0.1c-0.6,0.1-1.2,0.2-1.9,0.3c-0.1,0-0.3,0-0.4,0.1c0,0-0.1,0-0.1,0
				c0,0.1,0.1,0.1,0.1,0.1c0.4,0.5,0.8,0.9,1.2,1.3c0.1,0.1,0.2,0.2,0.3,0.3c0.5,0.5,0.9,0.9,1.4,1.4c0.1,0.1,0.2,0.2,0.3,0.2
				c0.4,0.4,0.9,0.8,1.3,1.1c0.1,0.1,0.2,0.2,0.3,0.2c0.5,0.4,1.1,0.8,1.6,1.1c0.1,0.1,0.2,0.2,0.3,0.2c0.5,0.3,1,0.6,1.5,0.9
				c0.1,0,0.1,0.1,0.2,0.1c0.6,0.3,1.2,0.6,1.7,0.9C154.8,94.8,154.9,94.8,155.1,94.9z"/>
			<path class="st0" d="M118.9,60.8c-0.1,0.4-0.1,0.7-0.2,1.1c0,0.3-0.1,0.5-0.1,0.8c0,0.4-0.1,0.7-0.1,1.1c0,0.3,0,0.5-0.1,0.8
				c0,0.4,0,0.8,0,1.1c0,0.3,0,0.5,0,0.8c0,0.4,0,0.8,0,1.1c0,0.3,0,0.5,0,0.8c0,0.4,0.1,0.8,0.1,1.2c0,0.2,0,0.5,0.1,0.7
				c0.1,0.4,0.1,0.9,0.2,1.3c0,0.2,0.1,0.4,0.1,0.6c0.1,0.6,0.3,1.2,0.4,1.9c0.2,0.9,0.6,1.9,1,3.1c3.2,8.7,10,15.5,18.7,18.7
				c2.2,0.8,4.4,1.4,6.7,1.7c1.4,0.2,2.7,0.3,4.1,0.3c-0.1,0-0.2-0.1-0.2-0.2c-0.4-0.3-0.9-0.5-1.3-0.8c-0.1-0.1-0.2-0.2-0.4-0.2
				c-0.5-0.4-1.1-0.8-1.6-1.1c-0.1-0.1-0.3-0.2-0.4-0.3c-0.4-0.3-0.8-0.6-1.2-1c-0.2-0.1-0.3-0.3-0.5-0.4c-0.4-0.3-0.7-0.7-1.1-1
				c-0.1-0.1-0.3-0.2-0.4-0.4c-0.5-0.5-0.9-0.9-1.4-1.4c-0.1-0.1-0.1-0.2-0.2-0.2c-0.4-0.4-0.7-0.8-1.1-1.3
				c-0.1-0.2-0.3-0.3-0.4-0.5c-0.3-0.4-0.6-0.8-0.9-1.2c-0.1-0.2-0.2-0.3-0.4-0.5c-0.4-0.5-0.8-1.1-1.1-1.7
				c-3.6-5.8-5.5-12.5-5.5-19.3c0-0.8,0-1.5,0.1-2.3c0-0.2,0-0.5,0.1-0.7c0-0.6,0.1-1.1,0.2-1.7c0-0.2,0.1-0.5,0.1-0.7
				c0.1-0.7,0.2-1.4,0.4-2c0-0.1,0-0.1,0-0.2c0.2-0.7,0.3-1.5,0.6-2.2c0.1-0.2,0.1-0.4,0.2-0.6c0.2-0.5,0.3-1.1,0.5-1.6
				c0.1-0.2,0.2-0.4,0.2-0.7c0.2-0.6,0.5-1.2,0.7-1.8c0-0.1,0.1-0.2,0.1-0.3c0,0,0-0.1,0-0.1c-0.1,0-0.1,0-0.2,0
				c-0.6,0.1-1.2,0.2-1.7,0.4c-0.1,0-0.3,0.1-0.4,0.1c-0.6,0.2-1.3,0.3-1.9,0.5c-0.1,0-0.2,0.1-0.4,0.1c-0.5,0.2-1.1,0.4-1.6,0.6
				c-0.1,0.1-0.2,0.1-0.4,0.1c-0.6,0.2-1.2,0.5-1.8,0.8c-0.1,0.1-0.3,0.1-0.4,0.2c-0.5,0.3-1,0.5-1.5,0.8c-0.1,0-0.2,0.1-0.3,0.1
				c-0.6,0.3-1.1,0.7-1.6,1.1c-0.1,0.1-0.3,0.2-0.4,0.3c-0.5,0.4-1,0.7-1.5,1.1c0,0-0.1,0-0.1,0.1c-0.5,0.4-1,0.9-1.5,1.3
				c-0.1,0.1-0.1,0.1-0.2,0.2c0,0.2-0.1,0.4-0.1,0.7C119,60.3,118.9,60.5,118.9,60.8z"/>
			<path class="st0" d="M170.7,59.4c0.1-0.3,0.2-0.6,0.3-0.9c0.1-0.4,0.2-0.9,0.3-1.3c0.1-0.4,0.2-0.8,0.2-1.2
				c0-0.3,0.1-0.5,0.1-0.8c0.1-0.4,0.1-0.8,0.2-1.3c0-0.4,0.1-0.9,0.1-1.3c0-0.3,0-0.6,0.1-1c0-0.4,0-0.7,0-1.1c0-0.3,0-0.6,0-0.9
				c0-0.5,0-1.1-0.1-1.6c0-0.2,0-0.5-0.1-0.7c0-0.5-0.1-1.1-0.2-1.6c0-0.1,0-0.2,0-0.3c-0.1-0.6-0.2-1.3-0.4-1.9
				c0-0.1,0-0.2-0.1-0.2c-0.1-0.1-0.2-0.2-0.3-0.3c-0.3-0.2-0.5-0.5-0.8-0.7c-0.2-0.1-0.3-0.3-0.5-0.4c-0.3-0.3-0.6-0.5-1-0.7
				c-0.1-0.1-0.3-0.2-0.4-0.3c-0.4-0.3-0.7-0.5-1.1-0.8c-0.1-0.1-0.2-0.2-0.4-0.2c-0.4-0.3-0.8-0.5-1.2-0.7
				c-0.1-0.1-0.2-0.1-0.4-0.2c-0.3-0.2-0.7-0.3-1-0.5c-0.6-0.3-1.3-0.7-2-0.9c0,0,0,0,0,0c-0.5-0.2-1-0.4-1.4-0.6
				c-0.1,0-0.1,0-0.2-0.1c-0.3-0.1-0.5-0.2-0.8-0.3c-0.5-0.2-1-0.3-1.4-0.5c-2.8-0.8-5.7-1.2-8.6-1.2c-0.6,0-1.3,0-1.9,0.1
				c-0.2,0-0.3,0-0.5,0c-0.6,0-1.2,0.1-1.8,0.2c-0.2,0-0.4,0.1-0.5,0.1c-0.4,0.1-0.8,0.1-1.2,0.2c-0.3,0.1-0.6,0.1-0.9,0.2
				c-0.2,0-0.4,0.1-0.6,0.2c-0.7,0.2-1.4,0.4-2,0.6c-0.1,0-0.1,0-0.2,0c-0.4,0.1-0.8,0.3-1.3,0.4c-7,2.6-12.7,7.4-16.4,13.7
				c0.1,0,0.1-0.1,0.2-0.1c0.4-0.2,0.9-0.5,1.4-0.7c0.1-0.1,0.3-0.1,0.4-0.2c0.6-0.3,1.2-0.6,1.8-0.8c0.1-0.1,0.3-0.1,0.4-0.2
				c0.5-0.2,0.9-0.4,1.4-0.5c0.2-0.1,0.4-0.1,0.6-0.2c0.5-0.2,0.9-0.3,1.4-0.4c0.2-0.1,0.3-0.1,0.5-0.2c0.6-0.2,1.3-0.3,1.9-0.5
				c0.1,0,0.2,0,0.3-0.1c0.6-0.1,1.1-0.2,1.7-0.3c0.2,0,0.4-0.1,0.6-0.1c0.5-0.1,1-0.1,1.4-0.2c0.2,0,0.4,0,0.6-0.1
				c0.7-0.1,1.3-0.1,2-0.1l0,0c4.3-0.1,8.5,0.5,12.5,1.8c2.4,0.8,4.7,1.8,7,3.1c0.7,0.4,1.3,0.8,2,1.2c0.2,0.1,0.4,0.3,0.6,0.4
				c0.5,0.3,0.9,0.6,1.4,1c0.2,0.1,0.4,0.3,0.6,0.4c0.5,0.4,1.1,0.9,1.6,1.3c0.1,0,0.1,0.1,0.2,0.1c0.6,0.5,1.1,1,1.6,1.6
				c0.2,0.2,0.3,0.3,0.4,0.5c0.4,0.4,0.8,0.8,1.1,1.3c0.2,0.2,0.3,0.4,0.5,0.5c0.4,0.5,0.8,1,1.2,1.5c0.1,0.1,0.1,0.2,0.2,0.3
				c0,0,0,0,0,0.1c0.1-0.2,0.1-0.4,0.2-0.5C170.5,60.1,170.6,59.8,170.7,59.4z"/>
			<path class="st0" d="M117.8,32.4c-0.4,1.8-0.6,3.5-0.6,5.1c0,0.9,0,1.7,0.1,2.5c0,0.3,0,0.5,0.1,0.8c0,0.6,0.1,1.1,0.1,1.7
				c0,0.3,0.1,0.6,0.1,0.9c0.1,0.5,0.1,1.1,0.2,1.6c0,0.3,0.1,0.5,0.1,0.8c0.1,0.6,0.2,1.2,0.4,1.7c0,0.1,0.1,0.3,0.1,0.4
				c5.9-10.1,16.4-16.8,28.3-17.9c0,0,0,0,0,0c0.5,0,0.9-0.1,1.4-0.1c0.1,0,0.1,0,0.2,0c0.5,0,1.1,0,1.6,0c3.3,0,6.7,0.5,9.9,1.4
				c0.2,0.1,0.5,0.1,0.7,0.2c0.1,0,0.1,0,0.2,0.1c0.2,0.1,0.4,0.1,0.6,0.2c0,0,0.1,0,0.1,0c0.2-0.1,0.4-0.1,0.6-0.2
				c0.3-0.1,0.6-0.2,0.9-0.3c0.4-0.1,0.7-0.3,1.1-0.4c0.3-0.1,0.6-0.2,0.9-0.3c0.4-0.1,0.8-0.2,1.1-0.3c0.3-0.1,0.6-0.2,1-0.2
				c0.4-0.1,0.8-0.2,1.2-0.3c0.3-0.1,0.6-0.1,1-0.2c0.4-0.1,0.9-0.1,1.3-0.2c0.3-0.1,0.6-0.1,1-0.2c0.5-0.1,0.9-0.1,1.4-0.2
				c0.3,0,0.6-0.1,0.9-0.1c0.5,0,1.1-0.1,1.6-0.1c0.3,0,0.5,0,0.8-0.1c0.8,0,1.6-0.1,2.4-0.1c0.6,0,1.3,0,1.9,0.1c0.1,0,0.2,0,0.2,0
				c-6-15.7-26.1-26.5-31-29C144.6,2.4,121.7,14.7,117.8,32.4L117.8,32.4z"/>
			<path class="st0" d="M180.6,104c-0.6,0-1.3,0.1-1.9,0.1c-0.8,0-1.6,0-2.4-0.1c-0.3,0-0.5,0-0.8,0c-0.5,0-1.1-0.1-1.6-0.1
				c-0.3,0-0.6-0.1-0.9-0.1c-0.5-0.1-0.9-0.1-1.4-0.2c-0.3,0-0.6-0.1-1-0.1c-0.4-0.1-0.9-0.1-1.3-0.2c-0.3-0.1-0.6-0.1-1-0.2
				c-0.4-0.1-0.8-0.2-1.2-0.3c-0.3-0.1-0.6-0.2-1-0.2c-0.4-0.1-0.8-0.2-1.2-0.3c-0.3-0.1-0.6-0.2-0.9-0.3c-0.4-0.1-0.7-0.2-1.1-0.4
				c-0.3-0.1-0.6-0.2-0.9-0.3c-0.2-0.1-0.4-0.1-0.6-0.2c-0.1,0-0.1,0-0.2,0.1c-0.5,0.2-1,0.3-1.5,0.5h0v0h0
				c-0.8,0.2-1.6,0.4-2.4,0.6c-2.5,0.5-5,0.8-7.5,0.8c-0.5,0-1,0-1.5,0c0,0-0.1,0-0.1,0c-0.1,0-0.2,0-0.2,0c-0.2,0-0.3,0-0.4,0
				c-0.2,0-0.5,0-0.7,0c-0.1,0-0.1,0-0.2,0c0,0-0.1,0-0.1,0c-0.3,0-0.5-0.1-0.8-0.1c-0.1,0-0.2,0-0.3,0c-2.5-0.3-4.9-0.9-7.2-1.6
				c-0.2,0.1-0.4,0.1-0.6,0.2c-0.3,0.1-0.6,0.2-0.9,0.3c-0.4,0.1-0.7,0.3-1.1,0.4c-0.3,0.1-0.6,0.2-0.9,0.3
				c-0.4,0.1-0.8,0.2-1.2,0.3c-0.3,0.1-0.6,0.2-1,0.2c-0.4,0.1-0.8,0.2-1.2,0.3c-0.3,0.1-0.6,0.1-1,0.2c-0.4,0.1-0.9,0.1-1.3,0.2
				c-0.3,0-0.6,0.1-1,0.1c-0.5,0.1-0.9,0.1-1.4,0.2c-0.3,0-0.6,0.1-0.9,0.1c-0.5,0-1.1,0.1-1.6,0.1c-0.3,0-0.5,0-0.8,0
				c-0.8,0-1.6,0.1-2.4,0.1c-0.6,0-1.3,0-1.9-0.1c-0.1,0-0.1,0-0.2,0c6,15.7,26.1,26.5,31,29c4.8-2.4,25-13.3,31-29
				C180.7,104,180.6,104,180.6,104z"/>
			<path class="st0" d="M126,98.8c0.3,0,0.6-0.1,0.9-0.1c0.5-0.1,1-0.1,1.6-0.2c0.3,0,0.5-0.1,0.8-0.1c0.6-0.1,1.1-0.2,1.7-0.3
				c0.1,0,0.3-0.1,0.4-0.1c-8.2-4.8-14.5-12.8-16.9-22.5c-0.7-2.9-1.1-5.9-1.1-9c0-3,0.4-6,1.1-9c0,0,0-0.1,0-0.1
				c0.2-0.9,0.5-1.7,0.8-2.6c-0.1-0.2-0.1-0.4-0.2-0.6c-0.1-0.3-0.2-0.6-0.3-0.9c-0.1-0.4-0.3-0.7-0.4-1.1c-0.1-0.3-0.2-0.6-0.3-0.9
				c-0.1-0.4-0.2-0.8-0.3-1.2c-0.1-0.3-0.2-0.6-0.2-1c-0.1-0.4-0.2-0.8-0.3-1.2c-0.1-0.3-0.1-0.6-0.2-1c-0.1-0.4-0.1-0.9-0.2-1.3
				c-0.1-0.3-0.1-0.6-0.1-1c-0.1-0.5-0.1-0.9-0.2-1.4c0-0.3-0.1-0.6-0.1-0.9c0-0.5-0.1-1.1-0.1-1.6c0-0.3,0-0.5-0.1-0.8
				c0-0.8-0.1-1.6-0.1-2.4c0-0.6,0-1.3,0.1-1.9c0-0.1,0-0.1,0-0.2c-15.7,6-26.5,26.1-29,31c2.6,5.2,14.9,28.1,32.6,32.1
				c1.3,0.3,2.5,0.5,3.8,0.5c0.5,0,0.9,0,1.4,0c0.9,0,1.7,0,2.5-0.1c0.3,0,0.5,0,0.8-0.1C124.9,98.9,125.4,98.8,126,98.8z"/>
			<path class="st0" d="M173.7,34c-0.3,0-0.6,0.1-0.9,0.1c-0.5,0.1-1,0.1-1.5,0.2c-0.3,0-0.6,0.1-0.8,0.1c-0.6,0.1-1.1,0.2-1.7,0.3
				c-0.1,0-0.3,0.1-0.4,0.1c0.1,0.1,0.3,0.2,0.4,0.3c0.4,0.2,0.7,0.4,1.1,0.7c0.1,0.1,0.2,0.1,0.3,0.2c0.1,0.1,0.3,0.2,0.4,0.3
				c0.4,0.2,0.7,0.5,1,0.7c0.1,0.1,0.2,0.1,0.3,0.2c0,0,0,0,0.1,0c0.1,0.1,0.2,0.2,0.3,0.2c0.4,0.3,0.7,0.6,1.1,0.9
				c0.1,0.1,0.2,0.1,0.3,0.2c0,0,0.1,0.1,0.1,0.1c0,0,0.1,0.1,0.1,0.1c0.5,0.5,1,0.9,1.5,1.4v0c0,0,0,0,0,0c0.5,0.5,0.9,1,1.4,1.4
				c0,0,0.1,0.1,0.1,0.1c4.3,4.7,7.3,10.4,8.7,16.6c0,0,0,0.1,0,0.1c0.1,0.4,0.2,0.9,0.3,1.3c0,0.1,0.1,0.3,0.1,0.4
				c0.1,0.4,0.1,0.7,0.2,1.1c0,0.2,0.1,0.5,0.1,0.7c0,0.3,0.1,0.6,0.1,0.9c0,0.3,0.1,0.7,0.1,1c0,0.2,0,0.5,0,0.7c0,0.6,0,1.2,0,1.7
				c0,0.6,0,1.2,0,1.7c0,0.2,0,0.5,0,0.7c0,0.3,0,0.7-0.1,1c0,0.3-0.1,0.6-0.1,0.9c0,0.2-0.1,0.5-0.1,0.7c-0.1,0.4-0.1,0.7-0.2,1.1
				c0,0.1,0,0.3-0.1,0.4c-0.1,0.4-0.2,0.9-0.3,1.3c0,0,0,0.1,0,0.1c-1.4,6.1-4.3,11.8-8.6,16.6c0,0-0.1,0.1-0.1,0.1
				c-0.5,0.5-0.9,1-1.4,1.4c0,0,0,0,0,0c-0.5,0.5-1,0.9-1.5,1.4c0,0-0.1,0.1-0.1,0.1c0,0,0,0,0,0c-0.1,0.1-0.2,0.2-0.3,0.3
				c-0.4,0.3-0.7,0.6-1.1,0.9c-0.2,0.2-0.4,0.3-0.6,0.5c-0.3,0.3-0.7,0.5-1,0.7c-0.1,0.1-0.3,0.2-0.4,0.3c-0.1,0-0.1,0.1-0.2,0.1
				c0,0,0,0-0.1,0c-0.4,0.2-0.7,0.5-1.1,0.7c-0.1,0.1-0.3,0.2-0.4,0.3c0.2,0,0.3,0.1,0.5,0.1c0.6,0.1,1.1,0.2,1.7,0.3
				c0.3,0,0.5,0.1,0.8,0.1c0.5,0.1,1,0.2,1.6,0.2c0.3,0,0.6,0.1,0.9,0.1c0.6,0.1,1.1,0.1,1.7,0.1c0.3,0,0.5,0,0.8,0.1
				c0.8,0,1.7,0.1,2.5,0.1c1.7,0,3.3-0.2,5.1-0.6c17.7-3.9,30-26.9,32.6-32.1c-2.6-5.2-14.9-28.1-32.6-32.1
				c-1.3-0.3-2.6-0.5-3.9-0.6c-0.4,0-0.8,0-1.3,0c-0.9,0-1.7,0-2.5,0.1c-0.3,0-0.5,0-0.8,0.1C174.8,33.9,174.2,33.9,173.7,34z"/>
			<path class="st0" d="M166,66.4c0-4-3.2-7.2-7.2-7.2c-4,0-7.2,3.2-7.2,7.2c0,4,3.2,7.2,7.2,7.2C162.8,73.6,166,70.3,166,66.4z"/>
			<path class="st0" d="M154.4,54.1c-0.2-0.1-0.4-0.2-0.6-0.3c-0.4-0.2-0.8-0.4-1.3-0.6c-0.3-0.1-0.5-0.2-0.8-0.3
				c-0.4-0.1-0.8-0.3-1.2-0.4c-0.3-0.1-0.6-0.2-0.9-0.3c-0.4-0.1-0.8-0.2-1.2-0.3c-0.3-0.1-0.6-0.1-0.9-0.2
				c-0.4-0.1-0.8-0.2-1.2-0.3c-0.3-0.1-0.6-0.1-0.9-0.2c-0.4-0.1-0.8-0.1-1.2-0.2c-0.3,0-0.6-0.1-0.9-0.1c-0.4,0-0.8-0.1-1.2-0.1
				c-0.3,0-0.6,0-0.9,0c-0.1,0-0.3,0-0.4,0c-0.1,0.1-0.1,0.2-0.2,0.4c-0.1,0.3-0.3,0.5-0.4,0.8c-0.2,0.4-0.4,0.7-0.5,1.1
				c-0.1,0.3-0.3,0.6-0.4,0.9c-0.2,0.4-0.3,0.7-0.4,1.1c-0.1,0.3-0.2,0.6-0.3,0.9c-0.1,0.4-0.2,0.8-0.4,1.1
				c-0.1,0.3-0.2,0.6-0.3,0.9c-0.1,0.4-0.2,0.8-0.3,1.2c-0.1,0.3-0.1,0.6-0.2,0.9c-0.1,0.4-0.2,0.8-0.2,1.3c0,0.3-0.1,0.5-0.1,0.8
				c-0.1,0.5-0.1,0.9-0.1,1.4c0,0.2-0.1,0.5-0.1,0.7c0,0.7-0.1,1.4-0.1,2.1c0,0.7,0,1.4,0.1,2.1c0,0.2,0,0.5,0.1,0.7
				c0,0.5,0.1,0.9,0.1,1.4c0,0.3,0.1,0.5,0.1,0.8c0.1,0.4,0.1,0.8,0.2,1.3c0.1,0.3,0.1,0.6,0.2,0.9c0.1,0.4,0.2,0.8,0.3,1.2
				c0.1,0.3,0.2,0.6,0.3,0.9c0.1,0.4,0.2,0.8,0.4,1.1c0.1,0.3,0.2,0.6,0.3,0.9c0.1,0.4,0.3,0.7,0.4,1.1c0.1,0.3,0.2,0.6,0.4,0.8
				c0.2,0.4,0.3,0.7,0.5,1.1c0.1,0.3,0.3,0.5,0.4,0.8c0.1,0.1,0.1,0.3,0.2,0.4c0.1,0,0.3,0,0.4,0c0.3,0,0.6,0,0.9,0
				c0.4,0,0.8,0,1.2-0.1c0.3,0,0.6-0.1,0.9-0.1c0.4,0,0.8-0.1,1.2-0.2c0.3,0,0.6-0.1,0.9-0.2c0.4-0.1,0.8-0.2,1.2-0.2
				c0.3-0.1,0.6-0.1,0.9-0.2c0.4-0.1,0.8-0.2,1.2-0.3c0.3-0.1,0.6-0.2,0.8-0.3c0.4-0.1,0.8-0.3,1.2-0.4c0.3-0.1,0.5-0.2,0.8-0.3
				c0.4-0.2,0.9-0.4,1.3-0.6c0.2-0.1,0.4-0.2,0.6-0.3c0.4-0.2,0.8-0.4,1.2-0.6c-5.1-1.4-8.9-6.1-8.9-11.6c0-5.5,3.8-10.2,8.9-11.6
				C155.2,54.5,154.8,54.3,154.4,54.1z"/>
		</g>
		<g>
			<path class="st0" d="M184.8,27.2l1.2,3.2c3.1,0.8,6.1,2.2,9.1,4c1.9-5.5,2.8-11,2.3-15.7c-4.7-0.5-10.1,0.4-15.7,2.3
				C183,23.1,184,25.1,184.8,27.2z"/>
			<path class="st0" d="M110.7,31.3l3.2-1.2c0.9-3.2,2.3-6.3,4-9.1c-5.5-1.9-11-2.8-15.7-2.3c-0.5,4.7,0.4,10.1,2.3,15.7
				C106.5,33.2,108.5,32.2,110.7,31.3z"/>
			<path class="st0" d="M114.8,105.5l-1.2-3.2c-3.1-0.8-6.1-2.2-9.1-4c-1.9,5.5-2.8,11-2.3,15.7c4.7,0.5,10.1-0.4,15.7-2.3
				C116.6,109.6,115.6,107.6,114.8,105.5z"/>
			<path class="st0" d="M195.1,98.3c-2.8,1.7-5.9,3.1-9.1,4l-1.2,3.2c-0.8,2.1-1.9,4.2-3.1,6.2c5.5,1.9,11,2.8,15.7,2.3
				C198,109.3,197,103.8,195.1,98.3z"/>
		</g>
	</g>
	<g>
		<g>
			<path class="st0" d="M300,66.4c-6.4-7.6-21.3-12.7-34.5-12.7c-12,0-20,4.2-26.1,10.8c17.5,0.2,35.4,0.9,43.8,1.9
				c-8.4,1-26.3,1.7-43.8,1.9c6.2,6.5,14.1,10.8,26.1,10.8C278.7,79,293.6,74,300,66.4z"/>
			<g>
				<path class="st0" d="M253.2,32.1c-7-0.6-16.9,4.3-23.5,10.9c-6,6-7.8,12.1-7.7,18.4c8.8-8.6,18.1-17.2,22.8-20.9
					c-3.7,4.7-12.2,13.9-20.9,22.8c6.3,0.2,12.4-1.7,18.4-7.7C248.9,49.1,253.8,39.1,253.2,32.1z"/>
				<path class="st0" d="M253.2,100.6c-7,0.6-16.9-4.3-23.5-10.9c-6-6-7.8-12.1-7.7-18.4c8.8,8.6,18.1,17.2,22.8,20.9
					c-3.7-4.7-12.2-13.9-20.9-22.8c6.3-0.2,12.4,1.7,18.4,7.7C248.9,83.7,253.8,93.6,253.2,100.6z"/>
			</g>
		</g>
		<g>
			<path class="st0" d="M-0.4,66.4C6.1,74,20.9,79,34.1,79c12,0,20-4.2,26.1-10.8c-17.5-0.2-35.4-0.9-43.8-1.9
				c8.4-1,26.3-1.7,43.8-1.9C54,57.9,46.1,53.7,34.1,53.7C20.9,53.7,6.1,58.8-0.4,66.4z"/>
			<g>
				<path class="st0" d="M46.5,100.6c7,0.6,16.9-4.3,23.5-10.9c6-6,7.8-12.1,7.7-18.4C68.8,80,59.5,88.5,54.8,92.2
					c3.7-4.7,12.2-13.9,20.9-22.8c-6.3-0.2-12.4,1.7-18.4,7.7C50.8,83.7,45.9,93.6,46.5,100.6z"/>
				<path class="st0" d="M46.5,32.1c7-0.6,16.9,4.3,23.5,10.9c6,6,7.8,12.1,7.7,18.4c-8.8-8.6-18.1-17.2-22.8-20.9
					c3.7,4.7,12.2,13.9,20.9,22.8c-6.3,0.2-12.4-1.7-18.4-7.7C50.8,49.1,45.9,39.1,46.5,32.1z"/>
			</g>
		</g>
	</g>
</g>
</svg>
