<?xml version="1.0" encoding="utf-8"?>
<!-- Generator: Adobe Illustrator 26.5.0, SVG Export Plug-In . SVG Version: 6.00 Build 0)  -->
<svg version="1.1" id="Capa_1" xmlns="http://www.w3.org/2000/svg" xmlns:xlink="http://www.w3.org/1999/xlink" x="0px" y="0px"
	 viewBox="0 0 80 80" style="enable-background:new 0 0 80 80;" xml:space="preserve">
<style type="text/css">
	.st0{fill:#FFFFFF;}
	.st1{display:none;}
	.st2{display:none;fill:#FFFFFF;}
	.st3{display:none;fill-rule:evenodd;clip-rule:evenodd;fill:#FFFFFF;}
</style>
<rect x="15.1" y="14" class="st0" width="50" height="52"/>
<path class="st1" d="M40,0.3C18,0.3,0.2,18.1,0.2,40.1S18,79.9,40,79.9s39.8-17.8,39.8-39.8S62,0.3,40,0.3z M29.8,56.5V23.7
	l28.4,16.4L29.8,56.5z"/>
<path class="st1" d="M40,0.3C18,0.3,0.2,18.1,0.2,40.1S18,79.9,40,79.9s39.8-17.8,39.8-39.8S62,0.3,40,0.3z M36,54.7h-8.7V25.4H36
	V54.7z M52.8,54.7h-8.7V25.4h8.7V54.7z"/>
<path class="st1" d="M40,0.3C18,0.3,0.2,18.1,0.2,40.1S18.1,79.9,40,79.9S79.8,62,79.8,40.1S62,0.3,40,0.3z M43.8,59L30.5,47.7h-11
	V32.4h11l13.2-11.2L43.8,59L43.8,59z M50.4,49.2c-0.8,0.6-2,0.5-2.6-0.3s-0.5-2,0.3-2.6c2-1.5,3.1-3.8,3.1-6.3s-1.1-4.8-3.1-6.3
	c-0.8-0.6-1-1.8-0.3-2.6c0.6-0.8,1.8-1,2.6-0.3c2.9,2.2,4.5,5.6,4.5,9.2C55,43.7,53.3,47,50.4,49.2z M55,55.3
	c-0.8,0.6-2,0.5-2.6-0.3s-0.5-2,0.3-2.6c3.9-3,6.1-7.5,6.1-12.3s-2.2-9.4-6.1-12.3c-0.8-0.6-1-1.8-0.3-2.6c0.6-0.8,1.8-1,2.6-0.3
	c4.8,3.6,7.6,9.3,7.6,15.2C62.6,46.1,59.8,51.7,55,55.3z"/>
<path class="st1" d="M40,0.3C18,0.3,0.2,18.1,0.2,40.1S18,79.9,40,79.9s39.8-17.8,39.8-39.8S62,0.3,40,0.3z M20.1,31.6h11l13.2-11.2
	v6.8L24.5,47H20V31.6H20.1z M44.3,58.2l-8-6.8l8-8V58.2z M22.5,59.7l-2.6-2.6l35.7-35.7l2.6,2.6L22.5,59.7z"/>
<path d="M40.1,0.2C18.1,0.2,0.3,18,0.3,40s17.8,39.8,39.8,39.8S79.9,62,79.9,40S62.1,0.2,40.1,0.2z"/>
<path class="st0" d="M45.8,43.5c0.5,0,0.9,0.3,0.9,0.9v8.5l16.8-14.6L46.7,23.8v8.5c0,0.5-0.3,0.9-0.9,0.9
	c-12.8,0-24.3,7.6-29.3,19.3C25.1,46.7,35.4,43.5,45.8,43.5z"/>
<path class="st2" d="M60.3,37.6l-16-15.5V30c-13.9,1.8-24.6,12.8-24.6,26.2c0,0.6,0,1.2,0.1,1.8c3.7-8,12.1-13.5,22.1-13.5
	c0.8,0,1.6,0.1,2.5,0.2v8.7L60.3,37.6z"/>
<polygon class="st3" points="61,40 42.4,23.3 42.4,31.3 21.2,31.3 21.2,48.7 42.4,48.7 42.4,56.7 "/>
</svg>
