<?xml version="1.0" encoding="utf-8"?>
<!-- Generator: Adobe Illustrator 26.0.2, SVG Export Plug-In . SVG Version: 6.00 Build 0)  -->
<svg version="1.1" id="Capa_1" xmlns="http://www.w3.org/2000/svg" xmlns:xlink="http://www.w3.org/1999/xlink" x="0px" y="0px"
	 viewBox="0 0 126.47 68.33" style="enable-background:new 0 0 126.47 68.33;" xml:space="preserve">
<style type="text/css">
	.st0{fill:#878787;}
</style>
<g>
	<path class="st0" d="M125.21,56.06c-1.17,0.63-2.04,1.38-2.53,1.85c0.25,0.12,0.48,0.23,0.64,0.35c-3.33,2.31-24.84,5.29-59.7,5.29
		c-0.01,0-0.02,0-0.04,0c-34.84,0-56.33-2.98-59.66-5.29c0.13-0.09,0.3-0.18,0.49-0.28c-0.46-0.45-1.32-1.2-2.48-1.85
		c-1.15,0.83-1.15,1.57-1.15,2.13c0,1.43,0,4.08,19.27,6.2c11.64,1.28,27.1,1.98,43.54,1.98c0.01,0,0.02,0,0.04,0
		c16.45,0,31.92-0.7,43.57-1.98c19.27-2.11,19.27-4.77,19.27-6.2C126.47,57.68,126.46,56.91,125.21,56.06z"/>
	<path class="st0" d="M118.57,47.35c-1.77-6.22-6.89-10.44-14.05-11.58c-0.8-0.13-1.63-0.22-2.47-0.27c0.31-0.23,0.62-0.5,0.91-0.79
		c2.54-2.57,2.76-6.76,0.49-9.53c-1.66-2.03-4.33-3.23-7.33-3.3c-0.56-0.01-1.13,0.01-1.68,0.08c-5.55,0.69-8.85,5.35-11.72,9.65
		c0.72-6.18-0.12-14.34-3.79-19.78c-1.46-2.17-3.49-3.56-5.7-3.91c-1.77-0.28-3.55,0.12-5.1,1.11c0.74-1.31,0.91-2.89,0.34-4.37
		c-0.34-0.86-0.91-1.58-1.61-2.13l-0.07-0.48l-0.11,0.34c-0.86-0.61-1.92-0.96-3.05-0.96c-0.68,0-1.36,0.13-2,0.38
		c-0.21,0.08-0.4,0.19-0.59,0.3l-0.05-0.39l-0.16,0.49c-0.94,0.56-1.69,1.37-2.15,2.36c-0.59,1.28-0.64,2.69-0.13,3.98
		c0.03,0.08,0.08,0.15,0.11,0.23c-1.45-0.81-3.07-1.12-4.68-0.87c-2.21,0.35-4.23,1.74-5.7,3.91c-3.7,5.49-4.52,13.75-3.77,19.95
		c-2.97-4.35-6.35-9.19-12.05-9.83c-0.55-0.06-1.12-0.08-1.68-0.06c-3,0.1-5.66,1.34-7.29,3.38c-2.24,2.8-1.97,6.99,0.6,9.53
		c0.3,0.29,0.6,0.55,0.92,0.78c-0.84,0.06-1.67,0.17-2.46,0.3c-7.14,1.22-12.21,5.5-13.91,11.75c-1.09,4.01-0.41,8.08,1.82,10.9
		c1.54,1.94,3.68,3.08,6.12,3.26c0.08,0.11,0.21,0.19,0.36,0.18c0.02,0,1.5-0.06,2.2-0.23c0.01,0,0.02,0,0.03,0
		c0.11-0.01,0.21-0.05,0.28-0.12c1.72-0.35,3.24-1.43,4.27-3.06c1.25-1.98,1.54-4.4,0.75-6.34c-0.37-2.6-2.77-4.55-5.5-4.46
		c-2.96,0.1-5.29,2.5-5.19,5.35c0.1,2.85,2.59,5.08,5.55,4.98c0.03,0,0.06,0,0.09,0c-0.29,0.12-0.62,0.19-1.01,0.21l-0.09,0
		c-3.53,0.12-5-2.01-5.62-3.82c-1.37-4.03,0.3-9.95,3.43-12.18c2.87-2.04,6.33-3.15,10.3-3.29c11.15-0.38,25.03,7.2,32.66,15.06
		c-5.38-4.59-14.11-9.08-21.81-8.82c-2.92,0.1-5.43,1.19-7.06,3.08c-1.48,1.71-2.16,3.95-1.91,6.31c0.33,3.11,3.02,5.46,6.14,5.35
		c3.69-0.13,5.56-3.31,5.48-5.56c-0.02-0.67-0.19-1.28-0.49-1.82c-0.5-1.66-1.8-2.92-3.42-3.45c0.44-0.06,0.91-0.1,1.4-0.12
		c6.74-0.23,14.51,3.85,19.3,7.98l-0.48,0.48c-0.38,0.38-0.38,0.98,0,1.36l6.75,6.75c0.18,0.18,0.42,0.28,0.68,0.28h0
		c0.26,0,0.5-0.1,0.68-0.28l6.75-6.75c0.38-0.38,0.38-0.98,0-1.36l-0.32-0.32c4.76-4.14,12.37-8.21,19.04-8.06
		c0.5,0.01,0.97,0.05,1.41,0.11c-1.62,0.55-2.9,1.82-3.38,3.49c-0.3,0.55-0.46,1.16-0.47,1.83c-0.05,2.25,1.85,5.41,5.54,5.49
		c3.11,0.07,5.78-2.31,6.07-5.42c0.22-2.37-0.48-4.6-1.98-6.29c-1.66-1.86-4.18-2.93-7.1-2.99c-7.71-0.17-16.38,4.42-21.71,9.08
		c7.54-7.95,21.32-15.69,32.48-15.44c3.97,0.09,7.45,1.16,10.34,3.17c3.16,2.2,4.89,8.1,3.57,12.14c-0.59,1.82-2.04,3.96-5.57,3.88
		l-0.09,0c-0.39-0.01-0.72-0.09-1.01-0.2c0.03,0,0.06,0,0.09,0c2.96,0.07,5.42-2.2,5.49-5.05c0.06-2.85-2.29-5.22-5.25-5.29
		c-2.73-0.06-5.11,1.92-5.45,4.52c-0.77,1.94-0.45,4.36,0.82,6.33c1.05,1.62,2.59,2.67,4.3,3.01c0.07,0.07,0.18,0.12,0.29,0.12
		c0.01,0,0.02,0,0.03,0c0.7,0.16,2.18,0.21,2.2,0.21h0c0.15,0,0.28-0.07,0.36-0.19c2.44-0.22,4.57-1.38,6.08-3.33
		C119.07,55.43,119.71,51.35,118.57,47.35z M58,24.7c-1.39,0-2.7,0.32-3.82,0.93c-0.1,0.04-0.2,0.1-0.3,0.17
		c-1.42,0.87-3.6,2.95-2.73,7.27c0.19,0.91,1.3,3.3,1.51,3.48c1.41,2.15,3.46,3.99,5,5.19c0.07,0.16,0.74,0.7,0.99,0.74
		c1.24,0.89,4.19,2.75,4.65,2.75h0c0.36,0,11.74-6.27,12.44-12.16c0.5-4.25-1.21-6.29-2.58-7.18c-0.15-0.14-0.33-0.25-0.54-0.31
		c-1.04-0.54-2.25-0.83-3.52-0.86c1.21-0.25,2.5-0.28,3.75,0.17c2.56,0.92,4.55,2.73,5.34,4.84c0.83,2.21,0.35,4.71-1.37,7.21
		C73.17,42.26,67.22,47.74,64,50.54c-0.11-0.04-0.22-0.06-0.33-0.06c-0.16,0-0.31,0.05-0.45,0.12c-3.19-2.7-9.41-8.29-13.04-13.82
		c-1.57-2.39-1.94-5-1.04-7.32c0.83-2.15,2.7-3.92,5-4.75c1.51-0.54,3.08-0.4,4.49,0.02C58.42,24.71,58.21,24.7,58,24.7z
		 M31.57,34.51c0.58-0.85,1.1-2.37,0.97-3.43c-0.01-0.11-0.06-0.27-0.19-0.66c-0.07-0.23-0.2-0.64-0.23-0.79
		c0.02-0.17-0.07-0.35-0.24-0.43c-0.02-0.01-0.03-0.02-0.05-0.02c-0.74-1.39-2.24-2.26-3.88-2.2c-0.4,0.01-0.78,0.08-1.15,0.19
		c1.18-0.93,2.78-1.45,4.2-1.5c0.26-0.01,0.53,0,0.78,0.02c4.12,0.35,6.7,4.07,8.97,7.35l0.8,1.15c1.37,1.98,2.77,4.01,4.28,5.96
		c-5.18-2.46-10.4-4-15.27-4.49C30.93,35.34,31.26,34.96,31.57,34.51z M95.16,25.7c0.25-0.02,0.52-0.03,0.78-0.03
		c1.41,0.03,3.03,0.53,4.22,1.45c-0.37-0.11-0.75-0.17-1.15-0.18c-1.64-0.04-3.14,0.85-3.86,2.24c-0.02,0.01-0.03,0.01-0.05,0.02
		c-0.16,0.09-0.25,0.26-0.23,0.44c-0.02,0.14-0.15,0.56-0.22,0.79c-0.12,0.4-0.17,0.56-0.18,0.67c-0.12,1.06,0.42,2.57,1.01,3.42
		c0.31,0.45,0.65,0.83,1.01,1.14c-4.86,0.55-10.06,2.14-15.21,4.67c1.48-1.96,2.86-4.01,4.21-6.01l0.78-1.16
		C88.51,29.85,91.05,26.1,95.16,25.7z M66.36,16.67c1.85,2.75,5.16,2.65,6.83,1.53c0.5-0.34,0.89-0.75,1.15-1.24
		c1.02-1.17,1.37-2.76,1-4.24c0.26,0.3,0.51,0.64,0.76,1.01c2.32,3.44,3.32,8.22,3.44,12.69c-1.33-1.71-3.25-3.09-5.59-3.93
		c-4.05-1.46-8.04,0.28-10.33,1.66c-0.01,0-0.01-0.01-0.02-0.01c-2.23-1.4-6.38-3.33-10.59-1.82c-2.21,0.8-4.07,2.19-5.36,3.96
		c0.14-4.43,1.14-9.14,3.44-12.55c0.25-0.37,0.5-0.71,0.76-1.01c-0.37,1.49-0.03,3.07,1,4.24c0.27,0.49,0.65,0.91,1.15,1.24
		c1.67,1.13,4.98,1.22,6.83-1.53c1.1-1.64,1.15-3.7,0.32-5.38c0.68,0.31,1.43,0.48,2.22,0.48c0.68,0,1.36-0.13,2-0.38
		c0.28-0.11,0.54-0.24,0.79-0.39C65.19,12.73,65.2,14.94,66.36,16.67z"/>
</g>
</svg>
