<?xml version="1.0" encoding="utf-8"?>
<!-- Generator: Adobe Illustrator 26.5.0, SVG Export Plug-In . SVG Version: 6.00 Build 0)  -->
<svg version="1.1" id="Capa_1" xmlns="http://www.w3.org/2000/svg" xmlns:xlink="http://www.w3.org/1999/xlink" x="0px" y="0px"
	 viewBox="0 0 80 80" style="enable-background:new 0 0 80 80;" xml:space="preserve">
<style type="text/css">
	.st0{fill:#FFFFFF;}
	.st1{display:none;}
	.st2{display:none;fill:#FFFFFF;}
	.st3{display:none;fill-rule:evenodd;clip-rule:evenodd;fill:#FFFFFF;}
</style>
<rect x="15.1" y="14" class="st0" width="50" height="52"/>
<path class="st1" d="M40,0.3C18,0.3,0.2,18.1,0.2,40.1S18,79.9,40,79.9s39.8-17.8,39.8-39.8S62,0.3,40,0.3z M29.8,56.5V23.7
	l28.4,16.4L29.8,56.5z"/>
<path class="st1" d="M40,0.3C18,0.3,0.2,18.1,0.2,40.1S18,79.9,40,79.9s39.8-17.8,39.8-39.8S62,0.3,40,0.3z M36,54.7h-8.7V25.4H36
	V54.7z M52.8,54.7h-8.7V25.4h8.7V54.7z"/>
<path class="st1" d="M40,0.3C18,0.3,0.2,18.1,0.2,40.1S18.1,79.9,40,79.9S79.8,62,79.8,40.1S62,0.3,40,0.3z M43.8,59L30.5,47.7h-11
	V32.4h11l13.2-11.2L43.8,59L43.8,59z M50.4,49.2c-0.8,0.6-2,0.5-2.6-0.3s-0.5-2,0.3-2.6c2-1.5,3.1-3.8,3.1-6.3s-1.1-4.8-3.1-6.3
	c-0.8-0.6-1-1.8-0.3-2.6c0.6-0.8,1.8-1,2.6-0.3c2.9,2.2,4.5,5.6,4.5,9.2C55,43.7,53.3,47,50.4,49.2z M55,55.3
	c-0.8,0.6-2,0.5-2.6-0.3s-0.5-2,0.3-2.6c3.9-3,6.1-7.5,6.1-12.3s-2.2-9.4-6.1-12.3c-0.8-0.6-1-1.8-0.3-2.6c0.6-0.8,1.8-1,2.6-0.3
	c4.8,3.6,7.6,9.3,7.6,15.2C62.6,46.1,59.8,51.7,55,55.3z"/>
<path class="st1" d="M40,0.3C18,0.3,0.2,18.1,0.2,40.1S18,79.9,40,79.9s39.8-17.8,39.8-39.8S62,0.3,40,0.3z M20.1,31.6h11l13.2-11.2
	v6.8L24.5,47H20V31.6H20.1z M44.3,58.2l-8-6.8l8-8V58.2z M22.5,59.7l-2.6-2.6l35.7-35.7l2.6,2.6L22.5,59.7z"/>
<path d="M40.1,0.2C18.1,0.2,0.3,18,0.3,40s17.8,39.8,39.8,39.8S79.9,62,79.9,40S62.1,0.2,40.1,0.2z"/>
<path class="st2" d="M46.8,43.1c0.6,0,1,0.4,1,1v9.8l19.4-16.8L47.8,20.3v9.8c0,0.6-0.4,1-1,1c-14.8,0-28,8.8-33.8,22.2
	C22.9,46.7,34.8,43.1,46.8,43.1z"/>
<path class="st0" d="M65.1,37.2L46.2,18.9v9.3c-16.4,2.1-29,15.1-29,30.8c0,0.7,0,1.4,0.1,2.1c4.3-9.4,14.2-15.9,26-15.9
	c1,0,1.9,0.1,2.9,0.2v10.2L65.1,37.2z"/>
<polygon class="st3" points="65.1,40 43.6,20.7 43.6,30 19.2,30 19.2,50 43.6,50 43.6,59.3 "/>
</svg>
