<?xml version="1.0" encoding="utf-8"?>
<!-- Generator: Adobe Illustrator 26.5.0, SVG Export Plug-In . SVG Version: 6.00 Build 0)  -->
<svg version="1.1" id="Capa_1" xmlns="http://www.w3.org/2000/svg" xmlns:xlink="http://www.w3.org/1999/xlink" x="0px" y="0px"
	 viewBox="0 0 80 80" style="enable-background:new 0 0 80 80;" xml:space="preserve">
<style type="text/css">
	.st0{display:none;}
</style>
<path class="st0" d="M40,0.3c-22,0-39.8,17.8-39.8,39.8c0,22,17.8,39.8,39.8,39.8c22,0,39.8-17.8,39.8-39.8C79.8,18.1,62,0.3,40,0.3
	z M29.8,56.5V23.7l28.4,16.4L29.8,56.5z"/>
<path class="st0" d="M40,0.3c-22,0-39.8,17.8-39.8,39.8c0,22,17.8,39.8,39.8,39.8c22,0,39.8-17.8,39.8-39.8C79.8,18.1,62,0.3,40,0.3
	z M36,54.7h-8.7V25.4H36V54.7z M52.8,54.7h-8.7V25.4h8.7V54.7z"/>
<path d="M40,0.3c-22,0-39.8,17.8-39.8,39.8S18.1,79.9,40,79.9S79.8,62,79.8,40.1S62,0.3,40,0.3z M43.8,59L30.5,47.7h-11V32.4h11
	l13.2-11.2V59z M50.4,49.2c-0.8,0.6-2,0.5-2.6-0.3c-0.6-0.8-0.5-2,0.3-2.6c2-1.5,3.1-3.8,3.1-6.3c0-2.5-1.1-4.8-3.1-6.3
	c-0.8-0.6-1-1.8-0.3-2.6c0.6-0.8,1.8-1,2.6-0.3c2.9,2.2,4.5,5.6,4.5,9.2C55,43.7,53.3,47,50.4,49.2z M55,55.3
	c-0.8,0.6-2,0.5-2.6-0.3c-0.6-0.8-0.5-2,0.3-2.6c3.9-3,6.1-7.5,6.1-12.3s-2.2-9.4-6.1-12.3c-0.8-0.6-1-1.8-0.3-2.6
	c0.6-0.8,1.8-1,2.6-0.3c4.8,3.6,7.6,9.3,7.6,15.2C62.6,46.1,59.8,51.7,55,55.3z"/>
<path class="st0" d="M40,0.3c-22,0-39.8,17.8-39.8,39.8c0,22,17.8,39.8,39.8,39.8c22,0,39.8-17.8,39.8-39.8C79.8,18.1,62,0.3,40,0.3
	z M20.1,31.6h11l13.2-11.2v6.8L24.5,47h-4.5V31.6z M44.3,58.2l-8-6.8l8-8V58.2z M22.5,59.7l-2.6-2.6l35.7-35.7l2.6,2.6L22.5,59.7z"
	/>
</svg>
