<?xml version="1.0" encoding="utf-8"?>
<!-- Generator: Adobe Illustrator 27.0.1, SVG Export Plug-In . SVG Version: 6.00 Build 0)  -->
<svg version="1.1" id="Layer_1" xmlns="http://www.w3.org/2000/svg" xmlns:xlink="http://www.w3.org/1999/xlink" x="0px" y="0px"
	 viewBox="0 0 2061.1 3405.6" style="enable-background:new 0 0 2061.1 3405.6;" xml:space="preserve">
<style type="text/css">
	.st0{fill:#9000AB;}
</style>
<g>
	<g>
		<path class="st0" d="M713.4,1897c112.1-152.4,214.5-298.1,298.8-425.7c-68.2-104.2-124.1-196.4-163.1-270.1
			C614.5,757,574.6,386.6,632,227.7L375.4,824.1c-72.8,197.2-3.8,433.8,268.4,950.2C663.8,1812.2,687.2,1853.3,713.4,1897z"/>
		<path class="st0" d="M1361.2,1967.4c-80.6,129.5-183.9,279.2-301,437.9c238.1,320.4,529.9,673.1,802.1,964.1l173.6-559.3
			C1817.6,2559.9,1574.4,2254.7,1361.2,1967.4z"/>
	</g>
	<path class="st0" d="M1402.8,241c-10-27.7-38.9-88.9-62.1-110.6c-58.3-54.7-177.4-96-304.9-96c-127.5,0-246.6,41.4-304.9,96
		c-23.1,21.7-52.1,83-62.1,110.6c-23.6,65.4-29.1,168.7-10,298.9c117.1-64.7,250.8-101.2,376.9-101.2
		c126.2,0,259.9,36.4,376.9,101.2C1431.9,409.7,1426.4,306.4,1402.8,241z"/>
	<path class="st0" d="M35.9,2810.1C485.4,2294.9,1040,1547,1222.6,1201.1c234.6-444.2,274.5-814.5,217.1-973.4l256.6,596.4
		c72.8,197.2,3.8,433.8-268.4,950.2c-201.6,382.2-740.4,1084.1-1218.5,1595.1L35.9,2810.1z"/>
</g>
</svg>
