<?xml version="1.0" encoding="utf-8"?>
<!-- Generator: Adobe Illustrator 27.0.0, SVG Export Plug-In . SVG Version: 6.00 Build 0)  -->
<svg version="1.1" id="Capa_1" xmlns="http://www.w3.org/2000/svg" xmlns:xlink="http://www.w3.org/1999/xlink" x="0px" y="0px"
	 viewBox="0 0 102.9 150" style="enable-background:new 0 0 102.9 150;" xml:space="preserve">
<style type="text/css">
	.st0{fill:#D1D3D4;}
</style>
<g>
	<g>
		<g>
			<path class="st0" d="M37.4,83.6c5-6.7,9.5-13.2,13.2-18.9c-3-4.6-5.5-8.7-7.2-12C33.1,33.2,31.3,16.8,33.8,9.7L22.5,36.1
				c-3.2,8.7-0.2,19.2,11.9,42.1C35.2,79.9,36.3,81.7,37.4,83.6z"/>
			<path class="st0" d="M66.1,86.8c-3.6,5.7-8.1,12.4-13.3,19.4c10.5,14.2,23.5,29.8,35.5,42.7l7.7-24.8
				C86.3,113,75.6,99.5,66.1,86.8z"/>
		</g>
		<path class="st0" d="M68,10.3c-0.4-1.2-1.7-3.9-2.7-4.9C62.6,3,57.4,1.2,51.7,1.2c-5.6,0-10.9,1.8-13.5,4.3c-1,1-2.3,3.7-2.7,4.9
			c-1,2.9-1.3,7.5-0.4,13.2c5.2-2.9,11.1-4.5,16.7-4.5s11.5,1.6,16.7,4.5C69.2,17.8,69,13.2,68,10.3z"/>
		<path class="st0" d="M7.4,124.1C27.3,101.3,51.9,68.1,60,52.8c10.4-19.7,12.2-36.1,9.6-43.1L81,36.1c3.2,8.7,0.2,19.2-11.9,42.1
			c-8.9,16.9-32.8,48-54,70.6L7.4,124.1z"/>
	</g>
</g>
</svg>
