<?xml version="1.0" encoding="utf-8"?>
<!-- Generator: Adobe Illustrator 26.5.0, SVG Export Plug-In . SVG Version: 6.00 Build 0)  -->
<svg version="1.1" id="Capa_1" xmlns="http://www.w3.org/2000/svg" xmlns:xlink="http://www.w3.org/1999/xlink" x="0px" y="0px"
	 viewBox="0 0 234.2 140.4" style="enable-background:new 0 0 234.2 140.4;" xml:space="preserve">
<style type="text/css">
	.st0{fill:#FFFFFF;stroke:#7F7F7F;stroke-width:2;stroke-linejoin:round;}
</style>
<g>
	<path class="st0" d="M189.4,42.2c0.3-0.2,0.6-0.4,0.9-0.6c0.8-0.3,1.6-0.7,2.4-1.1l0.9-0.4c0.3-0.1,0.6-0.3,0.8-0.6
		c0.1-0.2,0.4-0.3,0.8-0.4c0.4-0.1,0.9-0.2,1.3-0.7c0.2-0.2,0.4-0.4,0.7-0.6c0.4-0.3,0.9-0.7,1.1-1.3c0,0,0.2-0.1,0.3-0.1l0.1,0
		c0.9-0.3,1.4-1,1.7-2.1c0.1-0.2,0.2-0.7-0.2-1.1c-0.1-0.1-0.2-0.3-0.1-0.7c0.3-0.8-0.2-1.3-0.4-1.5c-0.2-0.2-0.4-0.4-0.7-0.6
		c0,0,0,0,0,0c-0.1-0.5-0.1-0.8,0-1.1c0,0,0,0,0,0c0.6,0.3,1,0.2,1.3,0.1c0.3-0.1,0.6-0.3,0.9-0.9c0.1-0.2,0.1-0.4,0.2-0.6l0.1-0.3
		c0.1-0.2,0-0.5-0.2-0.7c-0.5-0.4-1.1-0.6-1.8-0.6c0,0,0,0,0,0c0-0.1,0-0.2,0-0.4l0-0.1c0-0.4-0.1-0.6-0.2-0.7
		c-0.2-0.2-0.4-0.3-0.7-0.3c-0.2,0-0.4,0-0.6,0c0,0,0,0,0,0c-0.5-0.8-1.3-0.7-1.7-0.6c-0.1,0-0.3,0.1-0.4,0.1
		c-0.2,0-0.4,0.1-0.5,0.1c-0.6,0-1.2,0.2-1.6,0.8c0,0-0.1,0.1-0.1,0.1c0,0,0,0-0.1,0c-0.1-0.1-0.3-0.1-0.5-0.1
		c-0.5,0.1-0.9,0.3-1.3,0.6c-0.3,0.2-0.4,0.5-0.4,0.7c-0.3-0.1-0.6-0.1-1,0c-0.3,0.1-0.5,0.1-0.9-0.2c-0.4-0.3-0.8-0.5-1.1-0.7
		l-0.2-0.1c-0.7-0.3-1.6-0.7-2.5-0.3c-0.6-0.1-1.2,0.1-1.6,0.8c-0.2,0.2-0.4,0.3-0.7,0.3c-0.2,0-0.3-0.1-0.4-0.4
		c-0.1-0.7-0.6-1.2-1.3-1.2c0,0-0.2-0.1-0.2-0.1c-0.1,0-0.1-0.1-0.2-0.1c-0.7-0.5-1.5-0.5-2.2-0.5c-0.1,0-0.2,0-0.4,0
		c-0.2,0-0.5,0.1-0.7,0.3c-0.1,0.2-0.3,0.3-0.7,0.4c-0.2,0.1-0.4,0.1-0.6,0.3c-0.1,0.1-0.3,0.1-0.5,0.1c0,0-0.1,0-0.1,0
		c0,0,0-0.1,0-0.2c0.4-0.8,0.1-1.2-0.2-1.3c0,0,0-0.1,0-0.2c0-0.1,0-0.2,0-0.2c0.1-1.3-0.7-2.2-1.4-2.7c-0.3-0.2-0.6-0.3-0.9-0.2
		c-0.2,0-0.4,0-0.6,0c-0.4,0-0.8-0.1-1.3,0.1c0,0,0,0,0,0c-0.3-0.8-1-1.2-2-1.3l-0.1,0c-0.5,0-1-0.1-1.3-0.2
		c-0.5-0.3-0.9-0.4-1.4-0.5c-0.4-0.1-0.8-0.2-1.1-0.4c-0.3-0.1-0.6-0.2-0.9,0c-0.3,0.1-0.5,0.3-0.6,0.6l0,0.1
		c-0.2,0.6-0.5,1.3-0.2,2.1l0,0c-0.6-0.1-1.1,0-1.7,0l-0.3,0c-0.1,0-0.2,0-0.3,0c-0.1,0-0.2,0-0.2,0c-0.3-0.3-0.7-0.4-1-0.4
		c-0.3,0-0.6,0.2-0.8,0.4c-0.2-0.2-0.5-0.3-0.7-0.4c-0.1,0-0.2-0.1-0.2-0.1c-0.5-0.3-1-0.2-1.4,0.1c-0.1,0.1-0.3,0.2-0.6,0.1
		c-0.3-0.1-0.6,0-0.9,0.1c-0.6,0.2-0.7,0.1-0.9-0.2c-0.1-0.1-0.2-0.2-0.4-0.2c0,0-0.1-0.2-0.1-0.2c0-0.1-0.1-0.2-0.1-0.3l0-0.1
		c-0.1-0.2-0.5-0.9-1.2-0.7c0,0,0,0,0,0c-0.9-0.8-1.9-0.9-2.9-0.3c0,0-0.1,0-0.1,0.1c-0.3,0.1-0.4,0.1-0.5,0
		c-0.7-0.4-1.1-0.2-1.5,0.2c-0.1-0.1-0.3-0.3-0.4-0.4c-0.1-0.1-0.1-0.2-0.2-0.2c-0.1-0.1-0.1-0.1-0.1-0.2c-0.2-0.2-0.4-0.5-0.8-0.6
		c-0.1,0-0.2-0.1-0.3-0.4c-0.4-0.9-0.7-1.1-1.6-1c-0.4,0-0.8,0.1-1.3,0.1l-0.2,0c0,0,0,0,0,0c-0.3-0.2-0.7-0.3-1-0.5
		c-0.3-0.1-0.5-0.2-0.7-0.3c-0.3-0.2-0.5-0.2-0.8-0.3c-0.2,0-0.3-0.1-0.4-0.1c-0.5-0.3-1-0.5-1.4-0.6c0,0,0,0-0.1,0c0,0,0,0,0,0
		c0.1-0.2,0-0.5-0.1-0.7c-0.1-0.2-0.4-0.3-0.6-0.3c-0.3,0-0.6,0.1-0.7,0.3c-0.3,0.3-0.4,0.6-0.4,0.9c0,0.1,0,0.1,0,0.2c0,0,0,0,0,0
		c0,0,0,0,0,0c-0.1,0-0.2-0.1-0.3-0.2c0.7-0.7,0.8-1.6,0.9-2.3l0-0.1c0.1-0.5-0.1-1.2-1.1-1.4c-0.1,0-0.2,0-0.3,0
		c-0.4-0.3-0.8-0.4-1.2-0.3c-0.3,0-0.5,0.1-0.7,0.3c-0.1-0.5-0.5-0.8-1.1-0.7c-0.1,0-0.3,0-0.4,0c-0.1-0.2-0.3-0.4-0.5-0.5
		c-0.2-0.1-0.2-0.2-0.3-0.3c0-0.2-0.2-0.4-0.3-0.5c-0.2-0.1-0.5-0.1-0.7-0.1c0,0-0.1,0-0.1,0c-0.2,0.1-0.5,0.1-0.7,0.4
		c-0.3,0.3-0.6,0.4-1.1,0.5c-0.2,0-0.4,0.1-0.6,0.1c-0.1,0-0.3,0.1-0.4,0.1c-0.3,0.1-0.7,0.1-1,0.3c-0.3,0.1-0.5,0.1-1,0
		c-0.5-0.1-1-0.2-1.6,0.1c-0.1,0-0.3-0.1-0.4-0.2l-0.3-0.1c-0.4-0.2-0.8-0.3-1-0.6c-0.4-0.3-0.8-0.6-1.3-0.6c-0.2,0-0.5-0.1-0.8-0.2
		c-0.4-0.1-0.8-0.3-1.2-0.3c0,0-0.1-0.1-0.2-0.2c-0.2-0.2-0.4-0.4-0.7-0.4c-0.4-0.1-0.7,0-0.9,0.1c-0.1,0-0.2,0.1-0.3,0.1
		c-0.1,0-0.2,0-0.2,0c0,0,0,0-0.1,0c-0.7-0.1-1.4,0.1-1.9,0.7l0,0c0,0-0.1,0.1-0.1,0.1c-0.4,0.1-0.6,0.4-0.7,0.6
		c-0.2-0.1-0.6-0.2-0.9-0.1c-0.1,0-0.3,0.1-0.6-0.2l-0.1-0.1c-0.2-0.2-0.4-0.5-0.9-0.5c-0.2,0-0.4-0.1-0.7-0.1
		c-0.4-0.1-0.7-0.1-1.1-0.1c0-0.1,0-0.3-0.1-0.4c-0.1-0.2-0.4-0.4-0.7-0.4c-0.3,0-0.6-0.2-0.8-0.4c-0.4-0.4-1-0.5-1.5-0.3
		c-0.2,0.1-0.4,0.2-0.6,0.2c-0.4,0.1-0.7,0.3-1.1,0.4c-0.1-0.2-0.3-0.3-0.5-0.4c-0.1,0-0.4-0.1-0.7,0c-0.2,0.1-0.5,0.1-0.7,0.2
		c-0.5,0.1-1,0.2-1.5,0.6c-0.7,0-1.3,0.2-1.8,0.4c-0.1,0-0.2,0.1-0.3,0.1c-0.7,0.3-1.4,0.4-2,0.4c-0.6,0-1.3,0-1.9,0
		c-0.5,0-1,0-1.5,0c-0.9,0-1.5-0.1-2.1-0.3c-1.3-0.4-2.6-0.7-3.9-0.8l-0.1,0c-0.3,0-0.5,0-0.7-0.1c-0.5-0.2-1.1-0.3-1.7-0.2l-0.1,0
		c-0.1,0-0.2,0-0.2,0c-0.6-0.6-1.3-1-2.4-1c-0.5-0.4-1.2-0.3-1.4-0.2c-0.2,0-0.3,0-0.5,0c-0.1,0-0.3,0-0.4,0c-0.1,0-0.2,0-0.3,0
		c-0.3,0-0.6-0.1-0.9,0c-0.2,0.1-0.3,0-0.7-0.2l-0.1-0.1c-0.2-0.1-0.4-0.3-0.4-0.4c-0.2-0.4-0.5-0.6-0.8-0.8C77.5,3.7,77,3.4,76.3,4
		c-0.2,0.1-0.3,0.3-0.5,0.4c-0.1,0.1-0.2,0.2-0.4,0.3c-0.2,0.2-0.3,0.2-0.3,0.1c-0.5-0.3-1,0-1.1,0.2l0,0c-0.1,0.1-0.3,0.2-0.6,0.1
		l-0.2,0c-0.2,0-0.4-0.1-0.5-0.1c-0.7-0.4-1.3-0.2-1.7,0c-0.6,0.3-1.2,0.4-1.9,0.2c-0.2,0-0.5-0.1-0.8,0.1c-0.3,0.2-0.6,0.1-1.2,0
		l-0.3-0.1C66.6,5.1,66.3,5,66,5c-0.8,0.1-1.7,0.1-2.8,0L63,5c-0.3,0-0.7-0.1-1.1,0c-0.8,0.3-1.6,0.2-2.5,0.1c-0.2,0-0.4,0-0.6-0.1
		c-0.5,0-0.9-0.3-1.2-0.7c-0.5-0.9-1.2-1.4-2-1.7c0,0,0,0-0.1,0c0,0-0.1-0.1-0.1-0.1C54.8,2,54.3,2,53.6,2.5
		c-0.1-0.2-0.3-0.4-0.6-0.5c0-0.2-0.2-0.4-0.4-0.5c-0.2-0.1-0.5-0.1-0.7,0c-0.2,0.1-0.3,0.2-0.4,0.3c0,0-0.1,0.1-0.2,0.1
		c-0.1,0.1-0.2,0.1-0.3,0.2C51,2,50.9,2,50.8,2.1l-0.4,0.2c0-0.3-0.2-0.6-0.5-0.7c-0.3-0.1-0.6-0.1-0.8,0c-0.2,0.1-0.4,0.3-0.6,0.4
		c-0.1,0.1-0.2,0.2-0.3,0.2c-0.1,0-0.1,0.1-0.2,0.2c0,0-0.1,0.1-0.1,0.1c-0.9,0-1.4,0.3-1.5,1.1c-0.1,0-0.1,0.1-0.2,0.1
		C46,3.9,45.7,4,45.5,4.2c-0.4,0.3-0.9,0.5-1.2,1c-0.1,0.1-0.2,0.1-0.2,0.1c-0.2-0.1-0.5-0.1-0.7,0.1C43.1,5.5,43,5.7,43,6
		c0,0.2,0,0.3-0.1,0.6c-0.1,0.2-0.1,0.4-0.2,0.7C42.7,7.8,43,8,43.2,8.1c-0.2,0.1-0.3,0.2-0.4,0.4c-0.1,0-0.1-0.1-0.2-0.1
		c-0.2,0-0.5,0-0.8,0.1c-0.2,0.1-0.4,0.2-0.5,0.3L41,8.9c-0.2,0.1-1.2,0.5-1.4,0.6c-0.2,0.1-0.5,0.1-0.7,0.2
		c-0.7,0.3-1.1,0.2-1.6-0.2c-0.4-0.5-0.9-0.3-1.2-0.2c-0.3,0.1-0.5,0.3-0.7,0.4C35.2,9.8,35,9.9,34.9,10c-0.3,0.1-0.6,0.2-0.8,0.6
		c-0.1,0.2,0,0.4,0,0.6c-0.2,0.1-0.5,0.2-0.7,0.5c0,0.1-0.1,0.1-0.3,0.1c-0.8-0.2-1.4,0.1-1.9,0.8c-0.1,0.2-0.4,0.5-0.3,0.9
		c0,0,0,0,0,0.1c-0.3,0.2-0.5,0.4-0.6,0.8c-0.2,0.1-0.4,0.2-0.4,0.4c-0.2,0.4,0,0.7,0.1,0.9l0,0.1c0.2,0.3,0.1,0.3,0.1,0.4
		c-0.4,0.6-0.4,1.2,0,2c0.2,0.3,0.5,0.3,0.8,0.2c0.1,0,0.4-0.1,0.5-0.4c0,0,0-0.1,0-0.1c0.1,0,0.2,0,0.3,0c0,0,0,0.1,0,0.1
		c0,0.2,0,0.4,0.1,0.7c0.1,0.1,0.1,0.2,0.2,0.2c0,0,0,0,0,0c-0.3,0.2-0.3,0.7-0.2,0.9c0.2,0.3,0.3,0.7,0.7,0.9
		c0.2,0.2,0.5,0.3,0.8,0.2c0,0.1-0.1,0.2-0.1,0.3c0,0.1-0.1,0.3-0.1,0.4c-0.1,0.4-0.2,0.8-0.4,1.2c-0.1,0.2-0.1,0.5-0.1,0.7
		c0.1,0.2,0.2,0.4,0.4,0.4c0,0,0.1,0,0.1,0c0,0,0,0.1,0,0.1c0,0.3,0.1,0.5,0.3,0.7c0.2,0.2,0.5,0.2,0.8,0.1c0.2-0.1,0.6-0.3,0.7-0.7
		c0-0.1,0.1-0.2,0.3-0.4c0,0.2,0.1,0.3,0.2,0.5l-0.1,0.1c-0.2,0.1-0.3,0.2-0.5,0.3c-0.3,0.2-0.4,0.5-0.3,0.9
		c0.1,0.3,0.3,0.5,0.6,0.5c0,0,0.1,0.1,0.1,0.2c0.1,0.1,0.2,0.3,0.3,0.5c0,0,0,0,0.1,0.1c0.1,0.1,0.3,0.3,0.5,0.4
		c-0.1,0.2-0.2,0.3-0.2,0.6c-0.4,0.3-0.7,0.9-0.5,1.3c0.2,0.5,0.6,0.5,0.8,0.5c0,0,0,0,0.1,0c0,0,0.1,0,0.1,0
		c-0.1,0.1-0.2,0.2-0.2,0.3l-0.1,0.1C36.2,30,36,30.2,36,30.6c-0.1,0.1-0.2,0.1-0.4,0.2c-0.3,0.1-0.5,0.4-0.4,1.1
		c0.1,0.9,0.1,1.8,0.1,2.8c0,0.2,0,0.4,0.1,0.6l0,0.1c0.1,0.3,0.3,0.6,0.6,0.6c0.3,0.1,0.6,0,0.7-0.3c0.2-0.2,0.4-0.4,0.7-0.4
		c0.4-0.1,0.7-0.3,0.8-0.7c0.1-0.2,0.2-0.4,0.4-0.4c0.4-0.2,0.7-0.5,0.9-0.9C39.7,33,39.8,33,40,33c0.3,0,0.7,0.1,1.1-0.3
		c0.2-0.2,0.4-0.2,0.8-0.2c0.9,0,1.8-0.2,2.6-0.7l0,0c0.1-0.1,0.2-0.1,0.2-0.1l0.1,0.5c0,0.1,0.1,0.3,0.3,0.4
		c0.4,0.2,0.7,0.1,0.9,0.1c0,0,0.1,0,0.1,0c0,0,0,0,0,0l0.5-0.3l-0.5,0.4c0,0,0-0.1,0-0.1c-0.1,0.1-0.3,0.2-0.4,0.3
		c-0.6,0.3-0.9,0.9-1.2,1.4l0,0c-0.4,0.7-0.1,1.2,0.3,1.5c0.2,0.1,0.2,0.2,0.3,0.4c0.2,0.7,0.6,1,0.8,1.1c0.3,0.1,0.7,0.2,1.4-0.1
		c0.1,0,0.1-0.1,0.2-0.1c0.3-0.1,0.6-0.3,0.9-0.7c0.1-0.2,0.3-0.2,0.6-0.3c0.1,0.1,0.2,0.2,0.3,0.2c0.2,0.2,0.5,0.2,0.8,0.1
		c0.1,0,0.2-0.1,0.3-0.1c0.9-0.5,1.5-0.7,2.3-0.3c0,0,0,0,0,0c0,0.3,0.2,0.5,0.4,0.7c0.2,0.2,0.5,0.3,0.8,0.2
		c0.4-0.1,0.8-0.2,1.1-0.5c0,0,0,0,0,0c0,0,0,0.1,0.1,0.1c0.1,0.2,0.3,0.5,0.8,0.7c0.2,0.1,0.4,0,0.6-0.2c0.2-0.2,0.4-0.3,0.6-0.3
		c0.3,0,0.7-0.1,0.9-0.2c0.1,0,0.2-0.1,0.2-0.1c1.5-0.5,1.6-1.4,1.4-2.2c0.1,0,0.2,0.1,0.3,0.1c0.5,0.6,1.2,0.7,1.9,0.4
		c0.1,0,0.1,0,0.1,0c0,0,0,0,0.1,0c0.5,0.5,1.1,0.4,1.6,0.3c0.1,0,0.2,0,0.2,0c0.3,0,0.5-0.2,0.7-0.4c0.3,0.3,0.7,0.5,1.3,0.5l0.1,0
		c0.3,0,0.7,0,1-0.1c0,0.3,0,0.7,0.3,1l0,0c0,0.3-0.1,0.5-0.2,0.8c-0.3,0.6-0.3,1.2,0,1.9c0.2,0.5,0.4,0.9,0.8,1
		c0.4,0.2,0.8,0.2,1.3,0c0,0,0.1,0,0.2-0.1l0,0c0.9,0.1,1.5,0.1,1.9,0.7c0.1,0.2,0.3,0.3,0.4,0.4c-0.1,0.1-0.2,0.3-0.3,0.4
		c-0.5,0.7-1,1.3-1.2,2.2c0,0,0,0,0,0c-0.2-0.1-0.5,0-0.7,0.1c-0.2,0.2-0.4,0.5-0.3,0.8c0,0,0,0.1-0.1,0.1l-0.1,0.1
		c-0.5,0.7-1.2,1.2-1.9,1.6c0,0,0,0,0,0c-0.6-0.2-1.2,0-1.7,0.7c-0.1,0.1-0.2,0.2-0.2,0.3c-0.2,0.3-0.4,0.7-0.7,0.9
		C64,48.2,64,48.5,64,48.7l0,0c-0.1,0.7-0.3,0.9-1,0.9c0,0,0,0-0.1,0c0,0-0.1,0-0.1,0c-0.7,0-0.9,0.4-1,0.6c-0.1,0.3,0,0.6,0.2,0.8
		c0.2,0.2,0.4,0.5,0.5,0.7l0.3,0.4c0,0.1,0.1,0.2,0.1,0.3c0.1,0.3,0.1,0.7,0.5,1c0,0,0,0.1-0.1,0.2c-0.1,0.2-0.2,0.5-0.2,0.8
		c0,0.2,0,0.4,0,0.5c0,0.4,0,0.8,0.1,1.2c0.2,0.8,0.3,1.2-0.1,1.7c-0.2,0.3-0.2,0.5-0.2,0.7c0,0.2,0.1,0.4,0.4,0.7c0,0,0,0,0.1,0
		c0,0,0,0.1-0.1,0.1c-0.1,0.1-0.1,0.2-0.1,0.2c0,0,0,0.1-0.1,0.1c-0.4,0.5-0.4,1.1-0.1,1.7c0.1,0.2,0.2,0.4,0.3,0.6l0,0.1
		c0,0.1,0.1,0.1,0.1,0.2c0,0-0.1,0.1-0.1,0.1c0,0-0.1,0.1-0.1,0.1c-0.2,0.2-0.6,0.4-0.6,0.9c0,0,0,0,0,0c0,0,0,0-0.1,0
		c-0.5,0-0.8,0.2-1.1,0.3l-0.1,0.1c-0.6,0.3-0.9,0.9-0.8,1.7c0,0.1,0,0.1,0,0.2c0,0.4,0.1,1.3,1.2,1.4c0,0,0.1,0,0.1,0.1
		c0.2,0.3,0.3,0.5,0.5,0.8c0.1,0.2,0.1,0.4,0.1,0.5l0,0.1c-0.2,0.6-0.4,1.3-0.4,2c0,0-0.1,0.1-0.2,0.2c-0.6,0.8-0.8,1.3-1,2.2
		c0,0.1,0,0.2-0.1,0.2c0,0.1-0.1,0.3-0.1,0.4c0,0.1,0,0.1-0.2,0.1c0,0-0.1,0-0.2,0c-0.1,0-0.2,0-0.4,0c-0.3,0-0.7,0-1,0
		c-0.6,0-1.4-0.1-2.1,0.2c-0.1,0-0.4,0-0.6,0c-0.1,0-0.3,0-0.4-0.1c-0.1,0-0.1,0-0.2,0c-0.1,0-0.2-0.1-0.4-0.1c0,0-0.1,0-0.1,0
		c-0.3,0-0.9-0.1-1.3,0.4c-0.3,0.5-0.1,1,0.1,1.3c0,0.1,0.1,0.1,0.1,0.2c0.1,0.3,0.3,0.5,0.6,0.7c0.1,0.1,0.2,0.2,0.3,0.3
		c0.1,0.2,0.3,0.4,0.6,0.6c0.3,0.6,0.8,1,1.2,1.2c0,0,0,0,0,0.1c0,0,0,0.1,0,0.1c-0.6,0.7-0.2,1.5,0,1.8c0.2,0.3,0.5,0.6,0.7,0.8
		c0.1,0.1,0.2,0.2,0.1,0.4c-0.2,1.2,0.4,1.6,1.3,2c0,0,0,0,0,0c0,0,0,0.1,0,0.1c0,0.5,0.1,0.8,0.4,1c0.3,0.2,0.6,0.3,1.1,0.2
		c0.1,0,0.2-0.1,0.3-0.1c0,0,0.1,0,0.1,0c0.1,0,0.1,0,0.1,0c0.3,0.1,0.5,0.4,0.5,0.7c0,0.2,0,0.4-0.1,0.5c-0.2,0.2-0.3,0.5-0.4,0.7
		c-0.1,0.1-0.1,0.3-0.2,0.4L60.5,87c-0.2,0.2-0.4,0.6-0.3,1.1c-0.4,0.4-0.8,0.7-1.2,1.1c-0.3,0.3-0.7,0.6-1,0.9
		c-0.5,0.2-0.8,0.7-0.8,1.4c0,0.1,0,0.1,0,0.2c0,0.3-0.1,0.7,0.1,1.1c0,0-0.1,0.2-0.1,0.2c-0.1,0.3-0.2,0.5-0.4,0.7
		c-0.3,0.5-0.3,0.9-0.3,1.4c0,0.2,0,0.4-0.1,0.6c-0.1,0.3,0.1,0.6,0.2,0.7l0,0c0.2,0.2,0.4,0.5,0.6,0.7c0.7,0.9,1.4,1.7,1.8,2.8
		c0.1,0.2,0.2,0.4,0.3,0.6c0,0,0.1,0.1,0.1,0.1c0.4,0.6,1,0.6,1.2,0.5c0.3,0,0.6-0.1,0.8-0.3c-0.1,0.2-0.2,0.4-0.3,0.6
		c-0.1,0.3-0.3,0.7-0.4,1.1c0,0-0.1,0-0.1-0.1c-0.3-0.1-0.6-0.2-0.8-0.1c-0.2,0.1-0.4,0.3-0.5,0.5c0,0.1-0.1,0.1-0.1,0.1
		c0,0,0,0-0.1,0c-0.5-0.2-0.9,0.1-1.2,0.2c-0.1,0-0.1,0.1-0.2,0.1c-0.5,0.3-0.5,0.8-0.5,1c0,0,0,0.1,0,0.1c-0.1,0.5-0.2,1-0.4,1.4
		c-0.2,0.5-0.6,0.9-1,1.2c-0.6,0.5-1,1.1-1.1,1.7c-0.1,0.6-0.3,1.1-0.6,1.5c-0.1,0.2-0.2,0.4-0.3,0.6c0,0.1-0.1,0.2-0.1,0.3
		c-0.2,0.5-0.2,1,0.2,1.4c0.4,0.4,0.5,0.7,0.5,1.1c0,0.4,0.1,0.7,0.2,1c0.1,0.2,0.1,0.5,0.1,0.7c0,0.9,0.1,1.9,0.4,2.8
		c0.1,0.4,0.4,0.6,0.7,0.7c0.3,0.1,0.6,0.1,0.9-0.1c0.5-0.3,1.2-0.4,1.8-0.4c0.1,0,0.2,0,0.4,0c0.2,0,0.4,0,0.7,0c0.5,0,1,0,1.5,0.3
		c0.5,0.2,1,0.5,1.6,0.7c1.5,0.6,2.9,1.5,4.2,2.5c0.9,0.7,1.5,1.5,1.7,2.3c0.1,0.2,0.2,0.5,0.3,0.8c-0.7,0.6-1,1-0.3,2.3l0.1,0.2
		c0.3,0.5,0.6,1.3,1.7,1.2c0,0,0.1,0.1,0.1,0.1c0.1,0.1,0.1,0.2,0.2,0.3c0,0,0,0-0.1,0c-0.2,0-0.4,0.2-0.5,0.4
		c-0.1,0.2-0.1,0.5,0,0.7c0.1,0.2,0.2,0.5,0.3,0.7c0.4,0.7,0.7,1.5,1.3,2.2c0.1,0.1,0.1,0.2,0.1,0.3c0,0.1,0.1,0.3,0.2,0.5
		c0.2,0.3,0.4,0.5,0.6,0.5c0,0,0.1,0,0.1,0.1c0.1,0.2,0.1,0.4,0.2,0.5c0.1,0.2,0.2,0.5,0.4,0.7c0.3,0.6,0.8,0.7,1.1,0.7
		c0.1,0,0.1,0,0.2,0c0.2,0,0.4,0.1,0.7,0c0.1,0,0.2,0,0.5,0.3c0.2,0.2,0.4,0.4,0.6,0.7c0.1,0.2,0.4,0.7,0.9,0.7
		c0.1,0,0.3,0.1,0.4,0.2c0.3,0.2,0.7,0.4,1.2,0.3c0,0,0.1,0.1,0.1,0.1c0,0,0.1,0.1,0.1,0.1c0.1,0.2,0.3,0.5,0.7,0.6
		c0.1,0,0.1,0,0.2,0c0.1,0,0.1,0,0.2,0c0.4-0.1,0.7-0.3,1-0.4c0.3-0.2,0.7-0.3,1-0.4c0.6-0.2,0.8-0.6,0.7-1.3l0-0.2c0,0,0,0,0,0
		c0.1,0.2,0.2,0.3,0.5,0.4c0.2,0.1,0.4,0.1,0.5,0c0.2-0.1,0.3-0.3,0.3-0.5c0-0.7,0.1-1.3,0.4-1.7c0.5-0.8,0.8-1.5,1.1-2.1
		c0.2-0.4,0.4-0.7,0.8-0.8c0.2-0.1,0.4-0.2,0.6-0.3c0.3-0.2,0.7-0.3,1-0.4c0.4-0.1,0.8-0.3,1-0.5c0.3-0.3,0.7-0.3,1.2-0.2
		c0.1,0,0.2,0,0.3,0.1c0.2,0.1,0.5,0.1,0.8,0.1c0.8,0,2-0.1,2.7-1.4c0.1-0.1,0.1-0.1,0.1-0.1c0.9-0.1,1.3-0.8,1.6-1.3
		c0.1-0.2,0.2-0.4,0.4-0.6c0.1-0.2,0.2-0.3,0.3-0.5c0.1-0.2,0.1-0.2,0.3-0.2c0.6,0.2,1.3,0.2,1.9,0.1c0.2,0,0.3,0,0.5,0
		c0.7,0,1.4-0.2,1.9-0.5c0.1-0.1,0.2-0.1,0.3,0c0.7,0.3,1.5,0.3,2.4,0c0.3-0.1,0.6-0.1,0.9,0c0.8,0.3,1.5,0.3,2.1,0
		c0.1,0,0.2-0.1,0.1-0.1c0.3,0.2,0.6,0.3,0.8,0.3c0.2,0.1,0.4,0.1,0.5,0.2c0.7,0.5,1.6,0.5,2.4-0.1c0.6-0.4,1.1-0.5,2.1-0.5
		c0.3,0,0.6,0,0.9,0c0.6,0,1.2,0,1.8,0.1c0.1,0,0.5,0.1,0.8-0.1c0.1-0.1,0.2-0.1,0.3,0.1c0.2,0.2,0.6,0.8,1.5,0.7c0,0,0,0,0,0
		c0.1,0,0.2,0.1,0.3,0.2c1.2,0.4,2.6-0.3,3.1-1.5c0-0.1,0.1-0.2,0.1-0.2c0-0.1,0.1-0.2,0.1-0.3c0.1-0.3,0.3-0.3,0.4-0.3
		c0.1,0,0.2,0,0.3-0.1c0.3-0.1,0.3-0.1,0.4,0c0.3,0.3,0.7,0.3,1.1,0c0.3-0.2,0.4-0.2,0.5-0.2c0.2,0.1,0.4,0.2,0.6,0.5
		c0.1,0.2,0.3,0.3,0.4,0.5c0.1,0.1,0.1,0.2,0.2,0.3c0.3,0.5,0.9,1,1.8,0.5c0.1,0,0.2-0.1,0.3-0.1c0.5-0.3,1.2-0.6,1.3-1.5
		c0,0,0,0,0.1-0.1c0.5-0.3,0.7-0.6,0.7-1.1c0-0.1,0.1-0.1,0.2-0.3l0.1-0.1c0.4-0.4,1-1.4,1.1-1.9l0.1-0.2c0-0.1,0.1-0.2,0.1-0.3
		c0.4-1,0.7-1.9,0.8-2.8c0-0.2,0.1-0.4,0.3-0.6l0.2-0.2c0.5-0.5,0.9-1.1,1.2-1.7c0,0,0,0,0,0c0.1-0.1,0.2-0.2,0.4-0.3
		c0.4-0.3,0.8-0.6,1.3-0.7c0.3-0.1,1.1-0.2,1.2-1.2c0-0.1,0.1-0.2,0.3-0.2l0.1,0c0.3-0.2,0.6-0.4,0.9-0.7c0.2-0.3,0.5-0.3,1-0.4
		c0.2,0,0.5-0.1,0.7-0.1c0.1,0.1,0.2,0.3,0.4,0.3c0.3,0.2,0.6,0.2,0.8,0.2c0.2,0,0.4-0.2,0.6-0.5c0.1-0.1,0.1-0.2,0.1-0.2
		c0.3,0,0.5,0,0.7,0c0.1,0,0.2,0,0.2,0c0.4,0.4,1,0.7,1.8,0.2l0.1-0.1c0,0,0.1,0,0.1-0.1c0.5,0.1,0.9-0.1,1.2-0.3
		c0.1-0.1,0.3-0.1,0.4-0.2c0.3-0.1,0.5-0.2,0.7-0.4l0.1,0c0.3-0.3,0.4-0.7,0.2-1.1c-0.1-0.2-0.3-0.5-0.8-0.4c-0.3,0-0.6-0.1-0.9-0.6
		c-0.1-0.1-0.1-0.2-0.1-0.2c0,0,0.1-0.1,0.1-0.2c0,0,0.1-0.1,0.1-0.1c0,0,0,0,0,0v0.5c0,0.3,0.2,0.6,0.5,0.6c0,0,0.1,0,0.1,0l0-0.6
		l0,0.6c0,0,0,0,0,0c0.1,0,0.3-0.1,0.4-0.2c0.1-0.1,0.2-0.3,0.2-0.4V108c0-0.2-0.1-0.3-0.2-0.4c0,0,0,0-0.1-0.1
		c0.1-0.1,0.1-0.2,0.1-0.3c0-0.1,0-0.2,0-0.3c-0.1-1,0.2-1.7,1-2.3c0.4-0.3,0.6-0.8,0.5-1.3c-0.1-0.5,0-0.9,0.1-1.4
		c0.1-0.9,0.3-0.9,0.7-0.9c0.3,0,0.5-0.1,0.7-0.3c0.2-0.2,0.3-0.5,0.3-0.8c0-0.2,0-0.4-0.1-0.6c0-0.1,0-0.3-0.1-0.4
		c0-0.2,0-0.4,0.2-0.6c0.3-0.3,0.3-0.3,0.5-0.2c0.2,0.1,0.4,0.1,0.6-0.1c0.2-0.1,0.2-0.3,0.2-0.6c-0.1-0.8,0.2-1,1-1.6
		c0.3-0.2,0.6-0.3,1-0.4c0.4-0.1,0.8-0.2,1.2-0.5c0,0,0,0,0.1,0c0.9,0,1.3-0.2,1.5-1.2c0.1-0.4,0.3-0.4,0.3-0.4
		c0.8-0.1,1.4-0.6,1.9-1.1c0.2-0.1,0.3-0.3,0.5-0.4c0.1-0.1,0.1-0.1,0.2-0.1c0.3-0.1,0.6-0.4,0.8-0.8c0.3-0.6-0.2-1-0.4-1.2
		c0,0,0,0-0.1,0c0-0.5-0.3-0.9-0.9-1.2c-0.1-0.1-0.2-0.1-0.4-0.2c-0.4-0.2-0.9-0.5-1.5-0.4c0,0-0.1,0-0.3-0.2
		c-0.6-0.5-1.1-1-1.4-1.6c-0.5-0.8-0.8-1.7-1.1-2.6l0-0.1c0,0,0-0.1,0-0.1c0.3-0.6,0-1.2-0.2-1.5l-0.1-0.1c-0.4-0.9-0.7-1.7-0.9-2.5
		c-0.2-0.9-0.1-1.6,0.3-2.3c0.2-0.3,0.3-0.6,0.5-0.9c0.2-0.4,0.4-0.8,0.6-1.1c0.2-0.2,0.2-0.4,0.3-0.6l0-0.1c0.3-1.1,0.9-2.1,1.8-3
		c0.6-0.6,1-1.4,1.3-2.4c0-0.1,0-0.2,0-0.3c0,0,0-0.1,0-0.1c0.1-0.2,0.1-0.3,0.2-0.3c1-0.3,1.3-1,1.6-1.7c0.1-0.3,0.2-0.5,0.3-0.6
		c0.6-0.4,1-0.9,1.3-1.4c0.2-0.3,0.4-0.6,0.6-0.8c0.5-0.5,0.8-1,1-1.4c0.2-0.6,0.5-1.1,0.8-1.6c0.3-0.5,0.7-1,0.9-1.7
		c0-0.1,0-0.1,0.1-0.2c0,0,0,0,0,0c0.2,0.2,0.6,0.4,1,0.4c0.1,0,0.3,0,0.4,0c0.5-0.1,0.8-0.5,1-1c0-0.1,0-0.2,0-0.3
		c0.2,0,0.3-0.1,0.4-0.2c0.3-0.2,0.5-0.3,0.8-0.4c0.8-0.3,1.1-1,1.3-1.5c0.1-0.2,0-0.4-0.1-0.6c-0.1-0.2-0.4-0.2-0.6-0.2
		c-0.3,0.1-0.4,0-0.7-0.5c-0.1-0.2-0.4-0.3-0.5-0.4c0,0,0,0,0,0c0.3-0.3,0.6-0.7,0.9-1.1c0.5-0.6,0.9-1.2,1.5-1.6
		c0.1,0,0.1-0.1,0.1-0.2c0.3-0.6,0.9-0.7,1.8-0.9l0.1,0c0,0,0,0,0.1,0c0.2,0.1,0.6,0.3,1,0c0.2-0.1,0.4-0.4,0.5-0.5
		c0,0,0.1-0.1,0.1-0.1c0.5-0.2,0.8-0.4,1.2-0.4c0.6,0,1.2-0.2,1.7-0.5c0.4-0.3,0.9-0.4,1.3-0.5c0.7-0.1,1.4-0.3,2.1-0.5
		c0.3-0.1,0.6-0.2,0.9-0.2c0.5-0.1,0.9-0.2,1.3-0.4c0.9-0.3,1.7-0.5,2.5-0.6c0.4,0,0.8-0.2,1.1-0.4l0.1,0c0.3-0.1,0.6-0.4,0.7-0.8
		c0.1-0.4,0.4-0.7,0.6-1c0.2-0.2,0.4-0.5,0.5-0.8c0.2-0.3,0.4-0.5,0.8-0.6C188.4,42.8,189,42.5,189.4,42.2z M35.8,23.5
		c0-0.1,0.1-0.1,0.1-0.2l0.2,0.3c0,0.1,0,0.2,0,0.2c0,0-0.1,0-0.1,0c0,0-0.1-0.1-0.1-0.2C35.8,23.6,35.8,23.5,35.8,23.5
		C35.8,23.5,35.8,23.5,35.8,23.5C35.8,23.5,35.8,23.5,35.8,23.5z M186,43c-0.1,0.2-0.3,0.4-0.5,0.6c-0.3,0.4-0.7,0.8-0.8,1.4
		c0,0-0.1,0.1-0.2,0.2l-0.1,0c-0.2,0.1-0.5,0.3-0.6,0.3c-1,0.1-1.9,0.3-2.8,0.6c-0.4,0.1-0.9,0.3-1.3,0.4c-0.3,0.1-0.6,0.2-0.9,0.2
		c-0.7,0.2-1.3,0.3-1.9,0.4c-0.6,0.1-1.2,0.3-1.8,0.6c-0.4,0.2-0.7,0.3-1.2,0.4c-0.6,0-1.2,0.3-1.7,0.5c-0.3,0.1-0.4,0.4-0.5,0.6
		c-0.2-0.1-0.4-0.2-0.7-0.1l-0.2,0c-0.9,0.2-1.9,0.4-2.5,1.4c-0.6,0.5-1.1,1.1-1.6,1.7c-0.4,0.5-0.7,0.9-1.2,1.3
		c-0.3,0.3-0.4,0.6-0.3,0.7c0,0.2,0.1,0.4,0.3,0.7l0,0c0.1,0.1,0.4,0.4,0.8,0.3c0.1,0,0.1,0,0.2-0.1c0.2,0.2,0.4,0.5,0.7,0.7
		c0,0-0.1,0.1-0.1,0.1c-0.4,0.1-0.8,0.4-1.1,0.6c-0.5-0.1-0.9,0-1.3,0.1c-0.1,0-0.2,0.1-0.3,0.1c-0.7,0.2-1.3,0.8-1.6,1.6
		c-0.2,0.5-0.5,1-0.8,1.4c-0.4,0.6-0.7,1.2-1,1.9c-0.1,0.3-0.3,0.6-0.7,0.9c-0.3,0.3-0.5,0.6-0.8,1c-0.3,0.4-0.6,0.8-1,1.1
		c-0.5,0.3-0.7,0.8-0.8,1.2c-0.2,0.6-0.4,0.9-0.8,1c-0.6,0.2-0.8,0.7-0.9,1c-0.1,0.1-0.1,0.3-0.1,0.4c0,0,0,0.1,0,0.1
		c-0.2,0.9-0.6,1.5-1,2c-0.9,1-1.6,2.2-2,3.4l0,0.1c0,0,0,0.1,0,0.1c-0.4,0.4-0.6,1-0.8,1.4c-0.1,0.3-0.2,0.5-0.4,0.8
		c-0.6,0.9-0.7,2-0.4,3.2c0.2,0.9,0.6,1.8,1,2.7l0.1,0.1c0.2,0.4,0.2,0.5,0.1,0.6c-0.2,0.3,0,0.7,0,0.9l0,0c0.3,1,0.7,1.9,1.2,2.8
		c0.4,0.8,1.1,1.4,1.7,1.9c0.2,0.2,0.6,0.5,1.1,0.4c0.3,0,0.6,0.1,0.9,0.3c0.1,0.1,0.3,0.2,0.4,0.2c0.2,0.1,0.2,0.1,0.2,0.2
		c0,0.4,0.2,0.7,0.4,0.8c-0.1,0-0.1,0.1-0.2,0.1c-0.1,0.1-0.2,0.1-0.4,0.2c-0.2,0.2-0.4,0.3-0.6,0.5c-0.4,0.4-0.8,0.7-1.3,0.8
		c-0.4,0.1-1.1,0.3-1.3,1.4c0,0.1,0,0.2-0.1,0.2c-0.1,0-0.2,0-0.3,0c-0.1,0-0.3-0.1-0.6,0.1c-0.3,0.2-0.6,0.3-1,0.4
		c-0.4,0.1-0.9,0.3-1.3,0.6c-0.6,0.4-1.4,1-1.5,2c-0.4,0.1-0.8,0.4-1,0.6c-0.4,0.3-0.5,0.8-0.5,1.5c0,0.2,0,0.3,0.1,0.5
		c0,0.1,0,0.3,0,0.4c-1.5,0-1.7,1.3-1.8,1.9c-0.1,0.6-0.2,1.2-0.1,1.9c0,0.1,0,0.1,0,0.1c-1,0.8-1.5,1.8-1.4,2.9
		c-0.1,0-0.2,0-0.2,0.1c-0.2,0.1-0.3,0.4-0.3,0.6c0,0-0.1,0.1-0.1,0.1c-0.1,0.1-0.1,0.1-0.2,0.2c-0.5,0.6-0.5,1.1-0.1,1.7
		c0.3,0.5,0.6,0.8,1,0.9c0,0-0.1,0-0.1,0.1c-0.3,0.1-0.4,0.2-0.6,0.2c-0.3-0.1-0.6,0.1-0.8,0.2l-0.1,0c-0.2,0.1-0.3,0.1-0.4,0
		c-0.4-0.4-1-0.3-1.3-0.3c-0.1,0-0.2,0-0.3,0c-0.4-0.1-0.9,0.1-1.2,0.6c0,0,0,0,0,0c-0.3-0.4-0.7-0.5-1.1-0.4
		c-0.2,0.1-0.4,0.1-0.6,0.1c-0.6,0.1-1.2,0.1-1.8,0.8c-0.1,0.2-0.3,0.3-0.6,0.4l-0.1,0c-0.5,0.3-0.8,0.6-0.8,1.1
		c0,0.1,0,0.2-0.4,0.3c-0.7,0.2-1.3,0.6-1.8,1c-0.1,0.1-0.2,0.2-0.3,0.2c-0.2,0.1-0.3,0.3-0.4,0.5c-0.2,0.5-0.6,1-1.1,1.5l-0.2,0.2
		c-0.3,0.4-0.5,0.7-0.6,1.2c-0.1,0.8-0.4,1.6-0.8,2.5c-0.1,0.1-0.1,0.3-0.1,0.4l0,0.1c-0.1,0.3-0.6,1.2-0.9,1.4l-0.1,0.1
		c-0.2,0.2-0.5,0.5-0.5,1.1c0,0,0,0-0.1,0.1c-0.5,0.3-0.6,0.7-0.7,0.9c0,0.3-0.2,0.4-0.7,0.7c-0.1,0.1-0.2,0.1-0.3,0.2
		c0,0-0.1,0-0.1,0.1c0,0-0.1-0.1-0.1-0.2c-0.1-0.1-0.1-0.2-0.2-0.3c-0.1-0.2-0.3-0.4-0.5-0.6c-0.3-0.4-0.7-0.7-1.1-0.8
		c-0.6-0.2-1.1,0.1-1.4,0.3c-0.5-0.3-0.9-0.2-1.2-0.1c-0.1,0-0.1,0-0.2,0c-0.4,0.1-0.9,0.3-1.3,1c-0.1,0.1-0.1,0.2-0.1,0.4
		c0,0.1,0,0.1-0.1,0.2c-0.3,0.7-1,1-1.7,0.8c0,0-0.1,0-0.1,0c-0.2-0.1-0.4-0.2-0.7-0.2c-0.1,0-0.2,0-0.4-0.3c-0.4-0.6-1-0.7-1.7-0.4
		c0,0,0,0-0.1,0c-0.7-0.1-1.4-0.1-2-0.1c-0.3,0-0.6,0-0.8,0c-0.8,0-1.8,0-2.7,0.7c-0.5,0.4-0.9,0.2-1.1,0.1
		c-0.3-0.2-0.6-0.3-0.9-0.4c-0.2-0.1-0.4-0.1-0.6-0.2c-0.4-0.2-0.9-0.2-1.3,0.1c-0.2,0.1-0.5,0.2-1.1,0c-0.5-0.2-1.1-0.3-1.7-0.1
		c-0.7,0.2-1.2,0.2-1.7,0c-0.5-0.2-0.9-0.1-1.4,0.2c-0.3,0.2-0.8,0.3-1.2,0.3c-0.2,0-0.3,0-0.5,0c-0.5,0-1.1,0-1.5-0.1
		c-0.4-0.1-1.1-0.1-1.6,0.7c-0.1,0.2-0.2,0.3-0.3,0.5c-0.1,0.2-0.3,0.5-0.4,0.7c-0.2,0.4-0.4,0.6-0.7,0.6c-0.5,0.1-0.8,0.3-1,0.8
		c-0.3,0.6-0.7,0.7-1.6,0.7c-0.2,0-0.4-0.1-0.6-0.1c-0.1,0-0.2,0-0.3-0.1c-0.8-0.2-1.5,0-2.1,0.4c-0.2,0.1-0.3,0.3-0.5,0.3
		c-0.5,0.1-1,0.3-1.4,0.5c-0.2,0.1-0.3,0.2-0.5,0.2c-0.7,0.3-1.1,0.8-1.4,1.5c-0.2,0.6-0.6,1.2-1,2c-0.2,0.3-0.3,0.6-0.4,0.9
		c-0.3-0.1-0.6-0.2-0.9,0c-0.4,0.2-0.7,0.6-0.6,1.1c0,0.2,0,0.4,0.1,0.6l0,0.2c0,0,0,0.1,0,0.1c-0.4,0.1-0.8,0.3-1.1,0.5
		c-0.2,0.1-0.4,0.2-0.5,0.3c-0.1-0.1-0.1-0.2-0.2-0.2c-0.1-0.1-0.4-0.5-0.9-0.5c-0.1,0-0.1,0-0.2,0c-0.1,0-0.3,0-0.5-0.2
		c-0.2-0.1-0.5-0.3-0.8-0.3c0,0,0-0.1-0.1-0.1c-0.2-0.4-0.5-0.7-0.8-1c-0.3-0.3-0.8-0.7-1.6-0.5c0,0-0.1,0-0.2,0c-0.1,0-0.2,0-0.3,0
		c0,0-0.1,0-0.1-0.1c-0.1-0.2-0.2-0.4-0.3-0.7c-0.1-0.1-0.1-0.3-0.2-0.5c-0.1-0.4-0.5-0.6-0.6-0.7c0,0-0.1-0.1-0.1,0
		c0-0.1-0.1-0.2-0.1-0.3c-0.1-0.2-0.1-0.5-0.4-0.8c-0.3-0.3-0.5-0.7-0.8-1.1c0.2-0.1,0.3-0.2,0.4-0.2l-0.2-0.3l0,0l0.2,0.3
		c0.1-0.1,0.4-0.4,0.4-0.8c0-0.3-0.3-0.5-0.5-0.5h0c0.1-0.2,0.1-0.4,0.1-0.5c0-0.4-0.3-0.7-0.7-0.8l0,0c0,0-0.1-0.1-0.1-0.1
		c-0.2-0.2-0.5-0.6-1.1-0.6c-0.3,0.1-0.4,0-0.6-0.5l-0.1-0.2c-0.3-0.5-0.3-0.7-0.3-0.7c0-0.1,0.3-0.2,0.4-0.3l0.1-0.1
		c0.1-0.1,0.1-0.1,0.2-0.2l0.1-0.1c0.1-0.1,0.2-0.3,0.2-0.5c0-0.2-0.2-0.4-0.4-0.4c-0.2-0.1-0.3-0.2-0.3-0.5c-0.3-1.1-1-2.1-2.1-3
		c-1.4-1.1-2.9-2-4.5-2.7c-0.6-0.2-1.1-0.5-1.5-0.7c-0.7-0.3-1.4-0.5-2.1-0.4c-0.2,0-0.4,0-0.6,0c-0.1,0-0.3,0-0.4,0
		c-0.7,0-1.5,0-2.4,0.5c-0.3-0.8-0.4-1.6-0.4-2.4c0-0.4-0.1-0.8-0.2-1.1c-0.1-0.2-0.1-0.4-0.1-0.6c0-0.8-0.4-1.4-0.8-1.9
		c0,0,0,0,0-0.1c0.1-0.1,0.1-0.3,0.2-0.4c0-0.1,0.1-0.3,0.1-0.3c0.4-0.6,0.6-1.2,0.7-2c0.1-0.4,0.3-0.7,0.6-1
		c0.5-0.4,1.1-0.9,1.4-1.7c0.2-0.5,0.3-1,0.4-1.6c0-0.1,0-0.3,0-0.4c0,0,0.1,0,0.1,0c0.1-0.1,0.2-0.1,0.3-0.1c0.4,0.1,1,0.2,1.4-0.5
		c0.2,0.1,0.3,0.2,0.5,0.2c0.3,0.1,0.6,0,0.8-0.1c0.2-0.1,0.3-0.3,0.3-0.5c0-0.4,0.2-0.8,0.4-1.1c0.2-0.4,0.4-0.9,0.5-1.5l0,0
		c0.1-0.6-0.2-0.8-0.5-0.9c-0.3-0.1-0.6-0.1-0.9,0.1c-0.1,0.1-0.2,0.1-0.3,0.2c-0.2,0.1-0.3,0.2-0.4,0.2c-0.1,0-0.1,0-0.1,0
		c0-0.1-0.1-0.1-0.1-0.2c-0.1-0.1-0.1-0.2-0.2-0.3c-0.4-1.2-1.2-2.2-2-3.1c-0.2-0.2-0.4-0.4-0.5-0.7c0,0,0,0,0,0
		c0-0.2,0-0.4,0.1-0.6c0-0.3,0-0.6,0.2-0.8c0.2-0.3,0.3-0.6,0.4-0.9c0.1-0.2,0.3-0.7,0-1.2c0-0.1,0-0.2,0-0.4c0-0.1,0-0.2,0-0.3
		c0-0.3,0.1-0.4,0.2-0.4c0.1,0,0.2-0.1,0.3-0.2c0.3-0.3,0.6-0.6,1-0.9c0.4-0.4,0.9-0.8,1.3-1.2l0,0c0.3-0.3,0.4-0.7,0.2-1
		c0,0,0.1-0.1,0.1-0.2c0,0,0.1-0.1,0.1-0.1c0.1-0.2,0.2-0.3,0.3-0.5c0.1-0.2,0.2-0.4,0.3-0.5c0.3-0.4,0.4-0.9,0.3-1.4
		c-0.1-0.6-0.6-1.2-1.2-1.4c-0.3-0.1-0.6-0.1-0.8-0.1c-0.2,0-0.3,0.1-0.4,0.1c0,0-0.1,0-0.1,0c0,0,0,0,0,0c0,0,0,0,0,0
		c0.1-0.7,0-1-0.8-1.3c-0.6-0.2-0.6-0.2-0.5-0.7c0.1-0.6-0.1-1-0.5-1.4c-0.2-0.2-0.4-0.3-0.5-0.5c-0.2-0.4-0.2-0.4-0.1-0.5
		c0.2-0.2,0.2-0.5,0.3-0.7c0,0,0-0.1,0-0.1c0.1-0.5-0.1-0.9-0.6-1.1c-0.5-0.2-0.7-0.4-0.8-0.7c-0.1-0.2-0.2-0.3-0.4-0.4
		c-0.1,0-0.2-0.1-0.3-0.3c-0.1-0.2-0.3-0.4-0.6-0.6c0,0-0.1-0.1-0.1-0.1c0-0.1-0.1-0.2-0.1-0.3c0,0,0,0,0-0.1c0,0,0.1,0,0.1,0
		c0.1,0,0.1,0,0.2,0c0,0,0.1,0,0.2,0c0.1,0,0.2,0.1,0.4,0.1c0.1,0,0.2,0,0.3,0c0.4,0.1,0.8,0.1,1.2,0c0.5-0.2,1.1-0.2,1.6-0.1
		c0.4,0,0.8,0,1.2,0c0.1,0,0.1,0,0.2,0c0.1,0,0.2,0,0.4,0c0.9-0.1,1.1-0.7,1.2-1.1c0-0.1,0.1-0.2,0.1-0.4c0-0.1,0-0.2,0.1-0.3
		c0.2-0.8,0.3-1.1,0.8-1.8c0.2-0.2,0.4-0.5,0.4-0.9c0-0.6,0.1-1.1,0.3-1.7l0-0.1c0.1-0.5,0.1-0.9-0.2-1.4c-0.2-0.3-0.4-0.6-0.5-0.9
		c-0.3-0.5-0.7-0.6-0.9-0.6c-0.1,0-0.1,0-0.1,0c0,0-0.1-0.3-0.1-0.4c0-0.1,0-0.1,0-0.2c-0.1-0.4,0.1-0.5,0.2-0.5l0.2-0.1
		c0.2-0.1,0.4-0.2,0.6-0.2c0.6,0,1.1-0.4,1.2-1c0,0,0.1-0.1,0.2-0.2c0.1,0,0.1-0.1,0.2-0.1c0.7-0.6,0.6-1.1,0.3-1.8l0-0.1
		c-0.1-0.2-0.2-0.3-0.2-0.4c-0.1-0.3-0.1-0.5,0-0.6c0.1-0.1,0.1-0.2,0.2-0.3c0,0,0-0.1,0.1-0.1c0.4-0.6,0.4-1.2-0.1-1.7
		c0.6-1,0.3-2,0.2-2.6c-0.1-0.3-0.1-0.6-0.1-0.9c0-0.2,0-0.4,0-0.6c0,0,0-0.2,0.1-0.2c0.1-0.3,0.4-1-0.3-1.5c-0.1,0-0.1-0.1-0.1-0.3
		c0-0.2-0.1-0.5-0.3-0.8l-0.3-0.4c-0.1-0.1-0.1-0.2-0.2-0.2c1.1-0.1,1.7-0.7,1.9-1.9c0,0,0-0.1,0-0.1c0.4-0.3,0.7-0.7,0.9-1.1
		c0.1-0.1,0.1-0.2,0.2-0.3c0.2-0.3,0.3-0.3,0.3-0.3c0.3,0.1,0.7,0.1,1-0.1c0.8-0.4,1.7-1,2.3-1.9l0.1-0.1c0.1-0.1,0.2-0.3,0.3-0.5
		c0.2,0,0.3-0.1,0.4-0.1c0.3-0.1,0.5-0.4,0.6-0.8c0.2-0.7,0.6-1.2,1-1.8c0.2-0.3,0.4-0.5,0.6-0.8c0.1-0.2,0.1-0.5-0.1-0.7
		c-0.1-0.1-0.1-0.2-0.2-0.2c-0.1-0.2-0.3-0.3-0.4-0.5c-0.8-1-1.8-1.1-2.7-1.2l-0.1,0c-0.2,0-0.4,0.1-0.6,0.2
		c-0.2,0.1-0.3,0.1-0.4,0.1c-0.1,0-0.2-0.2-0.2-0.4c-0.1-0.4-0.1-0.8,0-1.1c0.1-0.3,0.2-0.7,0.3-1l0-0.1c0-0.1,0.1-0.7-0.3-1
		c0,0,0-0.1,0-0.2c0-0.1,0-0.1,0-0.2c0-0.1,0-0.4-0.1-0.6l0,0c-0.1-0.1-0.2-0.4-0.5-0.5c-0.1,0-0.4-0.1-0.6,0.1
		c-0.3,0.2-0.6,0.2-1,0.2l-0.2,0c-0.4,0-0.4-0.1-0.4-0.2c-0.1-0.3-0.4-0.5-0.7-0.6c-0.1,0-0.3,0-0.4,0c-0.1,0-0.3,0.1-0.4,0.3
		c-0.1,0.1-0.1,0.2-0.2,0.3c0,0,0,0.1,0,0.1c-0.1,0-0.1,0-0.2,0c-0.4,0.1-0.5,0.1-0.7,0c-0.5-0.5-1-0.3-1.4-0.2
		c-0.3,0.1-0.4,0-0.5-0.1c-0.3-0.3-0.7-0.4-1-0.5l0,0c-0.3-0.1-0.6,0-0.9,0.2c-0.2,0.2-0.4,0.5-0.4,0.8c0,0.1,0,0.2,0,0.3
		c0.1,0.4,0.1,0.6-0.7,0.9c-0.1,0-0.2,0.1-0.3,0.1c-0.1,0.1-0.3,0.1-0.4,0.1c-0.4,0-0.8,0.1-1.1,0.3c0-0.1-0.1-0.2-0.2-0.2
		c-0.3-0.3-0.8-0.7-1.5-0.1c-0.2,0.1-0.3,0.2-0.5,0.3c0-0.1,0-0.3-0.2-0.5c-0.1-0.2-0.3-0.2-0.5-0.3c-1.1-0.6-2.2-0.3-3.1,0.2
		c0,0,0,0,0,0l0-0.3c0-0.2-0.1-0.4-0.3-0.5c-0.2-0.1-0.4-0.1-0.6,0c-0.4,0.2-0.5,0.5-0.6,0.7c0,0,0,0,0,0c-0.4,0.1-0.8,0.3-1.1,0.8
		c0,0.1-0.2,0.1-0.3,0.2c-0.1,0-0.2,0.1-0.3,0.1c-0.2,0.1-0.3,0.1-0.4,0.1c-0.1,0-0.2-0.2-0.2-0.3c-0.1-0.5-0.4-0.8-0.7-1
		c0,0,0,0,0,0c0,0,0,0,0,0l0,0c0.2-0.4,0.4-0.7,0.7-0.9c0.2-0.1,0.4-0.3,0.6-0.5c0.3-0.3,0.4-0.7,0.3-1.1c-0.1-0.4-0.4-0.7-0.8-0.9
		c-0.2-0.1-0.4,0-0.5,0l-0.2-0.6c-0.1-0.2-0.2-0.4-0.5-0.4c-0.6-0.1-1.1,0.2-1.4,0.4c-0.6,0.4-1.3,0.6-2,0.6c-0.4,0-1.1,0-1.6,0.5
		c-0.1,0-0.1,0-0.2,0c-0.7-0.1-1.3,0.3-1.5,1c-0.1,0.1-0.1,0.2-0.3,0.3c-0.5,0.2-0.9,0.6-1.1,1.1c0,0,0,0,0,0
		c-0.3,0.1-0.6,0.2-0.8,0.3c0-0.9,0-1.9-0.1-2.8c0.1-0.1,0.2-0.1,0.3-0.2l0.2-0.1c0.2-0.1,0.3-0.2,0.3-0.4c0-0.1,0-0.3,0-0.4
		c0,0,0,0,0.1-0.1l0.1-0.2c0.2-0.3,0.4-0.6,0.7-0.7c0.3-0.1,0.5-0.3,0.7-0.5c0.1-0.1,0.2-0.1,0.2-0.2c0.1-0.1,0.2-0.2,0.2-0.3
		c0,0,0,0,0,0c0.1,0,0.7,0,0.8-0.7c0-0.1,0-0.3,0-0.4c-0.1-0.1-0.2-0.6-0.7-0.5c-0.3,0-0.6,0.2-0.7,0.7c0,0.1,0,0.1,0,0.2
		c-0.4-0.1-0.7,0-1.1,0.2c-0.1,0.1-0.3,0.1-0.4,0.2c0.1-0.1,0.2-0.3,0.2-0.4c0.4,0,0.8-0.3,0.9-0.7c0.1-0.3,0.3-0.5,0.6-0.6
		c0.2-0.1,0.4-0.3,0.4-0.6c0-0.2-0.1-0.5-0.2-0.6c-0.3-0.3-0.7-0.3-1-0.1l-0.1,0c-0.1,0.1-0.3,0.2-0.4,0.3c0,0,0,0.1-0.3,0
		c-0.1,0-0.3,0-0.5,0c0,0,0-0.1-0.1-0.1c0,0-0.1-0.1-0.1-0.2c0,0,0,0,0,0c0.2,0,0.3-0.1,0.4-0.3l0.1-0.1c0.3-0.4,0.4-0.6,0.3-1.1
		c-0.1-0.4-0.1-0.5,0.1-0.6c0.3-0.2,0.5-0.5,0.6-0.8c0.1-0.4,0-0.7-0.1-0.9c-0.1-0.1-0.3-0.3-0.6-0.3c0,0,0,0,0,0
		c-0.1-0.1-0.4-0.4-0.9-0.3c-0.2,0.1-0.4,0.2-0.4,0.5c0,0,0,0.1,0,0.1c-0.2-0.1-0.4-0.1-0.5,0c-0.2,0.1-0.4,0.3-0.4,0.5
		c0,0.1-0.2,0.2-0.3,0.4c-0.1,0.1-0.3,0.3-0.4,0.4c-0.1-0.1-0.2-0.2-0.3-0.3c0.2-0.4,0.3-0.8,0.4-1.2c0-0.1,0.1-0.3,0.1-0.4
		c0.1-0.2,0.2-0.4,0.5-0.7l0,0c0.2-0.1,0.5-0.3,0.5-0.9c0-0.2-0.1-0.4-0.3-0.5C35,19.1,34.8,19,34.6,19c-0.1,0-0.2,0-0.2,0
		c-0.2-0.2-0.4-0.2-0.6-0.1c-0.3,0.2-0.5,0.4-0.6,0.6c0,0,0-0.1,0-0.1c0.1-0.1,0.2-0.3,0.2-0.5c0.1-0.4-0.2-0.7-0.3-0.9
		c0,0,0-0.1-0.1-0.1c0,0,0,0,0-0.1c0-0.1,0-0.3,0-0.5c-0.1-0.5-0.5-0.8-0.9-0.8c-0.2,0-0.5-0.1-0.8,0c0.3-0.5,0.1-1,0-1.3
		c0.2-0.2,0.3-0.5,0.3-0.6c0-0.2,0.1-0.2,0.4-0.2c0.4,0,0.7-0.3,0.7-0.5c0.1-0.2,0-0.4,0-0.5c-0.1-0.1-0.2-0.2-0.3-0.3
		c0.2-0.3,0.4-0.3,0.6-0.2c0.9,0.2,1.4-0.2,1.6-0.6c0,0,0.1,0,0.1,0c0.2,0,0.6-0.1,0.8-0.4c0.1-0.1,0.2-0.4,0.1-0.5
		c0-0.1,0-0.2-0.1-0.3c0.2-0.1,0.4-0.2,0.6-0.4c0.2-0.1,0.3-0.2,0.5-0.3c0,0,0,0,0.1,0c0.7,0.7,1.7,0.9,2.7,0.4
		c0.2-0.1,0.4-0.1,0.5-0.2c0.3-0.1,1.5-0.5,1.8-0.7l0.1-0.1c0.1-0.1,0.2-0.2,0.3-0.2c0,0,0,0,0,0c0,0,0,0.1,0.1,0.1
		c0.4,0.6,0.9,0.5,1.1,0.4c0.3-0.2,0.4-0.5,0.5-0.6c0,0,0-0.1,0-0.1c0.2,0.2,0.4,0.3,0.4,0.4c0,0.2,0.2,0.3,0.3,0.4
		c0.2,0.1,0.3,0.1,0.5,0c0.6-0.3,0.6-0.8,0.6-1l0,0c0-0.1,0.1-0.2,0.1-0.3l0.1-0.2c0-0.2,0-0.3-0.1-0.5c-0.3-0.4-0.8-0.4-1-0.4
		c0,0-0.1,0-0.1,0c-0.1,0-0.1,0-0.3-0.2c-0.1-0.1-0.2-0.2-0.3-0.3C44,7.1,44,7,44,6.9c0-0.2,0.1-0.3,0.1-0.5c0.4,0,0.7-0.2,1-0.5
		c0.2-0.3,0.6-0.5,0.9-0.7c0.3-0.2,0.5-0.3,0.8-0.6c0,0,0,0,0.1,0c0.2-0.1,0.4-0.3,0.5-0.6c0-0.2,0-0.2,0-0.2c0,0,0.1,0,0.4,0
		c0.4,0,0.6-0.2,0.8-0.3c0,0,0.1-0.1,0.1-0.1C48.9,3.2,49,3.1,49.1,3c0.1,0,0.1-0.1,0.2-0.1c0,0.2,0.1,0.5,0.3,0.7
		c0.1,0.1,0.2,0.2,0.4,0.3c0.3,0,0.6,0,0.9-0.5l0.5-0.3c0.1,0,0.1-0.1,0.2-0.1c0.1-0.1,0.3-0.1,0.5-0.2c0,0,0,0,0,0
		c0,0,0,0.1,0.1,0.1C52.2,3,52.4,3,52.5,3c0,0,0,0,0,0c0,0,0.1,0.1,0.1,0.2c0.1,0.2,0.2,0.4,0.4,0.5c0.1,0.1,0.1,0.1,0.2,0.1
		c0.2,0.1,0.6,0.1,0.9-0.3c0.2-0.2,0.3-0.2,0.3-0.2c0,0,0.1,0,0.4,0.2c0,0,0,0,0.1,0.1c0.1,0.1,0.3,0.2,0.5,0.3
		C56,4,56.4,4.3,56.8,5c0.4,0.8,1.1,1.2,2.1,1.3c0.2,0,0.4,0,0.6,0c0.9,0.1,1.9,0.2,2.9-0.1c0.1,0,0.4,0,0.6,0l0.2,0
		c1.2,0.1,2.2,0.1,3.1,0c0.1,0,0.2,0,0.4,0.1l0.3,0.1c0.5,0.1,1.2,0.3,1.9-0.1c0,0,0.1,0,0.1,0c0.9,0.2,1.8,0.1,2.6-0.3
		c0.3-0.2,0.5-0.1,0.6,0c0.3,0.2,0.6,0.2,0.9,0.3l0.1,0c0.6,0.1,1.1,0,1.5-0.3l0.1,0c0,0,0,0,0,0c0.7,0.3,1.2-0.1,1.4-0.3
		c0.1-0.1,0.2-0.2,0.3-0.2c0.2-0.2,0.4-0.3,0.6-0.5c0,0,0,0,0.1-0.1c0,0,0.1,0,0.1,0.1c0.2,0.1,0.3,0.2,0.4,0.4
		c0.2,0.4,0.5,0.6,0.8,0.8l0.1,0.1c0.4,0.3,1,0.7,1.8,0.3c0.1,0,0.2,0,0.3,0c0.1,0,0.3,0,0.4,0c0.1,0,0.2,0,0.3,0
		c0.3,0,0.6,0.1,0.9,0c0.4-0.1,0.4,0,0.5,0c0.1,0.1,0.3,0.2,0.5,0.2c0.8,0,1.3,0.2,1.7,0.7c0.4,0.4,0.9,0.4,1.2,0.3l0.1,0
		c0.4,0,0.8,0,1.1,0.1c0.3,0.1,0.7,0.2,1,0.2l0.1,0c1.2,0.1,2.4,0.4,3.6,0.8c0.7,0.2,1.4,0.3,2.4,0.4c0.5,0,1.1,0,1.6,0
		c0.6,0,1.2,0,1.8,0c0.8,0.1,1.6-0.1,2.5-0.4c0.1,0,0.2-0.1,0.3-0.1c0.5-0.2,0.9-0.4,1.3-0.3c0.1,0,0.5,0,0.8-0.3
		c0.2-0.2,0.5-0.3,0.9-0.3c0.1,0,0.1,0,0.2,0c0,0,0,0,0,0c-0.1,0.3,0,0.6,0.2,0.8c0.2,0.2,0.4,0.2,0.5,0.2c0.2,0,0.4,0,0.6-0.3
		c0.4-0.5,1-0.7,1.7-0.9c0.2-0.1,0.5-0.2,0.7-0.2c0.1,0,0.2,0,0.3,0.1c0.4,0.3,0.8,0.6,1.2,0.7c0,0.2,0.1,0.4,0.2,0.6
		c0.3,0.4,0.8,0.3,1,0.3c0.3,0,0.6,0,1,0.1c0.3,0.1,0.5,0.1,0.8,0.1c0,0,0.1,0.1,0.2,0.2l0.1,0.1c0.7,0.7,1.3,0.7,1.8,0.5
		c0,0,0.1,0,0.2,0.1c0.1,0.1,0.3,0.2,0.4,0.2c0.1,0,0.1,0,0.2,0.1c0.2,0.1,0.4,0.1,0.5,0c0.2-0.1,0.3-0.3,0.3-0.5c0-0.1,0-0.1,0-0.2
		c0-0.1,0-0.2,0-0.2c0.2-0.1,0.4-0.3,0.5-0.4l0,0c0.3-0.3,0.5-0.4,0.9-0.3c0.1,0,0.2,0,0.3,0c0,0,0,0,0,0c0,0,0,0,0.1,0
		c0.4,0.1,0.7-0.1,0.9-0.2c0.1,0,0.2-0.1,0.2-0.1c0,0,0.2,0.1,0.2,0.2c0.2,0.2,0.5,0.4,0.8,0.4c0.3,0,0.6,0.1,0.9,0.3
		c0.3,0.1,0.6,0.2,1,0.3c0.3,0,0.5,0.1,0.7,0.3c0.4,0.4,0.9,0.6,1.4,0.8l0.2,0.1c0.3,0.1,0.9,0.4,1.3,0.2c0.3-0.1,0.5-0.1,1,0
		c0.5,0.1,1.1,0.2,1.7-0.1c0.2-0.1,0.4-0.1,0.7-0.2c0.2,0,0.3-0.1,0.5-0.1s0.3-0.1,0.5-0.1c0.6-0.1,1.2-0.3,1.8-0.9c0,0,0,0,0.1,0
		c0.2,0.2,0.4,0.4,0.5,0.5c0.1,0.1,0.2,0.2,0.2,0.2c0.1,0.2,0.4,0.7,1.1,0.5c0.1,0,0.2,0,0.3,0c0,0.2,0.1,0.4,0.2,0.6
		c0.2,0.3,0.5,0.4,0.8,0.4c0.3,0,0.5-0.1,0.7-0.3c0.1-0.2,0.2-0.3,0.3-0.3c0.1,0,0.3,0.1,0.4,0.2c0.2,0.2,0.5,0.2,0.6,0.2
		c0,0,0.1,0,0.1,0c0.1,0,0.1,0,0.2,0c0,0,0,0,0,0l0,0.1c-0.1,0.7-0.2,1.3-0.6,1.7c-0.1,0.1-0.4,0.4-0.4,0.8c0,0.4,0.3,0.7,0.4,0.8
		c0.3,0.2,0.6,0.4,0.9,0.5c0.6,0.1,1.1-0.1,1.3-0.6c0.2,0.1,0.4,0.2,0.7,0.3c0.3,0,0.6,0.2,1,0.4c0.3,0.2,0.5,0.2,0.8,0.3
		c0.2,0,0.3,0.1,0.4,0.1c0.3,0.2,0.6,0.3,0.9,0.4c0.3,0.1,0.6,0.2,0.8,0.4c0.2,0.2,0.5,0.2,0.7,0.2l0.2,0c0.4,0,0.9,0,1.4-0.1
		c0.1,0,0.2,0,0.3,0c0,0.1,0.1,0.2,0.1,0.2c0.1,0.3,0.3,0.9,1.1,1.1c0.1,0,0.2,0.2,0.3,0.3c0.1,0.1,0.1,0.2,0.2,0.3
		c0.1,0.1,0.1,0.1,0.2,0.2c0.3,0.3,0.6,0.7,1.1,0.9c0.2,0.1,0.4,0.1,0.6-0.1l0.1,0c0.1,0,0.2-0.1,0.3-0.2l0,0c0,0,0.1-0.1,0.1-0.1
		c0,0,0,0,0,0c0.6,0.4,1.2,0.2,1.6,0c0.1,0,0.2-0.1,0.3-0.2c0.5-0.4,1-0.3,1.5,0.2c0.2,0.2,0.5,0.5,1,0.3c0,0,0,0,0,0.1l0,0.1
		c0,0.1,0.1,0.1,0.1,0.2c0.1,0.3,0.3,0.7,0.7,0.9c0.4,0.5,1,0.8,2.1,0.4c0.1,0,0.2-0.1,0.2-0.1c0.6,0.1,1.2,0,1.6-0.4c0,0,0,0,0,0
		c0.1,0.1,0.2,0.1,0.3,0.2c0.3,0.2,0.4,0.2,0.4,0.4c0,0.2,0.1,0.3,0.3,0.4c0.2,0.1,0.4,0.1,0.5,0c0.1,0,0.1-0.1,0.2-0.1
		c0.1-0.1,0.3-0.1,0.4-0.3c0.2-0.2,0.3-0.3,0.3-0.3c0,0,0.1,0,0.2,0.1c0.4,0.3,0.8,0.3,1.1,0.2c0.1,0,0.1,0,0.2,0l0.3,0
		c0.7,0,1.4-0.1,2,0.1c0.2,0,0.5,0,0.6-0.2c0.4-0.5,0.2-1,0.1-1.3l0-0.1c-0.1-0.4,0-0.8,0.2-1.3c0.4,0.2,0.8,0.3,1.1,0.4
		c0.4,0.1,0.8,0.3,1.2,0.5c0.6,0.3,1.2,0.3,1.8,0.4l0.1,0c0.6,0,0.9,0.3,1,0.6c0.3,0.6,0.8,0.9,1.4,0.6c0.2-0.1,0.5-0.1,0.8,0
		c0.3,0,0.5,0,0.8,0c0.7,0.6,1,1.1,0.9,1.8c0,0.1,0,0.1,0,0.2c0,0.3-0.1,0.8,0.3,1.2c0,0,0,0,0,0c-0.2,0.4-0.2,0.9,0,1.2
		c0.2,0.4,0.6,0.6,1,0.6c0.5,0,0.8,0,1.2-0.2c0.1-0.1,0.3-0.1,0.4-0.2c0.4-0.1,0.8-0.3,1.1-0.7c0.1,0,0.2,0,0.2,0
		c0.6,0,1.2,0,1.6,0.3c0,0,0.1,0.1,0.1,0.1c0.2,0.1,0.5,0.3,0.9,0.3c0.1,0,0.1,0,0.2,0.2c0.2,1,0.8,1.3,1.3,1.4
		c0.8,0.1,1.4-0.1,1.8-0.8c0.2-0.4,0.4-0.3,0.5-0.3c0.2,0.1,0.3,0,0.5,0c0.5-0.3,1-0.1,1.7,0.2l0.2,0.1c0.3,0.2,0.6,0.3,0.8,0.5
		c0.7,0.6,1.4,0.8,2.1,0.5c0.1,0,0.3,0,0.5,0.1c0.2,0,0.4,0.1,0.6,0.1c0.1,0,0.3,0,0.4-0.1c0.4-0.3,0.3-0.8,0.3-1
		c0.2-0.2,0.4-0.2,0.5-0.3c0.5,0.2,1.1,0,1.4-0.4c0.2-0.2,0.4-0.3,0.7-0.3c0.3,0,0.6-0.1,0.9-0.1c0.1,0,0.2-0.1,0.3-0.1
		c0.5-0.1,0.5,0,0.5,0.1c0.2,0.4,0.7,0.6,1.2,0.5c0,0,0.1,0,0.1,0c0,0.2,0,0.4,0,0.6c0.1,0.6,0.5,0.9,1.1,0.9c0,0,0,0,0,0
		c0.3,0,0.5,0.1,0.7,0.2c0,0.1-0.1,0.3-0.1,0.4c0,0.1-0.1,0.2-0.2,0.3c-0.1,0-0.2,0-0.4-0.1c-0.4-0.2-0.7-0.2-0.9-0.1
		c-0.3,0.1-0.5,0.3-0.6,0.6c-0.3,0.8-0.2,1.5,0,2c0.1,0.4,0.5,0.6,0.6,0.7c0.1,0.1,0.2,0.2,0.3,0.3c0.2,0.3,0.2,0.4,0.2,0.5
		c-0.2,0.7-0.1,1.3,0.3,1.8c0,0,0,0.1,0,0.1c-0.1,0.6-0.4,1-1,1.2l-0.1,0c-0.3,0.1-0.7,0.3-0.9,0.7c-0.2,0.3-0.5,0.6-0.8,0.9
		c-0.3,0.2-0.6,0.5-0.9,0.8c-0.1,0.1-0.4,0.2-0.6,0.3c-0.4,0.1-1.1,0.3-1.5,0.9c-0.1,0.1-0.2,0.1-0.3,0.2l-0.9,0.4
		c-0.8,0.4-1.6,0.7-2.4,1.1c-0.4,0.2-0.8,0.4-1.2,0.7c-0.5,0.4-0.9,0.6-1.3,0.7C186.8,42.1,186.3,42.5,186,43z M39,27.6
		c0.1-0.1,0.2-0.1,0.3-0.1c0.1,0,0.2,0.1,0.3,0.2c0,0.1,0.1,0.1,0.1,0.2c0,0.1-0.2,0.2-0.3,0.2c-0.1,0-0.1,0-0.2,0
		c-0.1,0-0.2-0.1-0.3-0.1l0.5-0.2L39,27.6z"/>
	<path class="st0" d="M202.9,72.4c-0.3-0.2-0.6-0.3-1-0.5l-0.4-0.2c-0.2-0.1-0.5-0.1-0.7,0.1c-0.8,0.9-1,0.8-1.7,0.3c0,0,0,0,0,0
		c0,0-0.1-0.1-0.1-0.1c0.2-0.1,0.5-0.2,0.7-0.5c0.2-0.3,0.2-0.6,0-1c-0.1-0.2-0.2-0.3-0.3-0.4c0,0,0,0,0,0c0.1-0.1,0.4-0.2,0.5-0.5
		c0-0.2,0-0.4-0.1-0.6c-0.2-0.3-0.5-0.4-1-0.3c-0.2,0-0.4,0.1-0.6,0.3c-0.1,0.1-0.3,0.1-0.7,0.1h0c0,0,0,0-0.1,0
		c-0.1,0-0.4-0.1-0.6,0.1c-0.2,0.1-0.5,0.2-0.7,0.3c-0.5,0.1-1,0.3-1.5,0.7c-0.1,0.1-0.2,0.1-0.2,0.1c-1.1,0.3-1.9,1-2.7,1.7
		c-0.2,0.2-0.3,0.3-0.4,0.5c-0.2,0.2-0.4,0.5-0.5,0.5c-0.7,0.2-1.2,0.6-1.6,1c-0.2,0.2-0.4,0.3-0.5,0.4c-0.1,0.1-0.2,0.2-0.4,0.2
		c-0.3,0.2-0.7,0.4-1,0.8c-0.1,0.2-0.1,0.4,0,0.6l0.5,0.9c0.1,0.2,0.3,0.4,0.8,0.5c0.1,0,0.5,0.3,0.6,0.4c0.1,0.1,0.2,0.3,0.3,0.4
		c0.3,0.3,0.6,0.4,1,0.3c0.3-0.1,0.5-0.3,0.6-0.7c0.1-0.4,0.3-0.6,0.7-0.7c0.1,0,0.3-0.1,0.4-0.2c0,0,0,0,0.1,0.1
		c0.1,0.1,0.2,0.1,0.2,0.2c0.1,0,0.1,0.1,0.2,0.1c-0.2,0.4-0.1,0.8,0,1.1c0,0.1,0.1,0.2,0.1,0.3c0,0.6,0.3,1.1,0.7,1.4
		c0.4,0.3,0.8,0.4,1.3,0.4c0.1,0,0.3,0,0.5,0c0.3,0,0.6,0.1,0.9,0c0.1,0.4,0.4,0.7,0.6,1c0.1,0.1,0.2,0.2,0.3,0.3
		c0.2,0.2,0.4,0.4,0.7,0.4c0,0,0,0,0.1,0c0.2,0,0.5-0.1,0.7-0.3c0.4-0.4,0.7-0.7,1.2-0.9c0.9-0.5,1.5-1.3,1.7-2.3
		c0.1-0.7,0.4-1.1,0.9-1.5c0.2-0.2,0.8-0.6,0.7-1.4c0.9-0.5,0.9-1.3,0.9-1.8c0-0.1,0-0.2,0-0.3C203.6,73,203.3,72.6,202.9,72.4z
		 M202.4,73.7c0,0.6,0,0.7-0.3,0.8c-0.4,0.2-0.6,0.6-0.6,1.1c0,0.1,0,0.2-0.3,0.4c-0.7,0.6-1.1,1.3-1.3,2.2
		c-0.1,0.6-0.5,1.2-1.1,1.5c-0.5,0.3-0.9,0.6-1.3,1c0,0-0.1-0.1-0.1-0.1c-0.2-0.2-0.3-0.4-0.4-0.6c-0.1-0.3-0.3-0.5-0.6-0.7
		c-0.2-0.1-0.3-0.1-0.5-0.1c-0.1,0-0.2,0-0.3,0c-0.1,0-0.3,0-0.5,0c-0.2,0-0.5-0.1-0.8,0c-0.1,0-0.3,0-0.4-0.1
		c-0.1-0.1-0.2-0.3-0.2-0.5c0-0.2-0.1-0.4-0.1-0.6c-0.1-0.3-0.1-0.3,0-0.3c0.2-0.3,0.2-0.7-0.2-1.2c-0.1-0.1-0.2-0.2-0.4-0.3
		c-0.1,0-0.1-0.1-0.2-0.1c-0.7-0.6-1.3-0.3-1.6,0c0,0-0.1,0-0.1,0c-0.6,0.2-1,0.6-1.2,1.1c-0.3-0.4-0.9-0.8-1.3-0.8l-0.3-0.4
		c0.1-0.1,0.2-0.1,0.3-0.2c0.2-0.1,0.3-0.2,0.5-0.3c0.2-0.2,0.4-0.3,0.6-0.5c0.4-0.3,0.7-0.6,1.2-0.8c0.5-0.2,0.8-0.5,1.1-0.9
		c0.1-0.1,0.2-0.3,0.3-0.4c0.7-0.7,1.3-1.2,2.2-1.5c0.3-0.1,0.5-0.2,0.7-0.4c0.2-0.2,0.6-0.3,1-0.4c0.3-0.1,0.6-0.2,0.9-0.3
		c0.1,0,0.1,0,0.2,0c-0.1,0.2,0,0.4,0.1,0.6c0.1,0.2,0.3,0.4,0.5,0.5c-0.1,0.2-0.1,0.4-0.1,0.6c0.1,0.4,0.3,0.7,0.6,1
		c0,0,0.1,0.1,0.1,0.1c1.1,0.9,2,0.9,2.9-0.1c0.3,0.2,0.6,0.3,0.9,0.5C202.4,73.5,202.4,73.6,202.4,73.7z"/>
	<path class="st0" d="M214.7,69.7c0,0-0.1-0.2-0.1-0.2c0-0.1-0.1-0.2-0.1-0.4l-0.1-0.1c-0.1-0.2-0.2-0.5-0.4-0.7
		c-0.4-0.3-0.7-0.7-1-1.2c-0.2-0.4-0.6-0.5-1-0.4c-0.1-0.2-0.3-0.2-0.4-0.2c-0.3-0.1-0.6,0.2-0.7,0.3c-0.3,0-0.6,0-0.8,0
		c-0.2,0-0.3,0.1-0.4,0c-0.5-0.1-1.1,0-1.6,0.1c-0.5,0.1-0.9,0.4-1.1,0.8c-0.2,0.4-0.2,0.8,0,1.2c0.1,0.2,0.1,0.4,0.1,0.7
		c0,0.1,0,0.2,0,0.4c0,0.3,0.2,0.5,0.4,0.6c0.4,0.1,1,0.2,1.6-0.1c0.1-0.1,0.2,0,0.5,0l0.1,0c0.4,0,0.7,0.2,1.1,0.5
		c0.8,0.6,1.5,1.1,2.3,1.4c0.2,0.1,0.5,0.2,0.7,0.2c0.2,0,0.3,0,0.5-0.1c0.3-0.2,0.5-0.5,0.7-0.9C215,70.9,215.2,70.3,214.7,69.7z
		 M213.8,71c0,0.1,0,0.1,0,0.1c0,0-0.1,0-0.1-0.1c-0.6-0.3-1.3-0.7-2-1.3c-0.6-0.4-1.1-0.6-1.7-0.7l-0.1,0c-0.1,0-0.3,0-0.4,0
		c-0.2,0-0.4,0-0.6,0.1c-0.1,0-0.2,0.1-0.4,0.1c0-0.3,0-0.7-0.2-1.1c0-0.1,0-0.1,0-0.2c0,0,0.1-0.1,0.2-0.1c0.4-0.1,0.9-0.1,1.3-0.1
		c0.3,0,0.5,0,0.7,0c0.2,0,0.4-0.1,0.5,0c0.3,0.1,0.5,0,0.6-0.1c0.2,0.1,0.4,0.2,0.7,0.1c0.3,0.5,0.7,0.9,1.1,1.3
		c0.1,0.1,0.1,0.2,0.2,0.3l0.1,0.1c0,0.1,0,0.1,0.1,0.2c0.1,0.2,0.1,0.4,0.3,0.6C213.9,70.5,213.9,70.6,213.8,71z"/>
	<path class="st0" d="M177.7,83.7c-0.8-0.4-1.5-0.2-1.9,0c-0.2,0.1-0.4,0.2-0.6,0.2c-0.3,0.1-0.5,0.2-0.8,0.3
		c-0.4,0.2-1.3,0.6-1.4,1.7c-0.3,0-0.6,0.1-0.7,0.4c-0.1,0.2-0.2,0.4-0.1,0.9c0,0,0,0.1,0,0.2c0,0.1-0.1,0.2-0.1,0.3
		c0,0.1,0,0.2,0,0.3c0,0.1,0,0.3,0.1,0.4c0.1,0.2,0.4,0.8,1.2,0.6c0.4-0.1,0.6,0,0.9,0.2c0.2,0.2,0.5,0.3,0.7,0.3
		c0.1,0,0.2,0,0.3-0.1c0.3-0.1,0.5-0.4,0.5-0.8c0-0.2,0.1-0.4,0.4-0.5c0.5-0.2,1-0.6,1.2-1.1c0.1-0.2,0.2-0.3,0.4-0.4l0.2-0.1
		c0.3-0.2,1-0.9,0.5-1.7C178.5,84.2,177.9,83.9,177.7,83.7z M177.1,85.7l-0.2,0.2c-0.2,0.2-0.4,0.4-0.6,0.7
		c-0.1,0.2-0.3,0.4-0.6,0.5c-0.2,0.1-0.9,0.3-1.1,1c-0.3-0.2-0.7-0.3-1.1-0.3c-0.1,0-0.3,0-0.4,0c0,0,0,0,0,0c0,0,0,0,0-0.1
		c0,0,0-0.1,0-0.1c0-0.2,0.1-0.4,0.1-0.6c0.3,0,0.5-0.2,0.6-0.3c0.1-0.1,0.3-0.3,0.3-0.7c0-0.4,0.2-0.5,0.7-0.8
		c0.2-0.1,0.5-0.2,0.7-0.3c0.2-0.1,0.4-0.2,0.6-0.3c0.4-0.2,0.6-0.2,1,0c0,0,0,0,0,0c0,0.2,0,0.4,0.1,0.6c0,0,0.1,0.1,0.1,0.1
		C177.3,85.5,177.2,85.6,177.1,85.7z"/>
	<path class="st0" d="M177.6,91.1c-0.3-0.2-0.6-0.1-0.7-0.1c-0.1,0-0.1,0-0.1,0c0,0,0,0-0.1-0.1c-0.2-0.4-0.5-0.7-0.9-0.9
		c-0.2-0.1-0.5-0.1-0.6,0.1c0,0-0.1,0-0.1,0.1c-0.2,0.1-0.7,0.3-0.7,0.8c0,0.1,0,0.1,0,0.2c-0.1,0.4-0.1,0.9,0.2,1.4
		c0.1,0.2,0.3,0.3,0.5,0.3c0,0,0.1,0,0.1,0l0.1,0c0.1,0,0.2,0,0.3-0.1l0,0c0.1-0.1,0.2-0.1,0.3-0.3c0,0,0.1-0.1,0.1-0.1
		c0.1,0,0.2,0.1,0.2,0.1c0.1,0,0.1,0.1,0.1,0.1c0.1,0.1,0.2,0.2,0.4,0.2c0.4,0.2,0.8,0.1,1.1-0.1c0.4-0.3,0.6-0.7,0.4-1.1
		C178,91.4,177.8,91.2,177.6,91.1z"/>
	<path class="st0" d="M196.5,82.8c-0.2-0.1-0.4-0.1-0.6-0.1c0,0,0,0-0.1,0c-0.8,0.1-0.9,0.6-0.8,0.9c0,0.5,0.4,0.8,0.9,0.9
		c0,0,0,0,0,0c0,0,0,0,0.1,0c0.2,0,0.5-0.2,0.6-0.4c0.1-0.1,0.3-0.4,0.2-0.8C196.8,83,196.7,82.9,196.5,82.8z M195.9,83.7
		c-0.1-0.1-0.2-0.1-0.2-0.2c0-0.1,0-0.1,0-0.1c0,0,0,0,0,0c0,0,0.1-0.1,0.2-0.1L195.9,83.7C195.9,83.7,195.9,83.7,195.9,83.7z
		 M196.1,83.6l-0.1-0.3L196.1,83.6c0,0.1-0.1,0.1-0.1,0.2c0,0,0,0-0.1,0l0-0.5c0,0,0.1,0,0.1,0c0,0,0.1,0.1,0.1,0.2
		C196.1,83.5,196.1,83.6,196.1,83.6z"/>
</g>
</svg>
