<?xml version="1.0" encoding="utf-8"?>
<!-- Generator: Adobe Illustrator 27.0.0, SVG Export Plug-In . SVG Version: 6.00 Build 0)  -->
<svg version="1.1" id="Capa_1" xmlns="http://www.w3.org/2000/svg" xmlns:xlink="http://www.w3.org/1999/xlink" x="0px" y="0px"
	 viewBox="0 0 206 75" style="enable-background:new 0 0 206 75;" xml:space="preserve">
<style type="text/css">
	.st0{fill-rule:evenodd;clip-rule:evenodd;fill:#FFFFFF;}
	.st1{fill:#FFFFFF;}
	.st2{fill:#1A9986;}
</style>
<path class="st0" d="M140.4,53.4c-0.3,0.2-0.5,0.3-0.6,0.5c-1.1,0.7-2.1,1.4-3.2,2c-2.5,1.2-6.1-0.9-6.3-3.7
	c-0.1-1.7,0.1-3.3,0.7-4.9c0.1-0.3,0.1-0.6,0.1-0.9c-0.3,0-0.6-0.1-0.9,0c-0.8,0.2-1.5,0.4-2.3,0.6c-0.6,0.1-1,0.5-1.1,1
	c-0.7,2.4-1.4,4.7-2.1,7.1c-0.3,1.2-0.9,1.7-2,1.4c-0.5-0.2-0.8-0.6-0.8-1.1c0.1-0.5,0.2-1,0.3-1.4c0.7-2.2,1.4-4.4,2.1-6.5
	c0.1-0.4,0-0.6-0.4-0.7c-0.6-0.1-1.2-0.1-1.8-0.2c-0.5-0.1-1-0.2-1.4-0.3c-0.6-0.3-0.8-0.7-0.8-1.4c0.1-0.6,0.1-1.2,0-1.7
	c-0.1-0.3-0.4-0.6-0.7-0.7c-0.2-0.1-0.6,0.2-0.7,0.4c-1.3,1.5-1.6,3.3-1.2,5.2c0.4,1.9,0.7,3.9,1,5.9c0.2,1,0.2,2-0.8,2.6
	c-0.8,0.5-1.6,0.7-2.3,0.3c-1-0.6-2-1.4-2.9-2.1c-0.2-0.1-0.3-0.4-0.6-0.7c-0.3,0.3-0.4,0.5-0.6,0.7c-0.7,0.6-1.5,1.2-2.3,1.6
	c-0.7,0.4-1.3,0.2-1.9-0.4c-0.9-0.9-1.4-1.9-1.4-3.2c0-0.3,0-0.6,0-1c-0.3,0.2-0.5,0.2-0.7,0.4c-1.3,1.1-2.6,2.1-3.8,3.3
	c-1.4,1.3-2.3,2.9-3.1,4.6c-1.2,2.4-2.5,4.8-3.8,7.2c-0.6,1.2-2.3,1.5-3.4,0.8c-0.3-0.2-0.6-0.8-0.6-1.2c-0.2-2.2,0.7-4.1,2.1-5.7
	c1.1-1.2,2.3-2.3,3.4-3.4c0.7-0.7,1.2-1.4,1.5-2.3c0.4-1.1,0.8-2.3,1.3-3.5c-0.2,0.1-0.3,0.2-0.5,0.3c-0.6,0.5-1.1,1.1-1.7,1.6
	c-0.9,0.8-2,1.1-3.2,1c-0.6,0-1.1-0.2-1.5-0.8c-0.4-0.7-0.7-0.7-1.3-0.2c-0.3,0.3-0.6,0.7-1,0.9c-0.9,0.7-1.9,0.5-2.4-0.5
	c-0.3-0.5-0.4-1.2-0.5-1.7c-0.1-0.3-0.1-0.6-0.1-1c-0.3,0.2-0.6,0.3-0.8,0.5c-0.9,0.8-1.8,1.7-2.8,2.4c-0.8,0.6-1.7,1.1-2.6,1.4
	c-1.2,0.5-2.5-0.2-3.1-1.3c-0.3-0.7-0.5-0.7-1.1-0.2c-0.7,0.5-1.3,1-2,1.4c-0.7,0.4-1.5,0.5-2.3-0.1c-0.5-0.4-0.8-0.9-0.7-1.6
	c0.2-1.8,0.8-3.3,1.7-4.9c0.5-1,1.1-1.9,1.6-2.9c0,0-0.1-0.1-0.1-0.1c-0.2,0.2-0.4,0.3-0.6,0.5c-2.5,2.5-4.7,5.3-6.7,8.1
	c-0.2,0.3-0.5,0.6-0.9,0.8c-0.5,0.3-0.9,0.2-1.4-0.2c-0.4-0.4-0.3-0.7-0.2-1.2c0.9-2.5,1.9-4.9,2.8-7.4c0.1-0.3,0.2-0.5,0.1-0.9
	c-0.3,0.2-0.5,0.4-0.8,0.7c-2.7,2.7-5.1,5.5-7.1,8.7c-0.4,0.6-0.9,0.9-1.5,0.6c-0.6-0.3-0.8-0.8-0.5-1.4c0.7-1.9,1.5-3.8,2.2-5.7
	c0.1-0.2,0.2-0.5,0.2-0.7l-0.2-0.1c-0.2,0.2-0.5,0.4-0.7,0.7c-1.9,2.3-4,4.5-6.6,6.1c-1,0.6-2.1,1.1-3.2,1.3c-2.6,0.5-4.6-1.1-5-3.7
	c-0.2-1.3,0-2.6,0.5-3.8c1.2-2.8,3-5.1,5.2-7.2c1.4-1.3,3.1-1.5,4.9-0.9c0.9,0.3,1.5,1.4,1.1,2.4c-0.4,1.1-0.8,2.2-1.6,3
	c-2.1,2.5-4.4,5-7.3,6.7c-0.4,0.2-0.4,0.6-0.1,0.9c0.3,0.3,0.8,0.5,1.2,0.5c1.4,0.1,2.6-0.4,3.7-1.1c2.5-1.6,4.4-3.8,6.3-6
	c1.5-1.8,2.9-3.6,4.3-5.4c0.3-0.4,1.1-0.5,1.8-0.1c0.6,0.3,0.6,0.7,0.4,1.3c-0.7,1.7-1.4,3.5-2.1,5.2c-0.1,0.3-0.2,0.6-0.2,1
	c0.2-0.2,0.3-0.3,0.5-0.5c2-2.2,4.1-4.3,6.1-6.5c0.2-0.2,0.6-0.5,0.9-0.6c0.9-0.2,1.6,0.5,1.4,1.4c-0.1,0.5-0.3,0.9-0.5,1.3
	c-0.6,1.5-1.2,2.9-1.7,4.4c0,0.1,0,0.2,0,0.5c0.3-0.3,0.5-0.5,0.6-0.7c1.9-1.9,3.7-3.8,5.6-5.7c0.7-0.7,1.6-0.8,2.4-0.3
	c0.3,0.1,0.5,0.6,0.5,0.9c-0.1,0.6-0.3,1.2-0.6,1.8c-1,1.8-2,3.6-3,5.4c-0.5,0.9-0.8,1.8-1.1,2.7c-0.2,0.9,0.3,1.2,1.1,0.8
	c1.1-0.5,1.8-1.3,2.3-2.4c2.2-5.1,5.9-8.5,11.2-10.1c1.1-0.3,2.3,0.2,3,1.3c0.3,0.4,0.6,0.7,1.1,0.8c0.7,0.1,0.8,0.5,0.4,1.1
	c-1,1.5-2.1,2.9-3,4.4c-0.4,0.7-0.6,1.6-0.9,2.4c0,0.1,0,0.2,0,0.3c0.1,0.5,0,1.2,0.7,1.4c0.6,0.2,0.9-0.4,1.2-0.8
	c0.2-0.2,0.3-0.4,0.4-0.7c1.4-3.3,3.7-6,6.4-8.2c0.8-0.7,1.9-1.2,2.9-1.6c1.2-0.5,2.4-0.2,3.5,0.6c1,0.7,1.2,1.8,0.6,3
	c-1.1,2.1-2.2,4.1-3.3,6.2c-0.3,0.6-0.5,1.3-0.8,1.9l0.2,0.1c0.2-0.2,0.4-0.3,0.6-0.5c1.3-1.2,2.7-2.5,4-3.7
	c1.6-1.5,2.8-3.3,3.7-5.3c0.3-0.6,0.5-1.2,0.8-1.7c0.4-0.9,1.3-1.3,2.2-1c0.5,0.2,0.7,0.5,0.6,1c-0.3,0.7-0.6,1.4-1,2
	c-1.7,2.6-2.9,5.5-3.6,8.6c0,0.1-0.1,0.3,0,0.4c0.1,0.3,0.3,0.7,0.4,1c0.3-0.1,0.7-0.2,0.9-0.5c0.6-0.7,1.2-1.5,1.8-2.3
	c0.6-0.7,1.1-0.8,1.7,0c0.4,0.5,0.7,1.2,1.1,1.7c0.4,0.5,0.8,1.1,1.2,1.6c0.2,0.2,0.5,0.2,0.8,0.3c0-0.2,0.1-0.5,0.1-0.7
	c-0.3-2-0.6-3.9-0.9-5.9c-0.3-1.9-0.1-3.7,0.8-5.3c1-1.9,2.6-2.6,4.5-2.1c0.9,0.2,1.6,0.7,1.9,1.6c0.5,1.1,1.2,1.9,2.5,2.1
	c0.6,0.1,0.9-0.1,1.2-0.7c1-2.5,2-5,3-7.6c0.3-0.8,2.1-1,2.6-0.4c0.1,0.1,0.1,0.4,0,0.5c-0.4,1.1-0.8,2.3-1.2,3.4
	c-0.7,1.5-1.4,2.9-2.1,4.4c-0.1,0.2-0.1,0.5-0.3,0.9c2.1-0.3,3.9-0.9,5.5-2c1-0.7,2-1.4,3-2.1c1.1-0.8,2.4-1.1,3.8-0.8
	c1.6,0.3,2.3,1.4,1.8,3c-0.3,0.9-0.8,1.9-1.4,2.6c-1.9,2.3-4.2,4.4-6.8,5.9c-0.6,0.3-0.8,0.8-0.5,1.7c0.2,0.8,0.6,1.1,1.3,1.1
	c0.5,0,1-0.1,1.4-0.3c2.6-1.1,4.6-2.8,6.5-4.8c1.1-1.3,1.4-2.9,1.8-4.5c0.1-0.5,0-1.1,0-1.7c0-0.2,0-0.4,0.1-0.5
	c0.5-0.5,2-0.5,2.2,0.4c0.1,0.7,0.1,1.4,0.2,2.1c0,0.3-0.1,0.5-0.2,1c0.4-0.2,0.6-0.3,0.8-0.5c1.3-0.7,2.5-1.5,3.8-2.2
	c1-0.5,1.9-0.2,2.8,0.4c0.5,0.4,0.6,0.9,0.3,1.4c-0.2,0.5-0.7,0.9-1.3,0.7c-1.1-0.5-1.9,0-2.8,0.5c-3.4,1.9-5.9,4.6-6.8,8.5
	c-0.3,1.1-0.9,1.6-1.5,1.5c-0.7-0.2-1.4-1.4-1.2-2.2C140.3,53.7,140.4,53.6,140.4,53.4L140.4,53.4z M133.2,48.7l0.2,0.1
	c2-1.5,4-2.9,5.3-5.2c0.2-0.3,0.4-0.7,0.5-1.1c0.1-0.2,0-0.5,0-0.7c-0.2,0.1-0.5,0-0.7,0.2c-2.2,1.6-4.1,3.4-5,6.1
	C133.3,48.3,133.3,48.5,133.2,48.7L133.2,48.7z M47.1,49.7c0.3-0.2,0.5-0.3,0.7-0.5c1.2-1.1,2.3-2.2,3.4-3.4
	c0.7-0.8,1.3-1.8,1.9-2.7c0.2-0.4,0.3-0.9,0.4-1.4C51.3,42,47,47.4,47.1,49.7L47.1,49.7z M101.4,42.8c-0.4,0.2-0.8,0.3-1.1,0.5
	c-1.4,0.8-2.6,1.9-3.6,3.2c-1.2,1.4-2.4,2.7-3.1,4.5c-0.1,0.3,0,0.6,0,0.9c0.3,0,0.7-0.1,1-0.1c0.1,0,0.2-0.1,0.4-0.2
	c2.9-2,5.2-4.7,7.2-7.6c0.1-0.2,0.2-0.6,0.1-0.7C102,43,101.7,43,101.4,42.8z M78.7,52.3c0,1.1,0.4,1.5,1.1,1.1
	c1.2-0.7,2.4-1.5,3.5-2.4c2.4-2,4.8-4.2,6.2-7.1c0.1-0.3,0.2-0.8,0.1-0.9c-0.2-0.2-0.6-0.2-0.9-0.2c-0.3,0-0.5,0.2-0.8,0.3
	c-1.2,0.7-2.4,1.4-3.6,2.2c-2,1.4-3.7,3.2-5,5.4C79.1,51.4,78.9,52,78.7,52.3z M95.9,60.1l-0.2-0.1c-0.2,0.1-0.3,0.2-0.4,0.3
	c-0.9,1.2-1.9,2.4-2.8,3.6c-0.2,0.2-0.2,0.6-0.3,0.9c0,0.2,0.2,0.4,0.3,0.7c0.2-0.1,0.5-0.2,0.6-0.3C94,63.4,94.9,61.7,95.9,60.1z
	 M113.7,34c1.2,0,1.8,0.4,1.9,1.2c0.1,1-1.5,2.4-2.4,2.2c-0.8-0.1-1.1-0.5-1.2-1.4c-0.1-1,0.3-1.7,1-1.9
	C113.3,34.1,113.6,34.1,113.7,34L113.7,34z M160.8,44.6c-0.1,1.3-0.7,2.5-1.5,2.3c-1.5-0.2-2.1-0.6-2-1.7c0.1-1.1,0.9-2.4,1.6-2.4
	C159.8,42.9,160.8,43.9,160.8,44.6z M157.6,54.2c0,0.7-0.1,1.2-0.9,1.5c-0.9,0.3-1.3,0.2-1.9-0.5c-0.3-0.3-0.7-0.7-0.7-1.1
	c0-0.6,0.3-1.3,0.5-1.9c0.2-0.5,0.8-0.7,1.3-0.4C157,52.2,157.6,53.1,157.6,54.2L157.6,54.2z"/>
<g>
	<g>
		<path class="st1" d="M158.4,26.5h-2.2V13.4h2.3c3.6,0,5.8,2.5,5.8,6.6C164.2,24,161.9,26.5,158.4,26.5 M143.6,19.3
			c-0.2,0-0.8,0-1.1,0v-5.9h1.3c1.7,0,2.8,1.3,2.8,2.8C146.6,17.8,145.4,19.3,143.6,19.3 M128,20.5l2.1-5.6l2,5.6H128z M158.5,12.1
			h-7V13l1.8,0.4v12.9c-0.2,0.3-0.6,0.6-1.3,0.6c-1.2,0-1.9-1-2.3-1.7l-1.7-3.1c-0.7-1.3-1.5-2-3.2-2.1v-0.2c2.3-0.1,4.4-1.7,4.4-4
			c0-2.7-2.4-3.7-5.3-3.7h-6.3V13l2.1,0.4v13.1h0l-2.4,0.5l-5.9-16.2c-0.7,0.8-1.5,1.5-2.1,1.8l0.2,0.7l-5.4,13.3l-1.6,0.4v0.9h4.9
			V27l-1.6-0.4l1.8-4.8h5l1.8,4.8l-1.9,0.5v0.9h12V27l-2-0.4v-6.1c1.4,0.1,2,0.7,2.7,2l2.4,4.3c0.8,1.4,2,2.1,3.5,2.1
			c1.1,0,2-0.7,2.3-0.9h5.4c4.6,0,8.3-3.5,8.3-7.9C167,15.4,163.4,12.1,158.5,12.1"/>
		<path class="st1" d="M34.6,20.5l2.1-5.6l2,5.6H34.6z M43.9,26.5l-5.8-15.8c-0.7,0.8-1.5,1.5-2.1,1.8l0.2,0.7l-5.4,13.3L29.6,27
			l-0.3,0.9H34V27l-1.6-0.4l1.8-4.8h5l1.8,4.8L39.1,27v0.9h6.5V27L43.9,26.5z"/>
	</g>
	<polygon class="st1" points="30,23.9 29.4,23.5 26,26.6 23.1,26.6 23.1,13.4 24.9,13 24.9,12.1 18.6,12.1 18.6,13 20.4,13.4 
		20.4,26.5 18.6,27 18.6,27.8 28.5,27.8 	"/>
	<polygon class="st1" points="57.3,12.1 57.3,13 59.2,13.4 55.1,24 50.8,13.4 52.8,13 52.8,12.1 45.8,12.1 45.8,13 47.8,13.4 
		54,28.4 54.7,28.4 60.9,13.5 60.9,13.5 62.9,13 62.9,12.1 	"/>
	<g>
		<path class="st1" d="M119.3,12.1V13l1.9,0.4c0,0,0.1,7.8,0.1,9.8c-0.1,2.3-1.9,3.8-4.2,3.8c-2.4,0-4.2-1.4-4.2-4v-9.6l1.8-0.4
			v-0.9h-6.3V13l1.8,0.4v9.7c0.1,3.3,2.8,5.5,6.2,5.5c3.4,0,6.1-2,6.2-5.5l0.1-9.6l1.8-0.4v-0.9H119.3z"/>
		<path class="st1" d="M178.3,20.5l2.1-5.6l2,5.6H178.3z M187.5,26.5l-5.8-15.7c-0.7,0.8-1.5,1.5-2.1,1.8l0.2,0.7l-5.4,13.3
			l-0.9,0.4l-1.3-0.4V13.4l1.9-0.4v-0.9h-6.6V13l1.9,0.5v13.1l-1.8,0.4v0.9h10.1V27l-1.6-0.4l1.8-4.8h5l1.8,4.8l-1.9,0.5v0.9h6.5V27
			L187.5,26.5z"/>
		<path class="st1" d="M64.1,20.5l2.1-5.6l2,5.6H64.1z M85.5,12.1V13l1.9,0.5l0.1,10.3l-9.8-11.6h-4.2V13l1.9,0.4l0.2,0.1l-0.1,13h0
			L73.5,27l-5.9-16.2c-0.7,0.8-1.5,1.5-2.1,1.8l0.2,0.7l-5.4,13.3L58.6,27v0.9h4.9V27l-1.6-0.4l1.8-4.8h5l1.8,4.8L68.6,27v0.9H79V27
			l-2-0.4l-0.1-11.4l11.3,13.2h0.7L89,13.4l1.9-0.4v-0.9H85.5z"/>
		<path class="st1" d="M102.1,19.8v0.9l1.8,0.4v5.1c-0.8,0.7-2.2,1.2-3.6,1.2c-3.6,0-5.9-3-5.9-7.2c0-4,2.2-7.5,5.9-7.5
			c2.4,0,4.5,1.7,5.3,4.3l0.5-0.3v-5l-0.5-0.3l-1,1.2c-1-0.5-2.7-1.1-4.4-1.1c-4.9,0-8.8,4-8.8,8.7c0,4.9,3.5,8.4,8.1,8.4
			c1.9,0,3.7-0.6,5.1-1.7l1.4,0.9h0.5v-6.7l1.5-0.6v-0.7H102.1z"/>
	</g>
</g>
<g>
	<path class="st1" d="M19.3,52c0-1,0.3-1.8,0.8-2.6c0.5-0.8,1.5-1.5,2.8-2.3c-0.6-0.7-1.1-1.3-1.3-1.6c-0.2-0.4-0.4-0.8-0.5-1.2
		c-0.1-0.4-0.2-0.8-0.2-1.2c0-1.1,0.4-2,1.1-2.6s1.8-0.9,3.1-0.9c1.2,0,2.2,0.3,2.9,0.9c0.7,0.6,1.1,1.5,1.1,2.6
		c0,0.8-0.3,1.6-0.8,2.2s-1.4,1.4-2.5,2.1l4.6,4.4c0.4-0.5,0.8-1,1-1.6s0.5-1.3,0.6-2.1h1.9c-0.5,2.2-1.3,3.8-2.3,4.9l3.4,3.3h-2.6
		l-2.1-2c-0.9,0.8-1.8,1.4-2.7,1.7c-0.9,0.3-1.9,0.5-3.1,0.5c-1.6,0-2.9-0.4-3.8-1.2C19.7,54.5,19.3,53.4,19.3,52z M24.4,54.8
		c1.8,0,3.3-0.6,4.5-1.7L24,48.3c-0.8,0.5-1.4,0.9-1.8,1.3c-0.3,0.3-0.6,0.7-0.8,1.1c-0.2,0.4-0.2,0.8-0.2,1.3
		c0,0.9,0.3,1.6,0.9,2.1S23.4,54.8,24.4,54.8z M22.7,43c0,0.5,0.1,1,0.4,1.5c0.3,0.5,0.7,1,1.4,1.7c1-0.6,1.6-1.1,2-1.6
		s0.6-1,0.6-1.7c0-0.6-0.2-1.1-0.6-1.4c-0.4-0.4-0.9-0.5-1.6-0.5c-0.7,0-1.2,0.2-1.6,0.5C22.9,42,22.7,42.4,22.7,43z"/>
</g>
<rect x="204.4" y="10" class="st2" width="1" height="54.9"/>
</svg>
