<?xml version="1.0" encoding="utf-8"?>
<!-- Generator: Adobe Illustrator 26.0.0, SVG Export Plug-In . SVG Version: 6.00 Build 0)  -->
<svg version="1.1" id="logo" xmlns="http://www.w3.org/2000/svg" xmlns:xlink="http://www.w3.org/1999/xlink" x="0px" y="0px"
	 viewBox="0 0 287 49.9" style="enable-background:new 0 0 287 49.9;" xml:space="preserve">
<path id="Trazado_308" d="M91.1,23.3h-5v17.9h5L91.1,23.3z M79,20.2H98V16H79V20.2z M104.6,34.4h7.6V32c0.4-3.9-2.4-7.4-6.3-7.9
	c-0.3,0-0.5,0-0.8,0c-4.4-0.1-8.1,3.5-8.1,7.9c0,0.2,0,0.5,0,0.7c-0.6,4.2,2.3,8.1,6.5,8.7c0.6,0.1,1.2,0.1,1.8,0
	c2,0.1,4.1-0.3,5.9-1.2l-1.3-3.4c-1.4,0.4-2.9,0.7-4.4,0.7c-2.3-0.1-4.1-2-4.1-4.4c0-0.1,0-0.3,0-0.4c0-1.8,0.5-5.1,3.4-5.1
	c2.1,0,2.8,2.1,2.8,3.7h-3L104.6,34.4L104.6,34.4z M125.8,29l2.2-3.4c-1.6-1-3.5-1.5-5.4-1.4c-4.2-0.1-7.8,3.1-8.3,7.3h4.7
	c0.4-1.8,2-3.2,3.8-3.2C123.9,28.3,124.9,28.6,125.8,29 M122.7,41.6c1.9,0,3.8-0.5,5.5-1.5l-2.1-3.4c-0.9,0.4-1.9,0.6-3,0.6
	c-1.9,0.1-3.6-1.2-4.1-3h-4.8c0.4,4.3,4.2,7.5,8.5,7.1 M130.9,41.2h4.6V24.4h-4.6L130.9,41.2z M141.7,41.2h4.6V29.3
	c0-2.9-2.3-5.2-5.2-5.2c-0.2,0-0.5,0-0.7,0c-0.7,0-1.3,0.1-2,0.3v3.9c0.4-0.1,0.8-0.1,1.2,0c1.3,0,2.1,0.4,2.1,1.9L141.7,41.2
	L141.7,41.2z M156.4,41.2v-4.1c-1.6-0.8-2.5-2.5-2.3-4.3c-0.2-1.8,0.7-3.5,2.3-4.3v-4.3c-4.3,0.6-7.4,4.4-7.1,8.7
	c-0.3,4.3,2.9,8,7.1,8.5 M166.5,32.8c0.4-4.3-2.7-8.1-7-8.6v4.4c1.6,0.8,2.4,2.5,2.2,4.3c0.3,1.8-0.7,3.5-2.3,4.3v4.3
	c4.2-0.6,7.3-4.3,7-8.6 M186.3,21.1l2.2-3.7c-2-1.2-4.4-1.8-6.7-1.7c-6.6-0.3-12.3,4.7-12.8,11.3h5.1c0.4-3.8,3.6-6.7,7.4-6.7
	c1.7-0.1,3.4,0.2,4.9,1 M188.9,39.6L188.9,39.6 M181.7,41.5c2.5,0.1,5-0.5,7.2-1.8l-2-3.5c-1.6,0.7-3.4,1.1-5.2,1
	c-4,0.1-7.5-3-7.8-7.1h-5.1c0.3,6.6,5.8,11.7,12.3,11.4C181.4,41.5,181.6,41.4,181.7,41.5 M190.2,36.5c0,3.7,2.8,4.9,5.5,4.9h1v-3.6
	h-0.3c-0.9,0.1-1.6-0.6-1.7-1.5c0,0,0-0.1,0-0.1c0-1,0.8-1.9,1.8-2h0.2v-3.1h-0.4C194.8,31.4,190.2,32.4,190.2,36.5 M202.7,41.7
	l3.2-2.9l-1.6-1.6v-8.1c-0.2-3-2.9-5.3-5.9-5.1c-0.1,0-0.2,0-0.3,0c-2.6,0-5,0.7-7.2,2.1l1.7,3.1c1.6-0.8,3.3-1.3,5.1-1.3
	c0.9,0,2,0.7,2,1.5v9.4L202.7,41.7z M208.5,41.2h4.6V24.3h-4.6V41.2z M218.2,41.2h4.6V29.5c0.2-2.7-1.8-5.2-4.5-5.4
	c-0.2,0-0.3,0-0.5,0c-0.6,0-1.1,0.1-1.7,0.2v3.9h0.3c1,0,1.8,0.3,1.8,1.4L218.2,41.2L218.2,41.2z M227.9,41.2h4.6V29.5
	c0.3-2.7-1.7-5.1-4.5-5.4c-0.2,0-0.4,0-0.6,0c-0.6,0-1.1,0.1-1.7,0.2v3.9h0.4c1.3,0,1.7,0.6,1.7,1.5L227.9,41.2z M236.6,49.9h4.6
	V24.1h-4.6V49.9z M253,32.7c0-4.9-2.6-8.6-7.5-8.6c-0.5,0-1,0.1-1.5,0.2v3.9c0.3,0,0.6,0,0.9,0c2.6,0,3.5,2.4,3.5,4.6
	s-1,4.6-3.4,4.6h-0.9v4c0.4,0,0.9,0,1.3,0c4.4-0.2,7.8-3.9,7.6-8.2C253.1,33,253,32.9,253,32.7 M262.1,41.5c0.7,0,1.3-0.1,1.9-0.3
	v-4c-0.4,0.1-0.8,0.2-1.1,0.2c-1.3,0-2-0.5-2-1.8V24.4h-4.4v11.9c0,3.4,2.6,5.2,5.9,5.2 M267.3,41.3h4.6V24.4h-4.7L267.3,41.3z
	 M277,36.2l-2.5,3.1c1.7,1.5,3.8,2.3,6.1,2.2c2.7,0,6.4-1.6,6.4-5.1c-0.1-2.1-1.4-4-3.4-4.8l-2.2,3.4c0.5,0.3,0.9,0.8,1,1.4
	c0,0.6-0.6,1.2-1.8,1.2C279.3,37.6,278,37.1,277,36.2 M284.6,29l2.2-3.1c-1.6-1.3-3.6-1.9-5.6-1.8c-2.9-0.2-5.5,1.9-5.8,4.8
	c0,2.1,1.3,4,3.4,4.7l2.2-3.4c-0.9-0.5-1.4-0.8-1.4-1.4s0.5-0.9,1.7-0.9C282.4,28,283.6,28.4,284.6,29"/>
<path id="Trazado_309" d="M0,41.3h15.1V26.1H0V41.3z M0,15.1h15.1V0H0V15.1z M22.9,0v41.3h41.2V16H52.8v13.9H34.2V11.4h13.9V0H22.9z
	"/>
</svg>
