<?xml version="1.0" encoding="utf-8"?>
<!-- Generator: Adobe Illustrator 26.3.1, SVG Export Plug-In . SVG Version: 6.00 Build 0)  -->
<svg version="1.1" id="Capa_1" xmlns="http://www.w3.org/2000/svg" xmlns:xlink="http://www.w3.org/1999/xlink" x="0px" y="0px"
	 viewBox="0 0 422.7 100.9" style="enable-background:new 0 0 422.7 100.9;" xml:space="preserve">
<style type="text/css">
	.st0{fill:#FFFFFF;}
</style>
<g>
	<path class="st0" d="M82.6,79.1H71.2l-4.3-23c-0.2-1.2-0.3-2.3-0.2-3.2c-0.4,0.8-0.8,1.8-1.4,2.8L51.3,80h-0.5L36.7,55.6L35.3,53
		c0.1,0.8,0,1.8-0.2,3l-4.3,23H19.4l11.1-54.6h0.4l19.6,34.1c0.2,0.4,0.4,0.8,0.5,1.2c0.2-0.4,0.3-0.8,0.5-1.2L71,24.4h0.4
		L82.6,79.1z"/>
	<path class="st0" d="M122.8,68.1h-18.7L99.3,79h-11l5-10.9h-3.6v-9.2h7.8l15.8-34.7h0.3l25,54.8h-11L122.8,68.1z M107.7,58.9h11.6
		L115,49c-0.8-1.7-1.2-3.1-1.5-4c-0.2,0.9-0.7,2.2-1.5,4L107.7,58.9z"/>
	<path class="st0" d="M191.9,54.2v16c-3.6,5.2-12.2,10.2-23.5,10.2c-17,0-27.9-11.6-27.9-27.5c0-16.5,11.6-28.4,28.5-28.4
		c7.9,0,14.3,2.7,18.2,5.5v11.8h-0.1c-4.6-4-11.1-6.6-17.5-6.6c-10.4,0-17.2,7.1-17.2,17.5s6.7,17.2,16.1,17.2
		c4.6,0,9.2-1.5,12.2-3.8V54.2H191.9z"/>
	<path class="st0" d="M232.5,68.1h-18.7l-4.8,11h-11l5-10.9h-3.6V59h7.8L223,24.3h0.3l25,54.8h-11L232.5,68.1z M217.3,58.9H229
		l-4.3-10c-0.8-1.7-1.2-3.1-1.5-4c-0.2,0.9-0.7,2.2-1.5,4L217.3,58.9z"/>
	<path class="st0" d="M268.4,69.2h19.3l-1.5,9.9h-33.8l-0.1-0.2l20.2-43.2h-16.6l1.5-9.9h31.1l0.1,0.2L268.4,69.2z"/>
	<path class="st0" d="M297,25.9h11.1v53.2H297V25.9z"/>
	<path class="st0" d="M362.4,25.9v54.6H362L332.4,52c-0.7-0.6-1.1-1.2-1.5-1.7c0.1,0.5,0.1,1.2,0.1,2v26.8h-11.1V24.5h0.4l29.6,28.8
		c0.7,0.7,1.2,1.3,1.6,1.9c-0.2-1.1-0.2-2.4-0.2-3.9V25.9H362.4z"/>
	<path class="st0" d="M405.3,69.2l-1.5,9.9h-27.4V55.7h-5.2v-9.9h5.2v-20h26.8l1.5,9.9h-17.3v10.1h15.9v9.9h-15.9v13.5
		C387.4,69.2,405.3,69.2,405.3,69.2z"/>
</g>
</svg>
