<?xml version="1.0" encoding="utf-8"?>
<!-- Generator: Adobe Illustrator 26.5.0, SVG Export Plug-In . SVG Version: 6.00 Build 0)  -->
<svg version="1.1" xmlns="http://www.w3.org/2000/svg" xmlns:xlink="http://www.w3.org/1999/xlink" x="0px" y="0px"
	 viewBox="0 0 142.1 27.9" style="enable-background:new 0 0 142.1 27.9;" xml:space="preserve">
<style type="text/css">
	.st0{fill:#7F6D69;}
	.st1{fill:#B0A33D;}
</style>
<g id="Capa_1">
	<g>
		<polygon class="st0" points="61.5,16.1 59.2,16.1 59.2,18.6 58.5,18.6 58.5,13.1 61.9,13.1 61.9,13.7 59.2,13.7 59.2,15.5 
			61.5,15.5 		"/>
		<path class="st0" d="M65.1,18.2c-0.3,0.3-0.7,0.5-1.2,0.5c-0.4,0-0.7-0.1-1-0.4c-0.3-0.3-0.4-0.7-0.3-1.1v-2.7h0.7v2.6
			c0,0.6,0.2,0.9,0.8,0.9c0.4,0.1,0.9-0.2,1.1-0.6v-3h0.7v4.1h-0.7L65.1,18.2z"/>
		<path class="st0" d="M67.5,14.5V15c0.3-0.4,0.7-0.6,1.2-0.6c0.9,0,1.3,0.5,1.3,1.5v2.7h-0.7v-2.7c0-0.2-0.1-0.5-0.2-0.7
			C69,15.1,68.8,15,68.5,15c-0.2,0-0.4,0.1-0.6,0.2c-0.2,0.1-0.3,0.3-0.4,0.5v2.9h-0.7v-4.1H67.5z"/>
		<path class="st0" d="M70.9,16.5c0-0.6,0.1-1.1,0.4-1.5c0.3-0.4,0.7-0.6,1.2-0.6c0.4,0,0.9,0.2,1.1,0.5v-2.1h0.7v5.8h-0.6v-0.4
			c-0.3,0.3-0.7,0.5-1.2,0.5c-0.5,0-0.9-0.2-1.2-0.6C71.1,17.6,70.9,17.1,70.9,16.5L70.9,16.5z M71.6,16.6c0,0.4,0.1,0.8,0.3,1.1
			c0.2,0.3,0.5,0.4,0.8,0.4c0.4,0,0.8-0.2,1-0.6v-1.9c-0.2-0.4-0.6-0.6-1-0.6c-0.3,0-0.6,0.1-0.8,0.4C71.7,15.8,71.6,16.2,71.6,16.6
			z"/>
		<path class="st0" d="M78,18.6c-0.1-0.1-0.1-0.3-0.1-0.4c-0.3,0.3-0.7,0.5-1.2,0.5c-0.4,0-0.7-0.1-1-0.3c-0.3-0.2-0.4-0.5-0.4-0.9
			c0-0.4,0.2-0.8,0.5-1c0.4-0.3,0.9-0.4,1.4-0.4h0.7v-0.3c0-0.2-0.1-0.4-0.2-0.6C77.5,15,77.3,15,77,15c-0.2,0-0.4,0.1-0.6,0.2
			c-0.2,0.1-0.3,0.3-0.3,0.5h-0.7c0-0.2,0.1-0.4,0.2-0.6c0.2-0.2,0.4-0.4,0.6-0.5c0.3-0.1,0.5-0.2,0.8-0.2c0.4,0,0.8,0.1,1.1,0.4
			c0.3,0.3,0.4,0.6,0.4,1v1.9c0,0.3,0,0.6,0.1,0.9v0.1H78z M76.9,18c0.2,0,0.4-0.1,0.6-0.2c0.2-0.1,0.3-0.3,0.4-0.4v-0.8h-0.6
			c-0.9,0-1.3,0.2-1.3,0.8c0,0.2,0.1,0.4,0.2,0.5C76.5,18,76.7,18.1,76.9,18z"/>
		<path class="st0" d="M81.4,18.1c0.2,0,0.5-0.1,0.7-0.2c0.2-0.1,0.3-0.3,0.3-0.6H83c0,0.2-0.1,0.5-0.2,0.7
			c-0.3,0.4-0.8,0.7-1.4,0.7c-0.5,0-1-0.2-1.3-0.6c-0.4-0.4-0.5-1-0.5-1.5v-0.1c0-0.4,0.1-0.7,0.2-1.1c0.1-0.3,0.4-0.5,0.6-0.7
			c0.3-0.2,0.6-0.3,1-0.3c0.4,0,0.8,0.1,1.1,0.4c0.3,0.3,0.5,0.7,0.5,1.1h-0.7c0-0.2-0.1-0.5-0.3-0.7c-0.2-0.2-0.4-0.3-0.7-0.3
			c-0.3,0-0.6,0.1-0.8,0.4c-0.2,0.3-0.3,0.7-0.3,1.1v0.1c0,0.4,0.1,0.8,0.3,1.1C80.7,18,81,18.1,81.4,18.1z"/>
		<path class="st0" d="M83.8,13.4c0-0.1,0-0.2,0.1-0.3C84,13,84.1,13,84.2,13c0.1,0,0.2,0,0.3,0.1c0.1,0.1,0.1,0.2,0.1,0.3
			c0,0.1,0,0.2-0.1,0.3c-0.1,0.1-0.2,0.1-0.3,0.1c-0.1,0-0.2,0-0.3-0.1C83.8,13.6,83.8,13.5,83.8,13.4z M84.6,18.6h-0.7v-4.1h0.7
			V18.6z"/>
		<path class="st0" d="M85.5,16.5c0-0.4,0.1-0.7,0.2-1.1c0.1-0.3,0.4-0.6,0.7-0.7c0.3-0.2,0.6-0.3,1-0.3c0.5,0,1,0.2,1.4,0.6
			c0.4,0.4,0.6,1,0.5,1.5v0c0,0.4-0.1,0.7-0.2,1.1c-0.1,0.3-0.4,0.6-0.7,0.8c-0.3,0.2-0.6,0.3-1,0.3c-0.5,0-1-0.2-1.3-0.6
			C85.6,17.7,85.4,17.1,85.5,16.5L85.5,16.5z M86.2,16.6c0,0.4,0.1,0.8,0.3,1.1c0.4,0.5,1,0.6,1.5,0.2c0.1-0.1,0.1-0.1,0.2-0.2
			c0.2-0.3,0.3-0.8,0.3-1.2c0-0.4-0.1-0.8-0.3-1.1C88,15.1,87.7,15,87.3,15c-0.3,0-0.6,0.1-0.8,0.4C86.3,15.7,86.2,16.2,86.2,16.6z
			 M87.7,12.8h0.9l-1,1.1h-0.6L87.7,12.8z"/>
		<path class="st0" d="M96.2,16.8c0,0.5-0.3,1-0.7,1.3c-0.4,0.3-0.9,0.5-1.4,0.5c-0.6,0-1.2-0.2-1.5-0.7c-0.4-0.5-0.6-1.2-0.6-1.9
			v-0.5c0-0.5,0.1-0.9,0.3-1.3c0.2-0.4,0.4-0.7,0.8-0.9c0.4-0.2,0.8-0.3,1.2-0.3c0.5,0,1,0.1,1.4,0.5c0.4,0.4,0.6,0.8,0.6,1.4h-0.8
			c0-0.4-0.2-0.7-0.4-1c-0.2-0.2-0.6-0.3-0.9-0.3c-0.4,0-0.8,0.2-1.1,0.5c-0.3,0.4-0.4,1-0.4,1.5v0.6c0,0.5,0.1,1,0.4,1.4
			c0.2,0.3,0.6,0.6,1.1,0.5c0.3,0,0.7-0.1,0.9-0.3c0.3-0.3,0.4-0.6,0.4-1L96.2,16.8z"/>
		<path class="st0" d="M99.6,18.6c-0.1-0.1-0.1-0.3-0.1-0.4c-0.3,0.3-0.7,0.5-1.2,0.5c-0.4,0-0.7-0.1-1-0.3
			c-0.3-0.2-0.4-0.5-0.4-0.9c0-0.4,0.2-0.8,0.5-1c0.4-0.3,0.9-0.4,1.4-0.4h0.7v-0.3c0-0.2-0.1-0.4-0.2-0.6C99.1,15,98.9,15,98.6,15
			c-0.2,0-0.4,0.1-0.6,0.2c-0.2,0.1-0.3,0.3-0.3,0.5H97c0-0.2,0.1-0.4,0.2-0.6c0.2-0.2,0.4-0.4,0.6-0.5c0.3-0.1,0.5-0.2,0.8-0.2
			c0.4,0,0.8,0.1,1.1,0.4c0.3,0.3,0.4,0.6,0.4,1v1.9c0,0.3,0,0.6,0.1,0.9v0.1H99.6z M98.4,18c0.2,0,0.4-0.1,0.6-0.2
			c0.2-0.1,0.3-0.3,0.4-0.4v-0.8h-0.6c-0.9,0-1.3,0.2-1.3,0.8c0,0.2,0.1,0.4,0.2,0.5C98,18,98.2,18.1,98.4,18z"/>
		<path class="st0" d="M102.2,13.5v1h0.8V15h-0.8v2.5c0,0.1,0,0.3,0.1,0.4c0.1,0.1,0.2,0.1,0.3,0.1c0.1,0,0.2,0,0.3,0v0.6
			c-0.2,0-0.4,0.1-0.5,0.1c-0.3,0-0.5-0.1-0.7-0.3c-0.2-0.2-0.3-0.5-0.2-0.8V15h-0.8v-0.5h0.8v-1H102.2z"/>
		<path class="st0" d="M106.3,18.6c-0.1-0.1-0.1-0.3-0.1-0.4c-0.3,0.3-0.7,0.5-1.2,0.5c-0.4,0-0.7-0.1-1-0.3
			c-0.3-0.2-0.4-0.5-0.4-0.9c0-0.4,0.2-0.8,0.5-1c0.4-0.3,0.9-0.4,1.4-0.4h0.7v-0.3c0-0.2-0.1-0.4-0.2-0.6c-0.2-0.2-0.4-0.2-0.7-0.2
			c-0.2,0-0.4,0.1-0.6,0.2c-0.2,0.1-0.3,0.3-0.3,0.5h-0.7c0-0.2,0.1-0.4,0.2-0.6c0.2-0.2,0.4-0.4,0.6-0.5c0.3-0.1,0.5-0.2,0.8-0.2
			c0.4,0,0.8,0.1,1.1,0.4c0.3,0.2,0.4,0.6,0.4,1v1.9c0,0.3,0,0.6,0.1,0.9v0.1H106.3z M105.2,18c0.2,0,0.4-0.1,0.6-0.2
			c0.2-0.1,0.3-0.3,0.4-0.4v-0.8h-0.5c-0.9,0-1.3,0.2-1.3,0.8c0,0.2,0.1,0.4,0.2,0.5C104.8,18,105,18.1,105.2,18z"/>
		<rect x="108.1" y="12.8" class="st0" width="0.7" height="5.8"/>
		<path class="st0" d="M112.4,18.6c-0.1-0.1-0.1-0.3-0.1-0.4c-0.3,0.3-0.7,0.5-1.2,0.5c-0.4,0-0.7-0.1-1-0.3
			c-0.3-0.2-0.4-0.5-0.4-0.9c0-0.4,0.2-0.8,0.5-1c0.4-0.3,0.9-0.4,1.4-0.3h0.7v-0.3c0-0.2-0.1-0.4-0.2-0.6c-0.2-0.2-0.4-0.2-0.6-0.2
			c-0.2,0-0.4,0.1-0.6,0.2c-0.2,0.1-0.2,0.3-0.2,0.5h-0.7c0-0.2,0.1-0.4,0.2-0.6c0.2-0.2,0.4-0.4,0.6-0.5c0.3-0.1,0.5-0.2,0.8-0.2
			c0.4,0,0.8,0.1,1.1,0.4c0.3,0.2,0.4,0.6,0.4,1v1.9c0,0.3,0,0.6,0.1,0.9v0.1L112.4,18.6z M111.3,18c0.2,0,0.4-0.1,0.6-0.2
			c0.2-0.1,0.3-0.3,0.4-0.4v-0.8h-0.5c-0.9,0-1.3,0.2-1.3,0.8c0,0.2,0.1,0.4,0.2,0.5C110.9,18,111.1,18.1,111.3,18L111.3,18z"/>
		<path class="st0" d="M114.8,14.5V15c0.3-0.4,0.7-0.6,1.2-0.6c0.9,0,1.3,0.5,1.3,1.5v2.7h-0.7v-2.7c0-0.2-0.1-0.5-0.2-0.7
			c-0.2-0.2-0.4-0.2-0.6-0.2c-0.2,0-0.4,0.1-0.6,0.2c-0.2,0.1-0.3,0.3-0.4,0.5v2.9h-0.7v-4.1H114.8z"/>
		<path class="st0" d="M121,18.6c-0.1-0.1-0.1-0.3-0.1-0.4c-0.3,0.3-0.7,0.5-1.2,0.5c-0.4,0-0.7-0.1-1-0.3c-0.3-0.2-0.4-0.5-0.4-0.9
			c0-0.4,0.2-0.8,0.5-1c0.4-0.3,0.9-0.4,1.4-0.3h0.7v-0.3c0-0.2-0.1-0.4-0.2-0.6c-0.2-0.2-0.4-0.2-0.7-0.2c-0.2,0-0.4,0.1-0.6,0.2
			c-0.2,0.1-0.3,0.3-0.3,0.5h-0.7c0-0.2,0.1-0.4,0.2-0.6c0.2-0.2,0.4-0.4,0.6-0.5c0.3-0.1,0.5-0.2,0.8-0.2c0.4,0,0.8,0.1,1.1,0.4
			c0.3,0.2,0.4,0.6,0.4,1v1.9c0,0.3,0,0.6,0.1,0.9v0.1L121,18.6z M119.8,18c0.2,0,0.4-0.1,0.6-0.2c0.2-0.1,0.3-0.3,0.4-0.4v-0.8
			h-0.6c-0.9,0-1.3,0.2-1.3,0.8c0,0.2,0.1,0.4,0.2,0.5C119.4,18,119.6,18.1,119.8,18L119.8,18z"/>
		<path class="st0" d="M128,16.6c0,0.5-0.1,1.1-0.4,1.5c-0.3,0.4-0.7,0.6-1.2,0.6c-0.4,0-0.9-0.2-1.2-0.5v2h-0.7v-5.7h0.6v0.4
			c0.3-0.4,0.7-0.5,1.2-0.5c0.5,0,0.9,0.2,1.2,0.6C127.9,15.4,128,16,128,16.6L128,16.6z M127.3,16.5c0-0.4-0.1-0.8-0.3-1.1
			c-0.2-0.2-0.5-0.4-0.8-0.4c-0.4,0-0.8,0.2-1,0.6v2c0.2,0.4,0.6,0.6,1,0.6c0.3,0,0.6-0.1,0.8-0.4C127.3,17.3,127.4,16.9,127.3,16.5
			z"/>
		<path class="st0" d="M130.6,18.7c-0.5,0-1-0.2-1.4-0.5c-0.4-0.4-0.6-0.9-0.5-1.5v-0.1c0-0.4,0.1-0.7,0.2-1.1
			c0.1-0.3,0.4-0.6,0.7-0.8c0.3-0.2,0.6-0.3,0.9-0.3c0.5,0,0.9,0.2,1.2,0.5c0.3,0.4,0.5,1,0.4,1.5v0.3h-2.7c0,0.4,0.1,0.7,0.3,1
			c0.2,0.2,0.5,0.4,0.9,0.4c0.2,0,0.4,0,0.6-0.2c0.2-0.1,0.3-0.2,0.4-0.4l0.4,0.3C131.9,18.4,131.3,18.7,130.6,18.7z M130.5,15
			c-0.3,0-0.5,0.1-0.7,0.3c-0.2,0.2-0.3,0.5-0.3,0.8h2.1l0,0c0-0.3-0.1-0.6-0.3-0.8C131.1,15.1,130.8,15,130.5,15z"/>
		<path class="st0" d="M135,15.1c-0.1,0-0.2,0-0.3,0c-0.4,0-0.8,0.2-0.9,0.6v2.9H133v-4.1h0.7V15c0.2-0.4,0.6-0.6,1-0.5
			c0.1,0,0.2,0,0.3,0.1L135,15.1z"/>
		<path class="st0" d="M140.1,18.6c-0.1-0.1-0.1-0.3-0.1-0.4c-0.3,0.3-0.7,0.5-1.2,0.5c-0.4,0-0.7-0.1-1-0.3
			c-0.3-0.2-0.4-0.5-0.4-0.9c0-0.4,0.2-0.8,0.5-1c0.4-0.3,0.9-0.4,1.4-0.4h0.7v-0.3c0-0.2-0.1-0.4-0.2-0.6c-0.2-0.2-0.4-0.2-0.6-0.2
			c-0.2,0-0.4,0.1-0.6,0.2c-0.2,0.1-0.2,0.3-0.2,0.5h-0.7c0-0.2,0.1-0.4,0.2-0.6c0.2-0.2,0.4-0.4,0.6-0.5c0.3-0.1,0.5-0.2,0.8-0.2
			c0.4,0,0.8,0.1,1.1,0.4c0.3,0.2,0.4,0.6,0.4,1v1.9c0,0.3,0,0.6,0.1,0.9v0.1H140.1z M139,18c0.2,0,0.4-0.1,0.6-0.2
			c0.2-0.1,0.3-0.3,0.4-0.4v-0.8h-0.6c-0.9,0-1.3,0.2-1.3,0.8c0,0.2,0.1,0.4,0.2,0.5C138.5,18,138.7,18.1,139,18z"/>
		<rect x="58.6" y="22.1" class="st0" width="0.7" height="5.8"/>
		<path class="st0" d="M63,27.9c-0.1-0.1-0.1-0.3-0.1-0.4c-0.3,0.3-0.7,0.5-1.2,0.5c-0.4,0-0.7-0.1-1-0.3c-0.3-0.2-0.4-0.5-0.4-0.9
			c0-0.4,0.2-0.8,0.5-1c0.4-0.3,0.9-0.4,1.4-0.4h0.7v-0.3c0-0.2-0.1-0.4-0.2-0.6c-0.2-0.2-0.4-0.2-0.6-0.2c-0.2,0-0.4,0.1-0.6,0.2
			c-0.2,0.1-0.3,0.3-0.3,0.5h-0.7c0-0.2,0.1-0.4,0.2-0.6c0.2-0.2,0.4-0.4,0.6-0.4c0.3-0.1,0.5-0.2,0.8-0.2c0.4,0,0.8,0.1,1.1,0.4
			c0.3,0.2,0.4,0.6,0.4,1V27c0,0.3,0,0.6,0.1,0.9v0.1L63,27.9z M61.8,27.4c0.2,0,0.4-0.1,0.6-0.2c0.2-0.1,0.3-0.3,0.4-0.4v-0.8h-0.6
			c-0.9,0-1.3,0.3-1.3,0.8c0,0.2,0.1,0.4,0.2,0.5C61.4,27.3,61.6,27.4,61.8,27.4z"/>
		<path class="st0" d="M68.7,25.7h-1.3v2.2h-0.7v-5.5h1.8c0.5,0,1,0.1,1.4,0.4c0.3,0.3,0.5,0.8,0.5,1.2c0,0.3-0.1,0.6-0.3,0.9
			c-0.2,0.3-0.5,0.5-0.8,0.6l1.3,2.3v0h-0.8L68.7,25.7z M67.4,25.1h1.1c0.3,0,0.6-0.1,0.9-0.3c0.2-0.2,0.3-0.5,0.3-0.8
			c0-0.3-0.1-0.6-0.3-0.8c-0.2-0.2-0.6-0.3-0.9-0.3h-1.1V25.1z"/>
		<path class="st0" d="M73.1,28c-0.5,0-1-0.2-1.4-0.6c-0.4-0.4-0.6-0.9-0.5-1.5v-0.1c0-0.4,0.1-0.8,0.2-1.1c0.1-0.3,0.4-0.6,0.7-0.8
			c0.3-0.2,0.6-0.3,0.9-0.3c0.5,0,0.9,0.2,1.2,0.5c0.3,0.4,0.5,1,0.4,1.5v0.3h-2.8c0,0.4,0.1,0.7,0.3,1c0.2,0.2,0.5,0.4,0.9,0.4
			c0.2,0,0.4,0,0.6-0.1c0.2-0.1,0.3-0.2,0.4-0.4l0.4,0.3C74.3,27.7,73.7,28,73.1,28z M73,24.3c-0.3,0-0.5,0.1-0.7,0.3
			c-0.2,0.2-0.3,0.5-0.4,0.9H74v0c0-0.3-0.1-0.6-0.3-0.8C73.5,24.4,73.2,24.3,73,24.3z"/>
		<path class="st0" d="M77.1,27.4c0.2,0,0.5-0.1,0.7-0.2c0.2-0.1,0.3-0.3,0.3-0.6h0.7c0,0.2-0.1,0.5-0.2,0.7
			c-0.2,0.2-0.4,0.4-0.6,0.5c-0.2,0.1-0.5,0.2-0.8,0.2c-0.5,0-1-0.2-1.3-0.6c-0.4-0.4-0.5-1-0.5-1.5v-0.1c0-0.4,0.1-0.7,0.2-1.1
			c0.1-0.3,0.4-0.5,0.6-0.7c0.3-0.2,0.6-0.3,1-0.3c0.4,0,0.8,0.1,1.1,0.4c0.3,0.3,0.5,0.7,0.5,1.1h-0.7c0-0.2-0.1-0.5-0.3-0.7
			c-0.2-0.2-0.4-0.3-0.7-0.3c-0.3,0-0.6,0.1-0.8,0.4C76.1,25,76,25.4,76,25.8v0.1c0,0.4,0.1,0.8,0.3,1.1
			C76.5,27.3,76.8,27.4,77.1,27.4z"/>
		<path class="st0" d="M81.2,28c-0.5,0-1-0.2-1.4-0.6c-0.4-0.4-0.6-0.9-0.5-1.5v-0.1c0-0.4,0.1-0.8,0.2-1.1c0.1-0.3,0.4-0.6,0.7-0.8
			c0.3-0.2,0.6-0.3,0.9-0.3c0.5,0,0.9,0.2,1.2,0.5c0.3,0.4,0.5,1,0.4,1.5v0.3h-2.8c0,0.4,0.1,0.7,0.4,1c0.2,0.2,0.5,0.4,0.9,0.4
			c0.2,0,0.4,0,0.6-0.1c0.2-0.1,0.3-0.2,0.4-0.4l0.4,0.3C82.4,27.7,81.9,28,81.2,28z M81.2,24.3c-0.3,0-0.5,0.1-0.7,0.3
			c-0.2,0.2-0.3,0.5-0.4,0.9h2.1v0c0-0.3-0.1-0.6-0.3-0.8C81.7,24.4,81.4,24.3,81.2,24.3z"/>
		<path class="st0" d="M85.6,24.4c-0.1,0-0.2,0-0.3,0c-0.4,0-0.8,0.2-0.9,0.6v2.9h-0.7v-4.1h0.7v0.5c0.2-0.4,0.6-0.6,1-0.6
			c0.1,0,0.2,0,0.3,0.1L85.6,24.4z"/>
		<path class="st0" d="M87.8,27.4c0.2,0,0.5-0.1,0.7-0.2c0.2-0.1,0.3-0.3,0.3-0.6h0.7c0,0.2-0.1,0.5-0.2,0.7
			c-0.2,0.2-0.4,0.4-0.6,0.5c-0.2,0.1-0.5,0.2-0.8,0.2c-0.5,0-1-0.2-1.3-0.6c-0.4-0.4-0.5-1-0.5-1.5v-0.1c0-0.4,0.1-0.7,0.2-1.1
			c0.1-0.3,0.4-0.5,0.6-0.7c0.3-0.2,0.6-0.3,1-0.3c0.4,0,0.8,0.1,1.1,0.4c0.3,0.3,0.5,0.7,0.5,1.1h-0.7c0-0.2-0.1-0.5-0.3-0.7
			c-0.2-0.2-0.4-0.3-0.7-0.3c-0.3,0-0.6,0.1-0.8,0.4c-0.2,0.3-0.3,0.7-0.3,1.1v0.1c0,0.4,0.1,0.8,0.3,1.1
			C87.2,27.3,87.5,27.4,87.8,27.4z"/>
		<path class="st0" d="M92.8,27.9c-0.1-0.1-0.1-0.3-0.1-0.4C92.4,27.8,92,28,91.5,28c-0.4,0-0.7-0.1-1-0.3c-0.3-0.2-0.4-0.5-0.4-0.9
			c0-0.4,0.2-0.8,0.5-1c0.4-0.3,0.9-0.4,1.4-0.4h0.7v-0.3c0-0.2-0.1-0.4-0.2-0.6c-0.2-0.2-0.4-0.2-0.7-0.2c-0.2,0-0.4,0.1-0.6,0.2
			c-0.2,0.1-0.3,0.3-0.3,0.5h-0.7c0-0.2,0.1-0.4,0.2-0.6c0.2-0.2,0.4-0.4,0.6-0.4c0.3-0.1,0.5-0.2,0.8-0.2c0.4,0,0.8,0.1,1.1,0.4
			c0.3,0.3,0.4,0.6,0.4,1V27c0,0.3,0,0.6,0.1,0.9v0.1L92.8,27.9z M91.6,27.4c0.2,0,0.4-0.1,0.6-0.2c0.2-0.1,0.3-0.3,0.4-0.4v-0.8
			h-0.5c-0.9,0-1.3,0.3-1.3,0.8c0,0.2,0.1,0.4,0.2,0.5C91.2,27.3,91.4,27.4,91.6,27.4z"/>
		<path class="st0" d="M96.4,22.7c0-0.1,0-0.2,0.1-0.3c0.1-0.1,0.2-0.1,0.3-0.1c0.1,0,0.2,0,0.3,0.1c0.1,0.1,0.1,0.2,0.1,0.3
			c0,0.1,0,0.2-0.1,0.3c-0.1,0.1-0.2,0.1-0.3,0.1C96.6,23.1,96.4,23,96.4,22.7C96.4,22.8,96.4,22.7,96.4,22.7z M97.2,27.9h-0.7v-4.1
			h0.7V27.9z"/>
		<rect x="100.3" y="22.1" class="st0" width="0.7" height="5.8"/>
		<path class="st0" d="M104.6,27.9c-0.1-0.1-0.1-0.3-0.1-0.4c-0.3,0.3-0.7,0.5-1.2,0.5c-0.4,0-0.7-0.1-1-0.3
			c-0.3-0.2-0.4-0.5-0.4-0.9c0-0.4,0.2-0.8,0.5-1c0.4-0.3,0.9-0.4,1.4-0.4h0.7v-0.3c0-0.2-0.1-0.4-0.2-0.6c-0.2-0.2-0.4-0.2-0.7-0.2
			c-0.2,0-0.4,0.1-0.6,0.2c-0.2,0.1-0.3,0.3-0.3,0.5h-0.7c0-0.2,0.1-0.4,0.2-0.6c0.2-0.2,0.4-0.4,0.6-0.4c0.3-0.1,0.5-0.2,0.8-0.2
			c0.4,0,0.8,0.1,1.1,0.4c0.3,0.2,0.4,0.6,0.4,1V27c0,0.3,0,0.6,0.1,0.9v0.1L104.6,27.9z M103.5,27.4c0.2,0,0.4-0.1,0.6-0.2
			c0.2-0.1,0.3-0.3,0.4-0.4v-0.8H104c-0.9,0-1.3,0.3-1.3,0.8c0,0.2,0.1,0.4,0.2,0.5C103.1,27.3,103.3,27.4,103.5,27.4z"/>
		<rect x="108.4" y="22.4" class="st0" width="0.7" height="5.5"/>
		<path class="st0" d="M111,23.8v0.5c0.3-0.4,0.7-0.6,1.2-0.6c0.9,0,1.3,0.5,1.3,1.5v2.7h-0.7v-2.7c0-0.2-0.1-0.5-0.2-0.7
			c-0.2-0.2-0.4-0.2-0.6-0.2c-0.2,0-0.4,0.1-0.6,0.2c-0.2,0.1-0.3,0.3-0.4,0.5v2.9h-0.7v-4.1H111z"/>
		<path class="st0" d="M115.3,23.8v0.5c0.3-0.4,0.7-0.6,1.2-0.6c0.9,0,1.3,0.5,1.3,1.5v2.7h-0.7v-2.7c0-0.2-0.1-0.5-0.2-0.7
			c-0.2-0.2-0.4-0.2-0.6-0.2c-0.2,0-0.4,0.1-0.6,0.2c-0.2,0.1-0.3,0.3-0.4,0.5v2.9h-0.7v-4.1H115.3z"/>
		<path class="st0" d="M118.7,25.8c0-0.4,0.1-0.7,0.2-1.1c0.1-0.3,0.4-0.6,0.7-0.8c0.3-0.2,0.6-0.3,1-0.3c0.5,0,1,0.2,1.4,0.6
			c0.4,0.4,0.6,1,0.5,1.5v0c0,0.4-0.1,0.7-0.2,1.1c-0.1,0.3-0.4,0.6-0.7,0.8c-0.3,0.2-0.6,0.3-1,0.3c-0.5,0-1-0.2-1.3-0.6
			C118.9,27,118.7,26.4,118.7,25.8L118.7,25.8z M119.4,25.9c0,0.4,0.1,0.8,0.3,1.1c0.4,0.5,1,0.6,1.5,0.2c0.1-0.1,0.1-0.1,0.2-0.2
			c0.2-0.3,0.3-0.8,0.3-1.2c0-0.4-0.1-0.8-0.3-1.1c-0.3-0.5-1-0.6-1.5-0.2c-0.1,0.1-0.2,0.1-0.2,0.2
			C119.5,25.1,119.4,25.5,119.4,25.9L119.4,25.9z"/>
		<polygon class="st0" points="124.6,27 125.7,23.8 126.4,23.8 124.9,27.9 124.4,27.9 122.9,23.8 123.6,23.8 		"/>
		<path class="st0" d="M129.5,27.9c-0.1-0.1-0.1-0.3-0.1-0.4c-0.3,0.3-0.7,0.5-1.2,0.5c-0.4,0-0.7-0.1-1-0.3
			c-0.3-0.2-0.4-0.5-0.4-0.9c0-0.4,0.2-0.8,0.5-1c0.4-0.2,0.9-0.4,1.3-0.3h0.7v-0.3c0-0.2-0.1-0.4-0.2-0.6c-0.2-0.2-0.4-0.2-0.6-0.2
			c-0.2,0-0.4,0.1-0.6,0.2c-0.2,0.1-0.2,0.3-0.2,0.5h-0.7c0-0.2,0.1-0.4,0.2-0.6c0.2-0.2,0.4-0.4,0.6-0.4c0.3-0.1,0.5-0.2,0.8-0.2
			c0.4,0,0.8,0.1,1.1,0.4c0.3,0.2,0.4,0.6,0.4,1V27c0,0.3,0,0.6,0.1,0.9v0.1L129.5,27.9z M128.4,27.4c0.2,0,0.4-0.1,0.6-0.2
			c0.2-0.1,0.3-0.3,0.4-0.4v-0.8h-0.5c-0.9,0-1.3,0.3-1.3,0.8c0,0.2,0.1,0.4,0.2,0.5C128,27.3,128.2,27.4,128.4,27.4z"/>
		<path class="st0" d="M132.9,27.4c0.2,0,0.5-0.1,0.7-0.2c0.2-0.1,0.3-0.3,0.3-0.6h0.7c0,0.2-0.1,0.5-0.2,0.7
			c-0.2,0.2-0.4,0.4-0.6,0.5c-0.2,0.1-0.5,0.2-0.8,0.2c-0.5,0-1-0.2-1.3-0.6c-0.4-0.4-0.5-1-0.5-1.5v-0.1c0-0.4,0.1-0.7,0.2-1.1
			c0.1-0.3,0.4-0.5,0.6-0.7c0.3-0.2,0.6-0.3,1-0.3c0.4,0,0.8,0.1,1.1,0.4c0.3,0.3,0.5,0.7,0.5,1.1h-0.7c0-0.2-0.1-0.5-0.3-0.7
			c-0.2-0.2-0.4-0.3-0.7-0.3c-0.3,0-0.6,0.1-0.8,0.4c-0.2,0.3-0.3,0.7-0.3,1.1v0.1c0,0.4,0.1,0.8,0.3,1.1
			C132.2,27.3,132.5,27.4,132.9,27.4z"/>
		<path class="st0" d="M135.3,22.7c0-0.1,0-0.2,0.1-0.3c0.1-0.1,0.2-0.1,0.3-0.1c0.2,0,0.4,0.1,0.4,0.3c0,0,0,0,0,0.1
			c0,0.1,0,0.2-0.1,0.3c-0.1,0.1-0.2,0.1-0.3,0.1c-0.1,0-0.2,0-0.3-0.1C135.3,22.9,135.3,22.8,135.3,22.7z M136.1,27.9h-0.7v-4.1
			h0.7V27.9z"/>
		<path class="st0" d="M137,25.8c0-0.4,0.1-0.7,0.2-1.1c0.5-0.9,1.6-1.3,2.5-0.8c0.2,0.1,0.4,0.2,0.5,0.4c0.4,0.4,0.5,1,0.5,1.5v0
			c0,0.4-0.1,0.7-0.2,1.1c-0.3,0.6-0.9,1-1.6,1c-0.5,0-1-0.2-1.3-0.6C137.1,27,136.9,26.4,137,25.8L137,25.8z M137.7,25.9
			c0,0.4,0.1,0.8,0.3,1.1c0.4,0.5,1,0.6,1.5,0.2c0.1-0.1,0.1-0.1,0.2-0.2c0.2-0.3,0.3-0.8,0.3-1.2c0-0.4-0.1-0.8-0.3-1.1
			c-0.2-0.3-0.5-0.4-0.9-0.4c-0.3,0-0.6,0.1-0.8,0.4C137.8,25,137.7,25.5,137.7,25.9z M139.2,22.1h0.9l-1,1.1h-0.6L139.2,22.1z"/>
	</g>
	<g>
		<path class="st1" d="M3.3,26.4v-14H2c-0.9,0-1.6-0.7-1.6-1.6v-0.7c0-0.9,0.7-1.6,1.6-1.6c0,0,0,0,0,0h1.3V6.9C3.3,4.7,4,3,5.2,1.8
			C6.5,0.6,8.2,0,10.4,0c0.4,0,0.8,0,1.3,0.1c0.8,0.1,1.4,0.8,1.4,1.6v1c0,0.9-0.7,1.5-1.6,1.5l0,0C9.5,4.2,8.6,5.1,8.6,7v1.6h2.3
			c0.9,0,1.6,0.7,1.6,1.6c0,0,0,0,0,0v0.7c0,0.9-0.7,1.6-1.6,1.6H8.6v14c0,0.9-0.7,1.6-1.6,1.6H4.9C4,27.9,3.3,27.2,3.3,26.4
			C3.3,26.4,3.3,26.4,3.3,26.4z"/>
		<path class="st1" d="M22.7,24.1c0.8,0,1.7-0.2,2.3-0.8c0.3-0.3,0.6-0.7,0.7-1.1c0.3-0.6,0.9-1,1.6-1h1.4c1,0,1.7,0.8,1.7,1.7
			c0,0.2,0,0.4-0.1,0.6c-0.2,0.5-0.4,0.9-0.7,1.3c-0.7,1.1-1.7,2-2.9,2.5c-1.3,0.6-2.7,0.9-4.1,0.9c-2.8,0-5-0.9-6.6-2.6
			c-1.6-1.8-2.4-4.2-2.4-7.3V18c0-3,0.8-5.4,2.4-7.2c1.6-1.8,3.8-2.7,6.5-2.7c2.4,0,4.4,0.7,5.8,2.1c1,0.9,1.7,2.1,2,3.4
			c0.2,0.9-0.4,1.8-1.3,2c-0.1,0-0.3,0-0.4,0h-1.6c-0.7,0-1.3-0.5-1.5-1.2c-0.1-0.5-0.4-0.9-0.7-1.3c-1.4-1.3-3.6-1.3-4.9,0.1
			c-0.1,0.1-0.1,0.2-0.2,0.2C19.3,14.5,19,16,19,17.9v0.5c0,2,0.3,3.4,0.9,4.3C20.6,23.7,21.6,24.2,22.7,24.1z"/>
		<path class="st1" d="M44.7,11.6c0,0.9-0.8,1.6-1.7,1.6c0,0,0,0,0,0h-0.2c-2,0-3.2,0.7-3.9,2v10.8c0,1-0.8,1.9-1.9,1.9h-1.4
			c-1,0-1.9-0.8-1.9-1.9V10.4c0-1.1,0.9-1.9,1.9-1.9h1.2c1,0,1.8,0.8,1.9,1.8l0,0.5c1-1.8,2.5-2.7,4.3-2.7l0,0
			c0.9,0,1.6,0.7,1.6,1.6c0,0,0,0,0,0L44.7,11.6z"/>
		<path class="st1" d="M49.9,8.5h0.4c1.3,0,2.4,1.1,2.4,2.4v14.6c0,1.3-1.1,2.4-2.4,2.4h-0.4c-1.3,0-2.4-1.1-2.4-2.4V10.9
			C47.5,9.6,48.5,8.5,49.9,8.5z"/>
		<path class="st1" d="M47.2,3.7c0-0.7,0.3-1.4,0.8-1.9c1.2-1,2.9-1,4.1,0c1,1,1,2.7,0,3.8c0,0,0,0,0,0c-1.2,1-2.9,1-4.1,0
			C47.5,5.1,47.2,4.4,47.2,3.7z"/>
	</g>
</g>
<g id="Layer_1">
</g>
</svg>
