<?xml version="1.0" encoding="utf-8"?>
<!-- Generator: Adobe Illustrator 26.2.1, SVG Export Plug-In . SVG Version: 6.00 Build 0)  -->
<svg version="1.1" id="Capa_1" xmlns="http://www.w3.org/2000/svg" xmlns:xlink="http://www.w3.org/1999/xlink" x="0px" y="0px"
	 viewBox="0 0 250 55" style="enable-background:new 0 0 250 55;" xml:space="preserve">
<style type="text/css">
	.st0{fill:#E7EBEE;}
	.st1{fill:#DCB929;}
	.st2{fill:#616161;}
</style>
<g>
	<circle class="st0" cx="116.9" cy="16.8" r="16.9"/>
	<g>
		<path class="st1" d="M111.6,31.4c0,0.1-0.1,0.2-0.1,0.2l0.3,0.1v-0.1L111.6,31.4z"/>
		<polygon class="st1" points="111.9,31.7 112.1,31.6 112,31.6 		"/>
		<path class="st1" d="M106.8,17.2l0.1,0.2l0.2-0.2h0.3l0.2-0.1c0-0.1-0.1-0.1-0.1-0.2c-0.3-0.1-0.6-0.2-0.9-0.2l0.1,0.3
			c-0.1,0-0.2,0-0.3,0C106.4,17,106.4,17.2,106.8,17.2z"/>
		<polygon class="st1" points="105.7,16.9 105.5,16.9 105.7,17.3 106,17.2 105.9,17 		"/>
		<polygon class="st1" points="107.8,17.3 108,17.4 108.2,17.2 107.8,17.1 		"/>
		<path class="st1" d="M131.1,23.7L131.1,23.7L131.1,23.7L131.1,23.7C131,23.8,131,23.8,131.1,23.7L131.1,23.7L131.1,23.7
			L131.1,23.7c-0.2,0.1-0.2,0.2-0.2,0.2c0,0.1-0.1,0.1-0.1,0.1s-0.1,0-0.1,0.1l0,0c-0.1,0-0.1,0-0.1,0.1c0,0,0,0,0-0.1
			c0,0,0,0.1-0.1,0.2l0,0l0,0l0,0l0,0c0,0,0,0-0.1,0.1v0.1c0,0,0,0,0-0.1l0,0l0,0l-0.1,0.1c0,0,0,0,0,0.1l0,0c0,0,0,0,0-0.1l0,0
			c-0.1,0.1-0.1,0.1-0.1,0.1l0,0l0,0l0,0l0,0l0,0l0,0l0,0l0,0l0,0l0,0l0,0l0,0l0,0c0,0,0,0-0.1,0.1l0,0l0,0l0,0c0,0,0,0-0.1,0.1
			c-0.1,0-0.1,0-0.1,0c-0.1,0.1-0.1,0.2-0.1,0.2c-0.1,0.1-0.1,0.1-0.1,0.2s0,0.1,0,0.1c0,0.1,0,0.1-0.1,0.2l0,0l0,0l0,0
			c0,0,0,0-0.2,0.2c-0.1,0.1-0.1,0.1-0.1,0.1l0,0l0,0c-0.2,0.2-0.2,0.2-0.2,0.2l0,0c0,0,0,0-0.1,0.4l0,0l0,0l0,0l0,0
			c0,0,0,0.1,0.1,0.1l0,0h0.1c0,0,0,0,0.1-0.1c0,0,0,0,0.1,0l0,0c0.1,0,0.1-0.1,0.2-0.1l0,0l0.2-0.2c0,0,0,0,0-0.1l0.6-0.8
			c0-0.1,0-0.1,0.1-0.1c0.2-0.3,0.2-0.3,0.2-0.3s0,0,0.1-0.2c0.1-0.1,0.1-0.2,0.1-0.3l0,0l0,0l0,0v0.1l0,0l0,0c0,0,0.1-0.1,0.1-0.2
			C131,24.2,131.1,23.9,131.1,23.7C131.1,23.8,131.1,23.8,131.1,23.7C131.1,23.6,131.1,23.7,131.1,23.7L131.1,23.7
			C131.1,23.8,131.1,23.8,131.1,23.7L131.1,23.7L131.1,23.7z"/>
		<g>
			<path class="st1" d="M119.2,1.2c0,0,0.5,0.1,0.5,0c0,0-0.2-0.2-0.4-0.2C119.2,1,119.2,1,119.2,1.2C119.1,1.2,119.1,1.2,119.2,1.2
				z"/>
			<polygon class="st1" points="108.8,5.3 108.6,5.2 108.7,5.1 108.5,4.9 108.6,4.8 108.4,4.8 108.3,5.1 108,5.3 108,5.4 108.1,5.4 
				108.1,5.5 108.3,5.5 108.4,5.2 108.5,5.4 108.7,5.4 			"/>
			<path class="st1" d="M108.1,5.7v0.2l0.3-0.1c0-0.1,0.1-0.1,0.1-0.2h-0.2L108.1,5.7z"/>
			<polygon class="st1" points="108.6,5.9 108.5,5.7 108.4,5.9 108.4,6 			"/>
			<path class="st1" d="M111.2,10.1l0.1,0.2l0.3-0.2V9.9l-0.2-0.2c0-0.1,0-0.1,0-0.1c-0.1,0-0.2-0.1-0.3-0.1c0-0.3,0.1-0.4,0.1-0.5
				l-0.5,0.3l-0.3,0.3l-0.3,0.2V10h0.7c0,0.1,0,0.1,0,0.2L111.2,10.1z"/>
			<path class="st1" d="M106.4,16.5c-0.2-0.1-0.4-0.3-0.6-0.5c-0.1-0.1-0.2-0.1-0.6-0.3c-0.6,0-0.6,0-0.7,0.3l0.4-0.1l0.2,0.2h0.3
				l0.2,0.3c0.1,0,0.2,0,0.2,0c0,0.1,0,0.2,0,0.2c0.2,0,0.3,0,0.4,0.1C106.3,16.7,106.3,16.6,106.4,16.5z"/>
			<polygon class="st1" points="106,15.5 105.8,15.3 105.7,15.5 105.9,15.7 			"/>
			<path class="st1" d="M108.6,2.6c0.1-0.1,0.2-0.1,0.3-0.2c0,0,0,0,0-0.1h-0.1l-0.1,0.1l0,0C108.6,2.6,108.6,2.6,108.6,2.6
				L108.6,2.6z"/>
			<path class="st1" d="M108.7,3.1L108.7,3.1c0.1,0,0.1,0,0.4-0.3l0,0l0,0V2.7H109c0,0,0.1-0.1,0.2-0.1s0.2-0.1,0.2-0.1s0,0,0-0.1
				c0,0,0,0-0.1,0s-0.1,0-0.1,0l-0.3,0.1l0,0c0.1,0,0,0.1-0.1,0.1s-0.1,0-0.1,0V2.5c-0.1,0-0.2,0.1-0.3,0.2c0.1,0,0.1,0,0.1,0.1
				L108.4,3C108.6,3.1,108.6,3,108.7,3.1C108.7,3,108.7,3.1,108.7,3.1z"/>
			<path class="st1" d="M108.1,3.9c0.2,0,0.2,0,0.3-0.1l0.1-0.1l-0.1-0.1c0-0.1,0-0.1,0-0.1l0,0l-0.2,0.1c0,0,0,0-0.1,0l0,0
				C108,3.8,108,3.8,108.1,3.9C108,3.8,108,3.8,108.1,3.9C108,3.8,108.1,3.9,108.1,3.9z"/>
			<path class="st1" d="M109.1,3c0.1,0,0.1,0,0.2,0s0.1-0.1,0.1-0.1l0,0h0.1c0,0,0,0,0.1,0s0.1-0.1,0.4-0.3c-0.1,0-0.2-0.1-0.3-0.1
				C109.5,2.5,109.5,2.5,109.1,3z"/>
			<path class="st1" d="M111.7,4.9C111.7,4.8,111.7,4.8,111.7,4.9c-0.2-0.3-0.2-0.3-0.3-0.3c-0.1,0-0.2-0.1-0.2-0.2
				c0-0.1-0.2-0.1-0.2-0.2c0,0,0-0.1,0.2-0.1c0.1,0,0.1-0.1,0.1-0.1h-0.1c0-0.1,0.1-0.1,0.1-0.2c0,0,0,0-0.2,0
				c0.1-0.1,0.1-0.1,0.1-0.1s0,0-0.2-0.1c0,0,0,0,0.1-0.1H111c0.1,0,0.1-0.1,0.1-0.1l0,0c-0.1,0-0.1,0-0.2,0l0,0c0,0,0,0,0.1-0.1
				h-0.1c0.1-0.1,0.1-0.1,0.1-0.1c0-0.1,0-0.1,0-0.1C110.9,3,110.8,3,110.8,3c-0.1,0-0.1,0.1-0.2,0.2c0,0,0,0,0-0.1l0,0l0,0l0,0l0,0
				l0,0c-0.1,0.1-0.1,0.1-0.2,0.1c0.1-0.2,0.3-0.2,0.3-0.4c0,0-0.2-0.1-0.6,0.1L110,3c0.1,0.1,0,0.1-0.1,0.1c0,0.1,0,0.2-0.2,0.2
				c0.1-0.3,0.2-0.4,0.7-0.6c-0.1,0-0.1,0-0.1,0c-0.3,0-0.8,0.4-1,0.6c0,0,0,0,0.1,0s0.1,0,0.2,0l0,0c-0.1,0.1-0.2,0.1-0.2,0.1
				l-0.1,0.1c0,0,0,0.1,0.1,0.1s0.1,0,0.1,0s0,0.1,0.4,0.2c0,0,0,0,0.2-0.1c0.1,0.1,0.1,0.1,0.3,0c0,0.1,0,0.1,0,0.2c0,0,0,0,0.1,0
				c0,0.2,0,0.2-0.1,0.2v0.1l0.1-0.1c0,0,0,0,0.1,0.1c0,0,0,0,0,0.1c0,0,0,0,0,0.1c0,0,0.2,0.2-0.3,0.5C110.1,5,110.1,5,110.1,5v0.1
				c-0.1,0.1-0.2,0.1-0.2,0.1c-0.3-0.1-0.3-0.2-0.5,0.1c-0.1,0.1,0,0.2,0,0.2c0.1,0.1,0.2-0.1,0.4-0.1l0.1-0.1c0,0,0,0,0.1,0.4h0.1
				v0.1c0,0.1,0,0.2,0,0.2c0.1-0.1,0.1-0.1,0.1-0.1s0,0.1,0.1,0.1l0.4,0.2c0.1-0.1,0.1-0.2,0-0.2c0,0-0.3-0.3-0.1-0.4
				c0.2,0.3,0.3,0.3,0.4,0.3c0.1-0.1,0.1-0.1,0.1-0.2l0,0l0,0l0,0c0,0-0.2-0.6-0.1-0.8c0-0.1,0.2-0.1,0.2-0.1s0,0,0.1,0.3l0.1,0.1
				l0.1-0.1h0.2V4.9C111.6,4.9,111.7,4.9,111.7,4.9L111.7,4.9z"/>
			<path class="st1" d="M109.9,4.2L109.9,4.2c-0.1,0.1-0.1,0.1-0.1,0.2l-0.1,0.1l0,0h0.2c0.1,0,0.1-0.1,0.2-0.1l0,0l0,0l0,0l0,0l0,0
				l0,0l0,0C110.1,4.2,110,4.2,109.9,4.2C110,4.2,109.9,4.2,109.9,4.2z"/>
			<path class="st1" d="M110.3,4.4c0,0,0.1-0.1,0-0.2C110.3,4.2,110.2,4.2,110.3,4.4C110.2,4.5,110.2,4.5,110.3,4.4z"/>
			<path class="st1" d="M109.5,2.2c0.2,0,0.2,0,0.3-0.1h0.1c0.1-0.1,0.2-0.1,0.3-0.2c-0.1,0-0.1,0-0.1-0.1s0-0.1,0-0.1s0,0-0.2,0.2
				h-0.1c0.1-0.1,0.1-0.1,0.1-0.1s0,0-0.1,0l-0.1,0.1l0,0c0.2-0.2,0.2-0.2,0.2-0.2c-0.1-0.1-0.3,0.2-0.3,0.3c0.1,0,0.1,0,0.1,0l0,0
				c0,0,0,0,0.1,0l-0.1,0.1C109.6,2.1,109.6,2.1,109.5,2.2z"/>
			<path class="st1" d="M110.1,2c-0.2,0.1-0.2,0.1-0.2,0.1c-0.1,0-0.1,0.1-0.1,0.1v0.1c0,0,0,0,0.1,0C110,2.3,110.1,2.2,110.1,2
				C110.1,2.1,110.1,2.1,110.1,2z"/>
			<path class="st1" d="M110.3,2.1c-0.1,0.1-0.2,0.1-0.2,0.2c0,0,0,0,0.1,0c0,0,0,0,0,0.1c0.1,0,0.1,0,0.2,0l-0.1,0.1h0.4l0.1-0.1
				c-0.1,0.1,0,0.1,0,0.1l0,0l0,0l0,0l0,0l0,0l0,0l0,0l0,0c0.1-0.1,0.1-0.1,0.2-0.2c0,0,0,0,0.1,0c0,0,0.1-0.1,0.1-0.2
				S111,2,110.9,2c-0.1,0-0.2,0.1-0.2,0.1C110.6,2.1,110.5,2,110.3,2.1c0.1-0.2,0.1-0.2,0.2-0.2s0.1-0.1,0.1-0.2c-0.1,0-0.1,0-0.2,0
				l0,0l-0.1-0.1l0,0c0,0-0.2,0.1-0.2,0.2h0.2C110.3,2.1,110.3,2.1,110.3,2.1z"/>
			<path class="st1" d="M111,1.3L111,1.3l-0.2,0.1v0.1l0,0l0,0h0.1L111,1.3L111,1.3L111,1.3C111.1,1.3,111,1.4,111,1.3L111,1.3z"/>
			<path class="st1" d="M110.7,2.7C110.7,2.8,110.7,2.8,110.7,2.7C110.6,2.8,110.6,2.8,110.7,2.7c-0.1,0.1-0.1,0.2-0.2,0.2
				c0.1,0,0.1,0,0.2,0s0.1,0,0.1,0s0,0,0.1,0C110.9,2.9,111,2.7,110.7,2.7C110.8,2.7,110.8,2.7,110.7,2.7z"/>
			<path class="st1" d="M117.7,1.1C117.8,1.1,117.8,1.1,117.7,1.1C117.8,1,117.8,1,117.7,1.1c0-0.2-0.2-0.2-0.3-0.2
				c0,0.1,0,0.1-0.1,0.1c0,0,0,0-0.1-0.1h-0.1c-0.2,0.2-0.2,0.2-0.3,0.3c0-0.1,0-0.2,0.2-0.2c0-0.2-0.1-0.2-0.1-0.2
				c0,0.2,0,0.2-0.2,0.2l0.1-0.1c-0.1,0-0.1,0-0.4,0c0.2-0.2,0.5,0.1,0.6-0.2c0,0-0.3-0.2-0.6-0.3c-0.3,0-0.5,0.1-0.8,0.1l-0.2,0.1
				l-0.1,0.1h-0.1h-0.1l0.1,0.1l0.1,0.1h-0.1L115,0.7h-0.1l-0.1,0.1v0.1c-0.1,0-0.1,0-0.1,0V0.8l0,0l-0.1,0.1h-0.1V0.8h-0.2h-0.2
				v0.1H114V0.8h-0.1l-0.1,0.1L114,1h-0.1h-0.1l-0.3,0.1l-0.2,0.1l0.1,0.1h0.1c-0.2,0.2-0.3,0.3-0.5,0.2l-0.2,0.1h-0.1h-0.1h-0.1
				l-0.2,0.1v0.1l0.1,0.1c0.1,0,0.2,0,0.3,0L112.6,2c-0.3,0-0.3,0-0.4,0h-0.1v0.1c0,0,0.1,0,0.1,0.1c-0.1,0-0.1,0-0.2,0.1l0,0
				c0,0.1,0.1,0.1,0.1,0.1l0.2-0.1v0.1c0.4-0.1,0.4-0.1,0.6,0.2c-0.1,0.3,0.3,0.7-0.1,0.9l-0.1,0.2c0.1,0,0.2-0.2,0.4-0.1
				c0,0,0,0.1,0.2,0.3V4h-0.1L113,3.9l0.1-0.1l0.2,0.2c0.1,0,0.2,0,0.2,0c0,0.1,0,0.1-0.1,0.2l-0.1,0.1l-0.1,0.3l-0.3-0.1l-0.1,0.1
				v0.2c0,0,0.1,0,0.1,0.1c-0.2,0.1-0.2,0.1,0,0.6c0.1,0,0.1,0,0.2,0c0,0.1,0,0.2-0.2,0.2v0.2L113,6c0,0,0,0.1-0.1,0.1
				c0.1,0.1,0.1,0.4,0.2,0.5c0,0,0,0,0.4-0.1c0,0,0,0.1-0.1,0.1c0.2,0.2,0.2,0.2,0.2,0.2c0.1,0,0.7-0.4,0.4-0.8
				c0.2,0,0.4-0.2,0.4-0.4l0.1-0.2l0.1-0.1c0-0.1,0.1-0.1,0.1-0.2c0.7,0,0.8,0,1.3-0.6V4.4c0.1,0,0.1,0.1,0.2,0.1
				c0.7-0.1,0.7-0.2,1.2-0.5V3.9c-0.5-0.1-0.5-0.1-0.4-0.4c0.4,0.3,0.4,0.3,0.5,0.3c0-0.1,0-0.2-0.1-0.3c-0.2-0.1-0.2-0.1-0.3-0.2
				h0.1l0.2,0.1c0-0.1,0-0.2,0-0.2c-0.1-0.1-0.1-0.1-0.3,0L117,3.1l0.1-0.1c0.3,0.1,0.3,0.1,0.5-0.1V2.8l0.1-0.1l-0.1-0.2V2.4
				l0.1-0.1c0-0.1-0.1-0.2-0.2-0.2h-0.1V2c0.1,0,0.1,0,0.1-0.1c0.1,0.1,0.1,0.1,0.2,0.2c0,0,0-0.1,0-0.2C117.4,2,117.4,2,117.4,2
				V1.9c-0.1,0-0.1,0-0.2-0.1c0-0.2,0.1-0.2,0.1-0.2V1.5c0.1,0,0.1,0,0.2-0.1c-0.1,0-0.2,0-0.2,0V1.3c0.2,0,0.2,0,0.3,0
				C117.6,1.3,117.6,1.3,117.7,1.1c-0.2,0.1-0.2,0.1-0.3,0.1C117.7,1.1,117.7,1.1,117.7,1.1z"/>
			<path class="st1" d="M109.6,9.3C109.5,9.3,109.5,9.3,109.6,9.3c-0.1,0,0.1,0.2,0.1,0.2s0.2,0.1,0.3,0.1l0,0V9.5
				c0,0-0.1-0.1-0.2-0.1C109.7,9.4,109.7,9.4,109.6,9.3z"/>
			<path class="st1" d="M118.6,5.2l-0.2-0.1l-0.1,0.1l-0.1,0.1h-0.1h-0.1c0,0.1-0.1,0.1-0.1,0.2l-0.1-0.1h-0.1l-0.1,0.2h-0.1V5.5
				l-0.1-0.1l-0.1-0.1l-0.1,0.2l-0.1,0.2h0.2l0.1,0.1h-0.1v0.1h0.2h0.1c0.1,0.1,0.1,0.1,0.1,0.1s0,0-0.2,0.2h0.2c0.1,0,0.2,0,0.2,0
				l0.1,0.1c0.1,0,0.1,0,0.2,0c0.1-0.1,0.2-0.2,0.4-0.2c0.1,0,0.1,0,0.3-0.3l0,0l-0.1-0.2L118.6,5.2z"/>
			<path class="st1" d="M120.5,8.2L120.5,8.2L120.5,8.2L120.5,8.2C120.4,8.2,120.4,8.2,120.5,8.2c-0.2,0.3-0.4,0.3-0.5,0.2v0.2v0.1
				c0.1,0,0.1,0,0.2,0l0.1,0.1h-0.1L120,9l0.1,0.2c0.1,0,0.1,0.1,0.2,0.1c0.2-0.1,0.3-0.2,0.5-0.3V8.7l-0.1-0.1
				c0.2-0.1,0.2-0.1,0.2-0.1c0.1-0.1-0.1-0.2-0.2-0.2C120.6,8.3,120.6,8.3,120.5,8.2C120.6,8.3,120.6,8.3,120.5,8.2
				C120.6,8.3,120.6,8.3,120.5,8.2C120.6,8.2,120.5,8.2,120.5,8.2z"/>
			<path class="st1" d="M120.6,7.6L120.6,7.6l0.2,0.1l-0.1,0.1l-0.1,0.1h0.1l0.1-0.1L121,8v0.1l-0.1,0.1l0.1,0.1c0.1,0,0.1,0,0.2,0
				V8.2h0.1v0.1l0.1,0.1v0.2h-0.1h-0.1l-0.1,0.1c0.2,0.1,0.2,0.1,0,0.2L121,9l0.1,0.1l0.1-0.1l0.1,0.1l0.2-0.1l0.1-0.1V9l-0.1,0.1
				h-0.2L121,9.4l0.1,0.1c0.2-0.1,0.2-0.1,0.3-0.1V9.3c0.1,0,0.1,0,0.2,0h0.2c0.1,0,0.2,0,0.2,0l0.2-0.1l0.1-0.1L122.1,9
				c0.1-0.1,0.2-0.1,0.2-0.3c0,0,0-0.1-0.1-0.2L122,8.6l0,0.1l-0.1-0.3l-0.2-0.2h-0.1L121.5,8l-0.1-0.1c-0.1,0-0.1,0-0.1,0L121.2,8
				h-0.1V7.9l0.1-0.1l0.1-0.2V7.4h-0.2L121,7.5l-0.1-0.1l0.1-0.1l0.1-0.1h-0.2h-0.2v0.2h-0.1L120.6,7.6z"/>
			<path class="st1" d="M120.4,1.3L120.4,1.3L120.4,1.3h0.2l0,0C120.5,1.3,120.5,1.3,120.4,1.3l0.2,0.1h0.1l0,0l0.1,0.1h0.1
				l-0.1-0.1h0.1l-0.1-0.1l-0.1-0.1L120.4,1.3L120.4,1.3L120.4,1.3L120.4,1.3L120.4,1.3h-0.2v0.1l0.1,0.1L120.4,1.3z"/>
			<path class="st1" d="M123.5,7.9L123.5,7.9L123.5,7.9v0.2C123.6,8.1,123.5,7.9,123.5,7.9L123.5,7.9z"/>
			<path class="st1" d="M123.5,7.9c0,0,0.1,0.1,0.1,0.2c0,0,0,0,0.1,0L123.5,7.9L123.5,7.9C123.6,7.8,123.6,7.8,123.5,7.9z"/>
			<path class="st1" d="M123.8,7.9C123.8,7.9,123.8,7.8,123.8,7.9l-0.2-0.1v0.1C123.7,7.8,123.8,7.9,123.8,7.9L123.8,7.9z"/>
			<path class="st1" d="M124.1,11.8L124.1,11.8l0.1,0.2v0.3h0.1l0.1-0.1c0-0.1,0-0.3,0-0.4c-0.1,0-0.1,0-0.1,0l0,0L124.1,11.8z"/>
			<polygon class="st1" points="124.2,11.2 124.1,11.3 124.1,11.5 124.3,11.6 124.3,11.3 			"/>
			<polygon class="st1" points="125.5,12.3 125.1,12.4 125.1,12.5 125.2,12.6 125.3,12.6 125.5,12.7 125.6,12.7 125.5,12.5 
				125.5,12.4 			"/>
			<path class="st1" d="M127.3,12.9h-0.2V13L127.3,12.9L127.3,12.9L127.3,12.9z"/>
			<path class="st1" d="M127.6,12.9L127.6,12.9c-0.1,0-0.1,0-0.2,0V13L127.6,12.9C127.6,12.9,127.6,12.9,127.6,12.9z"/>
			<path class="st1" d="M128.7,12.7C128.7,12.6,128.7,12.6,128.7,12.7L128.7,12.7l-0.2,0.1v0.1c0.1,0,0.1,0,0.1,0
				C128.6,12.8,128.7,12.7,128.7,12.7z"/>
			<path class="st1" d="M110.6,1.4L110.6,1.4C110.6,1.4,110.6,1.4,110.6,1.4L110.6,1.4L110.6,1.4C110.7,1.5,110.7,1.4,110.6,1.4
				c0.2,0,0.2-0.1,0.2-0.1l0,0C110.8,1.3,110.7,1.3,110.6,1.4z"/>
			<path class="st1" d="M107.5,3.1L107.5,3.1c-0.2,0.1-0.3,0.2-0.4,0.3L107,3.5c0.2,0.1,0.2,0.1,0.7-0.1c-0.1,0.2-0.1,0.2,0,0.3
				c0.2,0,0.2,0,0.3-0.1c0.1-0.1,0.1-0.1,0.1-0.1c0.1,0,0.1,0,0.2,0s0.1-0.2,0.1-0.2c-0.1,0-0.1-0.1,0-0.2c0.1-0.1,0.1-0.1,0.2-0.2
				c0.3-0.3,0.3-0.3,0.2-0.4c-0.1,0.1-0.3,0.2-0.4,0.3s-0.1,0.1-0.1,0.1s0,0,0.1-0.1s0.2-0.2,0.2-0.2l0,0c0,0-0.1,0.1-0.2,0.1h-0.1
				c-0.2,0.1-0.4,0.3-0.6,0.4C107.5,3.1,107.5,3.1,107.5,3.1z"/>
			<path class="st1" d="M100.9,12.1c0,0.4,0,0.8,0.1,1.4c0,0-0.1,1.4,0.3,1.6v-0.3c0,0-0.2-1.2-0.2-1.8l0.1-0.1c0,0.4,0,0.5,0,0.9
				l0.1,0.4c0.1,0.4,0.2,0.8,0.3,1.3c0,0,0,0,0,0.1v0.1v0.1v0.1c0,0,0,0,0,0.1c0,0,0,0,0,0.1l0,0l0,0c0.5,1,0.9,1.2,1,1.3l0.1-0.1
				c0.1,0,0.1,0,0.6,0.7l0.2,0.1l0.3,0.2l0.1-0.1l0.2,0.4l0.1,0.3v0.2l0.1,0.2h0.1l0.1,0.3l0.3,0.2l0.2,0.3h0.1l-0.1-0.4l0.3-0.1
				l0.1,0.4c0.4,0.5,0.2,1,0.1,1.1h-0.1c-0.3,0.5-0.3,0.5-0.3,1l0.2,0.1c-0.1,0.1-0.1,0.3-0.2,0.4v0.1v0.1c0,0,0,0,0,0.1
				c0,0,0,0,0,0.1c0,0,0,0,0,0.1l0,0l0,0c0,0,0,0,0.1,0c0.3,0.3,1,1.7,1,1.7c0.2,0.6,1,0.6,1.3,1.1c0,0,0.2,0.9,0.5,2.2
				c0,0.5,0.2,0.9,0.3,1.4l0.2,0.3c0,0,0.1,0.4,0.3,0.8v-0.3h0.1c0.1,0.2,0.2,0.5,0.3,0.7l-0.2-0.1v0.2l0.2,0.1l0.2,0.2h0.1v0.2
				l-0.2-0.1l0.1,0.2l0.3,0.2l0.2,0.3l0.1,0.1l0.1,0.1l0.2,0.1l0.1,0.1h0.2l0.2,0.2h-0.1l0.1,0.1l0.3,0.1l0.4-0.1l-0.7-0.3l-0.3-0.2
				l-0.1-0.3l0.1-0.1v-0.2l0.1-0.1c0,0,0-0.1-0.2-0.2c-0.1-0.1-0.3-0.1-0.3-0.2c0.1-0.1,0.2-0.2,0.2-0.3l-0.1-0.3l-0.2-0.3l0.3,0.1
				c0-0.1,0.1-0.2,0.1-0.3c0.6-0.1,0.6-0.1,0.7-0.3l-0.2-0.2l-0.1-0.2l-0.2-0.1l0.1-0.1c0.2,0.1,0.4,0.1,0.5,0.2
				c0.4-0.3,0.5-0.4,0.6-0.5c0-0.1,0-0.1-0.1-0.2l0.2-0.2l0.4-0.4c0-0.2-0.1-0.4-0.1-0.6l0.4-0.2l0.3-0.2c0.2,0,0.5-0.1,0.7-0.1
				c0.5-0.6,0.5-0.8,0.6-1.1v-0.1v-0.1c0-0.1,0-0.1,0-0.1c0-0.1,0-0.1,0-0.1v-0.1v-0.1v-0.1l0,0l0.3-0.2c0.6-1,0.6-1,0.6-1
				c0-0.2,0-0.4-0.1-0.5c-0.8-0.1-1.4-1.2-2.3-0.5l0.1-0.3c-0.2-0.1-0.5-0.2-0.7-0.3c-0.2,0.2-0.2,0.2-0.4,0.3
				c0-0.1,0.1-0.3,0.1-0.4l-0.3-0.1l-0.3,0.4l-0.1-0.3c0.1-0.1,0.2-0.2,0.3-0.3c-0.2-0.2-0.2-0.2-0.3-0.6c-0.1,0-0.1-0.1-0.2-0.1
				l-0.1-0.3l-0.5-0.2l0,0c0,0,0,0-0.1,0H110h-0.1h-0.1h-0.1h-0.1c0,0,0,0-0.1,0l-0.1-0.1l-0.2-0.1l-0.1-0.3l-0.3-0.1h-0.2V20v-0.3
				h-0.5c-0.1,0-0.2,0-0.3,0l-0.4-0.1l-0.3-0.1l-0.2-0.2l-0.2-0.2l-0.2,0.4v-0.4l-0.3,0.2l-0.5,0.2l-0.2,0.3l-0.2,0.2l-0.2-0.3
				l-0.2-0.2l-0.4,0.2l-0.3-0.2l-0.1-0.4c0-0.4,0.1-0.9-0.1-1.3c-0.4,0-0.4,0-0.8-0.1l0.1-0.5l0.1-0.1c0,0,0.5-0.9-0.2-0.8
				c-0.1,0.2-0.2,0.5-0.3,0.7c-0.8,0.2-0.8-0.3-0.8-1.5l0.1-0.5c0-0.1,0.1-0.3,0.1-0.4l0.4-0.4l0.4-0.1l0.2,0.2h0.3l-0.1-0.3h0.5
				l0.3,0.2l0.1,0.2l0.2-0.1l0.2,0.2c0,0.2-0.1,0.4-0.1,0.6l0.3,0.6l0.2-0.4l-0.2-1.2l0.4-0.4l0.4-0.3l0.4-0.4l-0.2-0.2v-0.4
				l0.2-0.2v0.4l0.3-0.2l0.2-0.5l0.7-0.3v-0.3l0.5-0.5c0.1,0,0.2,0,0.3,0l0.3-0.2h0.4l-0.5,0.3v0.2l0.2,0.1l0.4-0.4l0.3-0.1l0.2-0.2
				h0.2c-0.1-0.1-0.1-0.2-0.2-0.2c-0.3,0.2-0.4,0.3-0.7-0.2c0-0.1,0.1-0.3,0.1-0.4l0.2-0.1c-0.5-0.1-0.5-0.1-1,0.1l0.2-0.3h0.2
				l0.2-0.2c0.3,0,0.6,0.1,0.9,0.1h0.3l0.2-0.2l0.4-0.1l0.3-0.2V8.5l-0.3-0.1h-0.4l0.4-0.2l0.2-0.2V7.8l-0.1-0.1l0.1-0.3V7.1V6.6
				c-0.2,0.1-0.2,0.1-0.8,0.5c-0.1-0.1-0.2-0.2-0.2-0.2c0-0.2,0.1-0.4,0.1-0.6l-0.1-0.1l-0.1-0.3L109.2,6L109,5.9h-0.2
				c-0.3,0.6-0.3,0.6-0.5,0.9c0.2,0.5,0,0.6-0.7,1.2c-0.1,0.8-0.2,0.8-0.5,0.7c-0.1-0.3,0.1-0.6,0.1-1c-0.4-0.1-0.4-0.1-0.6-0.6
				L106.6,7h-0.3l0.1-0.4c0-0.1-0.1-0.1-0.1-0.2c0.4-0.5,0.5-0.7,1.1-1c0-0.1,0-0.1,0.1-0.2c0.1,0,0.1,0,0.5-0.1
				c0.1-0.1,0.2-0.2,0.3-0.2l-0.1-0.1l0.1-0.1c0.1,0,0.1,0,0.2,0.1l0.2-0.1l0.1-0.2l0.1,0.1v0.1l0.2-0.1l0.1,0.1l0.3-0.2V4.3
				l0.2-0.2V3.9c-0.1,0-0.2,0-0.2,0L109.3,4l-0.2,0.2l-0.3,0.2h-0.1V4.3L109,4V3.9L108.8,4l-0.1,0.1h-0.1l0.1-0.2
				c0.1-0.1,0.1-0.1,0.2-0.2c-0.1,0-0.1,0-0.2,0l0.2-0.1l0.2-0.3L109,3.2l-0.2,0.1l-0.2,0.1l-0.1,0.2l-0.2,0.2c0,0.1,0,0.1,0,0.2
				c-0.2,0.2-0.2,0.2-0.4,0.3l-0.2,0.2l0.1-0.2l0.1-0.2c-0.1,0-0.1,0-0.1,0c-0.1,0.1-0.2,0.1-0.2,0.2c-0.3-0.1-0.3-0.1-0.3-0.4
				c-0.2,0.1-0.2,0.1-0.6,0.4c0.1-0.2,0.1-0.2-0.1-0.4C104,5.8,101.9,8.8,100.9,12.1z"/>
			<path class="st1" d="M109.2,2C109.2,2.1,109.2,2.1,109.2,2c0.1,0,0.2,0,0.3-0.1c0.2-0.1,0.2-0.1,0.2-0.1l0,0
				C109.4,1.9,109.3,2,109.2,2L109.2,2z"/>
			<path class="st1" d="M112.2,0.8c-0.2,0.1-0.3,0.1-0.5,0.2l0,0l-0.1,0.1l0,0h-0.1l-0.2,0.2h0.2h0.1l-0.1,0.1h-0.2h-0.1l-0.1,0.1
				c0,0,0,0,0.1,0c-0.1,0-0.1,0.1-0.1,0.1h0.1c0.1-0.1,0.1-0.1,0.1-0.1s0,0-0.1,0.1c0,0,0.1,0,0.1-0.1l0,0l0.1-0.1V1.3l0.1-0.1l0,0
				l-0.1,0.1c0,0,0,0,0.1,0h0.1c0,0,0,0,0.1-0.1c0,0,0,0,0.1-0.1c-0.1,0-0.1,0-0.1,0s0,0,0.1-0.1V0.9l0.1-0.1l0.2,0.2L112,1.1V1
				C112,1,112.1,1,112.2,0.8C112,1,112,0.9,112.2,0.8z"/>
			<path class="st1" d="M113.3,0.6L113.3,0.6L113.3,0.6c-0.1,0-0.1,0.1-0.2,0.1V0.6c-0.1,0-0.1,0-0.1,0c0,0.1-0.1,0.1-0.2,0.1l0,0
				c-0.1,0-0.3,0.1-0.4,0.1l0,0c0.2,0,0.2,0,0.2,0c-0.2,0-0.2,0.1-0.2,0.1c0.1,0.1,0.2,0,0.2,0s-0.1,0-0.3,0.1h0.1c0,0,0,0,0.1,0
				l0,0c0.1,0,0.1,0,0.5-0.1h0.1C113,1,112.9,1,112.8,1.1c-0.1,0-0.2,0.1-0.4,0c-0.1,0.1-0.1,0.1-0.1,0.2c-0.1,0-0.1,0,0-0.2l0,0
				l0,0l0,0l0,0l0,0l0,0l0,0l-0.2,0.1l0,0C112,1.3,112,1.4,112,1.4h0.1c-0.1,0.1-0.1,0.1-0.2,0c-0.1,0-0.2,0-0.4,0.1l0,0
				c0.1,0,0.2-0.1,0.3-0.1c-0.1,0.1-0.1,0.1-0.3,0.2l0,0c0.1,0.1,0.2-0.1,0.4-0.1c-0.1,0.1-0.2,0.1-0.2,0.1c-0.3,0.1-0.2,0-0.2-0.1
				c-0.1-0.1-0.2,0.1-0.2,0.1s0.1,0.1-0.2,0l-0.2,0.1c0,0,0,0,0,0.1c0.1,0,0.1,0,0.1-0.1l0,0l0,0c0,0,0,0,0.1,0c0,0,0,0,0,0.1
				c0.1,0.1,0.1,0.1,0.2,0v0.1h0.1h0.1L111.4,2c0.3-0.1,0.3-0.1,0.4-0.1l0.1-0.1l0,0L111.6,2V1.9l0.1-0.1c0,0-0.1,0-0.1-0.1
				c-0.1,0-0.1,0-0.1,0l0,0l0,0h0.1c0,0,0,0,0.2,0c0.2-0.1,0.3-0.1,0.5-0.2h-0.1l0.1-0.1h0.1l0.1-0.1h-0.1l0.1-0.1l0,0l-0.1-0.1
				c0.1-0.1,0.2,0,0.3,0V1h0.1c0,0.1,0,0.1,0,0.1s0,0,0.1,0l0.2-0.1l0.1-0.1c0.2,0,0.7-0.2,0.7-0.2c-0.1,0-0.1,0-0.2,0h-0.1l0.1-0.1
				c0,0,0,0,0-0.1c0.2,0,0.4,0,0.6-0.1l0.1-0.1c-0.1,0-0.1,0-0.1,0s0,0,0-0.1c-0.1,0-0.1,0-0.2,0c0,0,0,0-0.1,0c0.1,0,0.1,0,0.1,0
				c-0.1,0-0.1,0-0.1,0l0,0l0,0l-0.1,0.1l0.1-0.1c0,0,0,0-0.2,0.1V0.2c-0.1,0-0.1,0-0.2,0.1h-0.1c0,0,0,0,0-0.1l0,0h-0.1L113.3,0.6
				C113.3,0.5,113.3,0.5,113.3,0.6L113.3,0.6z"/>
			<path class="st1" d="M133.3,15L133.3,15c-0.7-6.3-4.9-11.5-10.5-13.7l0,0h-0.1c0,0,0.1,0,0.1,0.1v0.1c-0.3,0-0.3,0-0.7,0H122
				c0,0,0.1,0.1,0.1,0.2c-0.1,0-0.1,0-0.2,0h-0.5l-0.1-0.1h-0.1c0,0,0,0.1,0.1,0.1l-0.1,0.1h-0.1v0.1H121h0.1L121,1.8l0,0V1.7
				l-0.1-0.1c-0.1,0-0.3,0-0.4,0l0,0h-0.1l0,0c-0.1-0.1-0.1-0.1-0.2-0.1c0,0,0,0,0,0.1l0.1,0.1l0,0h-0.1h-0.1l0,0H120
				c-0.1,0-0.1,0-0.1,0v0.1l0.1,0.1c-0.3,0.1-0.5,0.3-0.9,0.6L119,2.4c0,0,0-0.1-0.1-0.1c-0.4,0-0.4,0-0.5,0.2l0.1,0.1
				c0,0,0.1,0,0.3,0.1v0.1l0.1,0.2c0.3-0.1,0.3-0.1,0.4-0.2V2.7c0.3,0,0.3,0,0.4,0V2.6c0.1,0,0.1,0,0.2,0c0.1,0.4,0.4,0.3,0.7,0.3V3
				c-0.2,0.1-0.3,0.1-0.2,0.4c0.9,0.3,0.9,0.3,1.6,0.6l0.1-0.1c0.3,0,0.3,0,0.6,0.1c0,0,0.1,0,0.1-0.1c0,0,0,0.1,0.1,0.1
				s0.2,0,0.3,0.1v0.1l0,0l-0.1-0.1L123,4.2l0.1,0.1L123,4.4l-0.1-0.1h-0.1l0.1,0.2h-0.1v0.1l0.1,0.1l-0.1,0.1l-0.1-0.1l-0.1,0.1
				l0.1,0.2h0.1l0,0c0,0,0,0.1,0.1,0.1h-0.1v0.1l-0.1,0.2l0.1,0.2h-0.1l0.1,0.4l-0.1,0.1l-0.1,0.2l0.1,0.1h-0.1c0,0.1,0,0.1,0,0.2
				c-0.1,0.1-0.2,0.1-0.3,0.2c0,0.2-0.1,0.3,0.3,0.6l-0.1,0.1v0.1h0.1v0.2l0.2,0.1l0.3,0.1l0.1-0.2L123,7h0.1V6.9l0.1,0.2l0.2,0.1
				l0.3,0.4l0.2,0.3L124,8h0.1V7.8c0.1,0,0.1,0,0.2,0V7.6l-0.1-0.5h0.1l0.1-0.2l-0.1-0.2l-0.2-0.1l-0.2-0.1l-0.2-0.3V6.1V5.9V5.8
				h0.1c0-0.1,0-0.1-0.1-0.6l0.1-0.1c0.1,0,0.2,0.1,0.3,0.1l0.1,0.1c0,0,0,0.1,0.1,0.1l0,0l-0.1,0.3v0.1l-0.1,0.1l0.1,0.2l0.2,0.2
				c0,0.1,0.1,0.2,0.1,0.2l0.3,0.1c0.2-0.1,0.3-0.1,0.5-0.2V6.3l0.2,0.1h0.2l-0.1,0.1c-0.1,0.1-0.1,0.1-0.2,0.2l-0.2-0.1L125,6.7
				v0.2l0.1,0.1h0.1v0.1c0,0.1,0,0.1,0.1,0.2c-0.1,0-0.3-0.1-0.4-0.1l-0.1,0.2l0.2,0.3l0.1,0.1v0.1H125V8c-0.1,0-0.2,0-0.3-0.1
				c-0.1,0.1-0.2,0.2-0.4,0.3c-0.1,0-0.2-0.1-0.3-0.1c-0.7,0.2-0.8-0.1-0.7-0.3c0-0.1,0.1-0.1,0.1-0.2l-0.1-0.1V7.3
				c-0.1,0.1-0.2,0.2-0.3,0.2c0,0.1,0,0.2,0,0.2l0.2,0.3l0.2,0.3l-0.1,0.1l-0.2-0.1L123,8.5h-0.2v0.2h-0.1c-0.1,0.5-0.2,0.5-0.4,0.6
				v0.2l-0.1,0.1l-0.1,0.2h-0.2l-0.1-0.1l0.1,0.2l-0.2,0.1h-0.1l-0.1-0.1h-0.2l-0.1,0.1l0.1,0.1l0.3,0.1l0.3,0.2l0.2,0.1l0.1,0.2
				l-0.1,0.1v0.2l-0.1,0.2l-0.6,0.1l-0.1-0.1h-0.5l-0.2,0.1l-0.1,0.1l0.1,0.2v0.6l-0.1,0.2l0.2,0.3c0,0.1,0,0.2,0,0.3h0.3h0.2
				l0.1,0.1l0.2,0.1l0.3-0.1c0.1,0,0.2,0,0.3,0l0.2-0.1v-0.2h0.1l0.1-0.2l-0.1-0.2l0.1-0.4l0.1-0.1l0.2-0.1v-0.2v-0.3l0.2-0.1
				l0.3,0.1h0.1c0.1-0.1,0.2-0.2,0.3-0.3c0.1,0,0.2,0,0.3,0c0.1,0.1,0.1,0.3,0.2,0.4l0.2,0.1l0.3,0.2h0.2l0.2,0.3l0.3,0.1v0.3
				l0.1,0.2c0-0.1,0.1-0.2,0.2-0.3c0-0.1-0.1-0.2-0.1-0.3l0.1-0.1l0.1,0.1l0.1-0.1c-0.2-0.1-0.2-0.2-0.5-0.2c0-0.1-0.1-0.1-0.1-0.2
				c-0.4,0-0.4,0-0.5-0.4c-0.3-0.2-0.4-0.2-0.4-0.4c0.1,0,0.1-0.1,0.2-0.1l0.1-0.1l0.1,0.1v0.1l0.1,0.1h0.1c0.4,0.6,1.2,0.9,1.5,1.6
				c0.1,0,0.1,0,0.2,0l-0.1,0.1c0.1,0.2,0.1,0.4,0.4,0.4v-0.1l-0.1-0.1c0-0.1,0.1-0.1,0.1-0.1v-0.1h0.1v-0.1l-0.1-0.1
				c-0.1-0.1-0.2-0.1-0.2-0.2c-0.1-0.1-0.1-0.1-0.1-0.1l0,0l0,0l0,0l0.1-0.1l0.1,0.1l0.1-0.1l-0.1-0.1c0.1,0,0.2-0.1,0.3-0.1
				l0.1,0.1h0.1c0-0.1,0.1-0.2,0.2-0.2s0.2,0.1,0.3,0.1l-0.1,0.1c-0.3,0.1-0.3,0.1-0.4,0.2V12h0.1c0,0.1,0.1,0.2,0,0.3
				c0.3,0.4,0.3,0.4,0.7,0.5c0,0,0-0.1-0.1-0.1c0,0,0.1,0,0.1-0.1c0.1,0,0.1,0.1,0.2,0.1c0.1,0,0.1,0,0.2,0l0.1-0.1h0.2v-0.1h0.1
				l-0.1,0.2c0.1,0.3,0.2,0.5,0.1,1.3c-0.3,0.1-0.3,0.1-0.4,0c-0.3,0-0.5,0.2-0.8,0.1c-0.1,0-0.2,0-0.3,0c-0.4-0.2-0.4-0.2-0.7-0.2
				l-0.2,0.3l0.1,0.2l-0.1,0.3c-0.4-0.2-0.4-0.2-0.6-0.3c-0.3-0.4-0.9-0.3-1.2-0.7c0.1-0.1,0.1-0.2,0.2-0.3l-0.1-0.1
				c0-0.1,0-0.1,0-0.2L125,13c-0.1,0-0.2-0.1-0.2-0.2c-1.8,0.5-1.9,0.5-2.1,0.5c-0.1,0.1-0.2,0.2-0.2,0.2c-0.2,0-0.4,0-0.5,0h-0.1
				l-0.1-0.1c0,0,0,0-0.5,0.6h-0.2l-0.2,0.3c0.1,0.9-0.9,1.2-1.1,1.9l-0.2,0.1l-0.3,0.6c0,0.1,0,0.1,0,0.2c0.1,0.1,0.2,0.2,0.2,0.2
				l-0.1,0.1c0.1,0.1,0.1,0.2,0.2,0.2c-0.2,0.7-0.2,0.7-0.3,0.8c0.1,0.4,0.2,0.7,0.2,0.7c0.2,0.2,0.2,0.2,0.7,0.8l0.1,0.2l0.3,0.2
				l0.1,0.2l0.2,0.1c0.5,0.6,1.1,0.1,1.7,0.1c0.1,0,0.2,0,0.2,0c1.4-0.3,1.4-0.3,1.5-0.3v0.2c0.7,0,0.7,0,0.8,0.1
				c0.1,0.3,0.1,0.3-0.1,0.8l-0.2,0.2v0.2c0.2,0.3,0.4,0.5,0.5,0.8v0.2v0.1l0.1,0.4l-0.1,0.2c0.1,0.6-0.3,1-0.5,1.5
				c0,0.1,0,0.1,0,0.1v0.1v0.1v0.1v0.1c0,0,0,0,0,0.1l0,0l0,0c0.1,0.3,0.1,0.3,0.2,1.8v0.1l0,0c0,0.1,0,0.2,0,0.3V28
				c0.1,0.2,0.1,0.2-0.1,0.4c0,0.1,0,0.1,0,0.2l0.1,0.1c0.1,0,0.1,0,1-0.3l0.2-0.1c0.5-0.3,0.8-0.8,1.3-1.1l0.2-0.3l0.1-0.1v-0.1
				l0.1-0.2l0.4-0.2l0,0l0,0h0.1l0.1-0.1l0.1-0.1l0.1-0.1v-0.1v-0.1v-0.1v-0.1v-0.2v-0.1v-0.1l0,0l0,0l0,0l0.1-0.1l0.1-0.1l0.1-0.1
				l0.1-0.1l0.1-0.1l0.1-0.1h0.1l0.1-0.1l0.1-0.1l0.1-0.1l0.1-0.1l0.1-0.1l0.1-0.2v-0.1v-0.1l0.1-0.2v-0.2v-0.2l0.1-0.2v-0.1
				l-0.1-0.1v-0.2v-0.1v-0.1l0.1-0.1V22l-0.1-0.1v-0.1l0.1-0.1l0.1-0.3v-0.1v-0.1l0,0c0,0,0-0.1,0.1-0.1V21h0.1
				c0.1-0.2,0.2-0.3,0.3-0.5l0,0l0.1-0.2l0.1-0.1l0.1-0.2l0.1-0.1c0.1-0.2,0.2-0.3,0.3-0.5c0.1-0.1,0.1-0.3,0.2-0.5l0,0
				c0.1,0.2,0.1,0.1,0.1,0l0.4-1v-0.2l-0.1-0.1l0,0c0-0.1,0-0.2,0-0.3c-0.1,0.1-0.2,0.1-0.3,0.2c0,0,0,0.1,0,0l0,0h-0.1
				c-0.2,0.1-0.4,0.3-0.4,0.3l-0.1-0.2l-0.1,0.1l-0.1-0.2l0.1-0.1l-0.1-0.3l-0.2-0.3l-0.1-0.1v-0.2l-0.3-0.6l-0.1-0.1v-0.6l-0.1-0.2
				l-0.2-0.1v-0.3c-0.4-0.7-0.4-0.7-0.4-1v-0.3c0.1,0.4,0.5,0.7,0.5,1.1l0.1,0.1c0.2,0.1,0.2,0.1,0.3,0.6l0.1,0.2l0.1,0.1
				c0.3,0.8,0.3,0.8,0.4,1.3l0.1,0.3v0.2c0,0,0,0,0.1,0h0.1c0.1-0.1,0.2-0.2,0.3-0.2l0.1-0.2c0.1,0,0.1,0,0.1,0
				c0.1-0.2,0.2-0.4,0.3-0.6l0.1-0.2h0.1c0-0.1,0.1-0.2,0.1-0.3l0.1-0.1l0,0v-0.2l0.1-0.1v-0.3l0.1-0.1l0.1-0.3v-0.2l-0.1-0.3h-0.1
				l-0.7,0.7l-0.1-0.4l0,0c0,0,0,0,0,0.1c0,0,0,0,0,0.1v0.1c0,0,0,0,0,0.1V15l0,0c0,0,0,0,0,0.1h-0.1l0,0h-0.1l-0.1-0.1
				c0-0.1,0-0.2,0-0.3l-0.1-0.1v-0.1h-0.1C131,14,131,14,131,13.7c0.3,0.1,0.4,0.5,0.7,0.7c0.1,0,0.1,0,0.1,0h0.1l0,0l0,0
				c0,0,0.1,0,0.1,0.1c0.1,0.5,0.4,0.3,0.7,0v0.1v0.2l0,0v0.1l0,0l0,0v-0.1c0,0,0,0.1,0.1,0.1c0,0.2,0.3,0.5,0.3,1
				c0,0.6,0,0.8,0.2,0.9V17l0.1-0.2v-0.2l0.1-0.2v-0.2C133.4,15.7,133.4,15.3,133.3,15z M123.7,3.8L123.7,3.8L123.7,3.8l-0.2-0.2
				h-0.1l-0.1-0.1h-0.1v0.1c-0.1,0-0.1-0.1-0.1-0.1l0,0l0,0H123c-0.1,0-0.4-0.2-0.4-0.5c0.2,0,0.2,0,0.3,0.2h0.2
				c0.1,0,0.3,0.1,0.4,0.1c0-0.1-0.1-0.1-0.1-0.2c0.9,0.4,1,0.4,1.1,0.6C124.2,3.9,124.1,3.9,123.7,3.8z M125.6,5.1
				c0.1,0,0.1,0.1,0.2,0.1l0.1,0.2c-0.2,0-0.3-0.1-0.5-0.2l-0.1-0.1l-0.2-0.3c-0.3-0.1-0.3-0.1-0.5-0.3c0.3,0,0.5,0.2,0.8,0.1
				c0.1-0.3,0.1-0.3-0.7-0.6l0,0c0,0,0-0.1,0.1-0.1c0.2,0,0.4,0,0.5,0c0.1,0.1,0.2,0.2,0.2,0.3l0.2,0.1l0.2,0.2h-0.2v0.3l0.2,0.2
				l0.1,0.1C125.8,5.1,125.7,5.1,125.6,5.1C125.5,5,125.6,5,125.6,5.1z M125.6,4c0.1,0,0.2,0.1,0.4,0.2c0,0,0,0.1,0.1,0.2
				C125.8,4.3,125.6,4.2,125.6,4z M129.2,10.9l-0.3,0.1l-0.2-0.1h-0.1l-0.1-0.2l-0.3,0.1l-0.2,0.3h-0.4l-0.2-0.2l-0.1-0.1v-0.3
				l0.1-0.1l-0.1-0.3l0.1-0.2V9.7l0.2-0.1l0.1,0.1h0.2v0.2l0.2,0.2l0.1-0.1V9.9c0.1,0,0.1,0,0.2,0V9.8c-0.1,0-0.1,0-0.2,0l-0.1-0.2
				l0.1-0.2l0.1-0.1l0.1-0.1c0,0,0,0,0.1,0v0.2l0.1,0.2v0.2c0,0.1,0.1,0.1,0.1,0.2l0.2,0.1l0.2,0.1l0.2,0.2l0.2,0.3L129.2,10.9z
				 M130.8,12l-0.2-0.1l-0.2-0.2l-0.1-0.3h0.1l-0.1-0.2v-0.1l-0.1-0.1l0,0v-0.2l0,0v-0.1l-0.1-0.1v-0.1l0.1,0.1h0.1l-0.1-0.2h-0.1
				l-0.1,0.1v0.2h0.1c0,0.1,0,0.1,0,0.2l0,0l-0.2-0.2l0,0v-0.1v-0.1l-0.1-0.1l0,0l-0.2-0.2l0,0h0.1l0.1,0.1l0.2,0.1h0.1v-0.1
				l-0.1-0.1l-0.2-0.3h-0.1V9.6l0.2-0.2h0.2l0.2,0.3l0.1,0.2h-0.2l0.1,0.2l-0.1,0.1l0.2,0.3l0.2,0.2v0.2l0.1,0.2v0.2l0.3,0.3
				l0.1,0.4L130.8,12z"/>
		</g>
		<polygon class="st1" points="118.9,15.2 118.9,15.2 118.9,15.2 118.9,15.2 118.9,15.2 119,15.2 119,15.2 119,15.1 		"/>
		<polygon class="st1" points="119,14.9 119,14.9 119,14.9 119,14.9 118.9,14.9 119,14.9 119,15 119,15 119,15 119,15 		"/>
		<polygon class="st1" points="119.1,15.1 119.1,15.1 119.1,15.1 119.1,15.1 119.1,15.1 119.1,15.1 119.1,15.1 		"/>
		<polygon class="st1" points="119.8,15 119.8,14.9 119.8,14.9 119.8,14.9 119.7,15 119.7,15.1 119.7,15 		"/>
		<polygon class="st1" points="119.8,14.9 119.8,14.9 119.8,14.8 119.9,14.8 119.9,14.8 119.9,14.8 119.9,14.8 119.9,14.8 
			119.8,14.8 119.8,14.8 119.8,14.9 		"/>
		<polygon class="st1" points="119.5,15.1 119.5,15.1 119.5,15.1 119.5,15.1 119.4,15 119.4,15.1 119.4,15.1 119.4,15.1 		"/>
		<polygon class="st1" points="119.2,15 119.2,15.1 119.2,15.1 119.3,15.1 119.3,15.1 119.3,15.1 119.3,15 119.3,15 119.3,15 
			119.3,15 119.3,15 119.3,15 119.3,15 119.3,15 119.2,15 		"/>
		<polygon class="st1" points="123.2,12.1 123.2,12.1 123.2,12.1 123.2,12.1 123.2,12 123.1,12.1 123.1,12.1 123.1,12.1 123.1,12.2 
			123.1,12.1 123.1,12.1 123.1,12.2 123.2,12.2 123.2,12.2 123.2,12.2 123.2,12.1 123.3,12.1 		"/>
		<polygon class="st1" points="123.4,12 123.3,12 123.3,12 123.3,12 123.4,12 123.4,12 123.4,12 		"/>
		<polygon class="st1" points="122.9,12.4 122.9,12.4 122.9,12.4 122.9,12.4 122.9,12.3 		"/>
		<polygon class="st1" points="122.9,12.3 122.9,12.3 122.9,12.3 122.9,12.3 122.9,12.3 122.9,12.3 122.9,12.3 		"/>
	</g>
	<path class="st1" d="M116.9,33.6c-9.3,0-16.9-7.6-16.9-16.9s7.6-16.8,16.9-16.8s16.9,7.6,16.9,16.9S126.2,33.6,116.9,33.6z
		 M116.9,0.4c-9,0-16.3,7.3-16.3,16.3s7.3,16.3,16.3,16.3s16.3-7.3,16.3-16.3C133.1,7.8,125.9,0.4,116.9,0.4z"/>
	<g>
		<path class="st2" d="M13.4,31.2c1.3,0.2,2.4,0.5,3.3,0.8c0.9,0.3,1.6,0.7,2.1,1.1c0.5,0.4,0.8,0.9,1.1,1.4
			c0.4,0.7,0.2,2.8,0.1,3.2s-0.4,0.8-0.7,1.2S18.5,39.7,18,40c-0.5,0.4-1.1,0.7-1.9,0.9c-0.7,0.3-1.6,0.5-2.6,0.7
			c-1,0.2-2.2,0.2-3.5,0.2s-2.4,0-3.4-0.1c-1-0.1-1.8-0.3-2.4-0.5c-0.7-0.2-1.2-0.5-1.6-0.8s-0.8-0.6-1-0.9
			c-0.2-0.3-0.4-0.6-0.5-0.9c-0.2-0.6-0.1-1.7,0.2-2.3c0.2-0.4,0.5-0.7,0.8-1c0.4-0.3,0.8-0.6,1.3-0.8s1.1-0.4,1.7-0.5
			c0.1,0,0.1-0.1,0.1-0.1s0-0.1-0.1-0.1C4.8,33.5,4.4,33,4,32.6s-0.5-1.1-0.5-1.7c0-0.5,0.1-0.9,0.2-1.2c0.2-0.4,0.4-0.7,0.7-0.9
			c0.3-0.2,0.6-0.5,1.1-0.7c0.4-0.2,0.9-0.3,1.3-0.5c0.1,0,0.1-0.1,0.1-0.1c0-0.1,0-0.1-0.1-0.1c-0.6-0.2-1.2-0.5-1.7-0.9
			c-0.5-0.4-0.9-0.8-1.3-1.2C3.4,25,3.2,24.5,3,24c-0.2-0.5-0.3-1.1-0.3-1.6c0-0.8,0.2-1.6,0.6-2.3c0.4-0.7,1-1.3,1.7-1.9
			c0.7-0.5,1.5-1,2.5-1.3s2-0.5,3.1-0.5c1.4,0,2.7,0.3,3.9,0.8c0.2,0.1,0.3,0.1,0.4,0c0.2-0.2,0.4-0.4,0.5-0.6
			c0.1-0.2,0.1-0.4,0.2-0.7c0-0.2,0-0.4,0-0.6s-0.1-0.4-0.1-0.5c0-0.4,0.1-0.7,0.4-1c0.3-0.3,0.6-0.5,1.2-0.5s0.9,0.2,1.2,0.5
			c0.3,0.3,0.4,0.7,0.4,1.2c0,0.4-0.1,0.7-0.2,1c-0.1,0.3-0.3,0.6-0.6,0.8c-0.3,0.2-0.5,0.5-0.8,0.6c-0.3,0.2-0.6,0.3-1,0.4
			c-0.1,0-0.1,0.1-0.1,0.1c0,0.1,0,0.1,0.1,0.1c0.7,0.5,1.2,1.1,1.6,1.8c0.4,0.7,0.6,1.5,0.6,2.3s-0.2,1.6-0.6,2.3
			c-0.4,0.7-1,1.3-1.7,1.9c-0.7,0.5-1.5,1-2.5,1.3c-1,0.3-2,0.5-3.1,0.5c-0.3,0-0.6,0-0.8-0.1c-0.3,0-0.6,0-0.8,0
			c-0.3,0-0.5,0.1-0.7,0.3c-0.2,0.2-0.4,0.4-0.4,0.7c0,0.2,0.1,0.5,0.2,0.7c0.2,0.2,0.5,0.4,0.9,0.6c0.4,0.2,1,0.4,1.8,0.6
			C11.2,30.8,12.2,31,13.4,31.2z M10.9,40.4c0.6,0,1.1-0.1,1.7-0.2c0.6-0.1,1.1-0.3,1.6-0.5s0.9-0.5,1.2-0.8c0.3-0.3,0.5-0.7,0.5-1
			c0-0.4-0.1-0.7-0.4-1c-0.3-0.3-0.7-0.5-1.1-0.7c-0.5-0.2-1-0.4-1.6-0.5c-0.6-0.1-1.2-0.3-1.8-0.4c-0.6-0.1-1.2-0.2-1.9-0.4
			c-0.7-0.2-1.4-0.4-2.1-0.6c-0.1,0-0.1,0-0.2,0c-0.4,0.2-0.8,0.4-1.2,0.7c-0.5,0.7-0.6,1.1-0.6,1.7c0,0.7,0.2,1.2,0.5,1.7
			c0.3,0.5,0.8,0.9,1.3,1.2s1.2,0.5,1.9,0.7C9.4,40.4,10.2,40.4,10.9,40.4z M10.4,17.4c-0.4,0-0.8,0.1-1,0.4
			c-0.3,0.3-0.5,0.6-0.7,1.1c-0.2,0.5-0.3,1-0.4,1.6c-0.2,0.5-0.2,1.2-0.2,1.8c0,0.7,0.1,1.3,0.2,1.9c0.1,0.6,0.2,1.1,0.4,1.6
			c0.2,0.5,0.4,0.8,0.7,1.1c0.3,0.3,0.7,0.4,1,0.4c0.4,0,0.8-0.1,1-0.4c0.3-0.3,0.5-0.6,0.7-1.1c0.2-0.5,0.4-1,0.5-1.6
			c0.1-0.6,0.2-1.2,0.2-1.9s-0.1-1.3-0.2-1.9c-0.1-0.6-0.3-1.1-0.5-1.6c-0.2-0.5-0.5-0.8-0.7-1.1C11.2,17.6,10.8,17.4,10.4,17.4z"/>
		<path class="st2" d="M27.9,30.3c0,0.5,0.1,0.9,0.3,1.2c0.2,0.3,0.5,0.5,0.7,0.7s0.5,0.3,0.8,0.4c0.3,0.1,0.4,0.1,0.5,0.1
			s0.2,0.1,0.2,0.1c0,0.1,0.1,0.1,0.1,0.2c0,0.1-0.1,0.1-0.1,0.2c-0.1,0.1-0.1,0.1-0.2,0.1h-9.4c-0.1,0-0.2,0-0.2-0.1
			c-0.1,0-0.1-0.1-0.1-0.2c0-0.1,0-0.1,0.1-0.2c0,0,0.1-0.1,0.2-0.1s0.3-0.1,0.5-0.1c0.3-0.1,0.5-0.2,0.8-0.4
			c0.3-0.2,0.5-0.4,0.7-0.7c0.2-0.3,0.3-0.7,0.3-1.2V9.8c0-0.2-0.1-0.3-0.2-0.3c0,0-0.1,0-0.3-0.1c-0.2,0-0.3-0.1-0.5-0.1
			c-0.2-0.1-0.4-0.1-0.5-0.1s-0.3-0.1-0.3-0.1c-0.2,0-0.2-0.1-0.3-0.3c0-0.1,0.1-0.2,0.3-0.3c0.5-0.1,1-0.3,1.5-0.5
			c0.6,0,1.2-0.2,1.7-0.4c0.6-0.2,1.1-0.5,1.6-0.8c0.5-0.3,1-0.6,1.4-0.8c0.1-0.1,0.2-0.1,0.3-0.1s0.2,0.1,0.2,0.3V30.3z"/>
		<path class="st2" d="M93.6,30.3c0,0.5,0.1,0.9,0.3,1.2c0.2,0.3,0.5,0.5,0.7,0.7s0.5,0.3,0.8,0.4c0.3,0.1,0.4,0.1,0.5,0.1
			s0.2,0.1,0.2,0.1c0,0.1,0.1,0.1,0.1,0.2c0,0.1-0.1,0.1-0.1,0.2c-0.1,0.1-0.1,0.1-0.2,0.1h-9.4c-0.1,0-0.2,0-0.2-0.1
			c-0.1,0-0.1-0.1-0.1-0.2c0-0.1,0-0.1,0.1-0.2c0,0,0.1-0.1,0.2-0.1s0.3-0.1,0.5-0.1s0.5-0.2,0.8-0.4s0.5-0.4,0.7-0.7
			s0.3-0.7,0.3-1.2V9.8c0-0.2-0.1-0.3-0.2-0.3c0,0-0.1,0-0.3-0.1c-0.2,0-0.3-0.1-0.5-0.1c-0.2-0.1-0.4-0.1-0.5-0.1S87,9.1,87,9.1
			c-0.2,0-0.2-0.1-0.3-0.3c0-0.1,0.1-0.2,0.3-0.3c0.5-0.1,1-0.3,1.5-0.5c0.6-0.2,1.1-0.4,1.7-0.6c0.6-0.2,1.1-0.5,1.6-0.8
			c0.5-0.3,1-0.6,1.4-0.8c0.1-0.1,0.2-0.1,0.3-0.1c0.1,0,0.2,0.1,0.2,0.3V30.3z"/>
		<path class="st2" d="M162.9,30.3c0,0.5,0.1,0.9,0.3,1.2c0.2,0.3,0.5,0.5,0.7,0.7c0.3,0.2,0.5,0.3,0.8,0.4s0.4,0.1,0.5,0.1
			s0.2,0.1,0.2,0.1c0,0.1,0.1,0.1,0.1,0.2c0,0.1-0.1,0.1-0.1,0.2c-0.1,0.1-0.1,0.1-0.2,0.1h-9.4c-0.1,0-0.2,0-0.2-0.1
			c-0.1,0-0.1-0.1-0.1-0.2c0-0.1,0-0.1,0.1-0.2c0,0,0.1-0.1,0.2-0.1c0.1,0,0.3-0.1,0.5-0.1c0.3-0.1,0.5-0.2,0.8-0.4s0.5-0.4,0.7-0.7
			s0.3-0.7,0.3-1.2V9.8c0-0.2-0.1-0.3-0.2-0.3c0,0-0.1,0-0.3-0.1c-0.2,0-0.3-0.1-0.5-0.1c-0.2-0.1-0.4-0.1-0.5-0.1
			c-0.2,0-0.3-0.1-0.3-0.1c-0.2,0-0.2-0.1-0.2-0.3c0-0.1,0.1-0.2,0.3-0.3c0.5-0.1,1-0.3,1.5-0.5c0.6-0.2,1.1-0.4,1.7-0.6
			c0.6-0.2,1.1-0.5,1.6-0.8c0.5-0.3,1-0.6,1.4-0.8c0.1-0.1,0.2-0.1,0.3-0.1S163,5.8,163,6L162.9,30.3z"/>
		<path class="st2" d="M39.6,16.5c1.3,0,2.4,0.2,3.4,0.7c1.1,0.4,2,1.1,2.7,1.8c0.8,0.8,1.3,1.7,1.8,2.7c0.4,1,0.6,2.2,0.6,3.3
			c0,1.2-0.2,2.3-0.7,3.4c-0.5,1.1-1.1,2-1.9,2.8c-0.7,0.8-1.7,1.4-2.7,1.9c-1.1,0.5-2.3,0.7-3.5,0.7c-1.3,0-2.4-0.2-3.4-0.7
			c-1.1-0.4-2-1.1-2.7-1.8c-0.8-0.8-1.3-1.7-1.8-2.7c-0.4-1-0.6-2.2-0.6-3.4s0.2-2.3,0.7-3.4c0.5-1.1,1.1-2,1.9-2.8
			c0.8-0.8,1.7-1.4,2.8-1.9C37.3,16.8,38.4,16.5,39.6,16.5z M39.4,32.6c0.6,0,1.1-0.2,1.5-0.6c0.4-0.4,0.8-1,1.1-1.6
			c0.3-0.7,0.5-1.5,0.7-2.4c0.2-0.9,0.2-1.9,0.2-3c0-1.1-0.1-2.1-0.2-3c-0.2-0.9-0.4-1.8-0.7-2.4c-0.3-0.7-0.6-1.2-1.1-1.6
			c-0.4-0.4-0.9-0.6-1.5-0.6c-0.6,0-1.1,0.2-1.5,0.6c-0.4,0.4-0.8,1-1.1,1.6c-0.3,0.7-0.5,1.5-0.7,2.4C36.1,23,36,24,36,25.1
			c0,1.1,0.1,2.1,0.2,3c0.1,0.9,0.4,1.8,0.7,2.4c0.3,0.7,0.7,1.2,1.1,1.6C38.3,32.4,38.9,32.6,39.4,32.6z"/>
		<path class="st2" d="M61,16.5c1,0,1.8,0.1,2.5,0.4s1.4,0.6,1.9,1c0.5,0.4,1,0.9,1.3,1.5c0.4,0.6,0.6,1.1,0.8,1.8
			c0.2,0.6,0.3,1.2,0.4,1.9c0.1,0.6,0.1,1.2,0.1,1.7c0,1.4-0.2,2.6-0.5,3.7c-0.3,1.1-0.8,2.1-1.5,2.8c-0.7,0.8-1.5,1.4-2.5,1.8
			c-1,0.4-2.2,0.6-3.6,0.6c-0.8,0-1.4,0-2-0.2c-0.6-0.1-1.1-0.2-1.6-0.4c-0.5-0.2-0.9-0.4-1.3-0.7c-0.4-0.3-0.8-0.6-1.2-1
			c-0.1,0-0.1-0.1-0.1-0.1s-0.1,0-0.2,0.1c-0.1,0.1-0.3,0.3-0.6,0.5c-0.2,0.2-0.5,0.5-0.8,0.7c-0.3,0.3-0.5,0.5-0.8,0.8
			c-0.3,0.3-0.5,0.5-0.6,0.7C50.7,34,50.6,34,50.5,34s-0.2-0.1-0.2-0.3V22c0-1,0-2,0-3c0-1,0-1.9,0-2.8s0-1.7,0-2.5s0-1.4,0-2
			c0-0.6,0-1.6,0-2.2c0-0.2-0.1-0.3-0.2-0.3c0,0-0.1,0-0.3-0.1c-0.2,0-0.3-0.1-0.5-0.1c-0.2,0-0.4-0.1-0.5-0.1s-0.1,0.1-0.2,0.1
			c-0.2,0-0.2-0.1-0.3-0.3c0-0.1,0.1-0.2,0.3-0.3c0.5-0.1,1-0.3,1.5-0.5c0.6-0.1,1.2-0.3,1.7-0.5c0.6-0.2,1.1-0.5,1.6-0.8
			c0.5-0.3,1-0.6,1.4-0.8c0.1-0.1,0.2-0.1,0.3-0.1s0.2,0.1,0.2,0.3v12.9c0,0.1,0.1,0.1,0.1,0.1c0.1,0,0.1,0,0.1-0.1
			c0.1-0.1,0.3-0.3,0.6-0.6c0.3-0.3,0.6-0.6,1.1-0.9c0.4-0.3,1-0.5,1.6-0.8C59.4,16.7,60.1,16.5,61,16.5z M62.8,25.6
			c0-0.3,0-0.6,0-1.1c0-0.5,0-0.9-0.1-1.5c-0.1-0.5-0.2-1.1-0.3-1.6c-0.1-0.5-0.4-1-0.6-1.4c-0.3-0.4-0.6-0.8-1.1-1.1
			c-0.4-0.3-1-0.4-1.6-0.4c-0.8,0-1.5,0.2-2,0.5c-0.5,0.3-0.9,0.7-1.2,1.1c-0.3,0.4-0.4,0.9-0.5,1.4c-0.1,0.5-0.1,0.9-0.1,1.3v4.9
			c0,0.5,0.1,1,0.2,1.5c0.1,0.6,0.3,1.1,0.6,1.6c0.3,0.5,0.6,0.9,1.1,1.3c0.5,0.4,1.1,0.5,1.8,0.5s1.3-0.2,1.8-0.6s0.9-0.9,1.2-1.5
			s0.6-1.4,0.7-2.3C62.8,27.5,62.8,26.6,62.8,25.6z"/>
		<path class="st2" d="M85.1,31.5c0.2,0,0.3,0,0.4,0.1s0.1,0.2,0,0.4c-0.1,0.1-0.2,0.3-0.4,0.5c-0.2,0.2-0.4,0.4-0.7,0.5
			c-0.3,0.2-0.6,0.3-1,0.4c-0.4,0.1-0.9,0.2-1.4,0.2c-0.7,0-1.4-0.2-1.9-0.5c-0.5-0.3-0.9-0.6-1-1C79,32,79,32,78.9,32
			s-0.2,0.1-0.2,0.1s-0.2,0.1-0.3,0.3s-0.5,0.3-0.8,0.5c-0.4,0.2-0.8,0.4-1.2,0.5c-0.5,0.2-1,0.2-1.7,0.2c-1.1,0-2-0.2-2.7-0.5
			c-0.7-0.3-1.3-0.7-1.8-1.2c-0.5-0.5-0.8-1-1-1.6c-0.2-0.6-0.3-1.2-0.3-1.8c0-1,0.3-1.8,0.8-2.5s1.2-1.3,2.1-1.6
			c0.5-0.2,0.9-0.3,1.4-0.4c0.5-0.1,1-0.2,1.5-0.3s1-0.2,1.5-0.3c0.5-0.1,0.9-0.3,1.4-0.6c0.5-0.3,0.8-0.7,0.9-1.2
			c0.1-0.5,0.3-1,0.3-1.5c0-0.4-0.1-0.8-0.2-1.1c-0.1-0.4-0.3-0.7-0.4-0.9c-0.2-0.3-0.4-0.5-0.7-0.6c-0.3-0.2-0.5-0.2-0.8-0.2
			c-0.5,0-0.9,0.1-1.2,0.4c-0.2,0.3-0.4,0.6-0.6,1c-0.1,0.4-0.3,0.8-0.4,1.2s-0.3,0.8-0.6,1.1c-0.2,0.2-0.5,0.4-0.9,0.5
			c-0.4,0.1-0.7,0.2-1,0.2s-0.6-0.1-0.9-0.2c-0.3-0.1-0.5-0.3-0.7-0.5s-0.3-0.4-0.4-0.7S70,20,70,19.7c0-0.4,0.1-0.8,0.3-1.1
			c0.2-0.4,0.5-0.7,1-1c0.5-0.3,1.1-0.6,1.9-0.7c0.8-0.2,1.8-0.3,3-0.3c1.3,0,2.5,0.1,3.4,0.4c0.9,0.3,1.7,0.7,2.3,1.2
			c0.6,0.5,1,1.2,1.3,1.9c0.3,0.8,0.4,1.6,0.4,2.6c0,1.2,0,2.3-0.1,3.3c-0.1,1-0.1,1.9-0.2,2.7c0,0.8,0,1.5,0.1,2s0.2,0.8,0.5,1
			c0.1,0.1,0.3,0.1,0.5,0.1C84.7,31.5,84.9,31.5,85.1,31.5z M78.8,23.4c0-0.1,0-0.1-0.1-0.2c-0.1,0-0.1,0-0.2,0.1
			c-0.1,0.1-0.2,0.2-0.3,0.3c-0.1,0.1-0.2,0.2-0.3,0.4c-0.2,0.2-0.5,0.5-0.7,0.7s-0.5,0.4-0.7,0.7c-0.2,0.2-0.5,0.4-0.7,0.6
			c-0.2,0.2-0.5,0.4-0.7,0.6c-0.3,0.4-0.6,0.8-0.7,1.2c-0.2,0.4-0.2,0.9-0.2,1.4c0,0.3,0.1,0.7,0.2,1c0.1,0.3,0.3,0.6,0.5,0.9
			c0.2,0.3,0.5,0.5,0.8,0.6c0.3,0.2,0.7,0.3,1.1,0.3s0.8-0.1,1.1-0.3c0.3-0.2,0.5-0.4,0.6-0.7c0.2-0.3,0.3-0.5,0.3-0.8
			c0.1-0.3,0.1-0.5,0.1-0.6L78.8,23.4L78.8,23.4z"/>
		<path class="st2" d="M154.1,31.5c0.2,0,0.3,0,0.4,0.1c0.1,0.1,0.1,0.2,0,0.4c-0.1,0.1-0.2,0.3-0.4,0.5s-0.4,0.4-0.7,0.5
			c-0.3,0.2-0.6,0.3-1,0.4c-0.4,0.1-0.9,0.2-1.4,0.2c-0.7,0-1.4-0.2-1.9-0.5c-0.5-0.3-0.9-0.6-1-1c-0.1-0.1-0.1-0.1-0.2-0.1
			c-0.1,0-0.2,0.1-0.2,0.1s-0.2,0.1-0.3,0.3c-0.2,0.2-0.5,0.3-0.8,0.5c-0.3,0.2-0.8,0.4-1.2,0.5c-0.5,0.2-1,0.2-1.7,0.2
			c-1.1,0-2-0.2-2.7-0.5c-0.7-0.3-1.3-0.7-1.8-1.2c-0.5-0.5-0.8-1-1-1.6c-0.2-0.6-0.3-1.2-0.3-1.8c0-1,0.3-1.8,0.8-2.5
			s1.2-1.3,2.1-1.6c0.5-0.2,0.9-0.3,1.4-0.4c0.5-0.1,1-0.2,1.5-0.3c0.5-0.1,1-0.2,1.5-0.3s0.9-0.3,1.4-0.6c0.5-0.3,0.8-0.7,0.9-1.2
			c0.2-0.5,0.3-1,0.3-1.5c0-0.4-0.1-0.8-0.2-1.1c-0.1-0.4-0.3-0.7-0.4-0.9c-0.2-0.3-0.4-0.5-0.7-0.6s-0.5-0.2-0.8-0.2
			c-0.5,0-0.9,0.1-1.2,0.4c-0.2,0.3-0.4,0.6-0.6,1c-0.1,0.4-0.3,0.8-0.4,1.2c-0.1,0.4-0.3,0.8-0.6,1.1c-0.2,0.2-0.5,0.4-0.9,0.5
			c-0.4,0.1-0.7,0.2-1,0.2s-0.6-0.1-0.9-0.2c-0.3-0.1-0.5-0.3-0.7-0.5s-0.3-0.4-0.4-0.7c-0.1-0.3-0.1-0.5-0.1-0.8
			c0-0.4,0.1-0.8,0.3-1.1c0.2-0.4,0.5-0.7,1-1c0.5-0.3,1.1-0.6,1.9-0.7c0.8-0.2,1.8-0.3,3-0.3c1.3,0,2.5,0.1,3.4,0.4
			c0.9,0.3,1.7,0.7,2.3,1.2c0.6,0.5,1,1.2,1.3,1.9c0.3,0.8,0.4,1.6,0.4,2.6c0,1.2,0,2.3-0.1,3.3c-0.1,1-0.1,1.9-0.1,2.7
			c0,0.8,0,1.5,0.1,2s0.2,0.8,0.5,1c0.1,0.1,0.3,0.1,0.5,0.1C153.7,31.5,153.9,31.5,154.1,31.5z M147.9,23.4c0-0.1,0-0.1-0.1-0.2
			c-0.1,0-0.1,0-0.2,0.1c-0.1,0.1-0.2,0.2-0.3,0.3c-0.1,0.1-0.2,0.2-0.3,0.4c-0.2,0.2-0.5,0.5-0.7,0.7s-0.5,0.4-0.7,0.7
			c-0.2,0.2-0.5,0.4-0.7,0.6c-0.2,0.2-0.5,0.4-0.7,0.6c-0.3,0.4-0.6,0.8-0.7,1.2c-0.2,0.4-0.2,0.9-0.2,1.4c0,0.3,0.1,0.7,0.2,1
			c0.1,0.3,0.2,0.6,0.5,0.9c0.3,0.3,0.5,0.5,0.8,0.6c0.3,0.2,0.7,0.3,1.1,0.3s0.8-0.1,1.1-0.3c0.3-0.2,0.5-0.4,0.6-0.7
			c0.2-0.3,0.3-0.5,0.3-0.8c0.1-0.3,0.1-0.5,0.1-0.6L147.9,23.4L147.9,23.4z"/>
		<path class="st2" d="M184.4,32.6c0.1,0,0.2,0.1,0.2,0.1c0,0.1,0.1,0.1,0.1,0.2c0,0.1-0.1,0.1-0.1,0.2c-0.1,0.1-0.1,0.1-0.2,0.1
			h-6.5c-0.1,0-0.2,0-0.3-0.1c-0.1-0.1-0.1-0.2-0.1-0.3v-1.1c-0.5,0.5-1.2,1-2,1.3c-0.8,0.4-1.8,0.6-3,0.6c-1,0-1.8-0.1-2.5-0.3
			c-0.7-0.2-1.2-0.5-1.7-0.9c-0.4-0.4-0.8-0.8-1-1.3c-0.2-0.5-0.4-1-0.5-1.5s-0.2-1-0.2-1.5c0-0.5,0-1,0-1.4v-7
			c0-0.5-0.1-0.9-0.3-1.2c-0.2-0.3-0.4-0.5-0.7-0.7c-0.2-0.2-0.5-0.3-0.7-0.3c-0.2-0.1-0.4-0.1-0.5-0.1s-0.2-0.1-0.2-0.1
			c0-0.1-0.1-0.1-0.1-0.2s0.1-0.1,0.1-0.2c0.1-0.1,0.1-0.1,0.2-0.1h6.5c0.3,0,0.4,0.2,0.4,0.5v10.5c0,0.5,0.1,1,0.1,1.5
			c0.1,0.5,0.2,0.9,0.4,1.3c0.2,0.4,0.5,0.7,0.9,1c0.4,0.2,0.9,0.4,1.5,0.4c0.7,0,1.2-0.1,1.6-0.4c0.4-0.3,0.7-0.7,0.9-1.1
			c0.2-0.4,0.3-0.9,0.4-1.4c0.1-0.5,0.1-1,0.1-1.5v-7.8c0-0.5-0.1-0.9-0.3-1.2c-0.2-0.3-0.4-0.5-0.7-0.7s-0.5-0.3-0.7-0.3
			c-0.2-0.1-0.4-0.1-0.5-0.1s-0.2-0.1-0.2-0.1c0-0.1-0.1-0.1-0.1-0.2c0-0.1,0.1-0.1,0.1-0.2C175,17,175,17,175.1,17h6.5
			c0.3,0,0.4,0.2,0.4,0.5v12.9c0,0.5,0.1,0.9,0.3,1.2s0.4,0.5,0.7,0.7s0.5,0.3,0.7,0.4C184.2,32.6,184.3,32.6,184.4,32.6z"/>
		<path class="st2" d="M215.6,32.6c0.1,0,0.2,0.1,0.2,0.1c0,0.1,0.1,0.1,0.1,0.2c0,0.1-0.1,0.1-0.1,0.2c-0.1,0.1-0.1,0.1-0.2,0.1
			h-8.5c-0.1,0-0.2,0-0.2-0.1c-0.1,0-0.1-0.1-0.1-0.2c0-0.1,0-0.1,0.1-0.2c0,0,0.1-0.1,0.2-0.1c0.1,0,0.3-0.1,0.5-0.1
			s0.4-0.2,0.6-0.3c0.2-0.2,0.4-0.4,0.6-0.6c0.2-0.3,0.3-0.7,0.3-1.1v-8.3c0-0.5-0.1-1-0.1-1.5c-0.1-0.5-0.2-0.9-0.4-1.3
			s-0.5-0.7-0.9-1s-0.9-0.4-1.5-0.4c-0.5,0-1,0.1-1.3,0.3c-0.3,0.2-0.6,0.4-0.8,0.7c-0.2,0.3-0.3,0.6-0.4,1
			c-0.1,0.4-0.1,0.7-0.1,1.1v9.5c0,0.5,0.1,0.9,0.2,1.1c0.2,0.3,0.4,0.5,0.6,0.6s0.4,0.3,0.6,0.3c0.2,0.1,0.4,0.1,0.5,0.1
			s0.2,0.1,0.2,0.1c0,0.1,0.1,0.1,0.1,0.2c0,0.1-0.1,0.1-0.1,0.2c-0.1,0.1-0.1,0.1-0.2,0.1h-8.4c-0.1,0-0.2,0-0.2-0.1
			c-0.1,0-0.1-0.1-0.1-0.2s0-0.1,0.1-0.2c0,0,0.1-0.1,0.2-0.1c0.1,0,0.3-0.1,0.5-0.1s0.4-0.2,0.6-0.3c0.2-0.2,0.4-0.4,0.6-0.6
			c0.2-0.3,0.3-0.7,0.3-1.1v-8.3c0-0.5-0.1-1-0.1-1.5c-0.1-0.5-0.2-0.9-0.4-1.3c-0.2-0.4-0.5-0.7-0.9-1s-0.9-0.4-1.5-0.4
			s-1,0.1-1.3,0.3c-0.3,0.2-0.6,0.4-0.8,0.7s-0.3,0.6-0.4,1c-0.1,0.4-0.1,0.7-0.1,1.1v9.4c0,0.5,0.1,0.9,0.3,1.1
			c0.2,0.3,0.4,0.5,0.6,0.6c0.2,0.2,0.4,0.3,0.6,0.3c0.2,0.1,0.4,0.1,0.5,0.1s0.2,0.1,0.2,0.1c0,0.1,0.1,0.1,0.1,0.2
			c0,0.1-0.1,0.1-0.1,0.2c-0.1,0.1-0.1,0.1-0.2,0.1h-8.4c-0.1,0-0.2,0-0.2-0.1c-0.1,0-0.1-0.1-0.1-0.2s0-0.1,0.1-0.2
			c0,0,0.1-0.1,0.2-0.1c0.1,0,0.2-0.1,0.5-0.1c0.2,0,0.4-0.2,0.6-0.3s0.4-0.4,0.6-0.6c0.2-0.3,0.3-0.7,0.3-1.1V20.3
			c0-0.2-0.1-0.3-0.2-0.3c0,0-0.1,0-0.3-0.1c-0.1,0-0.3-0.1-0.5-0.1c-0.2-0.1-0.4-0.1-0.5-0.1c-0.2,0-0.3-0.1-0.3-0.1
			c-0.2,0-0.2-0.1-0.3-0.3c0-0.1,0.1-0.2,0.3-0.3c0.5-0.1,1-0.3,1.5-0.5c0.6-0.2,1.1-0.4,1.7-0.6c0.6-0.2,1.1-0.5,1.6-0.8
			c0.5-0.3,1-0.6,1.4-0.8c0.1-0.1,0.2-0.1,0.3-0.1s0.2,0.1,0.2,0.3v1.3c0.6-0.4,1.2-0.8,2-1.1c0.8-0.3,1.7-0.5,2.7-0.5
			c0.7,0,1.3,0.1,1.8,0.2c0.5,0.1,1,0.3,1.4,0.5s0.7,0.4,1,0.7c0.3,0.3,0.5,0.6,0.7,0.9c0.3-0.3,0.6-0.6,0.9-0.8
			c0.4-0.3,0.8-0.5,1.2-0.7c0.5-0.2,1-0.4,1.5-0.5c0.6-0.1,1.2-0.2,1.8-0.2c1,0,1.8,0.1,2.5,0.3c0.7,0.2,1.2,0.5,1.6,0.9
			c0.4,0.4,0.8,0.8,1,1.3c0.2,0.5,0.4,1,0.5,1.5s0.1,1,0.2,1.5c0,0.5,0,1,0,1.4v0.1v7.1c0,0.5,0.1,0.9,0.3,1.1
			c0.2,0.3,0.4,0.5,0.6,0.6s0.4,0.3,0.6,0.3C215.3,32.6,215.5,32.6,215.6,32.6z"/>
		<path class="st2" d="M237.5,32.6c0.1,0,0.2,0.1,0.2,0.1c0,0.1,0.1,0.1,0.1,0.2c0,0.1-0.1,0.1-0.1,0.2c-0.1,0.1-0.1,0.1-0.2,0.1
			h-2.1h-0.2h-4.6h-0.2h-2.1c-0.1,0-0.2,0-0.2-0.1c-0.1,0-0.1-0.1-0.1-0.2c0-0.1,0-0.1,0.1-0.2c0,0,0.1-0.1,0.2-0.1
			c0.1,0,0.3-0.1,0.5-0.1c0.2-0.1,0.5-0.2,0.7-0.4s0.5-0.4,0.7-0.7s0.3-0.7,0.3-1.2v-6.6v-0.2v-1c0-0.5-0.1-1-0.1-1.6
			c-0.1-0.5-0.2-1-0.4-1.5c-0.2-0.4-0.5-0.8-0.9-1.1c-0.4-0.3-1-0.4-1.6-0.4c-0.7,0-1.3,0.1-1.6,0.4c-0.4,0.3-0.7,0.6-0.9,1
			c-0.2,0.4-0.3,0.9-0.4,1.3c0,0.5-0.1,0.9-0.1,1.2v8.3c0,0.5,0.1,0.9,0.3,1.2s0.4,0.5,0.7,0.7c0.2,0.2,0.5,0.3,0.7,0.4
			c0.2,0.1,0.4,0.1,0.5,0.1s0.2,0.1,0.2,0.1s0.1,0.1,0.1,0.2s-0.1,0.1-0.1,0.2s-0.1,0.1-0.2,0.1h-9c-0.1,0-0.2,0-0.2-0.1
			s-0.1-0.1-0.1-0.2c0-0.1,0-0.1,0.1-0.2c0-0.1,0.1-0.1,0.2-0.1c0.1,0,0.3,0,0.5-0.1s0.5-0.2,0.7-0.4c0.2-0.2,0.5-0.4,0.7-0.7
			c0.2-0.3,0.3-0.7,0.3-1.2v-9.7c0-0.2-0.1-0.3-0.2-0.3c0,0-0.1,0-0.3-0.1c-0.2,0-0.3-0.1-0.5-0.1c-0.2-0.1-0.4-0.1-0.5-0.1
			c-0.2,0-0.3-0.1-0.3-0.1c-0.2,0-0.2-0.1-0.2-0.3c0-0.1,0.1-0.2,0.3-0.3c0.5-0.1,1-0.3,1.5-0.5c0.6-0.2,1.1-0.4,1.7-0.6
			c0.6-0.2,1.1-0.5,1.6-0.8c0.5-0.3,1-0.6,1.4-0.8c0.1-0.1,0.2-0.1,0.3-0.1s0.2,0.1,0.2,0.3v1.6c0.3-0.2,0.6-0.5,0.9-0.7
			c0.3-0.2,0.7-0.4,1.1-0.6c0.4-0.2,0.9-0.3,1.4-0.4c0.5-0.1,1.1-0.2,1.7-0.2c1,0,1.8,0.1,2.5,0.3c0.7,0.2,1.2,0.5,1.7,0.9
			c0.4,0.4,0.8,0.8,1,1.3c0.2,0.5,0.4,1,0.5,1.5c0.1,0.5,0.2,1,0.2,1.5c0,0.5,0,1,0,1.4v0.1v6.9c0,0.5,0.1,0.9,0.3,1.2
			c0.2,0.3,0.4,0.5,0.7,0.7c0.3,0.2,0.5,0.3,0.7,0.4C237.2,32.6,237.4,32.6,237.5,32.6z"/>
		<path class="st2" d="M246.4,30.3c0,0.5,0.1,0.9,0.3,1.2c0.2,0.3,0.4,0.5,0.7,0.7s0.5,0.3,0.7,0.4c0.2,0.1,0.4,0.1,0.5,0.1
			s0.2,0.1,0.2,0.1c0,0.1,0.1,0.1,0.1,0.2c0,0.1-0.1,0.1-0.1,0.2c-0.1,0.1-0.1,0.1-0.2,0.1h-9c-0.1,0-0.2,0-0.2-0.1
			c-0.1,0-0.1-0.1-0.1-0.2s0-0.1,0.1-0.2c0,0,0.1-0.1,0.2-0.1c0.1,0,0.3-0.1,0.5-0.1c0.2-0.1,0.5-0.2,0.7-0.4s0.5-0.4,0.7-0.7
			s0.3-0.7,0.3-1.2v-10c0-0.2-0.1-0.3-0.2-0.3c0,0-0.1,0-0.3-0.1c-0.1,0-0.3-0.1-0.5-0.1c-0.2-0.1-0.4-0.1-0.5-0.1
			c-0.2,0-0.3-0.1-0.3-0.1c-0.2,0-0.2-0.1-0.3-0.3c0-0.1,0.1-0.2,0.3-0.3c0.5-0.1,1-0.3,1.5-0.5s1.1-0.4,1.7-0.6
			c0.6-0.2,1.1-0.5,1.6-0.8c0.5-0.3,1-0.6,1.4-0.8c0.1-0.1,0.2-0.1,0.3-0.1s0.2,0.1,0.2,0.3L246.4,30.3L246.4,30.3z M246.5,10.4
			c-0.2-0.4-0.4-0.7-0.6-0.9c-0.3-0.3-0.6-0.5-0.9-0.6c-0.4-0.2-0.8-0.2-1.2-0.2S243,8.9,242.6,9c-0.4,0.1-0.7,0.4-1,0.6
			c-0.3,0.3-0.5,0.6-0.7,0.9c-0.2,0.4-0.2,0.7-0.2,1.1s0.1,0.8,0.2,1.1c0.2,0.4,0.4,0.7,0.6,0.9c0.3,0.3,0.6,0.5,0.9,0.6
			c0.4,0.2,0.8,0.2,1.2,0.2s0.8-0.1,1.2-0.2c0.4-0.2,0.7-0.4,1-0.6c0.3-0.3,0.5-0.6,0.7-0.9c0.2-0.4,0.2-0.7,0.2-1.1
			S246.6,10.7,246.5,10.4z"/>
	</g>
	<g>
		<path class="st1" d="M55.7,49.4h-3.6v-1.2h3.6V49.4z"/>
		<path class="st1" d="M63.5,49.4h-4.1c0,0.4,0.1,0.7,0.2,0.9c0.1,0.3,0.3,0.5,0.5,0.6S60.6,51,61,51s0.6-0.1,0.8-0.2
			c0.2-0.1,0.4-0.3,0.7-0.5l0.8,0.8c-0.3,0.3-0.7,0.6-1,0.7C61.9,52,61.5,52,61,52c-0.4,0-0.8-0.1-1.1-0.2c-0.3-0.1-0.6-0.3-0.9-0.6
			c-0.3-0.3-0.5-0.6-0.6-1c-0.1-0.4-0.2-0.9-0.2-1.5c0-0.7,0.1-1.3,0.3-1.7c0.2-0.5,0.5-0.8,0.9-1.1c0.4-0.3,0.9-0.4,1.4-0.4
			c0.6,0,1,0.1,1.4,0.4c0.4,0.3,0.7,0.6,0.9,1.1c0.2,0.5,0.3,1,0.3,1.6L63.5,49.4L63.5,49.4z M62.2,48.5c0-0.3-0.1-0.6-0.2-0.9
			c-0.1-0.2-0.3-0.4-0.5-0.6c-0.2-0.2-0.5-0.2-0.8-0.2s-0.5,0.1-0.8,0.2c-0.2,0.1-0.4,0.3-0.5,0.6c0,0.1-0.1,0.2-0.1,0.3
			s0,0.3-0.1,0.5L62.2,48.5L62.2,48.5z"/>
		<path class="st1" d="M70.8,52h-1.5L68,50L66.8,52h-1.5l2.1-3.2l-2.1-3.1h1.5l1.2,2l1.2-2h1.5l-2.1,3.1L70.8,52z"/>
		<path class="st1" d="M77.2,51.2c-0.2,0.2-0.4,0.4-0.6,0.5s-0.4,0.2-0.7,0.3c-0.2,0.1-0.5,0.1-0.8,0.1c-0.5,0-1-0.1-1.4-0.3
			c-0.4-0.2-0.8-0.6-1-1.1c-0.3-0.5-0.4-1.1-0.4-1.8c0-0.6,0.1-1.1,0.2-1.5c0.2-0.4,0.4-0.7,0.6-1c0.3-0.3,0.6-0.4,0.9-0.6
			c0.3-0.1,0.7-0.2,1-0.2c0.4,0,0.8,0.1,1.2,0.2c0.3,0.1,0.6,0.4,0.9,0.7l-0.9,0.8c-0.2-0.2-0.4-0.4-0.6-0.5s-0.4-0.1-0.7-0.1
			c-0.5,0-0.9,0.2-1.2,0.6c-0.1,0.2-0.2,0.4-0.3,0.6s-0.1,0.5-0.1,0.9c0,0.7,0.1,1.2,0.4,1.5c0.3,0.4,0.7,0.6,1.2,0.6
			c0.3,0,0.5-0.1,0.6-0.1s0.4-0.2,0.6-0.5L77.2,51.2z"/>
		<path class="st1" d="M84.3,49.4h-4.1c0,0.4,0.1,0.7,0.2,0.9c0.1,0.3,0.3,0.5,0.5,0.6s0.5,0.2,0.9,0.2s0.6-0.1,0.8-0.2
			c0.2-0.1,0.4-0.3,0.7-0.5l0.8,0.8c-0.3,0.3-0.7,0.6-1,0.7C82.7,52,82.3,52,81.8,52c-0.4,0-0.8-0.1-1.1-0.2
			c-0.3-0.1-0.6-0.3-0.9-0.6s-0.5-0.6-0.6-1c-0.1-0.4-0.2-0.9-0.2-1.5c0-0.7,0.1-1.3,0.3-1.7c0.2-0.5,0.5-0.8,0.9-1.1
			s0.9-0.4,1.4-0.4c0.6,0,1,0.1,1.4,0.4c0.4,0.3,0.7,0.6,0.9,1.1c0.2,0.5,0.3,1,0.3,1.6L84.3,49.4L84.3,49.4z M83.1,48.5
			c0-0.3-0.1-0.6-0.2-0.9c-0.1-0.3-0.3-0.4-0.5-0.6c-0.2-0.2-0.5-0.2-0.8-0.2s-0.5,0.1-0.8,0.2c-0.2,0.2-0.4,0.3-0.5,0.6
			c-0.1,0.1-0.1,0.2-0.1,0.3s0,0.3-0.1,0.5L83.1,48.5L83.1,48.5z"/>
		<path class="st1" d="M89.2,52h-0.8c-0.6,0-1-0.2-1.3-0.5s-0.4-0.7-0.4-1.2v-7H88v6.9c0,0.3,0.1,0.4,0.2,0.6
			c0.1,0.1,0.3,0.2,0.5,0.2h0.6L89.2,52L89.2,52z"/>
		<path class="st1" d="M93.9,52h-0.8c-0.6,0-1-0.2-1.3-0.5s-0.4-0.7-0.4-1.2v-7h1.3v6.9c0,0.3,0.1,0.4,0.2,0.6
			c0.1,0.1,0.3,0.2,0.5,0.2H94L93.9,52L93.9,52z"/>
		<path class="st1" d="M101.1,49.4h-4.1c0,0.4,0.1,0.7,0.2,0.9c0.1,0.3,0.3,0.5,0.5,0.6s0.5,0.2,0.9,0.2s0.6-0.1,0.8-0.2
			c0.2-0.1,0.4-0.3,0.7-0.5l0.8,0.8c-0.3,0.3-0.7,0.6-1,0.7C99.5,52,99.1,52,98.6,52c-0.4,0-0.8-0.1-1.1-0.2
			c-0.3-0.1-0.6-0.3-0.9-0.6c-0.3-0.3-0.5-0.6-0.6-1c-0.1-0.4-0.2-0.9-0.2-1.5c0-0.7,0.1-1.3,0.3-1.7c0.2-0.5,0.5-0.8,0.9-1.1
			s0.9-0.4,1.4-0.4c0.6,0,1,0.1,1.4,0.4c0.4,0.3,0.7,0.6,0.9,1.1c0.2,0.5,0.3,1,0.3,1.6L101.1,49.4L101.1,49.4z M99.8,48.5
			c0-0.3-0.1-0.6-0.2-0.9c-0.1-0.2-0.3-0.4-0.5-0.6c-0.2-0.1-0.5-0.2-0.8-0.2s-0.5,0.1-0.8,0.2c-0.2,0.2-0.4,0.3-0.5,0.6
			C97,47.7,97,47.8,97,47.9s0,0.3-0.1,0.5L99.8,48.5L99.8,48.5z"/>
		<path class="st1" d="M108.5,52h-1.3v-3.8c0-0.3-0.1-0.6-0.2-0.8s-0.3-0.4-0.5-0.5c-0.2-0.1-0.4-0.2-0.7-0.2
			c-0.4,0-0.7,0.1-0.9,0.4c-0.2,0.2-0.4,0.6-0.4,1v3.8h-1.3v-6.2h1.2v0.6c0.2-0.2,0.5-0.4,0.8-0.5s0.6-0.2,0.9-0.2
			c0.6,0,1.2,0.2,1.5,0.6c0.4,0.4,0.6,1,0.6,1.8V52H108.5z"/>
		<path class="st1" d="M115.9,51.2c-0.2,0.2-0.4,0.4-0.6,0.5s-0.4,0.2-0.7,0.3c-0.2,0.1-0.5,0.1-0.8,0.1c-0.5,0-1-0.1-1.4-0.3
			c-0.4-0.2-0.8-0.6-1-1.1S111,49.7,111,49c0-0.6,0.1-1.1,0.2-1.5c0.2-0.4,0.4-0.7,0.6-1c0.3-0.3,0.6-0.4,0.9-0.6
			c0.3-0.1,0.7-0.2,1-0.2c0.4,0,0.8,0.1,1.2,0.2c0.3,0.1,0.6,0.4,0.9,0.7l-0.9,0.8c-0.2-0.2-0.4-0.4-0.6-0.5s-0.4-0.1-0.7-0.1
			c-0.5,0-0.9,0.2-1.2,0.6c-0.1,0.2-0.2,0.4-0.3,0.6c-0.1,0.2-0.1,0.5-0.1,0.9c0,0.7,0.1,1.2,0.4,1.5c0.3,0.4,0.7,0.6,1.2,0.6
			c0.3,0,0.5-0.1,0.6-0.1c0.2-0.1,0.4-0.2,0.6-0.5L115.9,51.2z"/>
		<path class="st1" d="M123,49.4h-4.1c0,0.4,0.1,0.7,0.2,0.9c0.1,0.3,0.3,0.5,0.5,0.6s0.5,0.2,0.9,0.2c0.4,0,0.6-0.1,0.8-0.2
			c0.2-0.1,0.4-0.3,0.7-0.5l0.8,0.8c-0.3,0.3-0.7,0.6-1,0.7c-0.4,0.2-0.8,0.2-1.3,0.2c-0.4,0-0.8-0.1-1.1-0.2
			c-0.3-0.1-0.6-0.3-0.9-0.6s-0.5-0.6-0.6-1c-0.1-0.4-0.2-0.9-0.2-1.5c0-0.7,0.1-1.3,0.3-1.7c0.2-0.5,0.5-0.8,0.9-1.1
			s0.9-0.4,1.4-0.4c0.6,0,1,0.1,1.4,0.4c0.4,0.3,0.7,0.6,0.9,1.1c0.2,0.5,0.3,1,0.3,1.6L123,49.4L123,49.4z M121.7,48.5
			c0-0.3-0.1-0.6-0.2-0.9c-0.1-0.2-0.3-0.4-0.5-0.6c-0.2-0.2-0.5-0.2-0.8-0.2c-0.3,0-0.5,0.1-0.8,0.2c-0.2,0.2-0.4,0.3-0.5,0.6
			c-0.1,0.1-0.1,0.2-0.1,0.3s0,0.3-0.1,0.5L121.7,48.5L121.7,48.5z"/>
		<path class="st1" d="M134.3,49c0,0.6-0.1,1.1-0.2,1.5c-0.1,0.4-0.3,0.7-0.6,1c-0.5,0.5-1.1,0.7-1.9,0.7c-0.8,0-1.4-0.3-1.9-0.7
			c-0.3-0.3-0.5-0.6-0.6-1c-0.1-0.4-0.2-0.9-0.2-1.4c0-0.6,0.1-1,0.2-1.4c0.1-0.4,0.3-0.7,0.6-1c0.1-0.2,0.3-0.3,0.5-0.4
			c0.2-0.1,0.4-0.2,0.6-0.3c0.2-0.1,0.5-0.1,0.8-0.1c0.4,0,0.8,0.1,1.1,0.2s0.6,0.3,0.8,0.5c0.3,0.3,0.5,0.6,0.6,1
			C134.2,48,134.3,48.4,134.3,49z M133,49c0-0.4,0-0.8-0.1-1c-0.1-0.3-0.2-0.5-0.4-0.7s-0.5-0.4-0.9-0.4s-0.7,0.1-0.9,0.4
			c-0.2,0.2-0.3,0.4-0.3,0.7c-0.1,0.3-0.1,0.6-0.1,1s0,0.8,0.1,1c0.1,0.3,0.2,0.5,0.3,0.7c0.3,0.3,0.6,0.4,0.9,0.4
			c0.4,0,0.7-0.1,0.9-0.4c0.2-0.2,0.3-0.4,0.4-0.7C133,49.8,133,49.4,133,49z"/>
		<path class="st1" d="M141.1,46.4l-1,1c-0.1-0.2-0.3-0.3-0.4-0.3c-0.1-0.1-0.3-0.1-0.5-0.1s-0.4,0.1-0.6,0.2
			c-0.2,0.1-0.3,0.3-0.5,0.5c-0.1,0.2-0.2,0.5-0.2,0.7v3.8h-1.1v-6.2h1.2v0.7c0.2-0.2,0.4-0.4,0.7-0.6s0.6-0.2,1-0.2
			c0.3,0,0.6,0,0.8,0.1C140.7,46,140.9,46.2,141.1,46.4z"/>
		<path class="st1" d="M152,52h-1.3v-3.8c0-0.3-0.1-0.6-0.2-0.8c-0.1-0.2-0.3-0.4-0.5-0.5s-0.4-0.2-0.7-0.2c-0.4,0-0.7,0.1-0.9,0.4
			s-0.4,0.6-0.4,1v3.8h-1.3v-6.2h1.2v0.6c0.2-0.2,0.5-0.4,0.8-0.5s0.6-0.2,0.9-0.2c0.6,0,1.2,0.2,1.5,0.6c0.4,0.4,0.6,1,0.6,1.8
			L152,52L152,52z"/>
		<path class="st1" d="M159.6,49c0,0.6-0.1,1.1-0.2,1.5c-0.1,0.4-0.3,0.7-0.6,1c-0.5,0.5-1.1,0.7-1.9,0.7s-1.4-0.3-1.9-0.7
			c-0.3-0.3-0.5-0.6-0.6-1c-0.1-0.4-0.2-0.9-0.2-1.4c0-0.6,0.1-1,0.2-1.4c0.1-0.4,0.3-0.7,0.6-1c0.1-0.2,0.3-0.3,0.5-0.4
			c0.2-0.1,0.4-0.2,0.6-0.3s0.5-0.1,0.8-0.1c0.4,0,0.8,0.1,1.1,0.2s0.6,0.3,0.8,0.5c0.3,0.3,0.5,0.6,0.6,1
			C159.5,48,159.6,48.4,159.6,49z M158.4,49c0-0.4,0-0.8-0.1-1c-0.1-0.3-0.2-0.5-0.4-0.7s-0.5-0.4-0.9-0.4s-0.7,0.1-0.9,0.4
			c-0.2,0.2-0.3,0.4-0.3,0.7c-0.1,0.3-0.1,0.6-0.1,1s0,0.8,0.1,1c0.1,0.3,0.2,0.5,0.3,0.7c0.3,0.3,0.6,0.4,0.9,0.4
			c0.4,0,0.7-0.1,0.9-0.4c0.2-0.2,0.3-0.4,0.4-0.7C158.4,49.8,158.4,49.4,158.4,49z"/>
		<path class="st1" d="M164.8,52H164c-0.4,0-0.7-0.1-0.9-0.2c-0.3-0.2-0.5-0.4-0.6-0.6c-0.1-0.3-0.2-0.6-0.2-0.9v-3.5h-0.7v-1h0.7
			V44h1.3v1.9h1.2v1h-1.2v3.4c0,0.5,0.2,0.7,0.7,0.7h0.5V52z"/>
		<path class="st1" d="M172.1,52h-1.3v-3.8c0-0.5-0.1-0.8-0.4-1s-0.5-0.3-0.9-0.3c-0.4,0-0.7,0.1-0.9,0.4c-0.2,0.2-0.4,0.6-0.4,1
			v3.8H167v-8.7h1.3v3.2c0.4-0.5,1-0.7,1.6-0.7c0.5,0,0.8,0.1,1.2,0.3c0.3,0.2,0.6,0.5,0.8,0.8c0.2,0.4,0.3,0.8,0.3,1.2L172.1,52
			L172.1,52z"/>
		<path class="st1" d="M176.2,44.7h-1.3v-1.3h1.3V44.7L176.2,44.7z M176.2,52h-1.3v-6.2h1.3V52z"/>
		<path class="st1" d="M184,52h-1.3v-3.8c0-0.3-0.1-0.6-0.2-0.8s-0.3-0.4-0.5-0.5s-0.4-0.2-0.7-0.2c-0.4,0-0.7,0.1-0.9,0.4
			c-0.2,0.2-0.4,0.6-0.4,1v3.8h-1.3v-6.2h1.2v0.6c0.2-0.2,0.5-0.4,0.8-0.5s0.6-0.2,0.9-0.2c0.6,0,1.2,0.2,1.5,0.6
			c0.4,0.4,0.6,1,0.6,1.8L184,52L184,52z"/>
		<path class="st1" d="M191.4,52c0,0.5-0.1,1-0.3,1.4c-0.2,0.4-0.5,0.7-0.9,0.9c-0.4,0.2-0.9,0.3-1.4,0.3c-0.3,0-0.6,0-0.9-0.1
			c-0.2,0-0.5-0.1-0.7-0.3s-0.4-0.3-0.7-0.5l0.8-0.8c0.2,0.2,0.4,0.3,0.6,0.4c0.2,0.1,0.4,0.1,0.7,0.1c0.5,0,0.9-0.2,1.1-0.5
			c0.2-0.3,0.4-0.7,0.4-1.1V51c-0.2,0.3-0.5,0.4-0.7,0.6c-0.3,0.1-0.6,0.2-0.9,0.2c-0.3,0-0.6-0.1-0.8-0.2s-0.5-0.2-0.7-0.4
			c-0.3-0.3-0.5-0.6-0.6-1c-0.1-0.4-0.1-0.9-0.1-1.5c0-0.6,0.1-1.1,0.1-1.5c0.1-0.4,0.3-0.8,0.6-1c0.2-0.2,0.4-0.3,0.6-0.4
			c0.3-0.1,0.5-0.1,0.9-0.1s0.7,0,0.9,0.2c0.3,0.1,0.5,0.3,0.7,0.6v-0.7h1.2L191.4,52L191.4,52z M190.2,48.9c0-0.6-0.1-1.1-0.2-1.4
			c-0.2-0.4-0.5-0.5-1-0.5s-0.9,0.2-1,0.5c-0.2,0.4-0.3,0.8-0.3,1.4s0.1,1.1,0.3,1.4c0.2,0.4,0.5,0.5,1,0.5s0.9-0.2,1-0.5
			C190.1,50,190.2,49.5,190.2,48.9z"/>
		<path class="st1" d="M197.8,49.4h-3.6v-1.2h3.6V49.4z"/>
	</g>
</g>
</svg>
