<?xml version="1.0" encoding="utf-8"?>
<!-- Generator: Adobe Illustrator 27.4.0, SVG Export Plug-In . SVG Version: 6.00 Build 0)  -->
<svg version="1.1" id="Capa_1" xmlns="http://www.w3.org/2000/svg" xmlns:xlink="http://www.w3.org/1999/xlink" x="0px" y="0px"
	 viewBox="0 0 425.6 125.4" style="enable-background:new 0 0 425.6 125.4;" xml:space="preserve">
<style type="text/css">
	.st0{fill:#FFFFFF;}
</style>
<g>
	<g>
		<path class="st0" d="M116.4,120.1c-1.6,0.7-3.9,1.5-7.5,1.5c-7.8,0-12.4-4.3-12.4-14c0-9.5,5.2-14.1,12.9-14.1
			c3.4,0,6.2,0.7,6.5,0.9v6.6H113v-3.4l-0.5-0.6c-0.9-0.2-1.8-0.4-2.9-0.4c-5.5,0-7.8,3.9-7.8,10.5c0,7.3,2.3,11,8,11
			c1.2,0,2.1-0.1,3-0.3l0.6-0.6v-3.6h3.1V120.1z"/>
		<path class="st0" d="M138.3,121.3h-5.4c-1.4,0-1.7-0.8-1.7-1.6v-0.9H131c-0.9,1.1-2.8,3-5.8,3c-4.1,0-6-2.6-6-5.9
			c0-3.9,2.7-6.1,6.7-6.1h5v-1.9c0-2.5-0.4-4.4-3.9-4.4c-0.9,0-1.8,0.2-2.6,0.3l-0.6,0.5v3h-3.1v-5.5c1.7-0.5,4.3-1.3,7.7-1.3
			c5.4,0,7.1,3,7.1,6.6v11.2l0.6,0.7h2.2V121.3z M130.9,116.3v-3.9h-3.8c-2.1,0-3.3,0.9-3.3,3c0,1.7,0.7,2.8,3.1,2.8
			C128.4,118.1,129.8,117.3,130.9,116.3z"/>
		<path class="st0" d="M146.1,103.3v14.8l0.6,0.7h4.3v2.5c0,0-3.3,0.4-5.3,0.4c-2.8,0-4.2-1.1-4.2-4.1v-14.3h-2.6v-2.5h2l0.6-0.6
			l1.7-5h2.9v5.6h4.5v2.5H146.1z"/>
		<path class="st0" d="M171.8,121.3h-5.4c-1.4,0-1.7-0.8-1.7-1.6v-0.9h-0.2c-0.9,1.1-2.8,3-5.8,3c-4.1,0-6-2.6-6-5.9
			c0-3.9,2.7-6.1,6.7-6.1h5v-1.9c0-2.5-0.4-4.4-3.9-4.4c-0.9,0-1.8,0.2-2.6,0.3l-0.6,0.5v3h-3.1v-5.5c1.7-0.5,4.3-1.3,7.7-1.3
			c5.4,0,7.1,3,7.1,6.6v11.2l0.6,0.7h2.2V121.3z M164.4,116.3v-3.9h-3.8c-2.1,0-3.3,0.9-3.3,3c0,1.7,0.7,2.8,3.1,2.8
			C161.9,118.1,163.3,117.3,164.4,116.3z"/>
		<path class="st0" d="M178.8,92.8c1.4,0,1.7,0.8,1.7,1.6v23.7l0.6,0.7h2.2v2.5H173v-2.5h2.2l0.6-0.7V96l-0.6-0.6H173v-2.6H178.8z"
			/>
		<path class="st0" d="M204.4,121.3H199c-1.4,0-1.7-0.8-1.7-1.6v-0.9h-0.2c-0.9,1.1-2.8,3-5.8,3c-4.1,0-6-2.6-6-5.9
			c0-3.9,2.7-6.1,6.7-6.1h5v-1.9c0-2.5-0.4-4.4-3.9-4.4c-0.9,0-1.8,0.2-2.6,0.3l-0.6,0.5v3h-3.1v-5.5c1.7-0.5,4.3-1.3,7.7-1.3
			c5.4,0,7.1,3,7.1,6.6v11.2l0.6,0.7h2.2V121.3z M197,116.3v-3.9h-3.8c-2.1,0-3.3,0.9-3.3,3c0,1.7,0.7,2.8,3.1,2.8
			C194.5,118.1,195.9,117.3,197,116.3z"/>
		<path class="st0" d="M205.9,121.3v-2.5h2.2l0.6-0.7V104l-0.6-0.7h-2.2v-2.6h5.5c1.4,0,1.7,0.8,1.7,1.6v0.9h0.1
			c0.9-1,3.1-2.9,6.1-2.9c4.5,0,6,2.8,6,6.2v11.6l0.6,0.7h2.2v2.5h-9.9v-2.5h1.9l0.6-0.7v-10.9c0-1.6-0.4-3.4-3-3.4
			c-1.7,0-3.1,0.7-4.3,1.8v12.5l0.6,0.7h1.9v2.5H205.9z"/>
		<path class="st0" d="M249.1,121.3h-5.4c-1.4,0-1.7-0.8-1.7-1.6v-0.9h-0.2c-0.9,1.1-2.8,3-5.8,3c-4.1,0-6-2.6-6-5.9
			c0-3.9,2.7-6.1,6.7-6.1h5v-1.9c0-2.5-0.4-4.4-3.9-4.4c-0.9,0-1.8,0.2-2.6,0.3l-0.6,0.5v3h-3.1v-5.5c1.7-0.5,4.3-1.3,7.7-1.3
			c5.4,0,7.1,3,7.1,6.6v11.2l0.6,0.7h2.2V121.3z M241.7,116.3v-3.9h-3.8c-2.1,0-3.3,0.9-3.3,3c0,1.7,0.7,2.8,3.1,2.8
			C239.2,118.1,240.6,117.3,241.7,116.3z"/>
		<path class="st0" d="M270.8,93.6c6.7,0,11.4,4.7,11.4,14c0,9.4-4.7,14-11.4,14c-6.7,0-11.4-4.7-11.4-14
			C259.4,98.3,264.1,93.6,270.8,93.6z M270.8,118.4c4.3,0,6.2-3.5,6.2-10.8c0-7.3-1.9-10.8-6.2-10.8c-4.3,0-6.2,3.5-6.2,10.8
			C264.6,114.9,266.5,118.4,270.8,118.4z"/>
		<path class="st0" d="M298.9,120.2c-1.1,1-3.4,1.5-5.6,1.5c-5.2,0-9.6-3.3-9.6-10.4c0-7.2,4.5-11,10-11c2.8,0,4.9,0.7,5.3,0.9v5.9
			h-3.1V104l-0.6-0.5c-0.4-0.1-0.9-0.2-1.3-0.2c-3.6,0-5.5,2.6-5.5,7.9c0,5.2,2.2,7.5,6,7.5c1.8,0,3.6-0.5,4.4-0.9V120.2z"/>
		<path class="st0" d="M315.2,120.2c-1.1,1-3.4,1.5-5.6,1.5c-5.2,0-9.6-3.3-9.6-10.4c0-7.2,4.5-11,10-11c2.8,0,4.9,0.7,5.3,0.9v5.9
			h-3.1V104l-0.6-0.5c-0.4-0.1-0.9-0.2-1.3-0.2c-3.6,0-5.5,2.6-5.5,7.9c0,5.2,2.2,7.5,6,7.5c1.8,0,3.6-0.5,4.4-0.9V120.2z"/>
		<path class="st0" d="M323.7,100.7c1.4,0,1.7,0.8,1.7,1.6v15.8l0.6,0.7h2.2v2.5h-10.3v-2.5h2.2l0.6-0.7V104l-0.6-0.7h-2.2v-2.6
			H323.7z M322.7,92.5c1.8,0,2.7,1,2.7,2.6c0,1.5-0.9,2.6-2.7,2.6c-1.8,0-2.7-1.1-2.7-2.6C320,93.6,320.9,92.5,322.7,92.5z"/>
		<path class="st0" d="M345.4,121.3c-1.4,0-1.7-0.8-1.7-1.6v-0.9h-0.1c-1.1,1.4-3.1,3-5.7,3c-4.2,0-7.6-3.4-7.6-10.5
			c0-6.9,3.7-10.9,8.4-10.9c2,0,3.6,0.9,4.7,1.9V96l-0.6-0.6h-2.2v-2.6h5.8c1.4,0,1.7,0.8,1.7,1.6v23.7l0.6,0.7h2.2v2.5H345.4z
			 M343.4,116.4v-11.2c-0.9-0.9-2.2-1.6-3.8-1.6c-2.8,0-4.4,2.3-4.4,7.6c0,5.2,1.5,7.1,4.2,7.1C340.8,118.2,342.1,117.7,343.4,116.4
			z"/>
		<path class="st0" d="M368.5,112.2H357c0.4,4.6,2.6,6.4,6.2,6.4c2.2,0,3.9-0.5,4.8-0.9v2.5c-1.2,0.7-3.2,1.4-6.3,1.4
			c-5.2,0-9.5-3.1-9.5-10.4c0-7.3,3.9-11,8.9-11c4.8,0,8,3.1,8,8.4v2.9L368.5,112.2z M357,109.4h7.5v-1.2c0-3.4-1.2-5-3.5-5
			C358.7,103.2,357.3,105.2,357,109.4z"/>
		<path class="st0" d="M370.7,121.3v-2.5h2.2l0.6-0.7V104l-0.6-0.7h-2.2v-2.6h5.5c1.4,0,1.7,0.8,1.7,1.6v0.9h0.1
			c0.9-1,3.1-2.9,6.1-2.9c4.5,0,6,2.8,6,6.2v11.6l0.6,0.7h2.2v2.5H383v-2.5h1.9l0.6-0.7v-10.9c0-1.6-0.4-3.4-3-3.4
			c-1.7,0-3.1,0.7-4.3,1.8v12.5l0.6,0.7h1.9v2.5H370.7z"/>
		<path class="st0" d="M400.1,103.3v14.8l0.6,0.7h4.3v2.5c0,0-3.3,0.4-5.3,0.4c-2.8,0-4.2-1.1-4.2-4.1v-14.3h-2.6v-2.5h2l0.6-0.6
			l1.7-5h2.9v5.6h4.5v2.5H400.1z"/>
		<path class="st0" d="M422.2,112.2h-11.5c0.4,4.6,2.6,6.4,6.2,6.4c2.2,0,3.9-0.5,4.8-0.9v2.5c-1.2,0.7-3.2,1.4-6.3,1.4
			c-5.2,0-9.5-3.1-9.5-10.4c0-7.3,3.9-11,8.9-11c4.8,0,8,3.1,8,8.4v2.9L422.2,112.2z M410.8,109.4h7.5v-1.2c0-3.4-1.2-5-3.5-5
			C412.4,103.2,411,105.2,410.8,109.4z"/>
	</g>
	<path class="st0" d="M121.8,13.5c14.9,0,25.8,10,25.8,30.9s-10.9,30.9-25.8,30.9S96,65.4,96,44.5S106.9,13.5,121.8,13.5z
		 M121.8,66.2c8.2,0,11.2-7,11.2-21.7s-2.9-21.7-11.2-21.7s-11.2,7-11.2,21.7S113.6,66.2,121.8,66.2z"/>
	<path class="st0" d="M186.1,71.9c-2.2,2.2-7.6,3.4-12.7,3.4c-11.7,0-22-7.3-22-23c0-16.2,10.6-24.2,23-24.2
		c6.8,0,11.8,1.9,11.8,1.9v14.6h-8.3v-7l-1.5-1.5c-0.3-0.1-0.6-0.1-0.9-0.1c-7.3,0-10.4,5.6-10.4,15.7C165,62,169.2,67,177,67
		c3.8,0,7.9-1.2,9.1-1.6V71.9z"/>
	<path class="st0" d="M224.1,71.9c-2.2,2.2-7.6,3.4-12.7,3.4c-11.7,0-22-7.3-22-23c0-16.2,10.6-24.2,23-24.2
		c6.8,0,11.8,1.9,11.8,1.9v14.6h-8.3v-7l-1.5-1.5c-0.3-0.1-0.6-0.1-0.9-0.1c-7.3,0-10.4,5.6-10.4,15.7C203,62,207.2,67,215,67
		c3.8,0,7.9-1.2,9.1-1.6V71.9z"/>
	<path class="st0" d="M242,29c3.4,0,4,2,4,3.8v33.3l1.5,1.5h3.9v6.9h-23.7v-6.9h3.8l1.5-1.5V37.8l-1.5-1.5h-3.8V29H242z M238.7,10.5
		c4.9,0,7.3,2.7,7.3,6.9s-2.4,6.9-7.3,6.9c-4.9,0-7.3-2.7-7.3-6.9S233.8,10.5,238.7,10.5z"/>
	<path class="st0" d="M286.7,74.5c-3.4,0-4-2-4-3.8v-1.6h-0.3c-2.5,3.4-6.5,6.4-12.5,6.4c-9.2,0-16.3-7.8-16.3-23.1
		s8.3-24.2,18.2-24.2c4.2,0,7.7,2.1,10.1,4.5V20.7l-1.5-1.5h-3.8v-7.3h14.4c3.4,0,4,2,4,3.8v50.5l1.5,1.5h3.8v6.9H286.7z M282,63.6
		V40.2c-2.1-1.9-4.4-2.8-7-2.8c-5.2,0-7.7,4.3-7.7,14.8c0,10.7,2.6,13.7,7.9,13.7C277,65.8,279.6,65.3,282,63.6z"/>
	<path class="st0" d="M339,55.3h-23c0.9,8.6,5.6,11.7,12.2,11.7c4.7,0,8.5-1.4,10-1.8v7c-2.3,1.5-6.9,3.2-14.4,3.2
		c-11.3,0-21.2-6.8-21.2-22.8c0-15.8,8.3-24.5,19.9-24.5c11.8,0,18.1,7.3,18.1,18.5v7L339,55.3z M316,48h11.9v-3
		c0-5.8-1.3-8.6-5.5-8.6S316.4,40.2,316,48z"/>
	<path class="st0" d="M343.4,74.5v-6.9h3.8l1.5-1.5V37.8l-1.5-1.5h-3.8V29h13.7c3.4,0,3.9,2,3.9,3.8v1.5h0.3c1.5-1.7,6-6.2,12.8-6.2
		c10.2,0,13.2,6.2,13.2,13.7v24.2l1.5,1.5h3.8v6.9h-22.7v-6.9h2.8l1.5-1.5V43.9c0-2.6-0.3-6.1-5.7-6.1c-3,0-5.5,1.4-6.8,2.3v25.9
		l1.5,1.5h2.8v6.9H343.4z"/>
	<path class="st0" d="M412.4,36.3v29.8l1.5,1.5h8.3v6.9c0,0-5.5,0.9-11.6,0.9c-7.5,0-11.3-2.7-11.3-10.7V36.3H394v-7.1h3.8l1.5-1.5
		l4.9-10.7h8.2v12.2h9.6v7.1H412.4z"/>
	<path class="st0" d="M38.1,48.6c9.2,8.9,12.8,23.9,14.4,29.9c0.9,3.5,4.5,5.5,8,4.6c3.5-0.9,5.5-4.5,4.6-8
		c-1.6-5.9-6-20.7-2.5-33.1c3.1-12.4,14.3-23,18.7-27.4c2.5-2.5,2.5-6.7,0-9.2c-2.5-2.5-6.7-2.5-9.2,0C67.7,9.8,57.1,21,44.7,24.1
		l0,0c-12.3,3.5-27.1-0.9-33.1-2.5c-3.5-0.9-7,1.1-8,4.6c-0.9,3.5,1.1,7,4.6,8C14.2,35.8,29.2,39.4,38.1,48.6L38.1,48.6z"/>
</g>
</svg>
