<svg xmlns="http://www.w3.org/2000/svg" viewBox="0 0 234.23 140.45">
  <defs>
    <style>
      .a {
        fill: #fff;
        stroke: #7f7f7f;
        stroke-width: 3px;
      }
    </style>
  </defs>
  <g>
    <polygon class="a" points="211.38 100.1 211.69 100.03 212.15 100.1 212.19 100.07 212.35 99.96 212.79 99.94 213 99.78 212.84 99.47 212.98 99.32 213.22 99.32 213.44 98.89 213.72 98.59 213.99 98.64 214.34 98.48 214.67 98.45 214.91 98.25 215.07 98.2 215.33 97.58 215.42 97.15 215.4 96.82 215.28 96.49 215.36 96.27 215.4 96.25 215.63 96.17 216.07 95.58 216.59 95.11 217.31 95.08 217.52 94.96 217.66 94.71 217.68 94.44 217.62 94.15 217.82 93.95 217.88 93.74 217.7 93.3 218.07 92.47 218.25 92.33 218.42 92.06 218.66 92.09 218.7 92.09 218.93 91.9 219.95 90.51 220.24 90.4 220.56 90.39 221 90.48 221.3 90.35 221.48 90.11 221.59 89.72 221.6 89.31 221.55 87.74 221.55 87.6 221.9 87.34 222.08 86.81 222.35 86.3 222.32 86.07 222.3 85.91 222.41 85.55 223.39 83.65 223.61 82.11 223.85 81.61 224.11 81.33 224.54 80.01 224.55 79.72 224.66 78.11 225.02 77.25 225.42 76.31 225.48 76.17 225.65 75.98 226.47 75.43 226.22 75.13 226.04 74.69 224.6 74 224.55 73.87 225.26 73.94 226.04 74.32 226.1 74.4 226.35 74.82 226.55 75.13 226.74 75.01 226.82 74.75 227.37 74.22 227.94 73.49 228.47 73.01 228.67 72.65 229.08 72.23 229.91 70.5 230.16 70 230.46 69.73 230.78 69.64 231.12 69.75 231.31 69.6 231.58 69.03 231.81 68.87 232.18 68.86 232.19 68.85 232 68.63 231.69 68.27 231.01 67.78 230.79 67.54 230.76 67.51 230.71 67.47 230.45 67.29 230.05 67.07 229.67 66.72 229.47 66.53 229.35 66.46 229.07 66.29 228.14 65.53 227.91 65.47 227.03 65.23 225.76 64.95 225.56 64.91 225.25 65.1 225.35 65.48 225.37 65.84 225.37 65.83 225.37 65.84 225.07 65.59 224.7 65.43 224.04 65 223.84 64.67 223.67 64.28 223.38 64.03 223.34 63.88 223.28 63.69 222.91 63.1 222.89 63.07 222.81 62.98 222.64 62.79 222.61 62.73 222.41 62.43 222.1 62.18 221.86 61.83 221.55 61.54 220.91 60.2 220.39 59.53 219.85 58.92 219.72 58.53 219.53 58.21 219.59 57.85 219.34 57.58 219.31 57.54 219.24 57.5 219 57.36 218.78 57.05 218.56 56.5 218.48 56.31 218.38 55.96 218.34 55.9 218.16 55.6 217.87 55.4 217.59 55.14 217.54 54.78 217.48 54.55 217.43 54.39 217.43 53.97 217.41 53.81 217.38 53.61 217.5 53.26 217.41 52.43 217.5 52.01 217.68 51.68 217.71 51.51 217.76 51.25 217.86 51.04 217.91 50.92 217.84 50.54 217.62 50.17 217.62 49.81 217.59 49.49 217.53 49.04 217.54 48.8 217.54 48.68 217.49 48.28 217.55 48.01 217.56 47.93 217.56 47.93 217.56 47.93 217.79 47.6 217.92 47.28 217.93 47.25 217.87 46.06 217.88 45.67 218.1 45.3 218.38 45.05 218.85 44.45 218.78 44.18 218.76 44.09 218.32 43.88 218.08 43.76 217.73 43.66 217.37 43.73 217.21 44.09 217.21 44.09 217.21 44.09 216.96 44.11 216.83 44.13 216.83 44.13 216.83 44.13 216.28 44.03 216.1 43.99 216.05 43.97 215.8 43.81 215.46 43.73 215.39 43.72 215.05 43.53 214.87 43.57 214.68 43.63 214.39 43.88 214.2 43.81 214.05 43.76 214 43.73 213.71 43.54 213.54 43.19 213.37 43.01 213.27 42.91 213.07 42.75 213 42.7 212.63 42.7 212.13 42.63 211.76 42.81 211.58 42.94 211.41 43.06 211.06 43.23 210.44 42.71 209.44 41.99 208.58 41.56 208.57 41.55 208.29 41.27 208.18 41.11 208.06 40.96 207.95 40.75 207.88 40.65 207.55 40.47 207.34 40.12 207.31 40.08 207.08 39.83 206.91 39.52 206.61 39.31 206.53 39.01 206.51 38.94 206.21 38.73 206.2 38.33 206.18 38.01 206.18 38 205.98 37.66 205.72 37.41 205.44 37.09 205.32 36.99 205.14 36.84 204.76 36.7 204.4 36.5 204.4 36.5 204.4 36.5 204.09 36.7 203.72 36.7 203.4 36.49 202.97 36.4 202.6 36.43 202.18 36.33 201.1 35.88 200.79 35.7 200.37 35.59 200.02 35.39 199.66 35.35 199.26 35.2 198.91 35.32 198.29 34.94 197.73 34.44 196.92 34.2 196.23 33.8 196.23 33.8 196.23 33.8 196.44 33.5 196.62 33.16 196.66 33.13 196.94 32.94 197.26 32.62 197.51 32.26 197.64 31.88 197.81 31.53 198.1 31.24 199.54 29.32 200.31 28.49 200.41 28.13 200.38 27.77 200.18 27.45 200.05 27.09 199.96 26.65 199.96 26.65 199.96 26.65 200.21 26.68 200.42 26.52 200.56 26.22 200.72 25.7 200.62 25.45 200.85 24.92 200.8 24.65 200.9 24.37 200.72 23.92 200.55 23.6 200.26 23.39 199.9 23.28 199.17 23.21 198.84 22.83 198.83 22.43 198.88 21.97 198.84 21.57 198.84 21.57 198.84 21.57 198.93 20.82 198.85 20.38 198.85 20.02 198.6 19.74 198.54 19.37 198.52 18.94 198.52 18.94 198.52 18.58 198.67 18.23 198.72 17.83 198.42 17.65 198.04 17.83 197.73 17.65 197.37 17.62 196.61 17.35 196.24 17.35 195.88 17.42 195.29 16.92 195.26 16.57 195.12 16.22 195.15 15.83 195.39 15.48 195.36 15.12 195.39 14.76 195.25 14.43 195.19 14.07 195.06 13.73 195.06 13.73 195.06 13.72 195.27 13.39 195.37 13.04 195.18 12.73 194.86 12.54 194.58 12.25 194.21 12.23 193.85 12 193.08 12.12 191.21 12.91 190.87 12.84 190.21 12.44 189.88 12.3 189.13 12.12 188.8 11.94 188.51 11.69 188.25 11.35 188.07 11.25 187.85 11.39 187.56 11.44 187.56 11.94 186.87 12.37 186.76 12.6 186.51 12.68 186.26 12.57 185.98 13.04 185.72 13.09 184.97 13.54 184.72 13.51 184.32 13.91 184.2 14.12 183.17 15.01 182.71 14.85 182.5 14.53 182.35 14.19 181.62 14.07 181.25 14.12 180.54 14.01 180.2 14.15 179.84 14.15 179.68 14.5 179.43 14.76 178.65 15.25 178.8 15.62 178.8 15.62 178.8 15.62 178.72 15.98 178.64 16.69 178.34 16.48 178.09 16.19 177.9 15.89 177.35 15.28 176.72 14.23 176.21 13.64 175.86 13.57 175.55 13.82 175.33 14.12 174.64 14.41 174.14 15.07 173.86 15.32 173.5 15.26 173.14 15.44 172.79 15.26 172.17 14.87 171.79 14.82 171.38 14.89 170.59 14.87 170.17 14.79 169.79 14.89 169.45 14.75 169.1 14.75 168.38 14.58 167.3 14.21 166.63 13.74 166.2 13.68 165.84 13.76 165.48 13.91 164.76 13.78 164.26 13.93 164.08 14.25 164.06 14.62 163.88 14.94 163.79 15.33 163.93 15.71 163.93 15.71 163.93 15.71 163.65 15.96 163.35 16.29 163.14 16.61 162.79 16.51 162.25 17.17 161.87 17.25 161.07 17.62 160.34 17.78 160 17.6 159.28 17.58 158.95 17.4 158.2 17.3 157.86 17.14 157.66 16.39 157.67 16.03 157.37 15.35 157.01 15.35 156.65 15.4 156.29 15.29 155.93 15.33 155.75 15.67 155.79 16.14 155.79 16.14 155.79 16.14 155.77 16.5 155.71 16.89 155.71 17.25 155.61 17.6 154.84 17.87 154.47 17.96 154.09 17.86 153.74 17.83 153.38 17.71 153.03 17.47 152.66 17.37 152.25 17.3 151.43 17.29 151.11 17.11 150.74 16.99 150.49 16.72 150.12 16.6 149.91 16.92 149.55 17.17 149.23 16.9 148.87 16.79 148.62 16.47 148.18 16.5 147.78 16.6 147.03 16.55 146.3 16.85 146.05 17.17 146.03 17.53 145.94 17.94 145.69 18.28 145.51 18.67 145.2 18.88 144.83 18.94 144.49 18.72 143.72 18.83 143 19.04 142.64 19.01 142.29 19.09 141.85 19.13 141.5 19.24 141.17 19.08 140.86 19.27 140.38 19.34 139.99 19.33 139.62 19.15 139.16 19.3 138.43 18.87 137.7 18.83 136.84 18.7 136.09 18.76 135.66 18.69 135.29 18.7 134.94 18.81 134.09 18.46 133.71 18.44 133.16 18.49 132.41 18.44 131.68 18.05 131.34 17.97 131 17.81 130.63 17.74 130.24 17.71 129.01 17.76 128.68 17.92 128.59 18.26 128.57 18.71 128.66 19.09 128.66 19.09 128.66 19.45 128.8 19.79 128.8 19.79 128.8 19.79 128.65 20.35 127.97 20.74 127.67 20.54 127.39 20.22 127 20.1 126.7 19.9 126.29 19.77 125.97 19.59 125.67 19.35 125.34 19.17 124.95 19.21 124.59 19.38 124.25 19.13 123.53 18.92 123.11 18.76 122.42 18.34 122.15 18.1 121.74 18.11 121.4 18.01 120.99 17.39 120.61 16.66 120.34 16.3 120.05 16.1 119.56 15.5 119.3 15.23 119 15.01 118.75 14.69 118.4 14.55 118.19 14.14 117.88 13.96 117.5 14.12 117.17 13.39 116.44 13.24 116.19 13.53 115.54 13.23 115.09 12.55 115.08 12.16 114.88 11.82 114.55 11.62 114.25 11.35 113.87 11.21 113.57 11 113.32 10.73 113.16 10.37 112.8 10.4 112.45 10.35 111.76 10.01 111.76 10.01 111.76 10.01 111.8 9.64 111.7 9.3 111.36 9.05 110.99 9.01 110.63 8.78 110.28 8.64 109.94 8.44 109.21 8.1 108.86 7.99 108.09 8.05 107.66 7.99 107.28 7.97 106.58 7.36 106.23 7.33 105.91 7.15 105.72 6.81 105.48 6.5 105.48 6.5 105.48 6.5 105.58 5.74 105.46 5.38 105.46 5.38 105.46 5.38 105.53 4.98 105.4 4.22 105.4 4.22 105.4 4.22 105.46 3.79 105.12 3.46 104.77 3.52 104.41 3.46 104.03 3.64 103.65 3.63 103.26 3.77 102.9 3.75 102.54 3.8 102.17 3.63 101.33 3.46 100.65 3.16 100.31 2.91 100.25 2.53 100.11 2.19 99.71 2.01 99.3 1.87 99 1.65 98.94 1.57 98.05 1.55 97.93 1.78 97.44 2.02 97.21 2.18 96.38 2.24 96 2.06 95.69 1.81 94.85 2.02 94.13 1.93 93.78 2.02 93.41 1.92 93.38 2.27 93.55 2.56 93.75 2.78 93.79 2.83 93.83 2.88 94.04 3.2 94.2 3.99 94.18 4.02 93.66 4.04 93.46 4.19 93.5 4.44 93.66 4.65 93.49 4.84 92.97 4.6 92.7 4.55 92.01 4.88 91.74 5.4 91.11 5.86 90.88 5.98 90.45 6.29 90.21 6.4 90.07 6.65 89.44 7.15 89.19 7.21 88.98 7.43 88.95 7.68 88.75 7.83 88.44 8.26 88.53 8.36 88.53 8.37 88.61 8.46 88.65 8.72 88.44 8.88 88.2 8.8 87.89 8.82 87.56 8.67 87.16 8.71 86.76 8.65 86.36 8.47 86.04 8.67 86.01 9.03 85.8 9.32 85.65 9.43 85.42 9.53 85.23 9.7 85.15 9.97 84.91 10.44 84.65 10.57 84.41 11.08 84.41 11.4 84.49 11.65 84.48 11.92 84.32 12.18 83.82 12.42 83.4 12.72 83.15 12.76 82.87 12.89 82.53 13.3 82.08 13.61 81.9 13.85 81.84 14.1 81.81 14.35 81.65 14.65 81.41 14.69 81.24 14.89 80.99 14.9 80.73 14.83 80.48 14.89 80.24 14.86 79.74 15.07 79.52 15.28 79.02 15.5 78.82 15.65 78.65 15.9 78.45 16.05 78.27 16.25 78.14 16.48 78.06 16.98 77.79 18.04 77.79 18.29 77.91 18.48 78.29 18.79 78.33 18.84 78.37 18.88 78.49 19.12 78.5 19.36 78.48 19.63 78.37 20.18 78.26 20.43 78.24 20.7 78.11 21.19 78.4 21.49 78.82 21.82 78.85 21.88 78.89 21.92 79 22.16 79.29 23.23 79.47 23.47 79.55 23.76 79.67 23.99 79.77 24.25 79.91 24.37 80.03 24.39 80 24.39 79.98 24.46 79.98 24.46 80.11 24.48 80.08 24.49 79.9 25.01 79.92 25.4 80.12 25.72 80.17 26.48 80.12 26.83 80.12 27.19 80.27 27.52 79.92 27.63 79.61 27.86 79.59 28.22 79.66 28.58 79.45 28.91 79.48 29.32 79.67 29.62 79.32 29.88 78.98 30.06 78.78 30.36 78.4 30.42 78.03 30.55 77.79 30.84 77.65 31.2 77.23 31.18 76.87 31.04 76.51 31.04 76.17 30.92 75.78 30.93 75.5 31.24 75.24 31.64 74.99 31.94 74.64 32.19 74.31 32.85 73.69 33.25 73.47 33.55 73.09 33.79 72.35 33.67 71.78 33.21 71.78 33.18 71.7 33.12 71.79 32.77 71.71 32.37 71.6 32.02 71.45 31.31 72.1 30.92 72.48 30.82 72.81 30.6 73.15 30.49 73.43 30.19 73.05 29.61 72.83 29.37 72.81 29.33 72.75 29.27 72.61 29.02 72.35 28.78 72.04 28.57 71.97 28.48 71.96 28.47 71.81 28.27 71.42 28.33 71.15 28.6 70.76 28.69 69.99 28.53 69.64 28.63 69.4 28.93 69.04 28.93 68.68 28.76 68.44 29.05 68.15 29.29 67.79 29.07 67.43 29.2 67.18 29.48 66.82 30.23 66.44 30.85 66.13 31.11 65.8 31.26 65.42 31.36 65.06 31.54 64.77 31.85 64.21 32.94 64.16 33.32 64.64 33.79 64.66 33.83 64.71 33.88 64.83 34.25 64.81 34.61 64.73 34.99 64.41 35.24 63.92 35.82 63.79 36.15 63.8 36.34 63.81 36.87 63.58 37.28 63.3 37.54 63 37.76 62.78 37.81 62.64 37.84 62.34 37.76 61.88 37.8 61.55 37.95 60.93 38.37 60.53 38.37 60.16 38.18 59.77 38.12 59.38 38.15 58.67 38.48 58.31 38.7 57.13 38.91 56.77 38.84 56.5 39.1 56.12 39.25 55.81 39.51 55.16 39.94 54.89 40.2 54.59 40.4 54.1 40.93 53.61 40.56 53.61 40.52 53.53 40.47 53.5 40.18 53.21 40.09 52.81 40.16 52.46 40.13 52.08 40.02 51.85 39.73 51.56 39.45 51.21 39.33 50.84 39.35 50.5 39.21 50.16 39.14 49.4 38.82 49.09 38.58 48.83 38.3 48.44 38.22 48.1 38.01 47.74 38.05 47.38 38 47.33 37.9 47.31 37.9 47.12 37.55 47.06 37.2 47.05 36.84 47.08 36.45 46.86 36.19 46.09 36.04 45.79 35.81 45.74 35.73 45.72 35.71 45.36 35.12 45.01 35 44.65 34.98 44.28 35.06 43.91 35.09 43.57 35.28 43.58 35.64 43.41 35.97 43.05 36.23 42.39 36.62 42.39 36.92 42.65 37.07 42.67 37.14 42.73 37.17 42.84 37.54 42.45 37.54 42.08 37.49 41.06 36.99 40.76 36.78 40.41 36.65 40.02 36.65 39.65 36.73 38.99 37.03 38.62 36.91 38.6 36.83 38.54 36.81 38.47 36.45 38.48 36.07 38.61 35.69 38.48 35.3 38.41 34.99 38.17 34.8 38.12 34.72 38.1 34.7 37.9 34.4 37.83 34.04 37.68 33.73 37.38 33.54 37.01 33.38 36.64 33.35 36.29 33.27 36.05 33.57 35.05 33.13 34.65 33.09 33.88 33.32 33.13 33.32 32.81 33.51 32.05 33.33 31.7 33.31 31.33 33.17 30.97 32.98 30.93 32.9 30.9 32.88 30.77 32.64 30.48 32.48 29.76 32.56 29.42 32.38 29.41 32.32 29.34 32.29 29.3 31.93 29.4 31.54 29.6 31.24 29.69 30.88 29.82 30.55 30.12 30.32 30.3 30 30.32 29.64 30.28 29.27 30.21 29.18 30.12 29.07 28.98 29.36 28.65 29.19 27.8 29.08 26.78 28.39 26.53 28.13 26.15 27.98 25.8 28.09 25.34 28 24.73 27.49 24.73 27.46 24.65 27.39 24.65 27.39 24.29 28.85 24.26 28.97 23.98 30.49 23.98 30.49 23.92 30.68 23.77 31.16 23.64 31.6 23.64 31.6 22.34 33.72 22.34 33.72 22.3 33.91 22.36 34.19 22.42 34.44 22.41 34.65 22.41 34.75 22.36 35 22.36 35 22.13 35.48 22.13 35.49 22.46 36.17 22.46 36.17 22.33 36.41 21.18 36.77 20.45 36.84 19.82 36.6 18.95 35.91 18.63 35.8 18.38 35.81 18.09 35.82 17.89 35.98 17.39 36.68 17.39 36.68 17.38 36.78 17.55 37.15 17.55 37.45 17.55 37.45 17.16 37.77 15.45 37.93 15.27 37.91 14.81 37.46 14.56 37.4 14.31 37.49 14.01 37.85 13.9 37.97 12.86 38.24 12.27 38.49 12.02 38.91 12.02 38.91 12.02 39.22 12.02 39.3 12.19 39.86 12.31 40.3 12.32 40.3 11.94 41.05 11.94 41.07 11.71 42.06 11.71 42.06 11.46 42.57 11.09 43.35 11.09 43.35 11.3 43.61 11.35 43.81 11.35 43.81 10.83 44.79 10.53 45.12 10.44 45.45 10.37 45.68 10.37 45.68 9.36 46.98 8.53 47.61 8.4 47.7 7.78 48.34 7.12 49.03 6.52 49.45 6.13 49.5 5.82 49.83 5.82 49.83 5.72 50.36 5.72 50.36 5.4 50.83 5.4 50.83 5.21 51.74 5.21 51.74 5.08 52.12 5.02 52.31 4.93 52.55 4.75 53.1 4.75 53.1 4.7 54.04 4.51 54.95 4.51 54.95 4.37 55.28 3.87 55.86 3.86 55.89 3.73 56.42 3.73 56.43 3.45 56.66 3.18 57.23 2.99 57.21 2.89 57.12 2.89 57.12 2.8 57.42 2.83 57.56 2.85 57.72 2.72 58.29 2.79 58.48 2.79 58.48 2.59 58.61 2.26 59.05 2.2 59.25 2.17 59.34 2.5 59.45 2.55 59.52 2.55 59.52 2.44 59.68 1.81 59.71 1.72 59.72 1.72 59.72 1.73 59.79 1.78 60.04 1.79 60.07 2.02 61.14 2.06 61.33 2.23 61.39 2.9 61.62 2.98 61.78 2.98 61.85 2.93 62.23 3.03 62.48 3.92 63.09 4.07 63.48 3.92 64.18 3.91 64.2 4.23 64.88 4.36 65.9 4.75 66.61 4.75 66.61 4.66 66.81 4.31 66.86 4.2 66.96 4.35 67.33 4.82 67.67 5.04 67.94 5.21 68.46 5.28 69.11 5.21 69.76 5.04 70.4 5.21 71.4 5.18 72.53 5.28 72.72 5.8 73.8 5.78 74.08 5.46 74.9 5.5 75.12 6 75.89 6.04 76.13 6.09 76.33 6.09 76.38 6.1 76.44 6.15 76.69 6.33 77.66 6.62 78.24 6.79 78.39 6.96 78.56 7.01 78.57 7.21 78.65 7.83 78.64 7.99 78.64 8.44 78.44 8.58 78.38 8.86 78.26 9.04 78.05 8.96 77.48 9.03 76.94 9.17 76.71 9.36 76.69 9.46 76.79 9.5 77.02 9.38 77.4 9.4 77.59 9.7 77.67 10.49 77.43 11.14 77.23 11.77 77.13 13.25 77.08 14.43 76.92 15.62 77.03 16.6 77.03 19.41 77.05 19.75 76.99 19.63 76.81 17.86 76.81 16.83 76.72 16.78 76.71 16.23 76.81 15.87 76.76 15.54 76.56 15.3 76.24 15.28 76.02 15.45 75.68 15.48 75.33 15.66 75.35 15.59 76.07 15.71 76.39 15.95 76.55 17.87 76.54 19.3 76.53 20.22 76.81 23.65 78.39 23.72 78.43 23.89 78.41 23.88 78.31 23.63 78.12 23.33 77.53 23.01 77.07 22.8 76.9 22.39 76.84 21.76 76.37 21.83 76.31 21.92 76.33 22.01 76.34 22.66 76.72 22.7 76.55 22.58 76.27 22.1 75.8 22.02 75.72 22.04 75.64 22.05 75.58 22.16 75.49 22.29 75.6 22.29 75.68 22.29 75.76 22.76 76.14 23.3 76.99 23.64 77.69 24.58 78.8 24.78 78.94 25.39 79.16 25.44 79.18 25.23 78.67 25.2 78.61 25.04 78.44 24.88 78.27 24.73 78.12 24.52 77.89 24.31 77.18 24.11 76.91 23.64 76.7 23.08 76.16 22.92 75.87 23.05 75.69 23.23 75.87 23.48 76.35 23.65 76.48 23.69 76.34 23.56 75.82 23.64 75.34 23.57 74.97 23.86 75.12 23.95 75.87 23.98 75.96 24.24 76.64 24.43 76.61 24.65 76.39 24.88 76.16 25.42 75.42 24.82 76.63 24.71 76.76 24.65 76.94 24.7 77.14 25.28 78.06 25.5 78.28 25.75 78.53 26.15 78.94 26.29 79.08 26.43 79.17 27.1 79.6 27.43 79.78 29.2 80.73 29.82 80.91 30.07 81.03 30.45 81.21 30.76 81.39 33.45 82.93 35.08 83.86 36.11 84.44 36.41 84.62 38.26 85.84 39.35 86.68 39.42 86.73 40.57 87.61 40.67 87.7 41.06 88.08 42.74 89.71 43.24 90.3 43.78 90.93 44.26 91.67 44.77 92.9 45.3 94.16 45.54 94.93 45.58 95.23 45.61 95.41 46.25 96.5 46.74 96.53 47.02 96.67 47.17 96.68 47.51 96.7 47.67 96.59 47.75 96.19 47.75 96.19 47.7 95.87 47.55 95.11 47.68 93.31 47.84 92.81 47.91 92.3 47.99 92.11 48.3 92.54 48.17 92.88 48.12 93.56 48.04 94.34 48.01 94.78 48.45 95.78 48.48 96.02 48.23 97.03 48.12 97.13 48.05 97.19 48 97.22 47.63 97.28 47.19 97.63 47.06 97.65 46.72 97.7 46.26 98.34 46.22 98.36 46.01 98.47 45.68 98.39 45.51 98.44 45.25 98.99 45.05 99.25 44.76 99.4 44.35 99.36 44.23 99.45 44.37 100.07 44.23 100.53 45.01 102.11 45.35 102.72 45.93 103.76 45.94 104.52 46.15 104.89 47.17 105.66 47.4 105.63 47.87 105.27 47.99 105.27 48.48 105.27 49.48 105.56 50 105.71 50.35 106.02 50.7 106.6 50.88 107.31 51 107.43 51.18 107.5 51.4 107.43 51.88 107.15 52.3 107.13 52.43 107.2 52.54 107.32 52.72 107.54 52.8 107.8 52.8 108.31 52.76 108.47 52.71 108.75 52.62 109.06 52.53 109.38 52.23 109.91 52 110.13 51.74 110.19 51.6 110.31 51.6 110.56 51.81 110.71 51.98 110.75 52.07 110.78 52.35 111.11 52.47 111.18 53.12 111.03 53.34 110.9 53.6 110.49 53.86 110.28 53.87 110.28 54.03 110.26 54.11 110.32 54.41 110.55 54.72 110.77 54.78 110.81 54.58 111.15 54.42 111.27 54.32 111.25 54.22 111.36 53.72 111.97 53.38 112.13 53.06 112.65 52.91 112.88 52.78 112.86 52.33 112.82 52.18 112.81 51.87 112.89 51.53 112.53 51.05 111.44 51.03 111.24 51.17 111.03 51.06 110.91 50.98 110.89 50.85 110.87 50.55 110.08 49.93 109.62 49.92 109.62 49.64 109.55 49.35 109.62 49.25 109.71 49.29 109.84 49.74 110.19 50.18 111.07 51.05 112.81 51.2 113.09 52.24 114.68 52.93 116.53 53.03 116.5 53.13 116.13 53.23 116 53.32 116.05 53.46 116.18 53.34 117.09 53.36 117.16 53.41 117.26 54.17 117.66 54.88 118.47 55.11 118.95 55.4 120.4 55.76 121.15 55.96 121.31 56.12 121.33 56.45 121.22 56.74 121.25 56.88 121.33 57.03 121.41 57.39 121.81 57.83 122.59 57.86 122.71 58.5 124.5 58.97 125.08 59.48 126.09 59.84 126.39 59.88 126.52 60 126.92 60.21 126.83 60.3 126.66 60.46 126.63 61.06 126.71 61.36 126.76 61.88 127.01 62.45 126.97 62.96 126.84 63.39 126.62 63.94 126.61 64.38 126.75 64.81 126.96 65.25 127.28 65.35 127.37 66.32 128.16 67.06 128.9 67.7 129.82 67.75 129.9 68.02 130.58 68.38 130.89 68.53 131.27 68.99 131.42 69.07 131.63 69.17 131.71 69.22 131.76 69.38 131.73 69.63 131.47 69.77 131.33 69.99 131.33 70.35 131.53 70.98 132.13 72.02 132.77 72.51 132.83 72.91 132.75 73.41 132.49 73.74 132.7 74.41 132.92 74.95 133.1 75.2 133.35 75.92 134.48 76.44 135.04 76.63 135.06 76.98 134.87 78.08 134.61 78.49 134.43 79 134.02 79.21 133.91 79.45 133.78 80.09 133.68 80.4 133.44 80.68 133.41 80.94 133.06 81.22 132.87 81.5 132.88 82.02 133.06 82.26 133.02 83.01 132.43 83.68 132.1 83.77 131.94 83.75 131.74 83.64 131.55 83.24 131.38 83.16 131.27 83.11 131.05 83.22 130.69 83.36 130.55 83.64 130.53 83.58 130.36 83.31 130.27 83.08 129.99 83.06 129.94 82.94 129.58 82.9 129.49 82.9 129.45 82.89 129.05 82.92 128.87 83.07 128.02 83.33 127.49 83.41 127.4 83.63 127.17 84.21 126.92 84.96 126.87 85.15 126.96 85.64 127.5 86.02 127.63 86.26 127.82 86.5 128.03 87.01 128.03 87.07 127.75 87.17 127.27 87.45 125.97 87.72 125.11 88.04 124.46 88.65 123.85 89.32 122.5 89.58 121.97 89.98 121.18 90.15 120.84 90.56 120.47 90.83 119.91 91.13 118.87 91.49 117.96 91.69 117.62 92.13 117.19 92.74 116.36 93.36 115.69 93.59 115.57 94.42 115.51 94.96 115.1 95.35 115.03 95.8 114.84 96.64 114.21 97.05 113.97 97.3 113.82 97.54 113.76 97.69 113.86 97.86 113.87 98.02 113.88 99.05 113.44 99.92 113.44 100.1 113.36 100.24 113.31 100.28 113.3 100.31 113.27 101.22 112.63 102.05 112.24 102.53 111.85 102.76 111.66 104.06 111.19 104.59 111.22 105.41 111.09 108.42 111.72 108.96 111.83 110.15 111.9 110.77 111.81 111.13 111.89 112.1 111.83 112.66 111.35 113.06 111.13 114.25 110.9 114.55 110.84 114.87 110.42 115.03 109.99 115.27 109.33 115.61 108.75 116.09 108.13 116.44 107.89 116.9 107.7 118.42 107.51 118.58 107.37 119.04 106.94 119.4 106.73 120.03 105.95 120.34 105.24 121.36 103.63 121.61 103.39 121.84 103.15 122.11 102.47 122.32 101.98 122.68 101.29 123.4 100.71 123.84 100.57 124.1 100.58 124.67 100.58 126.68 101.02 127.23 101.03 127.36 101.03 128.25 100.91 128.86 101.05 132.49 100.95 133.3 100.72 134.24 100.45 135.28 100.32 135.4 100.22 135.62 100.06 136.16 99.47 136.51 99.25 136.72 99.18 136.85 99.15 136.88 99.14 136.94 99.15 137.33 99.28 137.57 99.36 137.66 99.38 138.92 99.52 139.32 99.57 140.16 99.92 140.3 99.94 140.38 99.94 140.65 99.98 140.75 100.02 141.19 100.15 141.5 100.14 142.07 99.83 143.24 99.49 143.7 99.47 144.05 99.61 144.28 99.59 144.56 99.34 144.67 99.28 144.82 99.22 145.33 99.04 145.89 98.97 146.44 99.05 147.84 99.46 148.23 99.68 148.57 100.06 148.71 100.07 149.1 99.86 149.41 99.85 149.67 100.01 150.05 100.44 150.18 100.44 150.57 100.05 150.85 100.01 150.92 100.02 151.56 100.1 152.15 99.97 152.84 99.25 153.15 99.22 153.21 99.22 153.57 99.3 153.98 99.39 154.68 99.32 154.89 99.29 154.97 99.33 155.22 99.41 155.69 99.72 156.22 100.22 156.47 100.38 156.84 100.6 157.18 100.6 157.51 100.43 158.06 100.51 158.48 100.45 158.49 100.45 158.78 100.71 158.89 100.82 159.65 101.53 160.12 101.72 160.61 101.72 160.98 101.65 161.17 101.61 161.95 101.63 162.25 101.57 163.45 100.98 164.2 100.84 164.59 100.33 165.1 99.83 165.49 99.64 165.89 99.52 166.22 99.54 166.42 99.63 166.56 99.7 166.86 99.66 167.83 99.22 168.67 98.95 168.86 98.97 169.24 98.97 169.5 99.08 169.56 99.12 169.73 99.14 169.91 99.15 169.95 99.18 170.32 99.41 170.56 99.4 170.87 99.2 170.94 99.16 171.25 99.19 172.22 99.26 172.78 99.3 173.5 99.04 174.1 99.03 174.86 99.2 176.1 99.3 177.44 99.23 177.52 99.26 177.72 99.33 177.97 99.32 178.16 99.42 178.22 99.44 178.3 99.5 178.84 99.45 179.26 99.67 179.48 99.7 179.61 99.64 179.84 99.52 180.98 98.95 181.32 98.91 181.57 98.95 181.88 99.14 183.28 100.4 183.43 100.65 183.79 101.23 184.3 101.7 184.48 101.7 184.72 101.44 185.28 101.3 185.84 101.27 186.18 101.34 186.78 101.69 187.09 102.11 187.27 102.24 187.53 102.31 188.55 102.27 189.95 102.2 191.08 101.77 191.82 101.63 192.13 101.48 193.18 100.59 193.54 100.13 193.74 99.72 193.86 99.47 194.18 98.24 194.51 97.58 195.45 96.14 195.88 95.83 196.17 95.72 196.75 95.75 197.41 95.44 197.46 95.42 198.12 95.41 198.64 95.21 198.94 95.1 199.41 95.03 199.69 95.11 199.83 95.15 200.06 95.36 200.41 95.67 200.71 95.93 200.82 95.96 201.05 96.01 201.43 95.83 201.96 95.36 202.59 94.96 202.8 94.86 203.17 94.71 203.68 94.6 204.1 94.64 205.16 95 205.72 95.33 207.02 96.37 207.79 97.18 207.97 97.35 208.01 97.4 208.37 98.03 208.94 99 209.59 99.93 210.12 100.53 210.28 100.59 210.63 100.34 210.89 100.37 211.05 100.39 211.38 100.1"/>
    <polygon class="a" points="177.08 138.78 177.29 138.67 177.37 138.29 177.3 138.04 177.1 138.02 176.87 138.23 176.8 138.49 176.86 138.67 177.08 138.78"/>
  </g>
</svg>
