<?xml version="1.0" encoding="utf-8"?>
<!-- Generator: Adobe Illustrator 26.3.1, SVG Export Plug-In . SVG Version: 6.00 Build 0)  -->
<svg version="1.1" id="Capa_1" xmlns="http://www.w3.org/2000/svg" xmlns:xlink="http://www.w3.org/1999/xlink" x="0px" y="0px"
	 viewBox="0 0 73 95" style="enable-background:new 0 0 73 95;" xml:space="preserve">
<style type="text/css">
	.st0{fill:#1D6996;}
</style>
<path class="st0" d="M73,91.4c0-0.2-0.4-0.8-0.8-0.9c-0.4-0.1-2.7,0-2.9,0c-0.2,0-0.7-0.3-0.9-0.3c-0.3,0-0.4-0.1-0.6-0.3
	c-0.2-0.2-0.6-0.2-0.9-0.3c-0.2,0-0.4-0.4-0.7-0.8c-0.3-0.4-0.7-0.5-0.9-0.5c-0.2,0-0.1,0.3-0.1,0.3s-0.1-0.1-0.3-0.3
	c-0.2-0.2-0.4-0.9-0.4-1.2c-0.1-0.3-0.4-0.2-0.4-0.1c0,0.1,0,0.4,0,0.5c0,0.3-0.4-0.6-0.5-0.8c-0.1-0.2-0.2-0.3-0.2-0.3
	s-0.3-0.8-0.6-2c-0.3-1.2-0.5-4.2-0.4-6.8c0.1-2.6-0.1-5.7-0.3-6.3c-0.2-0.6,0-2.9,0.1-3.4s0.3-1.1,0.3-1.8c0-0.7-0.7-1.6-1.3-2.3
	c-0.6-0.7-2.4-2.8-4.4-4.9c-1.9-2-6-4.5-6-4.5s0.1-0.3,0.1-0.4c0-0.1-0.6-0.5-1.2-0.8c-0.6-0.3-1.2-0.9-1.4-1
	c-0.1-0.1-0.7-0.1-0.7-0.1s0-0.1,0.1-0.4c0.1-0.3-0.1-0.8-0.1-0.8s0.2-0.2,0.1-0.4c-0.1-0.2,0-0.3,0.1-0.7c0.1-0.4,0-0.7,0.1-1.3
	c0.1-0.6-0.1-1.5-0.1-1.9c0-0.4-0.2-1.1-0.2-1.4c0-0.3,0.2-1.1,0.4-1.7c0.2-0.7,0.2-1.4,0.3-1.8c0.1-0.4,0.3-1.5,0.4-2.2
	c0.1-0.6,0.1-2.7,0.1-3.5c0.1-0.7,0-2,0-2c0.1,0.1,0.8,0.6,1.3,1.1c0.5,0.5,1.3,1.4,1.9,1.8c0.6,0.3,1.4,0.2,1.7,0.2
	c0.4,0,0.7-0.1,0.9-0.3c0.2-0.2,0.6-0.8,0.8-1.1c0.2-0.4,0.7-1.1,1.2-2.1c0.2-0.4,0.3-0.9,0.4-1.3l0,0.2l1.6-0.1l-0.4-7
	c0.1-0.2,0.2-0.4,0.3-0.6c0.2-0.6,0.3-1.3,0.3-1.5c0-0.2,0.1-0.3,0.1-0.6c0.1-0.3-0.1-0.4-0.1-0.6c0-0.1,0-0.4-0.2-0.7
	c-0.1-0.2-0.2-0.3-0.4-0.3L57.6,8.6l-0.3-5.2l0.9-1.8L60,0.8c-0.3-0.5-0.8-0.6-0.8-0.6S58.3-0.2,55.5,0c0,0-1.7,0.1-2.8,0.5
	s-1.2,1.1-1.2,1.1l3.3,0.8l0.3,3.3l-0.9,1.1L55.5,19c0,0,0,0,0,0c-0.2,0-0.3,0.2-0.4,0.3c0,0.1,0,0.4,0,0.4s-0.1,0.1,0,0.3
	c0,0.2,0,0.8-0.1,1c0,0.3-0.1,1-0.2,1.2c-0.1,0.1-0.2,0.6-0.2,0.9c0,0.3,0.1,0.7,0.2,0.9c0.1,0.2,0,0.4,0.1,0.7
	c0.1,0.3,0.2,0.5,0.2,0.8s-0.1,0.5-0.1,0.7c-0.1,0.2-0.1,0.6-0.2,0.9s-0.5,1.8-0.6,2c-0.1,0.2-0.5,0.6-0.7,0.9
	c-0.2,0.3-0.7,0.6-0.7,0.6s-0.1-0.1-0.6-0.8c-0.4-0.7-1.2-1.3-1.5-1.6c-0.3-0.4-1.3-1.3-1.3-1.3c-0.1-0.2-0.4-0.8-0.6-1.1
	c-0.2-0.3-0.6-1-1.1-1.7c-0.5-0.7-1.1-1.1-1.2-1.3c-0.2-0.2-0.8-0.4-0.8-0.4s0.1-0.2,0.1-0.2c0,0,0.7-0.2,1-0.2
	c0.4,0,0.4-0.1,0.6-0.3c0.2-0.2,0.4-0.3,0.4-0.7c0-0.3-0.2-0.5-0.1-0.7c0-0.2,0.1-0.2,0.2-0.3c0.1-0.1,0.1-0.2,0-0.3
	c-0.1-0.2-0.4-0.2-0.4-0.3c-0.1-0.1,0-0.2,0-0.2s0.2,0,0.2,0c0,0,0-0.1,0-0.1s0.1,0,0.2,0c0.2,0,0.2,0,0.3-0.3c0-0.2-0.1-0.3,0-0.5
	c0.1-0.2,0.3-0.3,0.5-0.3c0.3,0,0.5-0.1,0.5-0.4c0-0.3-0.1-0.5-0.4-0.9c-0.3-0.4-0.8-1-0.9-1.2s0.1-0.5,0.2-0.6c0.1-0.1,0-0.2,0-0.5
	c-0.1-0.3-0.3-1-0.4-1.3c-0.1-0.3-0.4-1.1-0.4-1.1c0.2-0.2,0.4-0.8,0.2-0.9c-0.2-0.1-0.9-0.7-1.5-1c-0.6-0.3-1.7-0.4-2.3-0.5
	s-2.2-0.2-3.1,0.2c-0.9,0.3-1.4,0.6-2.4,2.3c-0.9,1.7-0.5,3.6-0.4,3.8c0.1,0.2,0.2,0.2,0.2,0.2c0,0.1,0.2,0.4,0.5,0.9
	c0.4,0.5,1.1,1.5,1.2,2.4c0.1,0.9,0.1,2.2,0,2.4c-0.1,0.3-0.2,0.4-0.3,0.5c-0.1,0-0.4,0.2-0.6,0.4c-0.3,0.2-0.3,0.5-0.5,0.6
	c-0.1,0.1-0.4,0.1-0.4,0.1c-0.8,0-1.5,0-2.2,0.3c-0.7,0.3-1.3,0.7-1.8,1.1c-0.4,0.4-1.8,0.7-2.7,0.8c-0.9,0.1-2.8,1.1-4,1.8
	c-1.2,0.7-2.3,1.7-2.6,1.9c-0.3,0.1-0.6,0.5-0.8,0.7c-0.2,0.3,0,1.1-0.1,1.6c0,0.5,0,1.4,0.2,2.9c0.2,1.5,0.7,2.8,1.1,3.7
	c0.4,0.9,1.3,2.7,1.6,3.1c0.2,0.4,0.4,0.6,0.4,1c0.1,0.4,0.2,0.6,0.2,0.6s-0.4,0.6-0.5,0.9c-0.1,0.2-0.2,0.6-0.2,1.2
	c0,0.5,0,0.8,0,1s0.1,0.5,0.4,0.7c0.2,0.2,0.6,0.1,0.6,0.1s0,0.2,0.3,0.4c0.3,0.2,0.6,0.1,0.6,0.1s0,0.2,0.3,0.4
	c0.2,0.2,0.5,0.2,0.5,0.2c0,0.2,0.1,0.6,0.5,0.6c0.4,0,0.7-0.6,0.7-0.6s0,0,0.1-0.1c0.1-0.1,0.2-0.4,0.2-0.4c0.3,0,0.6-0.4,0.6-0.6
	c0-0.2,0-0.8,0-1.1c0-0.2,0-0.5-0.1-0.8c-0.1-0.3-0.3-1.1-0.4-1.3c-0.1-0.2-0.2-0.4-0.3-0.7c-0.1-0.3-0.1-0.6-0.2-0.9
	c-0.1-0.3-0.2-0.8-0.3-1s-0.5-1.5-0.6-1.9c-0.1-0.4-0.2-1.5-0.2-2.1c0-0.6-0.1-2.7-0.1-3.6c0-0.9,0-1.5,0-1.5c0.6,0,2.3-0.4,2.8-0.4
	c0.5-0.1,2.3-0.5,2.3-0.5s0.3,0.8,0.6,1.8c0.3,1,0.9,2,1,2.8c0.2,0.8,0.4,2.1,0.5,2.8c0.2,0.6,0.6,1.8,0.7,2.3
	c0.1,0.5,0.3,1.2,0.4,1.4c0.1,0.2,0,0.2,0.1,0.5c0.1,0.3,0,0.7,0,0.9c0,0.2,0,0.6-0.1,0.7s-0.1,0.4-0.1,0.6c0,0.1-0.2,0.4-0.2,0.6
	c0,0.1-0.1,0.2-0.2,0.4c-0.1,0.1-0.1,0.3,0,0.5c0,0.2-0.1,0.5-0.2,0.7c-0.1,0.2,0,0.3-0.1,0.4C37,47.7,37,47.9,37,47.9
	s-0.2,0.2-0.3,0.3s-0.3,0.1-0.5,0.1s-0.9,0.5-1.8,1.7c-0.9,1.2-1.5,3.6-1.6,3.9c-0.1,0.3-0.6,1.1-0.8,1.7c-0.2,0.6,0.3,1.4,0.3,1.4
	c-0.2,0.1-1.3,0.9-1.4,1s-0.5,0.5-0.6,0.6c-0.1,0.1,0,0.2,0.2,0.3c0.2,0.1,0.4,0.3,0.4,0.3c-0.6,0.5-2.2,3-2.6,3.9
	c-0.4,0.9-1.1,2.6-1.8,3.7c-0.6,1.1-2.1,1.5-3,1.8c-0.9,0.3-3.8,1-5.5,1.7c-1.8,0.7-3.6,2.6-4.3,3.1c-0.7,0.5-2,1.5-3.2,2.6
	c-1.2,1.1-2.3,1.8-2.3,1.8c-0.1-0.1-0.3,0-0.5,0.1c-0.1,0.1-0.3,0.2-0.3,0.2c-0.1-0.1-0.4-0.2-0.7-0.1c-0.2,0-0.5-0.1-1-0.1
	C5.4,77.9,4.1,78,4,78c-0.1,0-0.3-0.1-0.5-0.1c-0.2,0-0.5,0.4-0.7,1.4c-0.2,1-0.1,1.5-0.2,2.5c-0.1,1-1.1,2.6-1.3,3
	c-0.2,0.4-0.3,1-0.3,1S0.6,85.9,0.6,86s0.3,0.2,0.3,0.2c-0.1,0.4-0.1,1.6-0.1,1.7c0,0.1,0,0.2,0,0.3c0,0-0.3,0.2-0.3,0.2
	c0,0.1,0.3,0.1,0.3,0.1c0,0,0.1,0.1,0.1,0.1c0.1,0.4,0.3,1.8,0.3,1.8c0,0.1-0.2,0.2-0.2,0.3c0,0.1,0.3,0.1,0.3,0.1s0,0.1,0.1,0.3
	c0.1,0.2,0.3,0.5,0.5,0.7c0.3,0.2,0.3,0.1,0.9-0.1c0.7-0.2,0.7-0.7,0.7-1.3c0-0.5,0.3-1.6,0.5-1.9s1.3-1.5,1.4-1.8
	c0.1-0.3,0.3-0.5,0.6-0.6c0.4-0.1,0.5-0.3,0.6-0.6s0.4-0.3,0.6-0.4c0.2-0.1,0.1-0.3,0.1-0.4c0.1-0.1,1-0.4,1.1-0.4
	c0.2,0,0.2,0,0.2-0.2c0.1-0.2-0.1-0.3-0.3-0.4C8.4,83.6,8,83.6,8,83.6s0.1-0.2,0.3-0.3c0.1-0.1,1-0.8,1.2-0.9
	c0.2-0.1,0.2-0.2,0.2-0.2c0.3-0.3,2.6-2.2,4.1-2.9c1.5-0.8,6.2-2.4,7.3-3c1.1-0.7,3.6-1.7,4.1-1.8s2-0.3,2.7-0.4s1.4-0.4,1.7-0.6
	c0.3-0.3,0.9-0.8,1.6-1.4c0.8-0.5,0.6-0.5,1.8-1.6c1.2-1.1,3-3,4-4.2c0.9-1.2,3.2-3.9,3.2-3.9s0.4,0.2,0.6,0.4
	c0.2,0.2,0.4-0.1,0.6-0.3c0.1-0.1,0.2-0.4,0.5-0.4c0.3,0,0.5-0.3,0.5-0.3s2.1,0.8,3.9,2.1c1.8,1.3,4.6,2.4,6.5,3.3
	c2,0.8,3.3,2,3.3,2c-0.2,0.6,0.1,1.7,0,2.9c-0.1,1.2,0.1,4.3,0.3,5.5c0.2,1.2,1.4,4.2,1.9,5.7c0.4,1.5,0.9,4.5,0.9,4.5
	s-0.1,0-0.1,0.2c0,0.1,0.1,0.3,0.1,0.7c0,0.5,0,1.1,0,1.1s-0.3,0-0.3,0.1s-0.1,0.4-0.1,0.6c0,0.3,0,0.5,0,1.1
	c0.1,0.6,0.4,1.3,0.4,1.5c0,0.2,0,0.6,0.1,0.8c0,0.2,0.7,0.4,1.5,0.4c0.9,0,2.2-0.4,2.9-0.4c0.7,0,2.1,0.2,2.7,0.3
	c0.6,0.1,1.4,0.2,1.5,0.2c0.1,0,0.1,0.2,0.2,0.2c0,0,0.1-0.1,0.1-0.1s0.1-0.1,0.1-0.1c0.4-0.1,1.7-0.4,1.7-0.4s0.2,0.2,0.3,0.2
	c0,0,0-0.3,0-0.3s0.1,0,0.5-0.2c0.5-0.2,1.1-0.6,1.2-0.6c0.1,0,0.2,0.1,0.2,0c0,0,0-0.1,0-0.2c0.1-0.1,0.6-0.5,0.7-0.6
	C72.9,92,73.1,91.6,73,91.4z"/>
</svg>
