<?xml version="1.0" encoding="utf-8"?>
<!-- Generator: Adobe Illustrator 26.3.1, SVG Export Plug-In . SVG Version: 6.00 Build 0)  -->
<svg version="1.1" id="Capa_1" xmlns="http://www.w3.org/2000/svg" xmlns:xlink="http://www.w3.org/1999/xlink" x="0px" y="0px"
	 viewBox="0 0 86 95" style="enable-background:new 0 0 86 95;" xml:space="preserve">
<style type="text/css">
	.st0{fill:#F6B14C;}
</style>
<path class="st0" d="M68.9,60c-1.2,0-2.4,0.1-3.6,0.3c-0.1-0.2-0.4-0.3-0.6-0.3l-0.7-2c4.5-2.6,8.2-6.6,7.5-10.7
	c0-0.5,0-1.6-0.1-1.8c-0.1-0.2-0.9-0.8-1.5-1.1c0-0.2-0.1-0.6-0.3-0.9c0,0,0,0,0,0l0-2.8l0.3-0.6l-0.1-12.1l0.1-4.9l1-1.6l1.7-0.7
	c-0.3-0.5-0.7-0.7-0.7-0.7s-0.8-0.4-3.5-0.3c0,0-1.6-0.1-2.6,0.3c-1,0.3-1.2,1-1.2,1l3.1,0.9l0.1,3.1l-0.9,1l0.6,15.7l0.4,0.4l0,0.9
	c-0.2,0-0.5,0-0.7,0c-0.7-0.3-1.4-0.8-2.5-0.6c-2.1-1.5-4.1-3.3-4.8-4.2c-0.8-1-2.9-3.7-3.7-4.5c-0.7-0.8-2.9-2.2-2.9-2.2
	c-0.6-1.2-1.6-3-2-3.6c0,0,0.1-0.1,0.1-0.1c0,0-0.7-1.6-1.7-3.4c-0.1-0.4-0.2-0.7-0.3-1.1c0.2-0.1,0.4-0.2,0.6-0.3
	c0,0,1,0.4,1.7,0.4c0.7,0,1-0.5,1-1.1c0,0,0.3-0.2,0.6-0.2c0.2-0.2,0.2-0.5,0-0.9c0.3,0,0.5,0,0.7-0.3c0,0,0-0.4,0.1-0.7
	c0,0,0.4-0.2,0.6-0.2c0.2-0.1,0.4-0.4,0.1-0.8c-0.3-0.4-0.4-0.8-0.5-1.3c0.2-0.4,0.4-0.8,0.5-1.3c0.8,0.1,1.5-0.1,1.9-0.5
	c0.6-6.2-8.4-11.7-14.6-4.6c0.1,0.9,0.5,1.9,1.8,2.5c0.1,0.5,0.2,0.9,0.4,1.1c-0.3,0.4-0.4,0.9-0.3,1.3c-0.6-0.1-1.2-0.2-2-0.2
	c-1.4,0.1-4.5,1-6.9,2.2c-2.4,1.1-4.9,3.3-8.5,6.2c0,0-2.4,1.7-4.2,3c-1.8,1.3-3.2,3.5-4.9,7.4c0,0,0.1,0.1,0.1,0.1
	c-0.6,1.3-0.9,3.5-0.3,5.3c-0.6,0.8-0.6,1.6-0.1,2.5c0.8,0.5,1.6,0.4,2.2,0.4c1.4,1.2,2.5,1.5,2.5,1.5c0,0,0.1,0.1,0.1,0.1
	c-1.5,0-3.9,0.2-4.6,0.4c-0.3,1.6-0.1,4.5,0,5.8c1.9,0.8,7,0.4,7.9,0.1c0.6-0.6,1-1.1,1-1.1l0.6-0.2l1.2,3l-0.2,0.1l0.3,0.9l-0.1,0
	l0.4,1l0,0c-1.3,0.4-2.9,1.6-4.3,4.8c0,0-0.1,0-0.1,0c-0.3,0-0.5,0.2-0.5,0.5c0,0.1,0,0.1,0,0.2l-0.2,0.5c-1.9-0.7-3.9-1.2-6.1-1.2
	C7.9,60,0.1,67.7,0,77.2c-0.1,9.5,7.6,17.4,17.1,17.4c6,0.1,11.3-2.9,14.4-7.6l1-0.3c0.6,0.2,1.3,0.4,1.8,0.3
	c1.8-0.1,1.1-1.4,0.9-1.7c-0.1-0.2-0.4-0.5-0.9-1l0.7,0.1c0.8,0.6,1.8,1,2.9,1c2.8,0,5.1-2.2,5.1-5c0-0.8-0.2-1.5-0.5-2.2l3.6-2.1
	l-0.1-0.6l1.5-0.8l-0.2-0.4c0.8-0.2,1.6-0.4,1.9-0.7c0.5-0.6-0.1-1.7-0.6-1.8c-0.2-0.1-0.6-0.1-0.9-0.2l10.8-11.2
	c0.5-0.1,1-0.3,1.5-0.5c0.1,0.3,0.3,0.5,0.5,0.6c0.1,0.4,0.2,0.8,0.4,1.3c-5.6,2.8-9.4,8.6-9.5,15.2c-0.1,9.5,7.6,17.4,17.1,17.4
	C78.1,94.7,86,87,86,77.5C86.1,67.9,78.5,60.1,68.9,60z M63.7,57.8c-0.4-0.1-0.9,0.2-0.9,0.5c-0.1,0.1-0.3,0.1-0.4,0.2
	c-0.1-0.1-0.2-0.2-0.3-0.3c-0.1-0.2-0.2-0.6-0.4-1.1c1.5-0.9,2.9-2,4.1-3.3c0.2-0.1,0.5-0.2,0.6-0.3c0.6-0.4,1.6-1.8,2.2-2.9l1,0
	l0-1.3c0.4-0.1,0.7-0.4,0.8-0.9c0,0,0.3-0.3,0.5-0.7c0,0,0.1,0,0.2,0C71.5,51.6,68,55.3,63.7,57.8z M58.7,48.8c0,0-0.3-0.9-0.7-2
	c2.2-0.6,4.2-0.5,5.5-0.2c-1,1.5-1.6,3-2,4.8c-0.5,0.1-1.1,0.3-1.6,0.4c-0.3-0.9-0.5-1.6-0.6-1.9c0,0,0.1,0,0.1-0.1
	C59.6,49.3,59.2,48.8,58.7,48.8z M60.8,54.3c0.2-0.1,0.3-0.2,0.5-0.3c-0.1,0.3,0,0.6,0.4,0.9c0.6,0,2-0.3,3.1-0.7
	c-1,0.9-2,1.7-3.2,2.4C61.3,56,61,55.1,60.8,54.3z M60.7,53.9c-0.1-0.3-0.2-0.6-0.3-0.9c0.3-0.1,0.6-0.1,1-0.2
	C61.3,53.3,61.1,53.7,60.7,53.9z M65.6,47.4c-0.1,0.6-1,2.5-1.9,3.1c-0.4,0.3-1,0.5-1.7,0.7c0.4-1.7,1-3.1,1.9-4.5
	C64.8,46.9,65.3,47.2,65.6,47.4z M58.7,54.2c-1.2-0.1-2.7-0.3-4.5-0.6l4.1-0.4C58.4,53.5,58.5,53.9,58.7,54.2z M67.9,47.8
	c0,0.4,0,1.2-0.1,1.6c-0.2,0.5-1.5,2.5-2.1,2.9c-0.7,0.4-1.7,0.8-4.1,1.2c0.1-0.2,0.1-0.5,0.2-0.8c1.1-0.3,2.3-0.7,2.9-1.2
	c0.9-0.7,2-2.2,2.3-4.2C67.3,47.5,67.7,47.8,67.9,47.8z M37,33.9c3.2-1.1,5.5-2.5,7.1-4c0,0,0.4,0.5,1.1,0.9c0.1,0,0.1,0,0.2,0
	c1,1.5,2.2,3.1,3.3,4.5c0.5,1,1.7,2.2,2.3,2.5c0.5,0.3,3.9,2.7,6.2,3.9c2.3,1.2,3.8,2.1,4.4,2.5c0.2,0.1,0.3,0.2,0.5,0.3
	c-1,0.2-3.3,0.5-4.9,0.8c-0.2-0.3-1.3-0.3-1.3,0.4c-0.4,0.6-0.1,1.5,0.7,1.4c0,0,0.4,1.1,0.7,2.1c-0.4,0.4-0.3,1.1,0.1,1.3
	c0,0,0,0,0.1,0c0,0.1,0.2,0.5,0.3,0.9l-10.6,1.1c0.1-0.4,0.3-0.7,0.4-0.9c0.4-1,1.3-3.1,1.3-4.4c-0.1-1.3-1.4-2.7-2.2-3.4
	c-0.7-0.6-3.4-2.3-4-2.7c0,0,0-0.1,0-0.1c-1.1-0.5-5.5-3-8.9-4.4C34.7,36.1,36.2,35,37,33.9z M31.8,64.4c0,0.1-0.1,0.3-0.1,0.4
	c-0.2,0.7-0.4,1.5-0.6,2.2c-1.3-1.7-2.9-3.2-4.7-4.3l3-5.4L31.8,64.4z M39.2,48.3c0-0.1,0.1-0.1,0.2-0.2c1.3,0.6,2.2,1,2.6,1.3
	c-0.5,0.9-0.9,1.8-1.2,2.6c-0.6-0.8-1.1-1.6-1.4-1.9c0,0,0-0.1,0-0.1c-0.4-0.6-1-1.3-1.6-2.1C38.2,48,38.7,48.2,39.2,48.3z
	 M31.7,79.1C31.7,79.1,31.7,79.1,31.7,79.1c0,0-0.1-0.9,0-1.6c0.4-0.5,0.5-0.8,0.4-1.3c0,0,0,0,0.1-0.1c0,0.4,0.1,0.9,0.1,1.3
	c0,0.6-0.1,1.1-0.1,1.7L31.7,79.1z M19.3,76l5.7,0c-0.7,0.7-1.2,1.5-1.3,1.8c0,0.1,0.1,0.2,0.1,0.3l-4.1-0.5c0-0.1,0-0.3,0-0.4
	C19.7,76.8,19.5,76.3,19.3,76z M34.5,76.8c0-0.3,0-0.5,0-0.8l1.1,0C35.2,76.3,34.9,76.5,34.5,76.8z M34.5,75.6
	c-0.1-0.9-0.3-1.8-0.5-2.7c0.2,0.1,0.5,0.2,0.8,0.3l0.8,2.4L34.5,75.6z M34.3,55.7c0.8,0.8,1.6,1.5,2.2,2.2c-1,0.9-2.3,2.1-3.3,3.6
	L31.3,56L34.3,55.7z M30.1,69.7c-0.5,1.3-1.1,2.5-1.7,3.6c-0.5-0.1-0.9,0.4-1.2,1.5c-0.6,0.1-1.2,0.4-1.8,0.8l-6.4,0l6.2-10.9
	C27.2,65.9,28.9,67.6,30.1,69.7z M15.4,77.2c0,0.8,0.4,1.4,1,1.8l0.2,0.6l-0.9,0.6c-0.1-0.1-0.3-0.1-0.4-0.1c0,0-0.1,0-0.1,0
	c-2.7-1.2-2.9-3.5-2-4.8c0.8-1.2,2.5-1.5,3.9-0.2C16.1,75.4,15.4,76.2,15.4,77.2z M16.3,81.2l1.9-0.4l-0.1-1.6
	c0.4-0.1,0.7-0.3,1-0.6l5.6,0.9c0.4,0.5,0.8,1.1,1.1,1.5c0.3,0.4,1.1,1.3,1.9,2.1L16,81.9C16.2,81.7,16.3,81.5,16.3,81.2z
	 M40.6,76.2c-0.7-0.4-1.6-0.7-2.5-0.7c-0.1,0-0.3,0-0.4,0L37,73.7c0.7,0.1,1.4,0.2,2.3,0.3c0.4,0,1.7,0.3,3,0.5L40.6,76.2z
	 M30.1,52.7L30.1,52.7l-0.2-0.2c0.8,0.6,1.5,1.2,2.3,1.7l-1.4,0.1l-0.3-0.7l-0.1,0L30.1,52.7z M24.5,61.1c0.2-0.1,0.4-0.3,0.4-0.5
	c0-0.2-0.1-0.3-0.2-0.4c1.2-2.8,2.6-3.9,3.8-4.4L25.1,62c-0.3-0.1-0.5-0.3-0.8-0.4L24.5,61.1z M17.1,92.3
	C8.8,92.3,2.2,85.5,2.2,77.2c0.1-8.3,6.9-14.9,15.1-14.9c2.4,0,4.6,0.6,6.6,1.6l-6,11.2c-0.1,0-0.3,0-0.4,0c-0.1,0-0.1,0-0.2,0
	c-1.5-1.6-3.5-1.2-4.5,0.1c-1,1.4-0.8,3.7,1.8,5.1c-0.3,0.2-0.6,0.5-0.6,0.9c0,0.6,0.5,1.1,1.1,1.1l13,1.5c0.3,0.3,0.6,0.6,0.8,0.9
	l-0.4,0l-0.3,1l1,0.6C26.6,90,22.1,92.4,17.1,92.3z M33.5,83.4c0.1-0.1,0.1-0.3,0.2-0.4c0.2,0.3,0.4,0.7,0.7,1l-0.5-0.1
	C33.7,83.8,33.6,83.6,33.5,83.4z M44.6,71.2c-0.7-0.1-2.1-1.5-2.5-2.4c0.2-0.4,0.3-1.4-0.2-1.8c0.1-0.2,0.2-0.5,0-0.8
	c0.8-2.6,2.4-6.4,3.1-8.2c0.4-1,0.9-2.3,1.4-3.5l6-0.6c2.3,0.2,4.8,0.7,6.3,0.8c0.2,0.7,0.5,1.5,0.7,2.2L45.3,71.3
	C45,71.2,44.8,71.2,44.6,71.2z M59.1,59.8l1-1C60,59,60,59.2,60,59.4c0,0,0,0.1,0,0.1C59.7,59.6,59.4,59.7,59.1,59.8z M62.7,59.8
	c0-0.1,0-0.2,0-0.3c0-0.2,0-0.4-0.1-0.6c0.1,0,0.2-0.1,0.3-0.1c0.2,0.5,0.5,1.4,0.7,2.1c0,0,0,0,0,0C63.4,60.9,63.2,61,63,61
	C62.9,60.6,62.8,60.2,62.7,59.8z M68.6,92.3c-8.3-0.1-14.9-6.9-14.9-15.1c0.1-5.7,3.3-10.6,8-13.1c0.3,0.9,0.7,1.8,1.1,2.7
	c0.9,2,3.9,7.5,5.1,9.7c-0.2,0.2-0.3,0.5-0.3,0.9c0,0.7,0.6,1.3,1.3,1.3c0.7,0,1.3-0.6,1.3-1.3c0-0.7-0.6-1.3-1.3-1.3c0,0,0,0,0,0
	c-0.8-1.8-2.5-5.8-3.4-7.9c-0.6-1.6-1.3-3.2-1.8-4.8c0.3-0.1,0.5-0.2,0.8-0.3c0.4,0.3,0.8,0.5,1.4,0.4c0.3-0.2,0.4-0.5,0.3-0.8
	c0.9-0.1,1.8-0.2,2.7-0.2c8.3,0.1,14.9,6.9,14.9,15.1C83.6,85.7,76.9,92.4,68.6,92.3z"/>
</svg>
