<?xml version="1.0" encoding="utf-8"?>
<!-- Generator: Adobe Illustrator 26.3.1, SVG Export Plug-In . SVG Version: 6.00 Build 0)  -->
<svg version="1.1" id="Capa_1" xmlns="http://www.w3.org/2000/svg" xmlns:xlink="http://www.w3.org/1999/xlink" x="0px" y="0px"
	 viewBox="0 0 88 88.5" style="enable-background:new 0 0 88 88.5;" xml:space="preserve">
<style type="text/css">
	.st0{fill:#F6B14C;}
</style>
<path class="st0" d="M70.3,53.1c-1.2,0-2.5,0.1-3.6,0.3c-0.1-0.2-0.4-0.3-0.6-0.3l-0.7-2c4.6-2.7,8.4-6.7,7.6-10.9
	c0-0.5,0-1.6-0.1-1.8c-0.1-0.2-0.9-0.8-1.5-1.1c0-0.2-0.1-0.6-0.3-0.9c0,0,0,0,0,0l0-2.9l0.3-0.7l-0.1-12.4l0.1-5l1-1.7l1.7-0.8
	c-0.3-0.5-0.8-0.7-0.8-0.7S72.6,12,69.9,12c0,0-1.7-0.1-2.7,0.3c-1,0.3-1.2,1-1.2,1l3.1,1l0.1,3.2l-0.9,1l0.6,16l0.4,0.5l0,1
	c-0.2,0-0.5,0-0.7,0c-0.7-0.3-1.5-0.8-2.5-0.6C64,33.7,62,31.9,61.2,31c-0.8-1-3-3.7-3.7-4.6c-0.7-0.8-3-2.2-3-2.2
	c-0.6-1.2-1.7-3.1-2-3.6c0,0,0.1-0.1,0.1-0.1c0,0-0.7-1.7-1.7-3.5c-0.1-0.4-0.2-0.8-0.3-1.2c0.2-0.1,0.4-0.2,0.6-0.3
	c0,0,1,0.4,1.7,0.4c0.7,0,1.1-0.5,1.1-1.1c0,0,0.3-0.2,0.6-0.2c0.2-0.2,0.2-0.5,0-0.9c0.3,0,0.5,0,0.7-0.3c0,0,0-0.4,0.1-0.7
	c0,0,0.4-0.2,0.6-0.3c0.2-0.1,0.4-0.4,0.1-0.8c-0.3-0.4-0.4-0.8-0.5-1.3c0.2-0.4,0.4-0.8,0.5-1.3c0.8,0.1,1.5-0.1,1.9-0.5
	c0.6-6.3-8.6-11.9-14.9-4.7c0.1,0.9,0.5,2,1.9,2.6c0.1,0.5,0.2,0.9,0.4,1.1c-0.3,0.4-0.4,0.9-0.3,1.3c-0.6-0.1-1.3-0.2-2-0.2
	c-1.4,0.1-4.5,1.1-7,2.2c-2.5,1.1-5,3.3-8.7,6.3c0,0-2.5,1.7-4.3,3.1c-1.8,1.4-3.3,3.6-4.9,7.5c0,0,0.1,0.1,0.1,0.1
	c-0.6,1.4-0.9,3.5-0.3,5.4c-0.6,0.8-0.6,1.7-0.1,2.6c0.8,0.5,1.7,0.4,2.2,0.4c1.4,1.2,2.5,1.6,2.5,1.6c0,0,0.1,0.1,0.1,0.1
	c-1.5-0.1-3.9,0.2-4.7,0.5c-0.3,1.6-0.1,4.6,0,5.9c1.9,0.8,7.1,0.4,8,0.1c0.6-0.6,1-1.2,1-1.2l0.6-0.2l1.2,3.1l-0.2,0.1l0.3,0.9
	l-0.1,0l0.4,1l0,0c-1.3,0.4-3,1.6-4.3,4.8c0,0-0.1,0-0.1,0c-0.3,0-0.6,0.2-0.6,0.5c0,0.1,0,0.1,0,0.2l-0.3,0.5
	c-1.9-0.8-4-1.2-6.2-1.2C8.2,53.1,0.3,60.9,0.2,70.6c-0.1,9.7,7.7,17.7,17.4,17.8c6.1,0.1,11.5-3,14.7-7.7l1-0.3
	c0.6,0.2,1.3,0.4,1.9,0.4c1.9-0.1,1.1-1.4,0.9-1.8c-0.1-0.2-0.5-0.5-0.9-1l0.7,0.1c0.8,0.6,1.9,1,3,1c2.8,0,5.2-2.3,5.2-5.1
	c0-0.8-0.2-1.6-0.5-2.3l3.7-2.1L47.1,69l1.6-0.8l-0.2-0.5c0.9-0.2,1.6-0.4,1.9-0.7c0.6-0.6-0.1-1.7-0.6-1.9
	c-0.2-0.1-0.6-0.1-0.9-0.2l11-11.4c0.5-0.1,1-0.3,1.6-0.5c0.1,0.3,0.3,0.5,0.5,0.6c0.1,0.4,0.2,0.9,0.4,1.4
	c-5.7,2.9-9.6,8.7-9.6,15.5c-0.1,9.7,7.7,17.7,17.4,17.8c9.7,0.1,17.7-7.7,17.8-17.4C87.9,61.1,80.1,53.2,70.3,53.1z M65,50.8
	c-0.4-0.1-0.9,0.2-1,0.5c-0.1,0.1-0.3,0.1-0.4,0.2c-0.1-0.1-0.2-0.2-0.3-0.3c-0.1-0.3-0.2-0.7-0.4-1.2c1.6-0.9,3-2.1,4.2-3.3
	c0.3-0.1,0.5-0.2,0.6-0.3c0.6-0.4,1.6-1.8,2.3-3l1,0l0-1.3c0.4-0.1,0.7-0.4,0.8-0.9c0,0,0.3-0.3,0.5-0.7c0,0,0.1,0,0.2,0
	C73,44.5,69.4,48.3,65,50.8z M59.9,41.6c0,0-0.3-0.9-0.7-2c2.3-0.6,4.2-0.5,5.6-0.2c-1,1.5-1.6,3-2,4.8c-0.5,0.1-1.1,0.3-1.6,0.4
	c-0.3-0.9-0.5-1.6-0.6-1.9c0,0,0.1,0,0.1-0.1C60.8,42.1,60.4,41.7,59.9,41.6z M62.1,47.2c0.2-0.1,0.4-0.2,0.5-0.3
	c-0.1,0.3,0,0.7,0.4,0.9c0.7-0.1,2-0.3,3.2-0.7c-1,0.9-2.1,1.7-3.3,2.5C62.6,48.9,62.3,48.1,62.1,47.2z M61.9,46.9
	c-0.1-0.3-0.2-0.6-0.3-0.9c0.3-0.1,0.6-0.1,1-0.2C62.6,46.2,62.4,46.6,61.9,46.9z M66.9,40.2c-0.1,0.6-1,2.5-1.9,3.1
	c-0.4,0.3-1.1,0.5-1.7,0.8c0.4-1.7,1-3.2,2-4.6C66.1,39.7,66.7,40,66.9,40.2z M59.9,47.2c-1.2-0.1-2.8-0.3-4.6-0.6l4.2-0.4
	C59.7,46.5,59.8,46.8,59.9,47.2z M69.3,40.7c0,0.4,0,1.2-0.1,1.6c-0.2,0.5-1.5,2.5-2.2,2.9c-0.7,0.4-1.8,0.8-4.1,1.2
	c0.1-0.2,0.1-0.5,0.2-0.8c1.1-0.3,2.3-0.7,2.9-1.2c0.9-0.7,2-2.2,2.4-4.2C68.7,40.4,69.1,40.6,69.3,40.7z M37.9,26.5
	c3.3-1.1,5.6-2.6,7.2-4c0,0,0.4,0.6,1.1,0.9c0.1,0,0.1,0,0.2,0c1,1.5,2.3,3.2,3.4,4.5c0.5,1,1.8,2.2,2.3,2.6c0.5,0.3,4,2.7,6.3,4
	c2.3,1.3,3.8,2.1,4.5,2.5c0.2,0.1,0.4,0.2,0.5,0.3c-1.1,0.2-3.3,0.5-5,0.8c-0.2-0.3-1.3-0.3-1.3,0.4C56.7,39,57,40,57.8,39.9
	c0,0,0.4,1.2,0.7,2.2c-0.4,0.4-0.3,1.2,0.1,1.4c0,0,0,0,0.1,0c0,0.2,0.2,0.5,0.3,0.9l-10.8,1.1c0.2-0.4,0.3-0.7,0.4-0.9
	c0.4-1,1.3-3.1,1.3-4.5c-0.1-1.4-1.4-2.8-2.2-3.4c-0.7-0.6-3.5-2.3-4.1-2.7c0,0,0-0.1,0-0.1c-1.1-0.5-5.6-3.1-9.1-4.5
	C35.5,28.7,37,27.6,37.9,26.5z M32.5,57.5c0,0.1-0.1,0.3-0.1,0.4c-0.2,0.7-0.4,1.5-0.6,2.3c-1.3-1.8-3-3.2-4.8-4.4l3.1-5.5
	L32.5,57.5z M40.1,41.1c0-0.1,0.1-0.1,0.2-0.2c1.4,0.6,2.2,1,2.6,1.3c-0.5,0.9-0.9,1.8-1.3,2.7c-0.6-0.9-1.1-1.6-1.4-1.9
	c0,0,0-0.1,0-0.1c-0.4-0.6-1-1.3-1.7-2.2C39,40.9,39.5,41,40.1,41.1z M32.5,72.5C32.4,72.5,32.4,72.5,32.5,72.5c0,0-0.1-1,0-1.7
	c0.4-0.5,0.5-0.8,0.4-1.3c0,0,0,0,0.1-0.1c0,0.4,0.1,0.9,0.1,1.3c0,0.6-0.1,1.2-0.1,1.7L32.5,72.5z M19.8,69.3l5.8,0
	c-0.7,0.7-1.3,1.5-1.3,1.9c0,0.1,0.1,0.2,0.1,0.3L20.2,71c0-0.1,0-0.3,0-0.4C20.2,70.1,20.1,69.7,19.8,69.3z M35.3,70.2
	c0-0.3,0-0.5,0-0.8l1.2,0C36.1,69.6,35.7,69.9,35.3,70.2z M35.3,68.9c-0.1-0.9-0.3-1.9-0.5-2.8c0.2,0.1,0.5,0.2,0.8,0.3l0.8,2.5
	L35.3,68.9z M35.1,48.6c0.8,0.8,1.6,1.5,2.2,2.2c-1.1,0.9-2.4,2.2-3.4,3.7L32.1,49L35.1,48.6z M30.9,62.9c-0.5,1.3-1.1,2.5-1.7,3.6
	c-0.5-0.1-0.9,0.4-1.3,1.5c-0.6,0.1-1.2,0.4-1.8,0.9l-6.5,0l6.3-11.1C27.9,59.1,29.6,60.8,30.9,62.9z M15.9,70.6
	c0,0.8,0.4,1.5,1,1.9l0.2,0.6l-0.9,0.6c-0.1-0.1-0.3-0.1-0.4-0.1c0,0-0.1,0-0.1,0c-2.7-1.2-3-3.5-2-4.8c0.8-1.2,2.6-1.5,4-0.2
	C16.6,68.7,15.9,69.5,15.9,70.6z M16.8,74.7l1.9-0.4l-0.1-1.6c0.4-0.1,0.7-0.3,1-0.6l5.7,0.9c0.4,0.5,0.8,1.1,1.1,1.5
	c0.3,0.4,1.1,1.3,1.9,2.2l-11.9-1.3C16.7,75.2,16.8,74.9,16.8,74.7z M41.5,69.5c-0.8-0.4-1.6-0.7-2.6-0.7c-0.1,0-0.3,0-0.4,0
	l-0.6-1.9c0.7,0.1,1.5,0.2,2.3,0.3c0.4,0,1.7,0.3,3,0.5L41.5,69.5z M30.8,45.6L30.8,45.6l-0.2-0.3c0.8,0.6,1.6,1.2,2.3,1.7l-1.4,0.1
	l-0.3-0.7l-0.1,0L30.8,45.6z M25.1,54.2c0.2-0.1,0.4-0.3,0.4-0.5c0-0.2-0.1-0.3-0.2-0.4c1.2-2.8,2.7-4,3.9-4.5l-3.4,6.3
	c-0.3-0.1-0.5-0.3-0.8-0.4L25.1,54.2z M17.6,86C9.2,85.9,2.4,79,2.5,70.6c0.1-8.4,7-15.2,15.4-15.1c2.4,0,4.7,0.6,6.8,1.7l-6.1,11.4
	c-0.1,0-0.3,0-0.4,0c-0.1,0-0.1,0-0.2,0c-1.5-1.6-3.6-1.3-4.5,0.1c-1,1.4-0.8,3.8,1.9,5.2c-0.3,0.2-0.6,0.5-0.6,1
	c0,0.6,0.5,1.1,1.1,1.1l13.2,1.6c0.3,0.4,0.6,0.7,0.8,0.9l-0.4,0l-0.3,1l1,0.6C27.3,83.5,22.7,86,17.6,86z M34.2,76.9
	c0.1-0.1,0.1-0.3,0.2-0.4c0.2,0.4,0.4,0.7,0.7,1l-0.5-0.1C34.5,77.2,34.4,77.1,34.2,76.9z M45.6,64.4c-0.7-0.1-2.2-1.5-2.5-2.4
	c0.2-0.4,0.3-1.4-0.2-1.9c0.1-0.2,0.2-0.5,0-0.8c0.8-2.7,2.4-6.5,3.2-8.4c0.4-1,0.9-2.4,1.4-3.6l6.1-0.6c2.3,0.2,4.8,0.7,6.4,0.8
	c0.2,0.7,0.5,1.5,0.7,2.2L46.3,64.5C46,64.5,45.8,64.5,45.6,64.4z M60.4,52.9l1-1c-0.1,0.2-0.1,0.4-0.1,0.6c0,0,0,0.1,0,0.1
	C60.9,52.7,60.7,52.8,60.4,52.9z M64,52.8c0-0.1,0-0.2,0-0.3c0-0.2,0-0.4-0.1-0.6c0.1,0,0.2-0.1,0.3-0.1c0.2,0.5,0.5,1.4,0.7,2.1
	c0,0,0,0,0,0c-0.2,0.1-0.4,0.1-0.6,0.2C64.2,53.7,64.1,53.2,64,52.8z M70,85.9c-8.4-0.1-15.2-7-15.1-15.4c0.1-5.8,3.3-10.8,8.1-13.4
	c0.4,0.9,0.8,1.8,1.2,2.7c0.9,2.1,3.9,7.6,5.2,9.8c-0.2,0.2-0.3,0.5-0.3,0.9c0,0.7,0.6,1.3,1.3,1.3c0.7,0,1.3-0.6,1.3-1.3
	c0-0.7-0.6-1.3-1.3-1.3c0,0,0,0,0,0c-0.8-1.9-2.6-5.9-3.4-8.1c-0.6-1.6-1.3-3.2-1.9-4.9c0.3-0.1,0.6-0.2,0.8-0.3
	c0.4,0.3,0.8,0.5,1.4,0.4c0.4-0.2,0.4-0.6,0.3-0.8c0.9-0.1,1.8-0.2,2.7-0.2c8.4,0.1,15.2,7,15.1,15.4C85.3,79.2,78.4,86,70,85.9z"/>
</svg>
